<svg width="297" height="134" viewBox="0 0 297 134" fill="none" xmlns="http://www.w3.org/2000/svg">
<rect y="0.781738" width="297" height="132.655" rx="20" fill="#FFAA5B"/>
<path d="M13.838 37.5898L21.494 20.6698H24.014L31.67 37.5898H28.55L26.87 33.6778H18.614L16.958 37.5898H13.838ZM22.718 24.0058L19.67 31.2298H25.814L22.766 24.0058H22.718ZM38.5402 37.8298C37.3082 37.8298 36.2362 37.5818 35.3242 37.0858C34.4122 36.5738 33.7082 35.8538 33.2122 34.9258C32.7162 33.9978 32.4682 32.9098 32.4682 31.6618C32.4682 30.4138 32.7162 29.3418 33.2122 28.4458C33.7082 27.5338 34.4122 26.8378 35.3242 26.3578C36.2362 25.8618 37.3082 25.6138 38.5402 25.6138C39.2922 25.6138 40.0362 25.7338 40.7722 25.9738C41.5082 26.2138 42.1162 26.5498 42.5962 26.9818L41.7082 29.0698C41.2922 28.7018 40.8202 28.4218 40.2922 28.2298C39.7802 28.0378 39.2842 27.9418 38.8042 27.9418C37.7642 27.9418 36.9562 28.2698 36.3802 28.9258C35.8202 29.5658 35.5402 30.4858 35.5402 31.6858C35.5402 32.8698 35.8202 33.8058 36.3802 34.4938C36.9562 35.1658 37.7642 35.5018 38.8042 35.5018C39.2682 35.5018 39.7642 35.4058 40.2922 35.2138C40.8202 35.0218 41.2922 34.7338 41.7082 34.3498L42.5962 36.4618C42.1162 36.8778 41.5002 37.2138 40.7482 37.4698C40.0122 37.7098 39.2762 37.8298 38.5402 37.8298ZM49.8593 37.8298C46.7553 37.8298 45.2033 36.2938 45.2033 33.2218V28.1098H42.9473V25.8538H45.2033V22.3498H48.2033V25.8538H51.7553V28.1098H48.2033V33.0538C48.2033 33.8218 48.3713 34.3978 48.7073 34.7818C49.0433 35.1658 49.5873 35.3578 50.3393 35.3578C50.5633 35.3578 50.7953 35.3338 51.0353 35.2858C51.2753 35.2218 51.5233 35.1578 51.7793 35.0938L52.2353 37.3018C51.9473 37.4618 51.5793 37.5898 51.1313 37.6858C50.6993 37.7818 50.2753 37.8298 49.8593 37.8298ZM57.9423 37.8298C55.0623 37.8298 53.6223 36.2138 53.6223 32.9818V25.8538H56.6223V33.0298C56.6223 33.8618 56.7903 34.4778 57.1263 34.8778C57.4623 35.2778 57.9983 35.4778 58.7343 35.4778C59.5343 35.4778 60.1903 35.2058 60.7023 34.6618C61.2143 34.1018 61.4703 33.3658 61.4703 32.4538V25.8538H64.4703V37.5898H61.5423V35.8378C60.7583 37.1658 59.5583 37.8298 57.9423 37.8298ZM71.4567 37.8298C70.6087 37.8298 69.8487 37.6698 69.1767 37.3498C68.5207 37.0138 68.0007 36.5658 67.6167 36.0058C67.2487 35.4458 67.0647 34.8138 67.0647 34.1098C67.0647 33.2458 67.2887 32.5658 67.7367 32.0698C68.1847 31.5578 68.9127 31.1898 69.9207 30.9658C70.9287 30.7418 72.2807 30.6298 73.9767 30.6298H74.8167V30.1258C74.8167 29.3258 74.6407 28.7498 74.2887 28.3978C73.9367 28.0458 73.3447 27.8698 72.5127 27.8698C71.8567 27.8698 71.1847 27.9738 70.4967 28.1818C69.8087 28.3738 69.1127 28.6778 68.4087 29.0938L67.5447 27.0538C67.9607 26.7658 68.4487 26.5178 69.0087 26.3098C69.5847 26.0858 70.1847 25.9178 70.8087 25.8058C71.4487 25.6778 72.0487 25.6138 72.6087 25.6138C74.3207 25.6138 75.5927 26.0138 76.4247 26.8138C77.2567 27.5978 77.6727 28.8218 77.6727 30.4858V37.5898H74.8647V35.7178C74.5927 36.3738 74.1607 36.8938 73.5687 37.2778C72.9767 37.6458 72.2727 37.8298 71.4567 37.8298ZM72.0807 35.7658C72.8647 35.7658 73.5127 35.4938 74.0247 34.9498C74.5527 34.4058 74.8167 33.7178 74.8167 32.8858V32.3578H74.0007C72.4967 32.3578 71.4487 32.4778 70.8567 32.7178C70.2807 32.9418 69.9927 33.3578 69.9927 33.9658C69.9927 34.4938 70.1767 34.9258 70.5447 35.2618C70.9127 35.5978 71.4247 35.7658 72.0807 35.7658ZM84.7977 37.8298C83.4057 37.8298 82.3737 37.4538 81.7017 36.7018C81.0457 35.9338 80.7177 34.8138 80.7177 33.3418V20.6698H83.7177V33.1978C83.7177 34.6378 84.3257 35.3578 85.5417 35.3578C85.7177 35.3578 85.8937 35.3498 86.0697 35.3338C86.2457 35.3178 86.4137 35.2858 86.5737 35.2378L86.5257 37.6138C85.9497 37.7578 85.3737 37.8298 84.7977 37.8298ZM103.011 37.8298C101.251 37.8298 99.7385 37.4778 98.4745 36.7738C97.2265 36.0538 96.2665 35.0458 95.5945 33.7498C94.9225 32.4378 94.5865 30.8938 94.5865 29.1178C94.5865 27.3418 94.9225 25.8058 95.5945 24.5098C96.2665 23.2138 97.2265 22.2138 98.4745 21.5098C99.7385 20.7898 101.251 20.4298 103.011 20.4298C104.147 20.4298 105.219 20.6058 106.227 20.9578C107.251 21.3098 108.091 21.8138 108.747 22.4698L107.739 24.9178C107.019 24.3098 106.283 23.8698 105.531 23.5978C104.779 23.3098 103.971 23.1658 103.107 23.1658C101.395 23.1658 100.091 23.6858 99.1945 24.7258C98.2985 25.7498 97.8505 27.2138 97.8505 29.1178C97.8505 31.0218 98.2985 32.4938 99.1945 33.5338C100.091 34.5738 101.395 35.0938 103.107 35.0938C103.971 35.0938 104.779 34.9578 105.531 34.6858C106.283 34.3978 107.019 33.9498 107.739 33.3418L108.747 35.7898C108.091 36.4298 107.251 36.9338 106.227 37.3018C105.219 37.6538 104.147 37.8298 103.011 37.8298ZM115.648 37.8298C114.432 37.8298 113.376 37.5818 112.48 37.0858C111.584 36.5898 110.888 35.8858 110.392 34.9738C109.896 34.0458 109.648 32.9578 109.648 31.7098C109.648 30.4618 109.896 29.3818 110.392 28.4698C110.888 27.5578 111.584 26.8538 112.48 26.3578C113.376 25.8618 114.432 25.6138 115.648 25.6138C116.864 25.6138 117.92 25.8618 118.816 26.3578C119.712 26.8538 120.408 27.5578 120.904 28.4698C121.4 29.3818 121.648 30.4618 121.648 31.7098C121.648 32.9578 121.4 34.0458 120.904 34.9738C120.408 35.8858 119.712 36.5898 118.816 37.0858C117.92 37.5818 116.864 37.8298 115.648 37.8298ZM115.648 35.5498C116.544 35.5498 117.264 35.2298 117.808 34.5898C118.352 33.9338 118.624 32.9738 118.624 31.7098C118.624 30.4298 118.352 29.4778 117.808 28.8538C117.264 28.2138 116.544 27.8938 115.648 27.8938C114.752 27.8938 114.032 28.2138 113.488 28.8538C112.944 29.4778 112.672 30.4298 112.672 31.7098C112.672 32.9738 112.944 33.9338 113.488 34.5898C114.032 35.2298 114.752 35.5498 115.648 35.5498ZM128.42 37.8298C127.428 37.8298 126.5 37.7098 125.636 37.4698C124.772 37.2298 124.052 36.8858 123.476 36.4378L124.244 34.4698C124.836 34.8698 125.5 35.1818 126.236 35.4058C126.972 35.6138 127.708 35.7178 128.444 35.7178C129.212 35.7178 129.78 35.5898 130.148 35.3338C130.532 35.0618 130.724 34.7098 130.724 34.2778C130.724 33.6058 130.228 33.1738 129.236 32.9818L126.836 32.5258C124.804 32.1418 123.788 31.0858 123.788 29.3578C123.788 28.5898 123.996 27.9258 124.412 27.3658C124.844 26.8058 125.436 26.3738 126.188 26.0698C126.94 25.7658 127.804 25.6138 128.78 25.6138C129.612 25.6138 130.412 25.7338 131.18 25.9738C131.948 26.1978 132.604 26.5418 133.148 27.0058L132.332 28.9738C131.868 28.5898 131.308 28.2858 130.652 28.0618C130.012 27.8378 129.396 27.7258 128.804 27.7258C128.02 27.7258 127.436 27.8618 127.052 28.1338C126.684 28.4058 126.5 28.7658 126.5 29.2138C126.5 29.9178 126.956 30.3498 127.868 30.5098L130.268 30.9658C131.308 31.1578 132.092 31.5098 132.62 32.0218C133.164 32.5338 133.436 33.2218 133.436 34.0858C133.436 35.2538 132.98 36.1738 132.068 36.8458C131.156 37.5018 129.94 37.8298 128.42 37.8298ZM141.102 37.8298C137.998 37.8298 136.446 36.2938 136.446 33.2218V28.1098H134.19V25.8538H136.446V22.3498H139.446V25.8538H142.998V28.1098H139.446V33.0538C139.446 33.8218 139.614 34.3978 139.95 34.7818C140.286 35.1658 140.83 35.3578 141.582 35.3578C141.806 35.3578 142.038 35.3338 142.278 35.2858C142.518 35.2218 142.766 35.1578 143.022 35.0938L143.478 37.3018C143.19 37.4618 142.822 37.5898 142.374 37.6858C141.942 37.7818 141.518 37.8298 141.102 37.8298Z" fill="white"/>
<path d="M15.078 98V88.13H21.644V89.558H16.8V92.274H21.336V93.702H16.8V96.572H21.644V98H15.078ZM22.3115 98L25.1815 94.458L22.4935 91.154H24.5375L26.1895 93.268L27.8415 91.154H29.8855L27.1835 94.472L30.0675 98H28.0095L26.1755 95.69L24.3555 98H22.3115ZM30.9061 100.52V91.154H32.6141V92.246C32.8101 91.8727 33.1041 91.574 33.4961 91.35C33.8974 91.126 34.3501 91.014 34.8541 91.014C35.4514 91.014 35.9741 91.1587 36.4221 91.448C36.8794 91.7373 37.2341 92.148 37.4861 92.68C37.7381 93.2027 37.8641 93.8327 37.8641 94.57C37.8641 95.298 37.7381 95.9327 37.4861 96.474C37.2341 97.006 36.8841 97.4167 36.4361 97.706C35.9881 97.9953 35.4608 98.14 34.8541 98.14C34.3688 98.14 33.9301 98.0373 33.5381 97.832C33.1554 97.6173 32.8614 97.3327 32.6561 96.978V100.52H30.9061ZM34.3641 96.81C34.8868 96.81 35.3068 96.6233 35.6241 96.25C35.9414 95.8673 36.1001 95.3073 36.1001 94.57C36.1001 93.8233 35.9414 93.268 35.6241 92.904C35.3068 92.5307 34.8868 92.344 34.3641 92.344C33.8414 92.344 33.4214 92.5307 33.1041 92.904C32.7868 93.268 32.6281 93.8233 32.6281 94.57C32.6281 95.3073 32.7868 95.8673 33.1041 96.25C33.4214 96.6233 33.8414 96.81 34.3641 96.81ZM41.6806 98.14C40.8686 98.14 40.2666 97.9207 39.8746 97.482C39.492 97.034 39.3006 96.3807 39.3006 95.522V88.13H41.0506V95.438C41.0506 96.278 41.4053 96.698 42.1146 96.698C42.2173 96.698 42.32 96.6933 42.4226 96.684C42.5253 96.6747 42.6233 96.656 42.7166 96.628L42.6886 98.014C42.3526 98.098 42.0166 98.14 41.6806 98.14ZM46.0253 98.14C45.5307 98.14 45.0873 98.0467 44.6953 97.86C44.3127 97.664 44.0093 97.4027 43.7853 97.076C43.5707 96.7493 43.4633 96.3807 43.4633 95.97C43.4633 95.466 43.594 95.0693 43.8553 94.78C44.1167 94.4813 44.5413 94.2667 45.1293 94.136C45.7173 94.0053 46.506 93.94 47.4953 93.94H47.9853V93.646C47.9853 93.1793 47.8827 92.8433 47.6773 92.638C47.472 92.4327 47.1267 92.33 46.6413 92.33C46.2587 92.33 45.8667 92.3907 45.4653 92.512C45.064 92.624 44.658 92.8013 44.2473 93.044L43.7433 91.854C43.986 91.686 44.2707 91.5413 44.5973 91.42C44.9333 91.2893 45.2833 91.1913 45.6473 91.126C46.0207 91.0513 46.3707 91.014 46.6973 91.014C47.696 91.014 48.438 91.2473 48.9233 91.714C49.4087 92.1713 49.6513 92.8853 49.6513 93.856V98H48.0133V96.908C47.8547 97.2907 47.6027 97.594 47.2573 97.818C46.912 98.0327 46.5013 98.14 46.0253 98.14ZM46.3893 96.936C46.8467 96.936 47.2247 96.7773 47.5233 96.46C47.8313 96.1427 47.9853 95.7413 47.9853 95.256V94.948H47.5093C46.632 94.948 46.0207 95.018 45.6753 95.158C45.3393 95.2887 45.1713 95.5313 45.1713 95.886C45.1713 96.194 45.2787 96.446 45.4933 96.642C45.708 96.838 46.0067 96.936 46.3893 96.936ZM51.4276 98V91.154H53.1356V92.218C53.3689 91.826 53.6816 91.5273 54.0736 91.322C54.4749 91.1167 54.9229 91.014 55.4176 91.014C57.0322 91.014 57.8396 91.952 57.8396 93.828V98H56.0896V93.912C56.0896 93.38 55.9869 92.9927 55.7816 92.75C55.5856 92.5073 55.2776 92.386 54.8576 92.386C54.3442 92.386 53.9336 92.5493 53.6256 92.876C53.3269 93.1933 53.1776 93.618 53.1776 94.15V98H51.4276ZM61.871 98.14C61.3764 98.14 60.933 98.0467 60.541 97.86C60.1584 97.664 59.855 97.4027 59.631 97.076C59.4164 96.7493 59.309 96.3807 59.309 95.97C59.309 95.466 59.4397 95.0693 59.701 94.78C59.9624 94.4813 60.387 94.2667 60.975 94.136C61.563 94.0053 62.3517 93.94 63.341 93.94H63.831V93.646C63.831 93.1793 63.7284 92.8433 63.523 92.638C63.3177 92.4327 62.9724 92.33 62.487 92.33C62.1044 92.33 61.7124 92.3907 61.311 92.512C60.9097 92.624 60.5037 92.8013 60.093 93.044L59.589 91.854C59.8317 91.686 60.1164 91.5413 60.443 91.42C60.779 91.2893 61.129 91.1913 61.493 91.126C61.8664 91.0513 62.2164 91.014 62.543 91.014C63.5417 91.014 64.2837 91.2473 64.769 91.714C65.2544 92.1713 65.497 92.8853 65.497 93.856V98H63.859V96.908C63.7004 97.2907 63.4484 97.594 63.103 97.818C62.7577 98.0327 62.347 98.14 61.871 98.14ZM62.235 96.936C62.6924 96.936 63.0704 96.7773 63.369 96.46C63.677 96.1427 63.831 95.7413 63.831 95.256V94.948H63.355C62.4777 94.948 61.8664 95.018 61.521 95.158C61.185 95.2887 61.017 95.5313 61.017 95.886C61.017 96.194 61.1244 96.446 61.339 96.642C61.5537 96.838 61.8524 96.936 62.235 96.936ZM70.4093 98.14C68.5986 98.14 67.6933 97.244 67.6933 95.452V92.47H66.3773V91.154H67.6933V89.11H69.4433V91.154H71.5153V92.47H69.4433V95.354C69.4433 95.802 69.5413 96.138 69.7373 96.362C69.9333 96.586 70.2506 96.698 70.6893 96.698C70.8199 96.698 70.9553 96.684 71.0953 96.656C71.2353 96.6187 71.3799 96.5813 71.5293 96.544L71.7953 97.832C71.6273 97.9253 71.4126 98 71.1513 98.056C70.8993 98.112 70.6519 98.14 70.4093 98.14ZM72.5343 89.684V87.976H74.4943V89.684H72.5343ZM72.6463 98V91.154H74.3963V98H72.6463ZM79.3367 98.14C78.6274 98.14 78.0114 97.9953 77.4887 97.706C76.966 97.4167 76.56 97.006 76.2707 96.474C75.9814 95.9327 75.8367 95.298 75.8367 94.57C75.8367 93.842 75.9814 93.212 76.2707 92.68C76.56 92.148 76.966 91.7373 77.4887 91.448C78.0114 91.1587 78.6274 91.014 79.3367 91.014C80.046 91.014 80.662 91.1587 81.1847 91.448C81.7074 91.7373 82.1134 92.148 82.4027 92.68C82.692 93.212 82.8367 93.842 82.8367 94.57C82.8367 95.298 82.692 95.9327 82.4027 96.474C82.1134 97.006 81.7074 97.4167 81.1847 97.706C80.662 97.9953 80.046 98.14 79.3367 98.14ZM79.3367 96.81C79.8594 96.81 80.2794 96.6233 80.5967 96.25C80.914 95.8673 81.0727 95.3073 81.0727 94.57C81.0727 93.8233 80.914 93.268 80.5967 92.904C80.2794 92.5307 79.8594 92.344 79.3367 92.344C78.814 92.344 78.394 92.5307 78.0767 92.904C77.7594 93.268 77.6007 93.8233 77.6007 94.57C77.6007 95.3073 77.7594 95.8673 78.0767 96.25C78.394 96.6233 78.814 96.81 79.3367 96.81ZM84.2811 98V91.154H85.9891V92.218C86.2224 91.826 86.5351 91.5273 86.9271 91.322C87.3284 91.1167 87.7764 91.014 88.2711 91.014C89.8858 91.014 90.6931 91.952 90.6931 93.828V98H88.9431V93.912C88.9431 93.38 88.8404 92.9927 88.6351 92.75C88.4391 92.5073 88.1311 92.386 87.7111 92.386C87.1978 92.386 86.7871 92.5493 86.4791 92.876C86.1804 93.1933 86.0311 93.618 86.0311 94.15V98H84.2811ZM98.498 98.14C98.0033 98.14 97.56 98.0467 97.168 97.86C96.7853 97.664 96.482 97.4027 96.258 97.076C96.0433 96.7493 95.936 96.3807 95.936 95.97C95.936 95.466 96.0667 95.0693 96.328 94.78C96.5893 94.4813 97.014 94.2667 97.602 94.136C98.19 94.0053 98.9787 93.94 99.968 93.94H100.458V93.646C100.458 93.1793 100.355 92.8433 100.15 92.638C99.9447 92.4327 99.5993 92.33 99.114 92.33C98.7313 92.33 98.3393 92.3907 97.938 92.512C97.5367 92.624 97.1307 92.8013 96.72 93.044L96.216 91.854C96.4587 91.686 96.7433 91.5413 97.07 91.42C97.406 91.2893 97.756 91.1913 98.12 91.126C98.4933 91.0513 98.8433 91.014 99.17 91.014C100.169 91.014 100.911 91.2473 101.396 91.714C101.881 92.1713 102.124 92.8853 102.124 93.856V98H100.486V96.908C100.327 97.2907 100.075 97.594 99.73 97.818C99.3847 98.0327 98.974 98.14 98.498 98.14ZM98.862 96.936C99.3193 96.936 99.6973 96.7773 99.996 96.46C100.304 96.1427 100.458 95.7413 100.458 95.256V94.948H99.982C99.1047 94.948 98.4933 95.018 98.148 95.158C97.812 95.2887 97.644 95.5313 97.644 95.886C97.644 96.194 97.7513 96.446 97.966 96.642C98.1807 96.838 98.4793 96.936 98.862 96.936ZM107.848 98.14C107.344 98.14 106.892 98.028 106.49 97.804C106.098 97.58 105.804 97.2767 105.608 96.894V98H103.9V88.13H105.65V92.162C105.856 91.8167 106.15 91.5413 106.532 91.336C106.924 91.1213 107.363 91.014 107.848 91.014C108.455 91.014 108.982 91.1587 109.43 91.448C109.878 91.7373 110.228 92.148 110.48 92.68C110.732 93.2027 110.858 93.8327 110.858 94.57C110.858 95.298 110.732 95.9327 110.48 96.474C110.228 97.006 109.874 97.4167 109.416 97.706C108.968 97.9953 108.446 98.14 107.848 98.14ZM107.358 96.81C107.881 96.81 108.301 96.6233 108.618 96.25C108.936 95.8673 109.094 95.3073 109.094 94.57C109.094 93.8233 108.936 93.268 108.618 92.904C108.301 92.5307 107.881 92.344 107.358 92.344C106.836 92.344 106.416 92.5307 106.098 92.904C105.781 93.268 105.622 93.8233 105.622 94.57C105.622 95.3073 105.781 95.8673 106.098 96.25C106.416 96.6233 106.836 96.81 107.358 96.81ZM115.417 98.14C114.707 98.14 114.091 97.9953 113.569 97.706C113.046 97.4167 112.64 97.006 112.351 96.474C112.061 95.9327 111.917 95.298 111.917 94.57C111.917 93.842 112.061 93.212 112.351 92.68C112.64 92.148 113.046 91.7373 113.569 91.448C114.091 91.1587 114.707 91.014 115.417 91.014C116.126 91.014 116.742 91.1587 117.265 91.448C117.787 91.7373 118.193 92.148 118.483 92.68C118.772 93.212 118.917 93.842 118.917 94.57C118.917 95.298 118.772 95.9327 118.483 96.474C118.193 97.006 117.787 97.4167 117.265 97.706C116.742 97.9953 116.126 98.14 115.417 98.14ZM115.417 96.81C115.939 96.81 116.359 96.6233 116.677 96.25C116.994 95.8673 117.153 95.3073 117.153 94.57C117.153 93.8233 116.994 93.268 116.677 92.904C116.359 92.5307 115.939 92.344 115.417 92.344C114.894 92.344 114.474 92.5307 114.157 92.904C113.839 93.268 113.681 93.8233 113.681 94.57C113.681 95.3073 113.839 95.8673 114.157 96.25C114.474 96.6233 114.894 96.81 115.417 96.81ZM122.839 98.14C121.159 98.14 120.319 97.1973 120.319 95.312V91.154H122.069V95.34C122.069 95.8253 122.167 96.1847 122.363 96.418C122.559 96.6513 122.872 96.768 123.301 96.768C123.768 96.768 124.151 96.6093 124.449 96.292C124.748 95.9653 124.897 95.536 124.897 95.004V91.154H126.647V98H124.939V96.978C124.482 97.7527 123.782 98.14 122.839 98.14ZM131.605 98.14C129.794 98.14 128.889 97.244 128.889 95.452V92.47H127.573V91.154H128.889V89.11H130.639V91.154H132.711V92.47H130.639V95.354C130.639 95.802 130.737 96.138 130.933 96.362C131.129 96.586 131.446 96.698 131.885 96.698C132.015 96.698 132.151 96.684 132.291 96.656C132.431 96.6187 132.575 96.5813 132.725 96.544L132.991 97.832C132.823 97.9253 132.608 98 132.347 98.056C132.095 98.112 131.847 98.14 131.605 98.14ZM142.501 89.684V87.976H144.447V89.684H142.501ZM138.077 98V92.47H136.761V91.154H138.077V91.14C138.077 90.1693 138.329 89.4367 138.833 88.942C139.346 88.4473 140.14 88.1673 141.213 88.102L141.829 88.074L141.913 89.362L141.367 89.39C140.807 89.4273 140.41 89.5673 140.177 89.81C139.944 90.0433 139.827 90.3933 139.827 90.86V91.154H144.349V98H142.599V92.47H139.827V98H138.077ZM145.222 98L148.092 94.458L145.404 91.154H147.448L149.1 93.268L150.752 91.154H152.796L150.094 94.472L152.978 98H150.92L149.086 95.69L147.266 98H145.222ZM157.013 98.14C156.238 98.14 155.571 97.9953 155.011 97.706C154.451 97.4167 154.017 97.006 153.709 96.474C153.41 95.942 153.261 95.312 153.261 94.584C153.261 93.8747 153.405 93.254 153.695 92.722C153.993 92.19 154.399 91.7747 154.913 91.476C155.435 91.168 156.028 91.014 156.691 91.014C157.661 91.014 158.427 91.322 158.987 91.938C159.556 92.554 159.841 93.394 159.841 94.458V94.976H154.941C155.071 96.1987 155.771 96.81 157.041 96.81C157.423 96.81 157.806 96.754 158.189 96.642C158.571 96.5207 158.921 96.334 159.239 96.082L159.729 97.258C159.402 97.5287 158.991 97.7433 158.497 97.902C158.002 98.0607 157.507 98.14 157.013 98.14ZM156.761 92.204C156.247 92.204 155.832 92.3627 155.515 92.68C155.197 92.9973 155.006 93.4267 154.941 93.968H158.385C158.347 93.3987 158.189 92.9647 157.909 92.666C157.638 92.358 157.255 92.204 156.761 92.204ZM163.858 98.14C163.261 98.14 162.734 97.9953 162.276 97.706C161.828 97.4167 161.478 97.006 161.226 96.474C160.974 95.9327 160.848 95.298 160.848 94.57C160.848 93.8327 160.974 93.2027 161.226 92.68C161.478 92.148 161.828 91.7373 162.276 91.448C162.734 91.1587 163.261 91.014 163.858 91.014C164.344 91.014 164.782 91.1213 165.174 91.336C165.566 91.5507 165.86 91.8353 166.056 92.19V88.13H167.806V98H166.098V96.866C165.912 97.258 165.618 97.5707 165.216 97.804C164.815 98.028 164.362 98.14 163.858 98.14ZM164.348 96.81C164.871 96.81 165.291 96.6233 165.608 96.25C165.926 95.8673 166.084 95.3073 166.084 94.57C166.084 93.8233 165.926 93.268 165.608 92.904C165.291 92.5307 164.871 92.344 164.348 92.344C163.826 92.344 163.406 92.5307 163.088 92.904C162.771 93.268 162.612 93.8233 162.612 94.57C162.612 95.3073 162.771 95.8673 163.088 96.25C163.406 96.6233 163.826 96.81 164.348 96.81ZM176.558 98.14C175.84 98.14 175.214 97.9953 174.682 97.706C174.15 97.4073 173.74 96.9873 173.45 96.446C173.161 95.9047 173.016 95.27 173.016 94.542C173.016 93.814 173.161 93.1887 173.45 92.666C173.74 92.134 174.15 91.728 174.682 91.448C175.214 91.1587 175.84 91.014 176.558 91.014C176.997 91.014 177.431 91.084 177.86 91.224C178.29 91.364 178.644 91.56 178.924 91.812L178.406 93.03C178.164 92.8153 177.888 92.652 177.58 92.54C177.282 92.428 176.992 92.372 176.712 92.372C176.106 92.372 175.634 92.5633 175.298 92.946C174.972 93.3193 174.808 93.856 174.808 94.556C174.808 95.2467 174.972 95.7927 175.298 96.194C175.634 96.586 176.106 96.782 176.712 96.782C176.983 96.782 177.272 96.726 177.58 96.614C177.888 96.502 178.164 96.334 178.406 96.11L178.924 97.342C178.644 97.5847 178.285 97.7807 177.846 97.93C177.417 98.07 176.988 98.14 176.558 98.14ZM182.983 98.14C182.274 98.14 181.658 97.9953 181.135 97.706C180.613 97.4167 180.207 97.006 179.917 96.474C179.628 95.9327 179.483 95.298 179.483 94.57C179.483 93.842 179.628 93.212 179.917 92.68C180.207 92.148 180.613 91.7373 181.135 91.448C181.658 91.1587 182.274 91.014 182.983 91.014C183.693 91.014 184.309 91.1587 184.831 91.448C185.354 91.7373 185.76 92.148 186.049 92.68C186.339 93.212 186.483 93.842 186.483 94.57C186.483 95.298 186.339 95.9327 186.049 96.474C185.76 97.006 185.354 97.4167 184.831 97.706C184.309 97.9953 183.693 98.14 182.983 98.14ZM182.983 96.81C183.506 96.81 183.926 96.6233 184.243 96.25C184.561 95.8673 184.719 95.3073 184.719 94.57C184.719 93.8233 184.561 93.268 184.243 92.904C183.926 92.5307 183.506 92.344 182.983 92.344C182.461 92.344 182.041 92.5307 181.723 92.904C181.406 93.268 181.247 93.8233 181.247 94.57C181.247 95.3073 181.406 95.8673 181.723 96.25C182.041 96.6233 182.461 96.81 182.983 96.81ZM190.434 98.14C189.855 98.14 189.314 98.07 188.81 97.93C188.306 97.79 187.886 97.5893 187.55 97.328L187.998 96.18C188.343 96.4133 188.73 96.5953 189.16 96.726C189.589 96.8473 190.018 96.908 190.448 96.908C190.896 96.908 191.227 96.8333 191.442 96.684C191.666 96.5253 191.778 96.32 191.778 96.068C191.778 95.676 191.488 95.424 190.91 95.312L189.51 95.046C188.324 94.822 187.732 94.206 187.732 93.198C187.732 92.75 187.853 92.3627 188.096 92.036C188.348 91.7093 188.693 91.4573 189.132 91.28C189.57 91.1027 190.074 91.014 190.644 91.014C191.129 91.014 191.596 91.084 192.044 91.224C192.492 91.3547 192.874 91.5553 193.192 91.826L192.716 92.974C192.445 92.75 192.118 92.5727 191.736 92.442C191.362 92.3113 191.003 92.246 190.658 92.246C190.2 92.246 189.86 92.3253 189.636 92.484C189.421 92.6427 189.314 92.8527 189.314 93.114C189.314 93.5247 189.58 93.7767 190.112 93.87L191.512 94.136C192.118 94.248 192.576 94.4533 192.884 94.752C193.201 95.0507 193.36 95.452 193.36 95.956C193.36 96.6373 193.094 97.174 192.562 97.566C192.03 97.9487 191.32 98.14 190.434 98.14ZM197.831 98.14C196.02 98.14 195.115 97.244 195.115 95.452V92.47H193.799V91.154H195.115V89.11H196.865V91.154H198.937V92.47H196.865V95.354C196.865 95.802 196.963 96.138 197.159 96.362C197.355 96.586 197.672 96.698 198.111 96.698C198.242 96.698 198.377 96.684 198.517 96.656C198.657 96.6187 198.802 96.5813 198.951 96.544L199.217 97.832C199.049 97.9253 198.834 98 198.573 98.056C198.321 98.112 198.074 98.14 197.831 98.14ZM206.096 98.14C205.601 98.14 205.158 98.0467 204.766 97.86C204.383 97.664 204.08 97.4027 203.856 97.076C203.641 96.7493 203.534 96.3807 203.534 95.97C203.534 95.466 203.664 95.0693 203.926 94.78C204.187 94.4813 204.612 94.2667 205.2 94.136C205.788 94.0053 206.576 93.94 207.566 93.94H208.056V93.646C208.056 93.1793 207.953 92.8433 207.748 92.638C207.542 92.4327 207.197 92.33 206.712 92.33C206.329 92.33 205.937 92.3907 205.536 92.512C205.134 92.624 204.728 92.8013 204.318 93.044L203.814 91.854C204.056 91.686 204.341 91.5413 204.668 91.42C205.004 91.2893 205.354 91.1913 205.718 91.126C206.091 91.0513 206.441 91.014 206.768 91.014C207.766 91.014 208.508 91.2473 208.994 91.714C209.479 92.1713 209.722 92.8853 209.722 93.856V98H208.084V96.908C207.925 97.2907 207.673 97.594 207.328 97.818C206.982 98.0327 206.572 98.14 206.096 98.14ZM206.46 96.936C206.917 96.936 207.295 96.7773 207.594 96.46C207.902 96.1427 208.056 95.7413 208.056 95.256V94.948H207.58C206.702 94.948 206.091 95.018 205.746 95.158C205.41 95.2887 205.242 95.5313 205.242 95.886C205.242 96.194 205.349 96.446 205.564 96.642C205.778 96.838 206.077 96.936 206.46 96.936ZM211.498 98V91.154H213.206V92.218C213.439 91.826 213.752 91.5273 214.144 91.322C214.545 91.1167 214.993 91.014 215.488 91.014C217.103 91.014 217.91 91.952 217.91 93.828V98H216.16V93.912C216.16 93.38 216.057 92.9927 215.852 92.75C215.656 92.5073 215.348 92.386 214.928 92.386C214.415 92.386 214.004 92.5493 213.696 92.876C213.397 93.1933 213.248 93.618 213.248 94.15V98H211.498ZM222.319 98.14C221.722 98.14 221.195 97.9953 220.737 97.706C220.289 97.4167 219.939 97.006 219.687 96.474C219.435 95.9327 219.309 95.298 219.309 94.57C219.309 93.8327 219.435 93.2027 219.687 92.68C219.939 92.148 220.289 91.7373 220.737 91.448C221.195 91.1587 221.722 91.014 222.319 91.014C222.805 91.014 223.243 91.1213 223.635 91.336C224.027 91.5507 224.321 91.8353 224.517 92.19V88.13H226.267V98H224.559V96.866C224.373 97.258 224.079 97.5707 223.677 97.804C223.276 98.028 222.823 98.14 222.319 98.14ZM222.809 96.81C223.332 96.81 223.752 96.6233 224.069 96.25C224.387 95.8673 224.545 95.3073 224.545 94.57C224.545 93.8233 224.387 93.268 224.069 92.904C223.752 92.5307 223.332 92.344 222.809 92.344C222.287 92.344 221.867 92.5307 221.549 92.904C221.232 93.268 221.073 93.8233 221.073 94.57C221.073 95.3073 221.232 95.8673 221.549 96.25C221.867 96.6233 222.287 96.81 222.809 96.81ZM233.871 98L230.903 91.154H232.765L234.669 95.942L236.643 91.154H238.393L235.383 98H233.871ZM241.355 98.14C240.861 98.14 240.417 98.0467 240.025 97.86C239.643 97.664 239.339 97.4027 239.115 97.076C238.901 96.7493 238.793 96.3807 238.793 95.97C238.793 95.466 238.924 95.0693 239.185 94.78C239.447 94.4813 239.871 94.2667 240.459 94.136C241.047 94.0053 241.836 93.94 242.825 93.94H243.315V93.646C243.315 93.1793 243.213 92.8433 243.007 92.638C242.802 92.4327 242.457 92.33 241.971 92.33C241.589 92.33 241.197 92.3907 240.795 92.512C240.394 92.624 239.988 92.8013 239.577 93.044L239.073 91.854C239.316 91.686 239.601 91.5413 239.927 91.42C240.263 91.2893 240.613 91.1913 240.977 91.126C241.351 91.0513 241.701 91.014 242.027 91.014C243.026 91.014 243.768 91.2473 244.253 91.714C244.739 92.1713 244.981 92.8853 244.981 93.856V98H243.343V96.908C243.185 97.2907 242.933 97.594 242.587 97.818C242.242 98.0327 241.831 98.14 241.355 98.14ZM241.719 96.936C242.177 96.936 242.555 96.7773 242.853 96.46C243.161 96.1427 243.315 95.7413 243.315 95.256V94.948H242.839C241.962 94.948 241.351 95.018 241.005 95.158C240.669 95.2887 240.501 95.5313 240.501 95.886C240.501 96.194 240.609 96.446 240.823 96.642C241.038 96.838 241.337 96.936 241.719 96.936ZM246.758 98V91.154H248.466V92.358C248.802 91.546 249.52 91.098 250.622 91.014L251.154 90.972L251.266 92.456L250.258 92.554C249.11 92.666 248.536 93.254 248.536 94.318V98H246.758ZM252.128 89.684V87.976H254.088V89.684H252.128ZM252.24 98V91.154H253.99V98H252.24ZM258.062 98.14C257.568 98.14 257.124 98.0467 256.732 97.86C256.35 97.664 256.046 97.4027 255.822 97.076C255.608 96.7493 255.5 96.3807 255.5 95.97C255.5 95.466 255.631 95.0693 255.892 94.78C256.154 94.4813 256.578 94.2667 257.166 94.136C257.754 94.0053 258.543 93.94 259.532 93.94H260.022V93.646C260.022 93.1793 259.92 92.8433 259.714 92.638C259.509 92.4327 259.164 92.33 258.678 92.33C258.296 92.33 257.904 92.3907 257.502 92.512C257.101 92.624 256.695 92.8013 256.284 93.044L255.78 91.854C256.023 91.686 256.308 91.5413 256.634 91.42C256.97 91.2893 257.32 91.1913 257.684 91.126C258.058 91.0513 258.408 91.014 258.734 91.014C259.733 91.014 260.475 91.2473 260.96 91.714C261.446 92.1713 261.688 92.8853 261.688 93.856V98H260.05V96.908C259.892 97.2907 259.64 97.594 259.294 97.818C258.949 98.0327 258.538 98.14 258.062 98.14ZM258.426 96.936C258.884 96.936 259.262 96.7773 259.56 96.46C259.868 96.1427 260.022 95.7413 260.022 95.256V94.948H259.546C258.669 94.948 258.058 95.018 257.712 95.158C257.376 95.2887 257.208 95.5313 257.208 95.886C257.208 96.194 257.316 96.446 257.53 96.642C257.745 96.838 258.044 96.936 258.426 96.936ZM267.413 98.14C266.909 98.14 266.456 98.028 266.055 97.804C265.663 97.58 265.369 97.2767 265.173 96.894V98H263.465V88.13H265.215V92.162C265.42 91.8167 265.714 91.5413 266.097 91.336C266.489 91.1213 266.927 91.014 267.413 91.014C268.019 91.014 268.547 91.1587 268.995 91.448C269.443 91.7373 269.793 92.148 270.045 92.68C270.297 93.2027 270.423 93.8327 270.423 94.57C270.423 95.298 270.297 95.9327 270.045 96.474C269.793 97.006 269.438 97.4167 268.981 97.706C268.533 97.9953 268.01 98.14 267.413 98.14ZM266.923 96.81C267.445 96.81 267.865 96.6233 268.183 96.25C268.5 95.8673 268.659 95.3073 268.659 94.57C268.659 93.8233 268.5 93.268 268.183 92.904C267.865 92.5307 267.445 92.344 266.923 92.344C266.4 92.344 265.98 92.5307 265.663 92.904C265.345 93.268 265.187 93.8233 265.187 94.57C265.187 95.3073 265.345 95.8673 265.663 96.25C265.98 96.6233 266.4 96.81 266.923 96.81ZM274.239 98.14C273.427 98.14 272.825 97.9207 272.433 97.482C272.051 97.034 271.859 96.3807 271.859 95.522V88.13H273.609V95.438C273.609 96.278 273.964 96.698 274.673 96.698C274.776 96.698 274.879 96.6933 274.981 96.684C275.084 96.6747 275.182 96.656 275.275 96.628L275.247 98.014C274.911 98.098 274.575 98.14 274.239 98.14ZM279.636 98.14C278.861 98.14 278.194 97.9953 277.634 97.706C277.074 97.4167 276.64 97.006 276.332 96.474C276.033 95.942 275.884 95.312 275.884 94.584C275.884 93.8747 276.028 93.254 276.318 92.722C276.616 92.19 277.022 91.7747 277.536 91.476C278.058 91.168 278.651 91.014 279.314 91.014C280.284 91.014 281.05 91.322 281.61 91.938C282.179 92.554 282.464 93.394 282.464 94.458V94.976H277.564C277.694 96.1987 278.394 96.81 279.664 96.81C280.046 96.81 280.429 96.754 280.812 96.642C281.194 96.5207 281.544 96.334 281.862 96.082L282.352 97.258C282.025 97.5287 281.614 97.7433 281.12 97.902C280.625 98.0607 280.13 98.14 279.636 98.14ZM279.384 92.204C278.87 92.204 278.455 92.3627 278.138 92.68C277.82 92.9973 277.629 93.4267 277.564 93.968H281.008C280.97 93.3987 280.812 92.9647 280.532 92.666C280.261 92.358 279.878 92.204 279.384 92.204ZM18.074 117.14C17.3553 117.14 16.73 116.995 16.198 116.706C15.666 116.407 15.2553 115.987 14.966 115.446C14.6767 114.905 14.532 114.27 14.532 113.542C14.532 112.814 14.6767 112.189 14.966 111.666C15.2553 111.134 15.666 110.728 16.198 110.448C16.73 110.159 17.3553 110.014 18.074 110.014C18.5127 110.014 18.9467 110.084 19.376 110.224C19.8053 110.364 20.16 110.56 20.44 110.812L19.922 112.03C19.6793 111.815 19.404 111.652 19.096 111.54C18.7973 111.428 18.508 111.372 18.228 111.372C17.6213 111.372 17.15 111.563 16.814 111.946C16.4873 112.319 16.324 112.856 16.324 113.556C16.324 114.247 16.4873 114.793 16.814 115.194C17.15 115.586 17.6213 115.782 18.228 115.782C18.4987 115.782 18.788 115.726 19.096 115.614C19.404 115.502 19.6793 115.334 19.922 115.11L20.44 116.342C20.16 116.585 19.8007 116.781 19.362 116.93C18.9327 117.07 18.5033 117.14 18.074 117.14ZM24.4988 117.14C23.7895 117.14 23.1735 116.995 22.6508 116.706C22.1281 116.417 21.7221 116.006 21.4328 115.474C21.1435 114.933 20.9988 114.298 20.9988 113.57C20.9988 112.842 21.1435 112.212 21.4328 111.68C21.7221 111.148 22.1281 110.737 22.6508 110.448C23.1735 110.159 23.7895 110.014 24.4988 110.014C25.2081 110.014 25.8241 110.159 26.3468 110.448C26.8695 110.737 27.2755 111.148 27.5648 111.68C27.8541 112.212 27.9988 112.842 27.9988 113.57C27.9988 114.298 27.8541 114.933 27.5648 115.474C27.2755 116.006 26.8695 116.417 26.3468 116.706C25.8241 116.995 25.2081 117.14 24.4988 117.14ZM24.4988 115.81C25.0215 115.81 25.4415 115.623 25.7588 115.25C26.0761 114.867 26.2348 114.307 26.2348 113.57C26.2348 112.823 26.0761 112.268 25.7588 111.904C25.4415 111.531 25.0215 111.344 24.4988 111.344C23.9761 111.344 23.5561 111.531 23.2388 111.904C22.9215 112.268 22.7628 112.823 22.7628 113.57C22.7628 114.307 22.9215 114.867 23.2388 115.25C23.5561 115.623 23.9761 115.81 24.4988 115.81ZM31.9492 117.14C31.3705 117.14 30.8292 117.07 30.3252 116.93C29.8212 116.79 29.4012 116.589 29.0652 116.328L29.5132 115.18C29.8585 115.413 30.2459 115.595 30.6752 115.726C31.1045 115.847 31.5339 115.908 31.9632 115.908C32.4112 115.908 32.7425 115.833 32.9572 115.684C33.1812 115.525 33.2932 115.32 33.2932 115.068C33.2932 114.676 33.0039 114.424 32.4252 114.312L31.0252 114.046C29.8399 113.822 29.2472 113.206 29.2472 112.198C29.2472 111.75 29.3685 111.363 29.6112 111.036C29.8632 110.709 30.2085 110.457 30.6472 110.28C31.0859 110.103 31.5899 110.014 32.1592 110.014C32.6445 110.014 33.1112 110.084 33.5592 110.224C34.0072 110.355 34.3899 110.555 34.7072 110.826L34.2312 111.974C33.9605 111.75 33.6339 111.573 33.2512 111.442C32.8779 111.311 32.5185 111.246 32.1732 111.246C31.7159 111.246 31.3752 111.325 31.1512 111.484C30.9365 111.643 30.8292 111.853 30.8292 112.114C30.8292 112.525 31.0952 112.777 31.6272 112.87L33.0272 113.136C33.6339 113.248 34.0912 113.453 34.3992 113.752C34.7165 114.051 34.8752 114.452 34.8752 114.956C34.8752 115.637 34.6092 116.174 34.0772 116.566C33.5452 116.949 32.8359 117.14 31.9492 117.14ZM39.3468 117.14C37.5361 117.14 36.6308 116.244 36.6308 114.452V111.47H35.3148V110.154H36.6308V108.11H38.3808V110.154H40.4528V111.47H38.3808V114.354C38.3808 114.802 38.4788 115.138 38.6748 115.362C38.8708 115.586 39.1881 115.698 39.6268 115.698C39.7574 115.698 39.8928 115.684 40.0328 115.656C40.1728 115.619 40.3174 115.581 40.4668 115.544L40.7328 116.832C40.5648 116.925 40.3501 117 40.0888 117.056C39.8368 117.112 39.5894 117.14 39.3468 117.14ZM41.6759 117V115.054H43.6359V117H41.6759Z" fill="white"/>
</svg>
