<svg width="297" height="133" viewBox="0 0 297 133" fill="none" xmlns="http://www.w3.org/2000/svg">
<rect width="297" height="132.655" rx="20" fill="#FFAA5B"/>
<path d="M14.024 37L21.68 20.08H24.2L31.856 37H28.736L27.056 33.088H18.8L17.144 37H14.024ZM22.904 23.416L19.856 30.64H26L22.952 23.416H22.904ZM38.7262 37.24C37.4942 37.24 36.4222 36.992 35.5102 36.496C34.5982 35.984 33.8942 35.264 33.3982 34.336C32.9022 33.408 32.6542 32.32 32.6542 31.072C32.6542 29.824 32.9022 28.752 33.3982 27.856C33.8942 26.944 34.5982 26.248 35.5102 25.768C36.4222 25.272 37.4942 25.024 38.7262 25.024C39.4782 25.024 40.2222 25.144 40.9582 25.384C41.6942 25.624 42.3022 25.96 42.7822 26.392L41.8942 28.48C41.4782 28.112 41.0062 27.832 40.4782 27.64C39.9662 27.448 39.4702 27.352 38.9902 27.352C37.9502 27.352 37.1422 27.68 36.5662 28.336C36.0062 28.976 35.7262 29.896 35.7262 31.096C35.7262 32.28 36.0062 33.216 36.5662 33.904C37.1422 34.576 37.9502 34.912 38.9902 34.912C39.4542 34.912 39.9502 34.816 40.4782 34.624C41.0062 34.432 41.4782 34.144 41.8942 33.76L42.7822 35.872C42.3022 36.288 41.6862 36.624 40.9342 36.88C40.1982 37.12 39.4622 37.24 38.7262 37.24ZM50.0454 37.24C46.9414 37.24 45.3894 35.704 45.3894 32.632V27.52H43.1334V25.264H45.3894V21.76H48.3894V25.264H51.9414V27.52H48.3894V32.464C48.3894 33.232 48.5574 33.808 48.8934 34.192C49.2294 34.576 49.7734 34.768 50.5254 34.768C50.7494 34.768 50.9814 34.744 51.2214 34.696C51.4614 34.632 51.7094 34.568 51.9654 34.504L52.4214 36.712C52.1334 36.872 51.7654 37 51.3174 37.096C50.8854 37.192 50.4614 37.24 50.0454 37.24ZM58.1283 37.24C55.2483 37.24 53.8083 35.624 53.8083 32.392V25.264H56.8083V32.44C56.8083 33.272 56.9763 33.888 57.3123 34.288C57.6483 34.688 58.1843 34.888 58.9203 34.888C59.7203 34.888 60.3763 34.616 60.8883 34.072C61.4003 33.512 61.6563 32.776 61.6563 31.864V25.264H64.6563V37H61.7283V35.248C60.9443 36.576 59.7443 37.24 58.1283 37.24ZM71.6428 37.24C70.7948 37.24 70.0348 37.08 69.3628 36.76C68.7068 36.424 68.1868 35.976 67.8027 35.416C67.4348 34.856 67.2508 34.224 67.2508 33.52C67.2508 32.656 67.4748 31.976 67.9228 31.48C68.3708 30.968 69.0988 30.6 70.1068 30.376C71.1148 30.152 72.4668 30.04 74.1628 30.04H75.0028V29.536C75.0028 28.736 74.8268 28.16 74.4748 27.808C74.1228 27.456 73.5308 27.28 72.6988 27.28C72.0428 27.28 71.3708 27.384 70.6828 27.592C69.9948 27.784 69.2988 28.088 68.5948 28.504L67.7308 26.464C68.1468 26.176 68.6348 25.928 69.1948 25.72C69.7708 25.496 70.3708 25.328 70.9948 25.216C71.6348 25.088 72.2348 25.024 72.7948 25.024C74.5068 25.024 75.7788 25.424 76.6108 26.224C77.4428 27.008 77.8588 28.232 77.8588 29.896V37H75.0508V35.128C74.7788 35.784 74.3468 36.304 73.7548 36.688C73.1628 37.056 72.4588 37.24 71.6428 37.24ZM72.2668 35.176C73.0508 35.176 73.6988 34.904 74.2108 34.36C74.7388 33.816 75.0028 33.128 75.0028 32.296V31.768H74.1868C72.6828 31.768 71.6348 31.888 71.0428 32.128C70.4668 32.352 70.1788 32.768 70.1788 33.376C70.1788 33.904 70.3628 34.336 70.7308 34.672C71.0988 35.008 71.6108 35.176 72.2668 35.176ZM84.9838 37.24C83.5918 37.24 82.5598 36.864 81.8878 36.112C81.2318 35.344 80.9038 34.224 80.9038 32.752V20.08H83.9038V32.608C83.9038 34.048 84.5118 34.768 85.7278 34.768C85.9038 34.768 86.0798 34.76 86.2558 34.744C86.4318 34.728 86.5998 34.696 86.7598 34.648L86.7118 37.024C86.1358 37.168 85.5598 37.24 84.9838 37.24ZM101.157 37.24C99.8286 37.24 98.5966 37.072 97.4606 36.736C96.3246 36.384 95.3646 35.912 94.5806 35.32L95.5166 32.896C96.3006 33.456 97.1566 33.888 98.0846 34.192C99.0286 34.496 100.053 34.648 101.157 34.648C102.421 34.648 103.341 34.44 103.917 34.024C104.493 33.592 104.781 33.04 104.781 32.368C104.781 31.808 104.573 31.368 104.157 31.048C103.757 30.728 103.061 30.464 102.069 30.256L99.4286 29.704C96.4206 29.064 94.9166 27.52 94.9166 25.072C94.9166 24.016 95.1966 23.096 95.7566 22.312C96.3166 21.528 97.0926 20.92 98.0846 20.488C99.0766 20.056 100.221 19.84 101.517 19.84C102.669 19.84 103.749 20.016 104.757 20.368C105.765 20.704 106.605 21.184 107.277 21.808L106.341 24.112C105.013 22.992 103.397 22.432 101.493 22.432C100.389 22.432 99.5246 22.664 98.9006 23.128C98.2766 23.592 97.9646 24.2 97.9646 24.952C97.9646 25.528 98.1566 25.992 98.5406 26.344C98.9246 26.68 99.5806 26.944 100.509 27.136L103.125 27.688C104.709 28.024 105.885 28.552 106.653 29.272C107.437 29.992 107.829 30.952 107.829 32.152C107.829 33.16 107.557 34.048 107.013 34.816C106.469 35.584 105.693 36.184 104.685 36.616C103.693 37.032 102.517 37.24 101.157 37.24ZM114.041 37.24C113.193 37.24 112.433 37.08 111.761 36.76C111.105 36.424 110.585 35.976 110.201 35.416C109.833 34.856 109.649 34.224 109.649 33.52C109.649 32.656 109.873 31.976 110.321 31.48C110.769 30.968 111.497 30.6 112.505 30.376C113.513 30.152 114.865 30.04 116.561 30.04H117.401V29.536C117.401 28.736 117.225 28.16 116.873 27.808C116.521 27.456 115.929 27.28 115.097 27.28C114.441 27.28 113.769 27.384 113.081 27.592C112.393 27.784 111.697 28.088 110.993 28.504L110.129 26.464C110.545 26.176 111.033 25.928 111.593 25.72C112.169 25.496 112.769 25.328 113.393 25.216C114.033 25.088 114.633 25.024 115.193 25.024C116.905 25.024 118.177 25.424 119.009 26.224C119.841 27.008 120.257 28.232 120.257 29.896V37H117.449V35.128C117.177 35.784 116.745 36.304 116.153 36.688C115.561 37.056 114.857 37.24 114.041 37.24ZM114.665 35.176C115.449 35.176 116.097 34.904 116.609 34.36C117.137 33.816 117.401 33.128 117.401 32.296V31.768H116.585C115.081 31.768 114.033 31.888 113.441 32.128C112.865 32.352 112.577 32.768 112.577 33.376C112.577 33.904 112.761 34.336 113.129 34.672C113.497 35.008 114.009 35.176 114.665 35.176ZM127.382 37.24C125.99 37.24 124.958 36.864 124.286 36.112C123.63 35.344 123.302 34.224 123.302 32.752V20.08H126.302V32.608C126.302 34.048 126.91 34.768 128.126 34.768C128.302 34.768 128.478 34.76 128.654 34.744C128.83 34.728 128.998 34.696 129.158 34.648L129.11 37.024C128.534 37.168 127.958 37.24 127.382 37.24ZM136.633 37.24C135.305 37.24 134.161 36.992 133.201 36.496C132.241 36 131.497 35.296 130.969 34.384C130.457 33.472 130.201 32.392 130.201 31.144C130.201 29.928 130.449 28.864 130.945 27.952C131.457 27.04 132.153 26.328 133.033 25.816C133.929 25.288 134.945 25.024 136.081 25.024C137.745 25.024 139.057 25.552 140.017 26.608C140.993 27.664 141.481 29.104 141.481 30.928V31.816H133.081C133.305 33.912 134.505 34.96 136.681 34.96C137.337 34.96 137.993 34.864 138.649 34.672C139.305 34.464 139.905 34.144 140.449 33.712L141.289 35.728C140.729 36.192 140.025 36.56 139.177 36.832C138.329 37.104 137.481 37.24 136.633 37.24ZM136.201 27.064C135.321 27.064 134.609 27.336 134.065 27.88C133.521 28.424 133.193 29.16 133.081 30.088H138.985C138.921 29.112 138.649 28.368 138.169 27.856C137.705 27.328 137.049 27.064 136.201 27.064ZM148.153 37.24C147.161 37.24 146.233 37.12 145.369 36.88C144.505 36.64 143.785 36.296 143.209 35.848L143.977 33.88C144.569 34.28 145.233 34.592 145.969 34.816C146.705 35.024 147.441 35.128 148.177 35.128C148.945 35.128 149.513 35 149.881 34.744C150.265 34.472 150.457 34.12 150.457 33.688C150.457 33.016 149.961 32.584 148.969 32.392L146.569 31.936C144.537 31.552 143.521 30.496 143.521 28.768C143.521 28 143.729 27.336 144.145 26.776C144.577 26.216 145.169 25.784 145.921 25.48C146.673 25.176 147.537 25.024 148.513 25.024C149.345 25.024 150.145 25.144 150.913 25.384C151.681 25.608 152.337 25.952 152.881 26.416L152.065 28.384C151.601 28 151.041 27.696 150.385 27.472C149.745 27.248 149.129 27.136 148.537 27.136C147.753 27.136 147.169 27.272 146.785 27.544C146.417 27.816 146.233 28.176 146.233 28.624C146.233 29.328 146.689 29.76 147.601 29.92L150.001 30.376C151.041 30.568 151.825 30.92 152.353 31.432C152.897 31.944 153.169 32.632 153.169 33.496C153.169 34.664 152.713 35.584 151.801 36.256C150.889 36.912 149.673 37.24 148.153 37.24Z" fill="white"/>
<path d="M19.67 99.14C18.6433 99.14 17.7613 98.9347 17.024 98.524C16.296 98.104 15.736 97.516 15.344 96.76C14.952 95.9947 14.756 95.094 14.756 94.058C14.756 93.022 14.952 92.126 15.344 91.37C15.736 90.614 16.296 90.0307 17.024 89.62C17.7613 89.2 18.6433 88.99 19.67 88.99C20.3327 88.99 20.958 89.0927 21.546 89.298C22.1433 89.5033 22.6333 89.7973 23.016 90.18L22.428 91.608C22.008 91.2533 21.5787 90.9967 21.14 90.838C20.7013 90.67 20.23 90.586 19.726 90.586C18.7273 90.586 17.9667 90.8893 17.444 91.496C16.9213 92.0933 16.66 92.9473 16.66 94.058C16.66 95.1687 16.9213 96.0273 17.444 96.634C17.9667 97.2407 18.7273 97.544 19.726 97.544C20.23 97.544 20.7013 97.4647 21.14 97.306C21.5787 97.138 22.008 96.8767 22.428 96.522L23.016 97.95C22.6333 98.3233 22.1433 98.6173 21.546 98.832C20.958 99.0373 20.3327 99.14 19.67 99.14ZM26.4199 99.14C25.9252 99.14 25.4819 99.0467 25.0899 98.86C24.7072 98.664 24.4039 98.4027 24.1799 98.076C23.9652 97.7493 23.8579 97.3807 23.8579 96.97C23.8579 96.466 23.9885 96.0693 24.2499 95.78C24.5112 95.4813 24.9359 95.2667 25.5239 95.136C26.1119 95.0053 26.9005 94.94 27.8899 94.94H28.3799V94.646C28.3799 94.1793 28.2772 93.8433 28.0719 93.638C27.8665 93.4327 27.5212 93.33 27.0359 93.33C26.6532 93.33 26.2612 93.3907 25.8599 93.512C25.4585 93.624 25.0525 93.8013 24.6419 94.044L24.1379 92.854C24.3805 92.686 24.6652 92.5413 24.9919 92.42C25.3279 92.2893 25.6779 92.1913 26.0419 92.126C26.4152 92.0513 26.7652 92.014 27.0919 92.014C28.0905 92.014 28.8325 92.2473 29.3179 92.714C29.8032 93.1713 30.0459 93.8853 30.0459 94.856V99H28.4079V97.908C28.2492 98.2907 27.9972 98.594 27.6519 98.818C27.3065 99.0327 26.8959 99.14 26.4199 99.14ZM26.7839 97.936C27.2412 97.936 27.6192 97.7773 27.9179 97.46C28.2259 97.1427 28.3799 96.7413 28.3799 96.256V95.948H27.9039C27.0265 95.948 26.4152 96.018 26.0699 96.158C25.7339 96.2887 25.5659 96.5313 25.5659 96.886C25.5659 97.194 25.6732 97.446 25.8879 97.642C26.1025 97.838 26.4012 97.936 26.7839 97.936ZM34.2021 99.14C33.3901 99.14 32.7881 98.9207 32.3961 98.482C32.0134 98.034 31.8221 97.3807 31.8221 96.522V89.13H33.5721V96.438C33.5721 97.278 33.9268 97.698 34.6361 97.698C34.7388 97.698 34.8414 97.6933 34.9441 97.684C35.0468 97.6747 35.1448 97.656 35.2381 97.628L35.2101 99.014C34.8741 99.098 34.5381 99.14 34.2021 99.14ZM39.3885 99.14C38.6698 99.14 38.0445 98.9953 37.5125 98.706C36.9805 98.4073 36.5698 97.9873 36.2805 97.446C35.9911 96.9047 35.8465 96.27 35.8465 95.542C35.8465 94.814 35.9911 94.1887 36.2805 93.666C36.5698 93.134 36.9805 92.728 37.5125 92.448C38.0445 92.1587 38.6698 92.014 39.3885 92.014C39.8271 92.014 40.2611 92.084 40.6905 92.224C41.1198 92.364 41.4745 92.56 41.7545 92.812L41.2365 94.03C40.9938 93.8153 40.7185 93.652 40.4105 93.54C40.1118 93.428 39.8225 93.372 39.5425 93.372C38.9358 93.372 38.4645 93.5633 38.1285 93.946C37.8018 94.3193 37.6385 94.856 37.6385 95.556C37.6385 96.2467 37.8018 96.7927 38.1285 97.194C38.4645 97.586 38.9358 97.782 39.5425 97.782C39.8131 97.782 40.1025 97.726 40.4105 97.614C40.7185 97.502 40.9938 97.334 41.2365 97.11L41.7545 98.342C41.4745 98.5847 41.1151 98.7807 40.6765 98.93C40.2471 99.07 39.8178 99.14 39.3885 99.14ZM45.306 99.14C43.626 99.14 42.786 98.1973 42.786 96.312V92.154H44.536V96.34C44.536 96.8253 44.634 97.1847 44.83 97.418C45.026 97.6513 45.3386 97.768 45.768 97.768C46.2346 97.768 46.6173 97.6093 46.916 97.292C47.2146 96.9653 47.364 96.536 47.364 96.004V92.154H49.114V99H47.406V97.978C46.9486 98.7527 46.2486 99.14 45.306 99.14ZM53.3154 99.14C52.5034 99.14 51.9014 98.9207 51.5094 98.482C51.1267 98.034 50.9354 97.3807 50.9354 96.522V89.13H52.6854V96.438C52.6854 97.278 53.0401 97.698 53.7494 97.698C53.8521 97.698 53.9547 97.6933 54.0574 97.684C54.1601 97.6747 54.2581 97.656 54.3514 97.628L54.3234 99.014C53.9874 99.098 53.6514 99.14 53.3154 99.14ZM57.6601 99.14C57.1654 99.14 56.7221 99.0467 56.3301 98.86C55.9474 98.664 55.6441 98.4027 55.4201 98.076C55.2054 97.7493 55.0981 97.3807 55.0981 96.97C55.0981 96.466 55.2288 96.0693 55.4901 95.78C55.7514 95.4813 56.1761 95.2667 56.7641 95.136C57.3521 95.0053 58.1408 94.94 59.1301 94.94H59.6201V94.646C59.6201 94.1793 59.5174 93.8433 59.3121 93.638C59.1068 93.4327 58.7614 93.33 58.2761 93.33C57.8934 93.33 57.5014 93.3907 57.1001 93.512C56.6988 93.624 56.2928 93.8013 55.8821 94.044L55.3781 92.854C55.6208 92.686 55.9054 92.5413 56.2321 92.42C56.5681 92.2893 56.9181 92.1913 57.2821 92.126C57.6554 92.0513 58.0054 92.014 58.3321 92.014C59.3308 92.014 60.0728 92.2473 60.5581 92.714C61.0434 93.1713 61.2861 93.8853 61.2861 94.856V99H59.6481V97.908C59.4894 98.2907 59.2374 98.594 58.8921 98.818C58.5468 99.0327 58.1361 99.14 57.6601 99.14ZM58.0241 97.936C58.4814 97.936 58.8594 97.7773 59.1581 97.46C59.4661 97.1427 59.6201 96.7413 59.6201 96.256V95.948H59.1441C58.2668 95.948 57.6554 96.018 57.3101 96.158C56.9741 96.2887 56.8061 96.5313 56.8061 96.886C56.8061 97.194 56.9134 97.446 57.1281 97.642C57.3428 97.838 57.6414 97.936 58.0241 97.936ZM66.1983 99.14C64.3877 99.14 63.4823 98.244 63.4823 96.452V93.47H62.1663V92.154H63.4823V90.11H65.2323V92.154H67.3043V93.47H65.2323V96.354C65.2323 96.802 65.3303 97.138 65.5263 97.362C65.7223 97.586 66.0397 97.698 66.4783 97.698C66.609 97.698 66.7443 97.684 66.8843 97.656C67.0243 97.6187 67.169 97.5813 67.3183 97.544L67.5843 98.832C67.4163 98.9253 67.2017 99 66.9403 99.056C66.6883 99.112 66.441 99.14 66.1983 99.14ZM71.741 99.14C70.9664 99.14 70.299 98.9953 69.739 98.706C69.179 98.4167 68.745 98.006 68.437 97.474C68.1384 96.942 67.989 96.312 67.989 95.584C67.989 94.8747 68.1337 94.254 68.423 93.722C68.7217 93.19 69.1277 92.7747 69.641 92.476C70.1637 92.168 70.7564 92.014 71.419 92.014C72.3897 92.014 73.155 92.322 73.715 92.938C74.2844 93.554 74.569 94.394 74.569 95.458V95.976H69.669C69.7997 97.1987 70.4997 97.81 71.769 97.81C72.1517 97.81 72.5344 97.754 72.917 97.642C73.2997 97.5207 73.6497 97.334 73.967 97.082L74.457 98.258C74.1304 98.5287 73.7197 98.7433 73.225 98.902C72.7304 99.0607 72.2357 99.14 71.741 99.14ZM71.489 93.204C70.9757 93.204 70.5604 93.3627 70.243 93.68C69.9257 93.9973 69.7344 94.4267 69.669 94.968H73.113C73.0757 94.3987 72.917 93.9647 72.637 93.666C72.3664 93.358 71.9837 93.204 71.489 93.204ZM82.8644 99.14C81.0537 99.14 80.1484 98.244 80.1484 96.452V93.47H78.8324V92.154H80.1484V90.11H81.8984V92.154H83.9704V93.47H81.8984V96.354C81.8984 96.802 81.9964 97.138 82.1924 97.362C82.3884 97.586 82.7057 97.698 83.1444 97.698C83.275 97.698 83.4104 97.684 83.5504 97.656C83.6904 97.6187 83.835 97.5813 83.9844 97.544L84.2504 98.832C84.0824 98.9253 83.8677 99 83.6064 99.056C83.3544 99.112 83.107 99.14 82.8644 99.14ZM85.1014 99V89.13H86.8514V93.148C87.0847 92.7747 87.3974 92.4947 87.7894 92.308C88.1814 92.112 88.6154 92.014 89.0914 92.014C90.7061 92.014 91.5134 92.952 91.5134 94.828V99H89.7634V94.912C89.7634 94.38 89.6607 93.9927 89.4554 93.75C89.2594 93.5073 88.9514 93.386 88.5314 93.386C88.0181 93.386 87.6074 93.5493 87.2994 93.876C87.0007 94.1933 86.8514 94.618 86.8514 95.15V99H85.1014ZM96.6649 99.14C95.8902 99.14 95.2229 98.9953 94.6629 98.706C94.1029 98.4167 93.6689 98.006 93.3609 97.474C93.0622 96.942 92.9129 96.312 92.9129 95.584C92.9129 94.8747 93.0575 94.254 93.3469 93.722C93.6455 93.19 94.0515 92.7747 94.5649 92.476C95.0875 92.168 95.6802 92.014 96.3429 92.014C97.3135 92.014 98.0789 92.322 98.6389 92.938C99.2082 93.554 99.4929 94.394 99.4929 95.458V95.976H94.5929C94.7235 97.1987 95.4235 97.81 96.6929 97.81C97.0755 97.81 97.4582 97.754 97.8409 97.642C98.2235 97.5207 98.5735 97.334 98.8909 97.082L99.3809 98.258C99.0542 98.5287 98.6435 98.7433 98.1489 98.902C97.6542 99.0607 97.1595 99.14 96.6649 99.14ZM96.4129 93.204C95.8995 93.204 95.4842 93.3627 95.1669 93.68C94.8495 93.9973 94.6582 94.4267 94.5929 94.968H98.0369C97.9995 94.3987 97.8409 93.9647 97.5609 93.666C97.2902 93.358 96.9075 93.204 96.4129 93.204ZM104.652 101.52V92.154H106.36V93.246C106.556 92.8727 106.85 92.574 107.242 92.35C107.644 92.126 108.096 92.014 108.6 92.014C109.198 92.014 109.72 92.1587 110.168 92.448C110.626 92.7373 110.98 93.148 111.232 93.68C111.484 94.2027 111.61 94.8327 111.61 95.57C111.61 96.298 111.484 96.9327 111.232 97.474C110.98 98.006 110.63 98.4167 110.182 98.706C109.734 98.9953 109.207 99.14 108.6 99.14C108.115 99.14 107.676 99.0373 107.284 98.832C106.902 98.6173 106.608 98.3327 106.402 97.978V101.52H104.652ZM108.11 97.81C108.633 97.81 109.053 97.6233 109.37 97.25C109.688 96.8673 109.846 96.3073 109.846 95.57C109.846 94.8233 109.688 94.268 109.37 93.904C109.053 93.5307 108.633 93.344 108.11 93.344C107.588 93.344 107.168 93.5307 106.85 93.904C106.533 94.268 106.374 94.8233 106.374 95.57C106.374 96.3073 106.533 96.8673 106.85 97.25C107.168 97.6233 107.588 97.81 108.11 97.81ZM116.421 99.14C115.646 99.14 114.979 98.9953 114.419 98.706C113.859 98.4167 113.425 98.006 113.117 97.474C112.818 96.942 112.669 96.312 112.669 95.584C112.669 94.8747 112.813 94.254 113.103 93.722C113.401 93.19 113.807 92.7747 114.321 92.476C114.843 92.168 115.436 92.014 116.099 92.014C117.069 92.014 117.835 92.322 118.395 92.938C118.964 93.554 119.249 94.394 119.249 95.458V95.976H114.349C114.479 97.1987 115.179 97.81 116.449 97.81C116.831 97.81 117.214 97.754 117.597 97.642C117.979 97.5207 118.329 97.334 118.647 97.082L119.137 98.258C118.81 98.5287 118.399 98.7433 117.905 98.902C117.41 99.0607 116.915 99.14 116.421 99.14ZM116.169 93.204C115.655 93.204 115.24 93.3627 114.923 93.68C114.605 93.9973 114.414 94.4267 114.349 94.968H117.793C117.755 94.3987 117.597 93.9647 117.317 93.666C117.046 93.358 116.663 93.204 116.169 93.204ZM120.635 99V92.154H122.343V93.358C122.679 92.546 123.397 92.098 124.499 92.014L125.031 91.972L125.143 93.456L124.135 93.554C122.987 93.666 122.413 94.254 122.413 95.318V99H120.635ZM129.172 99.14C128.453 99.14 127.828 98.9953 127.296 98.706C126.764 98.4073 126.353 97.9873 126.064 97.446C125.774 96.9047 125.63 96.27 125.63 95.542C125.63 94.814 125.774 94.1887 126.064 93.666C126.353 93.134 126.764 92.728 127.296 92.448C127.828 92.1587 128.453 92.014 129.172 92.014C129.61 92.014 130.044 92.084 130.474 92.224C130.903 92.364 131.258 92.56 131.538 92.812L131.02 94.03C130.777 93.8153 130.502 93.652 130.194 93.54C129.895 93.428 129.606 93.372 129.326 93.372C128.719 93.372 128.248 93.5633 127.912 93.946C127.585 94.3193 127.422 94.856 127.422 95.556C127.422 96.2467 127.585 96.7927 127.912 97.194C128.248 97.586 128.719 97.782 129.326 97.782C129.596 97.782 129.886 97.726 130.194 97.614C130.502 97.502 130.777 97.334 131.02 97.11L131.538 98.342C131.258 98.5847 130.898 98.7807 130.46 98.93C130.03 99.07 129.601 99.14 129.172 99.14ZM135.848 99.14C135.074 99.14 134.406 98.9953 133.846 98.706C133.286 98.4167 132.852 98.006 132.544 97.474C132.246 96.942 132.096 96.312 132.096 95.584C132.096 94.8747 132.241 94.254 132.53 93.722C132.829 93.19 133.235 92.7747 133.748 92.476C134.271 92.168 134.864 92.014 135.526 92.014C136.497 92.014 137.262 92.322 137.822 92.938C138.392 93.554 138.676 94.394 138.676 95.458V95.976H133.776C133.907 97.1987 134.607 97.81 135.876 97.81C136.259 97.81 136.642 97.754 137.024 97.642C137.407 97.5207 137.757 97.334 138.074 97.082L138.564 98.258C138.238 98.5287 137.827 98.7433 137.332 98.902C136.838 99.0607 136.343 99.14 135.848 99.14ZM135.596 93.204C135.083 93.204 134.668 93.3627 134.35 93.68C134.033 93.9973 133.842 94.4267 133.776 94.968H137.22C137.183 94.3987 137.024 93.9647 136.744 93.666C136.474 93.358 136.091 93.204 135.596 93.204ZM140.062 99V92.154H141.77V93.218C142.004 92.826 142.316 92.5273 142.708 92.322C143.11 92.1167 143.558 92.014 144.052 92.014C145.667 92.014 146.474 92.952 146.474 94.828V99H144.724V94.912C144.724 94.38 144.622 93.9927 144.416 93.75C144.22 93.5073 143.912 93.386 143.492 93.386C142.979 93.386 142.568 93.5493 142.26 93.876C141.962 94.1933 141.812 94.618 141.812 95.15V99H140.062ZM151.388 99.14C149.577 99.14 148.672 98.244 148.672 96.452V93.47H147.356V92.154H148.672V90.11H150.422V92.154H152.494V93.47H150.422V96.354C150.422 96.802 150.52 97.138 150.716 97.362C150.912 97.586 151.229 97.698 151.668 97.698C151.798 97.698 151.934 97.684 152.074 97.656C152.214 97.6187 152.358 97.5813 152.508 97.544L152.774 98.832C152.606 98.9253 152.391 99 152.13 99.056C151.878 99.112 151.63 99.14 151.388 99.14ZM155.879 99.14C155.384 99.14 154.941 99.0467 154.549 98.86C154.166 98.664 153.863 98.4027 153.639 98.076C153.424 97.7493 153.317 97.3807 153.317 96.97C153.317 96.466 153.448 96.0693 153.709 95.78C153.97 95.4813 154.395 95.2667 154.983 95.136C155.571 95.0053 156.36 94.94 157.349 94.94H157.839V94.646C157.839 94.1793 157.736 93.8433 157.531 93.638C157.326 93.4327 156.98 93.33 156.495 93.33C156.112 93.33 155.72 93.3907 155.319 93.512C154.918 93.624 154.512 93.8013 154.101 94.044L153.597 92.854C153.84 92.686 154.124 92.5413 154.451 92.42C154.787 92.2893 155.137 92.1913 155.501 92.126C155.874 92.0513 156.224 92.014 156.551 92.014C157.55 92.014 158.292 92.2473 158.777 92.714C159.262 93.1713 159.505 93.8853 159.505 94.856V99H157.867V97.908C157.708 98.2907 157.456 98.594 157.111 98.818C156.766 99.0327 156.355 99.14 155.879 99.14ZM156.243 97.936C156.7 97.936 157.078 97.7773 157.377 97.46C157.685 97.1427 157.839 96.7413 157.839 96.256V95.948H157.363C156.486 95.948 155.874 96.018 155.529 96.158C155.193 96.2887 155.025 96.5313 155.025 96.886C155.025 97.194 155.132 97.446 155.347 97.642C155.562 97.838 155.86 97.936 156.243 97.936ZM164.473 101.66C163.838 101.66 163.241 101.585 162.681 101.436C162.13 101.296 161.645 101.077 161.225 100.778L161.729 99.56C162.121 99.8213 162.541 100.013 162.989 100.134C163.437 100.265 163.885 100.33 164.333 100.33C165.584 100.33 166.209 99.728 166.209 98.524V97.586C166.013 97.9687 165.71 98.272 165.299 98.496C164.898 98.72 164.45 98.832 163.955 98.832C163.339 98.832 162.802 98.692 162.345 98.412C161.888 98.1227 161.533 97.7213 161.281 97.208C161.029 96.6947 160.903 96.0973 160.903 95.416C160.903 94.7347 161.029 94.142 161.281 93.638C161.533 93.1247 161.888 92.728 162.345 92.448C162.802 92.1587 163.339 92.014 163.955 92.014C164.468 92.014 164.926 92.1307 165.327 92.364C165.728 92.588 166.022 92.8913 166.209 93.274V92.154H167.917V98.314C167.917 99.4247 167.623 100.26 167.035 100.82C166.447 101.38 165.593 101.66 164.473 101.66ZM164.431 97.502C164.972 97.502 165.402 97.3153 165.719 96.942C166.036 96.5687 166.195 96.06 166.195 95.416C166.195 94.772 166.036 94.268 165.719 93.904C165.402 93.5307 164.972 93.344 164.431 93.344C163.89 93.344 163.46 93.5307 163.143 93.904C162.826 94.268 162.667 94.772 162.667 95.416C162.667 96.06 162.826 96.5687 163.143 96.942C163.46 97.3153 163.89 97.502 164.431 97.502ZM173.104 99.14C172.33 99.14 171.662 98.9953 171.102 98.706C170.542 98.4167 170.108 98.006 169.8 97.474C169.502 96.942 169.352 96.312 169.352 95.584C169.352 94.8747 169.497 94.254 169.786 93.722C170.085 93.19 170.491 92.7747 171.004 92.476C171.527 92.168 172.12 92.014 172.782 92.014C173.753 92.014 174.518 92.322 175.078 92.938C175.648 93.554 175.932 94.394 175.932 95.458V95.976H171.032C171.163 97.1987 171.863 97.81 173.132 97.81C173.515 97.81 173.898 97.754 174.28 97.642C174.663 97.5207 175.013 97.334 175.33 97.082L175.82 98.258C175.494 98.5287 175.083 98.7433 174.588 98.902C174.094 99.0607 173.599 99.14 173.104 99.14ZM172.852 93.204C172.339 93.204 171.924 93.3627 171.606 93.68C171.289 93.9973 171.098 94.4267 171.032 94.968H174.476C174.439 94.3987 174.28 93.9647 174 93.666C173.73 93.358 173.347 93.204 172.852 93.204ZM184.214 99.14C183.504 99.14 182.888 98.9953 182.366 98.706C181.843 98.4167 181.437 98.006 181.148 97.474C180.858 96.9327 180.714 96.298 180.714 95.57C180.714 94.842 180.858 94.212 181.148 93.68C181.437 93.148 181.843 92.7373 182.366 92.448C182.888 92.1587 183.504 92.014 184.214 92.014C184.923 92.014 185.539 92.1587 186.062 92.448C186.584 92.7373 186.99 93.148 187.28 93.68C187.569 94.212 187.714 94.842 187.714 95.57C187.714 96.298 187.569 96.9327 187.28 97.474C186.99 98.006 186.584 98.4167 186.062 98.706C185.539 98.9953 184.923 99.14 184.214 99.14ZM184.214 97.81C184.736 97.81 185.156 97.6233 185.474 97.25C185.791 96.8673 185.95 96.3073 185.95 95.57C185.95 94.8233 185.791 94.268 185.474 93.904C185.156 93.5307 184.736 93.344 184.214 93.344C183.691 93.344 183.271 93.5307 182.954 93.904C182.636 94.268 182.478 94.8233 182.478 95.57C182.478 96.3073 182.636 96.8673 182.954 97.25C183.271 97.6233 183.691 97.81 184.214 97.81ZM189.552 99V93.47H188.236V92.154H189.552V92.14C189.552 91.1693 189.804 90.4367 190.308 89.942C190.821 89.4473 191.614 89.1673 192.688 89.102L193.374 89.06L193.486 90.348L192.842 90.39C192.282 90.4273 191.885 90.5673 191.652 90.81C191.418 91.0433 191.302 91.3933 191.302 91.86V92.154H193.164V93.47H191.302V99H189.552ZM200.217 99.14C199.722 99.14 199.279 99.0467 198.887 98.86C198.504 98.664 198.201 98.4027 197.977 98.076C197.762 97.7493 197.655 97.3807 197.655 96.97C197.655 96.466 197.785 96.0693 198.047 95.78C198.308 95.4813 198.733 95.2667 199.321 95.136C199.909 95.0053 200.697 94.94 201.687 94.94H202.177V94.646C202.177 94.1793 202.074 93.8433 201.869 93.638C201.663 93.4327 201.318 93.33 200.833 93.33C200.45 93.33 200.058 93.3907 199.657 93.512C199.255 93.624 198.849 93.8013 198.439 94.044L197.935 92.854C198.177 92.686 198.462 92.5413 198.789 92.42C199.125 92.2893 199.475 92.1913 199.839 92.126C200.212 92.0513 200.562 92.014 200.889 92.014C201.887 92.014 202.629 92.2473 203.115 92.714C203.6 93.1713 203.843 93.8853 203.843 94.856V99H202.205V97.908C202.046 98.2907 201.794 98.594 201.449 98.818C201.103 99.0327 200.693 99.14 200.217 99.14ZM200.581 97.936C201.038 97.936 201.416 97.7773 201.715 97.46C202.023 97.1427 202.177 96.7413 202.177 96.256V95.948H201.701C200.823 95.948 200.212 96.018 199.867 96.158C199.531 96.2887 199.363 96.5313 199.363 96.886C199.363 97.194 199.47 97.446 199.685 97.642C199.899 97.838 200.198 97.936 200.581 97.936ZM208.783 99.14C208.064 99.14 207.439 98.9953 206.907 98.706C206.375 98.4073 205.964 97.9873 205.675 97.446C205.386 96.9047 205.241 96.27 205.241 95.542C205.241 94.814 205.386 94.1887 205.675 93.666C205.964 93.134 206.375 92.728 206.907 92.448C207.439 92.1587 208.064 92.014 208.783 92.014C209.222 92.014 209.656 92.084 210.085 92.224C210.514 92.364 210.869 92.56 211.149 92.812L210.631 94.03C210.388 93.8153 210.113 93.652 209.805 93.54C209.506 93.428 209.217 93.372 208.937 93.372C208.33 93.372 207.859 93.5633 207.523 93.946C207.196 94.3193 207.033 94.856 207.033 95.556C207.033 96.2467 207.196 96.7927 207.523 97.194C207.859 97.586 208.33 97.782 208.937 97.782C209.208 97.782 209.497 97.726 209.805 97.614C210.113 97.502 210.388 97.334 210.631 97.11L211.149 98.342C210.869 98.5847 210.51 98.7807 210.071 98.93C209.642 99.07 209.212 99.14 208.783 99.14ZM212.223 99V89.13H213.973V93.148C214.206 92.7747 214.519 92.4947 214.91 92.308C215.303 92.112 215.737 92.014 216.213 92.014C217.827 92.014 218.635 92.952 218.635 94.828V99H216.885V94.912C216.885 94.38 216.782 93.9927 216.577 93.75C216.381 93.5073 216.073 93.386 215.653 93.386C215.139 93.386 214.729 93.5493 214.421 93.876C214.122 94.1933 213.973 94.618 213.973 95.15V99H212.223ZM220.3 90.684V88.976H222.26V90.684H220.3ZM220.412 99V92.154H222.162V99H220.412ZM227.354 99.14C226.58 99.14 225.912 98.9953 225.352 98.706C224.792 98.4167 224.358 98.006 224.05 97.474C223.752 96.942 223.602 96.312 223.602 95.584C223.602 94.8747 223.747 94.254 224.036 93.722C224.335 93.19 224.741 92.7747 225.254 92.476C225.777 92.168 226.37 92.014 227.032 92.014C228.003 92.014 228.768 92.322 229.328 92.938C229.898 93.554 230.182 94.394 230.182 95.458V95.976H225.282C225.413 97.1987 226.113 97.81 227.382 97.81C227.765 97.81 228.148 97.754 228.53 97.642C228.913 97.5207 229.263 97.334 229.58 97.082L230.07 98.258C229.744 98.5287 229.333 98.7433 228.838 98.902C228.344 99.0607 227.849 99.14 227.354 99.14ZM227.102 93.204C226.589 93.204 226.174 93.3627 225.856 93.68C225.539 93.9973 225.348 94.4267 225.282 94.968H228.726C228.689 94.3987 228.53 93.9647 228.25 93.666C227.98 93.358 227.597 93.204 227.102 93.204ZM233.475 99L230.507 92.154H232.369L234.273 96.942L236.247 92.154H237.997L234.987 99H233.475ZM242.079 99.14C241.304 99.14 240.637 98.9953 240.077 98.706C239.517 98.4167 239.083 98.006 238.775 97.474C238.476 96.942 238.327 96.312 238.327 95.584C238.327 94.8747 238.472 94.254 238.761 93.722C239.06 93.19 239.466 92.7747 239.979 92.476C240.502 92.168 241.094 92.014 241.757 92.014C242.728 92.014 243.493 92.322 244.053 92.938C244.622 93.554 244.907 94.394 244.907 95.458V95.976H240.007C240.138 97.1987 240.838 97.81 242.107 97.81C242.49 97.81 242.872 97.754 243.255 97.642C243.638 97.5207 243.988 97.334 244.305 97.082L244.795 98.258C244.468 98.5287 244.058 98.7433 243.563 98.902C243.068 99.0607 242.574 99.14 242.079 99.14ZM241.827 93.204C241.314 93.204 240.898 93.3627 240.581 93.68C240.264 93.9973 240.072 94.4267 240.007 94.968H243.451C243.414 94.3987 243.255 93.9647 242.975 93.666C242.704 93.358 242.322 93.204 241.827 93.204ZM246.321 99V92.154H248.029V93.204C248.234 92.8307 248.519 92.5413 248.883 92.336C249.247 92.1213 249.667 92.014 250.143 92.014C251.169 92.014 251.841 92.462 252.159 93.358C252.373 92.938 252.681 92.6113 253.083 92.378C253.484 92.1353 253.941 92.014 254.455 92.014C255.995 92.014 256.765 92.952 256.765 94.828V99H255.015V94.898C255.015 94.3753 254.926 93.9927 254.749 93.75C254.581 93.5073 254.291 93.386 253.881 93.386C253.423 93.386 253.064 93.5493 252.803 93.876C252.541 94.1933 252.411 94.6367 252.411 95.206V99H250.661V94.898C250.661 94.3753 250.572 93.9927 250.395 93.75C250.227 93.5073 249.942 93.386 249.541 93.386C249.083 93.386 248.724 93.5493 248.463 93.876C248.201 94.1933 248.071 94.6367 248.071 95.206V99H246.321ZM261.944 99.14C261.169 99.14 260.502 98.9953 259.942 98.706C259.382 98.4167 258.948 98.006 258.64 97.474C258.341 96.942 258.192 96.312 258.192 95.584C258.192 94.8747 258.337 94.254 258.626 93.722C258.925 93.19 259.331 92.7747 259.844 92.476C260.367 92.168 260.959 92.014 261.622 92.014C262.593 92.014 263.358 92.322 263.918 92.938C264.487 93.554 264.772 94.394 264.772 95.458V95.976H259.872C260.003 97.1987 260.703 97.81 261.972 97.81C262.355 97.81 262.737 97.754 263.12 97.642C263.503 97.5207 263.853 97.334 264.17 97.082L264.66 98.258C264.333 98.5287 263.923 98.7433 263.428 98.902C262.933 99.0607 262.439 99.14 261.944 99.14ZM261.692 93.204C261.179 93.204 260.763 93.3627 260.446 93.68C260.129 93.9973 259.937 94.4267 259.872 94.968H263.316C263.279 94.3987 263.12 93.9647 262.84 93.666C262.569 93.358 262.187 93.204 261.692 93.204ZM266.158 99V92.154H267.866V93.218C268.099 92.826 268.412 92.5273 268.804 92.322C269.205 92.1167 269.653 92.014 270.148 92.014C271.763 92.014 272.57 92.952 272.57 94.828V99H270.82V94.912C270.82 94.38 270.717 93.9927 270.512 93.75C270.316 93.5073 270.008 93.386 269.588 93.386C269.075 93.386 268.664 93.5493 268.356 93.876C268.057 94.1933 267.908 94.618 267.908 95.15V99H266.158ZM277.484 99.14C275.673 99.14 274.768 98.244 274.768 96.452V93.47H273.452V92.154H274.768V90.11H276.518V92.154H278.59V93.47H276.518V96.354C276.518 96.802 276.616 97.138 276.812 97.362C277.008 97.586 277.325 97.698 277.764 97.698C277.894 97.698 278.03 97.684 278.17 97.656C278.31 97.6187 278.454 97.5813 278.604 97.544L278.87 98.832C278.702 98.9253 278.487 99 278.226 99.056C277.974 99.112 277.726 99.14 277.484 99.14ZM18.032 118.14C17.3227 118.14 16.7067 117.995 16.184 117.706C15.6613 117.417 15.2553 117.006 14.966 116.474C14.6767 115.933 14.532 115.298 14.532 114.57C14.532 113.842 14.6767 113.212 14.966 112.68C15.2553 112.148 15.6613 111.737 16.184 111.448C16.7067 111.159 17.3227 111.014 18.032 111.014C18.7413 111.014 19.3573 111.159 19.88 111.448C20.4027 111.737 20.8087 112.148 21.098 112.68C21.3873 113.212 21.532 113.842 21.532 114.57C21.532 115.298 21.3873 115.933 21.098 116.474C20.8087 117.006 20.4027 117.417 19.88 117.706C19.3573 117.995 18.7413 118.14 18.032 118.14ZM18.032 116.81C18.5547 116.81 18.9747 116.623 19.292 116.25C19.6093 115.867 19.768 115.307 19.768 114.57C19.768 113.823 19.6093 113.268 19.292 112.904C18.9747 112.531 18.5547 112.344 18.032 112.344C17.5093 112.344 17.0893 112.531 16.772 112.904C16.4547 113.268 16.296 113.823 16.296 114.57C16.296 115.307 16.4547 115.867 16.772 116.25C17.0893 116.623 17.5093 116.81 18.032 116.81ZM26.9244 118.14C26.4204 118.14 25.9677 118.028 25.5664 117.804C25.1744 117.58 24.8804 117.277 24.6844 116.894V118H22.9764V108.13H24.7264V112.162C24.9317 111.817 25.2257 111.541 25.6084 111.336C26.0004 111.121 26.4391 111.014 26.9244 111.014C27.5311 111.014 28.0584 111.159 28.5064 111.448C28.9544 111.737 29.3044 112.148 29.5564 112.68C29.8084 113.203 29.9344 113.833 29.9344 114.57C29.9344 115.298 29.8084 115.933 29.5564 116.474C29.3044 117.006 28.9497 117.417 28.4924 117.706C28.0444 117.995 27.5217 118.14 26.9244 118.14ZM26.4344 116.81C26.9571 116.81 27.3771 116.623 27.6944 116.25C28.0117 115.867 28.1704 115.307 28.1704 114.57C28.1704 113.823 28.0117 113.268 27.6944 112.904C27.3771 112.531 26.9571 112.344 26.4344 112.344C25.9117 112.344 25.4917 112.531 25.1744 112.904C24.8571 113.268 24.6984 113.823 24.6984 114.57C24.6984 115.307 24.8571 115.867 25.1744 116.25C25.4917 116.623 25.9117 116.81 26.4344 116.81ZM34.4386 118.14C32.6279 118.14 31.7226 117.244 31.7226 115.452V112.47H30.4066V111.154H31.7226V109.11H33.4726V111.154H35.5446V112.47H33.4726V115.354C33.4726 115.802 33.5706 116.138 33.7666 116.362C33.9626 116.586 34.2799 116.698 34.7186 116.698C34.8492 116.698 34.9846 116.684 35.1246 116.656C35.2646 116.619 35.4092 116.581 35.5586 116.544L35.8246 117.832C35.6566 117.925 35.4419 118 35.1806 118.056C34.9286 118.112 34.6812 118.14 34.4386 118.14ZM38.9296 118.14C38.435 118.14 37.9916 118.047 37.5996 117.86C37.217 117.664 36.9136 117.403 36.6896 117.076C36.475 116.749 36.3676 116.381 36.3676 115.97C36.3676 115.466 36.4983 115.069 36.7596 114.78C37.021 114.481 37.4456 114.267 38.0336 114.136C38.6216 114.005 39.4103 113.94 40.3996 113.94H40.8896V113.646C40.8896 113.179 40.787 112.843 40.5816 112.638C40.3763 112.433 40.031 112.33 39.5456 112.33C39.163 112.33 38.771 112.391 38.3696 112.512C37.9683 112.624 37.5623 112.801 37.1516 113.044L36.6476 111.854C36.8903 111.686 37.175 111.541 37.5016 111.42C37.8376 111.289 38.1876 111.191 38.5516 111.126C38.925 111.051 39.275 111.014 39.6016 111.014C40.6003 111.014 41.3423 111.247 41.8276 111.714C42.313 112.171 42.5556 112.885 42.5556 113.856V118H40.9176V116.908C40.759 117.291 40.507 117.594 40.1616 117.818C39.8163 118.033 39.4056 118.14 38.9296 118.14ZM39.2936 116.936C39.751 116.936 40.129 116.777 40.4276 116.46C40.7356 116.143 40.8896 115.741 40.8896 115.256V114.948H40.4136C39.5363 114.948 38.925 115.018 38.5796 115.158C38.2436 115.289 38.0756 115.531 38.0756 115.886C38.0756 116.194 38.183 116.446 38.3976 116.642C38.6123 116.838 38.911 116.936 39.2936 116.936ZM44.2199 109.684V107.976H46.1799V109.684H44.2199ZM44.3319 118V111.154H46.0819V118H44.3319ZM47.9002 118V111.154H49.6082V112.218C49.8416 111.826 50.1542 111.527 50.5462 111.322C50.9476 111.117 51.3956 111.014 51.8902 111.014C53.5049 111.014 54.3122 111.952 54.3122 113.828V118H52.5622V113.912C52.5622 113.38 52.4596 112.993 52.2542 112.75C52.0582 112.507 51.7502 112.386 51.3302 112.386C50.8169 112.386 50.4062 112.549 50.0982 112.876C49.7996 113.193 49.6502 113.618 49.6502 114.15V118H47.9002ZM59.4637 118.14C58.689 118.14 58.0217 117.995 57.4617 117.706C56.9017 117.417 56.4677 117.006 56.1597 116.474C55.861 115.942 55.7117 115.312 55.7117 114.584C55.7117 113.875 55.8564 113.254 56.1457 112.722C56.4444 112.19 56.8504 111.775 57.3637 111.476C57.8864 111.168 58.479 111.014 59.1417 111.014C60.1124 111.014 60.8777 111.322 61.4377 111.938C62.007 112.554 62.2917 113.394 62.2917 114.458V114.976H57.3917C57.5224 116.199 58.2224 116.81 59.4917 116.81C59.8744 116.81 60.257 116.754 60.6397 116.642C61.0224 116.521 61.3724 116.334 61.6897 116.082L62.1797 117.258C61.853 117.529 61.4424 117.743 60.9477 117.902C60.453 118.061 59.9584 118.14 59.4637 118.14ZM59.2117 112.204C58.6984 112.204 58.283 112.363 57.9657 112.68C57.6484 112.997 57.457 113.427 57.3917 113.968H60.8357C60.7984 113.399 60.6397 112.965 60.3597 112.666C60.089 112.358 59.7064 112.204 59.2117 112.204ZM66.3096 118.14C65.7122 118.14 65.1849 117.995 64.7276 117.706C64.2796 117.417 63.9296 117.006 63.6776 116.474C63.4256 115.933 63.2996 115.298 63.2996 114.57C63.2996 113.833 63.4256 113.203 63.6776 112.68C63.9296 112.148 64.2796 111.737 64.7276 111.448C65.1849 111.159 65.7122 111.014 66.3096 111.014C66.7949 111.014 67.2336 111.121 67.6256 111.336C68.0176 111.551 68.3116 111.835 68.5076 112.19V108.13H70.2576V118H68.5496V116.866C68.3629 117.258 68.0689 117.571 67.6676 117.804C67.2662 118.028 66.8136 118.14 66.3096 118.14ZM66.7996 116.81C67.3222 116.81 67.7422 116.623 68.0596 116.25C68.3769 115.867 68.5356 115.307 68.5356 114.57C68.5356 113.823 68.3769 113.268 68.0596 112.904C67.7422 112.531 67.3222 112.344 66.7996 112.344C66.2769 112.344 65.8569 112.531 65.5396 112.904C65.2222 113.268 65.0636 113.823 65.0636 114.57C65.0636 115.307 65.2222 115.867 65.5396 116.25C65.8569 116.623 66.2769 116.81 66.7996 116.81ZM75.7335 109.684V107.976H77.6935V109.684H75.7335ZM75.8455 118V111.154H77.5955V118H75.8455ZM79.4139 118V111.154H81.1219V112.218C81.3552 111.826 81.6679 111.527 82.0599 111.322C82.4612 111.117 82.9092 111.014 83.4039 111.014C85.0186 111.014 85.8259 111.952 85.8259 113.828V118H84.0759V113.912C84.0759 113.38 83.9732 112.993 83.7679 112.75C83.5719 112.507 83.2639 112.386 82.8439 112.386C82.3306 112.386 81.9199 112.549 81.6119 112.876C81.3132 113.193 81.1639 113.618 81.1639 114.15V118H79.4139ZM94.5128 118.14C92.7021 118.14 91.7968 117.244 91.7968 115.452V112.47H90.4808V111.154H91.7968V109.11H93.5468V111.154H95.6188V112.47H93.5468V115.354C93.5468 115.802 93.6448 116.138 93.8408 116.362C94.0368 116.586 94.3541 116.698 94.7928 116.698C94.9235 116.698 95.0588 116.684 95.1988 116.656C95.3388 116.619 95.4835 116.581 95.6328 116.544L95.8988 117.832C95.7308 117.925 95.5161 118 95.2548 118.056C95.0028 118.112 94.7555 118.14 94.5128 118.14ZM96.7498 118V108.13H98.4998V112.148C98.7332 111.775 99.0458 111.495 99.4378 111.308C99.8298 111.112 100.264 111.014 100.74 111.014C102.355 111.014 103.162 111.952 103.162 113.828V118H101.412V113.912C101.412 113.38 101.309 112.993 101.104 112.75C100.908 112.507 100.6 112.386 100.18 112.386C99.6665 112.386 99.2558 112.549 98.9478 112.876C98.6492 113.193 98.4998 113.618 98.4998 114.15V118H96.7498ZM108.313 118.14C107.539 118.14 106.871 117.995 106.311 117.706C105.751 117.417 105.317 117.006 105.009 116.474C104.711 115.942 104.561 115.312 104.561 114.584C104.561 113.875 104.706 113.254 104.995 112.722C105.294 112.19 105.7 111.775 106.213 111.476C106.736 111.168 107.329 111.014 107.991 111.014C108.962 111.014 109.727 111.322 110.287 111.938C110.857 112.554 111.141 113.394 111.141 114.458V114.976H106.241C106.372 116.199 107.072 116.81 108.341 116.81C108.724 116.81 109.107 116.754 109.489 116.642C109.872 116.521 110.222 116.334 110.539 116.082L111.029 117.258C110.703 117.529 110.292 117.743 109.797 117.902C109.303 118.061 108.808 118.14 108.313 118.14ZM108.061 112.204C107.548 112.204 107.133 112.363 106.815 112.68C106.498 112.997 106.307 113.427 106.241 113.968H109.685C109.648 113.399 109.489 112.965 109.209 112.666C108.939 112.358 108.556 112.204 108.061 112.204ZM119.437 118.14C117.626 118.14 116.721 117.244 116.721 115.452V112.47H115.405V111.154H116.721V109.11H118.471V111.154H120.543V112.47H118.471V115.354C118.471 115.802 118.569 116.138 118.765 116.362C118.961 116.586 119.278 116.698 119.717 116.698C119.847 116.698 119.983 116.684 120.123 116.656C120.263 116.619 120.407 116.581 120.557 116.544L120.823 117.832C120.655 117.925 120.44 118 120.179 118.056C119.927 118.112 119.679 118.14 119.437 118.14ZM123.928 118.14C123.433 118.14 122.99 118.047 122.598 117.86C122.215 117.664 121.912 117.403 121.688 117.076C121.473 116.749 121.366 116.381 121.366 115.97C121.366 115.466 121.496 115.069 121.758 114.78C122.019 114.481 122.444 114.267 123.032 114.136C123.62 114.005 124.408 113.94 125.398 113.94H125.888V113.646C125.888 113.179 125.785 112.843 125.58 112.638C125.374 112.433 125.029 112.33 124.544 112.33C124.161 112.33 123.769 112.391 123.368 112.512C122.966 112.624 122.56 112.801 122.15 113.044L121.646 111.854C121.888 111.686 122.173 111.541 122.5 111.42C122.836 111.289 123.186 111.191 123.55 111.126C123.923 111.051 124.273 111.014 124.6 111.014C125.598 111.014 126.34 111.247 126.826 111.714C127.311 112.171 127.554 112.885 127.554 113.856V118H125.916V116.908C125.757 117.291 125.505 117.594 125.16 117.818C124.814 118.033 124.404 118.14 123.928 118.14ZM124.292 116.936C124.749 116.936 125.127 116.777 125.426 116.46C125.734 116.143 125.888 115.741 125.888 115.256V114.948H125.412C124.534 114.948 123.923 115.018 123.578 115.158C123.242 115.289 123.074 115.531 123.074 115.886C123.074 116.194 123.181 116.446 123.396 116.642C123.61 116.838 123.909 116.936 124.292 116.936ZM129.33 118V111.154H131.038V112.358C131.374 111.546 132.093 111.098 133.194 111.014L133.726 110.972L133.838 112.456L132.83 112.554C131.682 112.666 131.108 113.254 131.108 114.318V118H129.33ZM137.895 120.66C137.26 120.66 136.663 120.585 136.103 120.436C135.552 120.296 135.067 120.077 134.647 119.778L135.151 118.56C135.543 118.821 135.963 119.013 136.411 119.134C136.859 119.265 137.307 119.33 137.755 119.33C139.006 119.33 139.631 118.728 139.631 117.524V116.586C139.435 116.969 139.132 117.272 138.721 117.496C138.32 117.72 137.872 117.832 137.377 117.832C136.761 117.832 136.224 117.692 135.767 117.412C135.31 117.123 134.955 116.721 134.703 116.208C134.451 115.695 134.325 115.097 134.325 114.416C134.325 113.735 134.451 113.142 134.703 112.638C134.955 112.125 135.31 111.728 135.767 111.448C136.224 111.159 136.761 111.014 137.377 111.014C137.89 111.014 138.348 111.131 138.749 111.364C139.15 111.588 139.444 111.891 139.631 112.274V111.154H141.339V117.314C141.339 118.425 141.045 119.26 140.457 119.82C139.869 120.38 139.015 120.66 137.895 120.66ZM137.853 116.502C138.394 116.502 138.824 116.315 139.141 115.942C139.458 115.569 139.617 115.06 139.617 114.416C139.617 113.772 139.458 113.268 139.141 112.904C138.824 112.531 138.394 112.344 137.853 112.344C137.312 112.344 136.882 112.531 136.565 112.904C136.248 113.268 136.089 113.772 136.089 114.416C136.089 115.06 136.248 115.569 136.565 115.942C136.882 116.315 137.312 116.502 137.853 116.502ZM146.526 118.14C145.752 118.14 145.084 117.995 144.524 117.706C143.964 117.417 143.53 117.006 143.222 116.474C142.924 115.942 142.774 115.312 142.774 114.584C142.774 113.875 142.919 113.254 143.208 112.722C143.507 112.19 143.913 111.775 144.426 111.476C144.949 111.168 145.542 111.014 146.204 111.014C147.175 111.014 147.94 111.322 148.5 111.938C149.07 112.554 149.354 113.394 149.354 114.458V114.976H144.454C144.585 116.199 145.285 116.81 146.554 116.81C146.937 116.81 147.32 116.754 147.702 116.642C148.085 116.521 148.435 116.334 148.752 116.082L149.242 117.258C148.916 117.529 148.505 117.743 148.01 117.902C147.516 118.061 147.021 118.14 146.526 118.14ZM146.274 112.204C145.761 112.204 145.346 112.363 145.028 112.68C144.711 112.997 144.52 113.427 144.454 113.968H147.898C147.861 113.399 147.702 112.965 147.422 112.666C147.152 112.358 146.769 112.204 146.274 112.204ZM153.849 118.14C152.038 118.14 151.133 117.244 151.133 115.452V112.47H149.817V111.154H151.133V109.11H152.883V111.154H154.955V112.47H152.883V115.354C152.883 115.802 152.981 116.138 153.177 116.362C153.373 116.586 153.69 116.698 154.129 116.698C154.259 116.698 154.395 116.684 154.535 116.656C154.675 116.619 154.819 116.581 154.969 116.544L155.235 117.832C155.067 117.925 154.852 118 154.591 118.056C154.339 118.112 154.091 118.14 153.849 118.14ZM156.178 118V116.054H158.138V118H156.178Z" fill="white"/>
</svg>
