<svg width="301" height="145" viewBox="0 0 301 145" fill="none" xmlns="http://www.w3.org/2000/svg">
<rect width="301" height="145" rx="20" fill="#7B0000"/>
<path d="M14.018 32L19.76 19.31H21.65L27.392 32H25.052L23.792 29.066H17.6L16.358 32H14.018ZM20.678 21.812L18.392 27.23H23L20.714 21.812H20.678ZM32.5446 32.18C31.6206 32.18 30.8166 31.994 30.1326 31.622C29.4486 31.238 28.9206 30.698 28.5486 30.002C28.1766 29.306 27.9906 28.49 27.9906 27.554C27.9906 26.618 28.1766 25.814 28.5486 25.142C28.9206 24.458 29.4486 23.936 30.1326 23.576C30.8166 23.204 31.6206 23.018 32.5446 23.018C33.1086 23.018 33.6666 23.108 34.2186 23.288C34.7706 23.468 35.2266 23.72 35.5866 24.044L34.9206 25.61C34.6086 25.334 34.2546 25.124 33.8586 24.98C33.4746 24.836 33.1026 24.764 32.7426 24.764C31.9626 24.764 31.3566 25.01 30.9246 25.502C30.5046 25.982 30.2946 26.672 30.2946 27.572C30.2946 28.46 30.5046 29.162 30.9246 29.678C31.3566 30.182 31.9626 30.434 32.7426 30.434C33.0906 30.434 33.4626 30.362 33.8586 30.218C34.2546 30.074 34.6086 29.858 34.9206 29.57L35.5866 31.154C35.2266 31.466 34.7646 31.718 34.2006 31.91C33.6486 32.09 33.0966 32.18 32.5446 32.18ZM41.034 32.18C38.706 32.18 37.542 31.028 37.542 28.724V24.89H35.85V23.198H37.542V20.57H39.792V23.198H42.456V24.89H39.792V28.598C39.792 29.174 39.918 29.606 40.17 29.894C40.422 30.182 40.83 30.326 41.394 30.326C41.562 30.326 41.736 30.308 41.916 30.272C42.096 30.224 42.282 30.176 42.474 30.128L42.816 31.784C42.6 31.904 42.324 32 41.988 32.072C41.664 32.144 41.346 32.18 41.034 32.18ZM47.0962 32.18C44.9362 32.18 43.8562 30.968 43.8562 28.544V23.198H46.1062V28.58C46.1062 29.204 46.2322 29.666 46.4842 29.966C46.7362 30.266 47.1382 30.416 47.6902 30.416C48.2902 30.416 48.7822 30.212 49.1662 29.804C49.5502 29.384 49.7422 28.832 49.7422 28.148V23.198H51.9922V32H49.7962V30.686C49.2082 31.682 48.3082 32.18 47.0962 32.18ZM57.2321 32.18C56.5961 32.18 56.0261 32.06 55.5221 31.82C55.0301 31.568 54.6401 31.232 54.3521 30.812C54.0761 30.392 53.9381 29.918 53.9381 29.39C53.9381 28.742 54.1061 28.232 54.4421 27.86C54.7781 27.476 55.3241 27.2 56.0801 27.032C56.8361 26.864 57.8501 26.78 59.1221 26.78H59.7521V26.402C59.7521 25.802 59.6201 25.37 59.3561 25.106C59.0921 24.842 58.6481 24.71 58.0241 24.71C57.5321 24.71 57.0281 24.788 56.5121 24.944C55.9961 25.088 55.4741 25.316 54.9461 25.628L54.2981 24.098C54.6101 23.882 54.9761 23.696 55.3961 23.54C55.8281 23.372 56.2781 23.246 56.7461 23.162C57.2261 23.066 57.6761 23.018 58.0961 23.018C59.3801 23.018 60.3341 23.318 60.9581 23.918C61.5821 24.506 61.8941 25.424 61.8941 26.672V32H59.7881V30.596C59.5841 31.088 59.2601 31.478 58.8161 31.766C58.3721 32.042 57.8441 32.18 57.2321 32.18ZM57.7001 30.632C58.2881 30.632 58.7741 30.428 59.1581 30.02C59.5541 29.612 59.7521 29.096 59.7521 28.472V28.076H59.1401C58.0121 28.076 57.2261 28.166 56.7821 28.346C56.3501 28.514 56.1341 28.826 56.1341 29.282C56.1341 29.678 56.2721 30.002 56.5481 30.254C56.8241 30.506 57.2081 30.632 57.7001 30.632ZM67.2378 32.18C66.1938 32.18 65.4198 31.898 64.9158 31.334C64.4238 30.758 64.1778 29.918 64.1778 28.814V19.31H66.4278V28.706C66.4278 29.786 66.8838 30.326 67.7958 30.326C67.9278 30.326 68.0598 30.32 68.1918 30.308C68.3238 30.296 68.4498 30.272 68.5698 30.236L68.5338 32.018C68.1018 32.126 67.6698 32.18 67.2378 32.18ZM79.3674 32.18C78.3714 32.18 77.4474 32.054 76.5954 31.802C75.7434 31.538 75.0234 31.184 74.4354 30.74L75.1374 28.922C75.7254 29.342 76.3674 29.666 77.0634 29.894C77.7714 30.122 78.5394 30.236 79.3674 30.236C80.3154 30.236 81.0054 30.08 81.4374 29.768C81.8694 29.444 82.0854 29.03 82.0854 28.526C82.0854 28.106 81.9294 27.776 81.6174 27.536C81.3174 27.296 80.7954 27.098 80.0514 26.942L78.0714 26.528C75.8154 26.048 74.6874 24.89 74.6874 23.054C74.6874 22.262 74.8974 21.572 75.3174 20.984C75.7374 20.396 76.3194 19.94 77.0634 19.616C77.8074 19.292 78.6654 19.13 79.6374 19.13C80.5014 19.13 81.3114 19.262 82.0674 19.526C82.8234 19.778 83.4534 20.138 83.9574 20.606L83.2554 22.334C82.2594 21.494 81.0474 21.074 79.6194 21.074C78.7914 21.074 78.1434 21.248 77.6754 21.596C77.2074 21.944 76.9734 22.4 76.9734 22.964C76.9734 23.396 77.1174 23.744 77.4054 24.008C77.6934 24.26 78.1854 24.458 78.8814 24.602L80.8434 25.016C82.0314 25.268 82.9134 25.664 83.4894 26.204C84.0774 26.744 84.3714 27.464 84.3714 28.364C84.3714 29.12 84.1674 29.786 83.7594 30.362C83.3514 30.938 82.7694 31.388 82.0134 31.712C81.2694 32.024 80.3874 32.18 79.3674 32.18ZM89.0309 32.18C88.3949 32.18 87.8249 32.06 87.3209 31.82C86.8289 31.568 86.4389 31.232 86.1509 30.812C85.8749 30.392 85.7369 29.918 85.7369 29.39C85.7369 28.742 85.9049 28.232 86.2409 27.86C86.5769 27.476 87.1229 27.2 87.8789 27.032C88.6349 26.864 89.6489 26.78 90.9209 26.78H91.5509V26.402C91.5509 25.802 91.4189 25.37 91.1549 25.106C90.8909 24.842 90.4469 24.71 89.8229 24.71C89.3309 24.71 88.8269 24.788 88.3109 24.944C87.7949 25.088 87.2729 25.316 86.7449 25.628L86.0969 24.098C86.4089 23.882 86.7749 23.696 87.1949 23.54C87.6269 23.372 88.0769 23.246 88.5449 23.162C89.0249 23.066 89.4749 23.018 89.8949 23.018C91.1789 23.018 92.1329 23.318 92.7569 23.918C93.3809 24.506 93.6929 25.424 93.6929 26.672V32H91.5869V30.596C91.3829 31.088 91.0589 31.478 90.6149 31.766C90.1709 32.042 89.6429 32.18 89.0309 32.18ZM89.4989 30.632C90.0869 30.632 90.5729 30.428 90.9569 30.02C91.3529 29.612 91.5509 29.096 91.5509 28.472V28.076H90.9389C89.8109 28.076 89.0249 28.166 88.5809 28.346C88.1489 28.514 87.9329 28.826 87.9329 29.282C87.9329 29.678 88.0709 30.002 88.3469 30.254C88.6229 30.506 89.0069 30.632 89.4989 30.632ZM99.0366 32.18C97.9926 32.18 97.2186 31.898 96.7146 31.334C96.2226 30.758 95.9766 29.918 95.9766 28.814V19.31H98.2266V28.706C98.2266 29.786 98.6826 30.326 99.5946 30.326C99.7266 30.326 99.8586 30.32 99.9906 30.308C100.123 30.296 100.249 30.272 100.369 30.236L100.333 32.018C99.9006 32.126 99.4686 32.18 99.0366 32.18ZM105.975 32.18C104.979 32.18 104.121 31.994 103.401 31.622C102.681 31.25 102.123 30.722 101.727 30.038C101.343 29.354 101.151 28.544 101.151 27.608C101.151 26.696 101.337 25.898 101.709 25.214C102.093 24.53 102.615 23.996 103.275 23.612C103.947 23.216 104.709 23.018 105.561 23.018C106.809 23.018 107.793 23.414 108.513 24.206C109.245 24.998 109.611 26.078 109.611 27.446V28.112H103.311C103.479 29.684 104.379 30.47 106.011 30.47C106.503 30.47 106.995 30.398 107.487 30.254C107.979 30.098 108.429 29.858 108.837 29.534L109.467 31.046C109.047 31.394 108.519 31.67 107.883 31.874C107.247 32.078 106.611 32.18 105.975 32.18ZM105.651 24.548C104.991 24.548 104.457 24.752 104.049 25.16C103.641 25.568 103.395 26.12 103.311 26.816H107.739C107.691 26.084 107.487 25.526 107.127 25.142C106.779 24.746 106.287 24.548 105.651 24.548ZM114.615 32.18C113.871 32.18 113.175 32.09 112.527 31.91C111.879 31.73 111.339 31.472 110.907 31.136L111.483 29.66C111.927 29.96 112.425 30.194 112.977 30.362C113.529 30.518 114.081 30.596 114.633 30.596C115.209 30.596 115.635 30.5 115.911 30.308C116.199 30.104 116.343 29.84 116.343 29.516C116.343 29.012 115.971 28.688 115.227 28.544L113.427 28.202C111.903 27.914 111.141 27.122 111.141 25.826C111.141 25.25 111.297 24.752 111.609 24.332C111.933 23.912 112.377 23.588 112.941 23.36C113.505 23.132 114.153 23.018 114.885 23.018C115.509 23.018 116.109 23.108 116.685 23.288C117.261 23.456 117.753 23.714 118.161 24.062L117.549 25.538C117.201 25.25 116.781 25.022 116.289 24.854C115.809 24.686 115.347 24.602 114.903 24.602C114.315 24.602 113.877 24.704 113.589 24.908C113.313 25.112 113.175 25.382 113.175 25.718C113.175 26.246 113.517 26.57 114.201 26.69L116.001 27.032C116.781 27.176 117.369 27.44 117.765 27.824C118.173 28.208 118.377 28.724 118.377 29.372C118.377 30.248 118.035 30.938 117.351 31.442C116.667 31.934 115.755 32.18 114.615 32.18ZM129.281 32.18C127.925 32.18 126.851 31.868 126.059 31.244C125.279 30.608 124.889 29.78 124.889 28.76C124.889 27.944 125.117 27.236 125.573 26.636C126.029 26.024 126.659 25.478 127.463 24.998L127.571 24.944C127.103 24.452 126.767 23.984 126.563 23.54C126.359 23.084 126.257 22.622 126.257 22.154C126.257 21.254 126.575 20.528 127.211 19.976C127.859 19.412 128.711 19.13 129.767 19.13C130.751 19.13 131.531 19.382 132.107 19.886C132.683 20.378 132.971 21.05 132.971 21.902C132.971 22.55 132.785 23.15 132.413 23.702C132.053 24.242 131.447 24.764 130.595 25.268L133.025 27.86C133.253 27.38 133.433 26.846 133.565 26.258C133.709 25.658 133.799 25.034 133.835 24.386H135.707C135.635 26.246 135.185 27.842 134.357 29.174L137.165 32H134.429L133.133 30.632C132.617 31.112 132.029 31.49 131.369 31.766C130.709 32.042 130.013 32.18 129.281 32.18ZM129.767 20.732C129.335 20.732 128.987 20.858 128.723 21.11C128.459 21.35 128.327 21.68 128.327 22.1C128.327 22.412 128.399 22.706 128.543 22.982C128.699 23.246 128.969 23.594 129.353 24.026C129.989 23.654 130.433 23.318 130.685 23.018C130.949 22.718 131.081 22.376 131.081 21.992C131.081 21.584 130.961 21.272 130.721 21.056C130.481 20.84 130.163 20.732 129.767 20.732ZM129.407 30.398C130.379 30.398 131.201 30.062 131.873 29.39L128.813 26.222C128.201 26.57 127.763 26.924 127.499 27.284C127.247 27.644 127.121 28.076 127.121 28.58C127.121 29.144 127.313 29.588 127.697 29.912C128.093 30.236 128.663 30.398 129.407 30.398ZM15.386 57V44.31H20.894C22.286 44.31 23.36 44.658 24.116 45.354C24.872 46.05 25.25 47.022 25.25 48.27C25.25 49.518 24.872 50.496 24.116 51.204C23.36 51.9 22.286 52.248 20.894 52.248H17.69V57H15.386ZM17.69 50.43H20.534C22.19 50.43 23.018 49.71 23.018 48.27C23.018 46.842 22.19 46.128 20.534 46.128H17.69V50.43ZM26.7364 57V48.198H28.9324V49.746C29.3644 48.702 30.2884 48.126 31.7044 48.018L32.3884 47.964L32.5324 49.872L31.2364 49.998C29.7604 50.142 29.0224 50.898 29.0224 52.266V57H26.7364ZM37.6586 57.18C36.7466 57.18 35.9546 56.994 35.2826 56.622C34.6106 56.25 34.0886 55.722 33.7166 55.038C33.3446 54.342 33.1586 53.526 33.1586 52.59C33.1586 51.654 33.3446 50.844 33.7166 50.16C34.0886 49.476 34.6106 48.948 35.2826 48.576C35.9546 48.204 36.7466 48.018 37.6586 48.018C38.5706 48.018 39.3626 48.204 40.0346 48.576C40.7066 48.948 41.2286 49.476 41.6006 50.16C41.9726 50.844 42.1586 51.654 42.1586 52.59C42.1586 53.526 41.9726 54.342 41.6006 55.038C41.2286 55.722 40.7066 56.25 40.0346 56.622C39.3626 56.994 38.5706 57.18 37.6586 57.18ZM37.6586 55.47C38.3306 55.47 38.8706 55.23 39.2786 54.75C39.6866 54.258 39.8906 53.538 39.8906 52.59C39.8906 51.63 39.6866 50.916 39.2786 50.448C38.8706 49.968 38.3306 49.728 37.6586 49.728C36.9866 49.728 36.4466 49.968 36.0386 50.448C35.6306 50.916 35.4266 51.63 35.4266 52.59C35.4266 53.538 35.6306 54.258 36.0386 54.75C36.4466 55.23 36.9866 55.47 37.6586 55.47ZM44.0517 57V48.198H46.2477V49.548C46.5117 49.068 46.8777 48.696 47.3457 48.432C47.8137 48.156 48.3537 48.018 48.9657 48.018C50.2857 48.018 51.1497 48.594 51.5577 49.746C51.8337 49.206 52.2297 48.786 52.7457 48.486C53.2617 48.174 53.8497 48.018 54.5097 48.018C56.4897 48.018 57.4797 49.224 57.4797 51.636V57H55.2297V51.726C55.2297 51.054 55.1157 50.562 54.8877 50.25C54.6717 49.938 54.2997 49.782 53.7717 49.782C53.1837 49.782 52.7217 49.992 52.3857 50.412C52.0497 50.82 51.8817 51.39 51.8817 52.122V57H49.6317V51.726C49.6317 51.054 49.5177 50.562 49.2897 50.25C49.0737 49.938 48.7077 49.782 48.1917 49.782C47.6037 49.782 47.1417 49.992 46.8057 50.412C46.4697 50.82 46.3017 51.39 46.3017 52.122V57H44.0517ZM63.8149 57.18C62.9029 57.18 62.1109 56.994 61.4389 56.622C60.7669 56.25 60.2449 55.722 59.8729 55.038C59.5009 54.342 59.3149 53.526 59.3149 52.59C59.3149 51.654 59.5009 50.844 59.8729 50.16C60.2449 49.476 60.7669 48.948 61.4389 48.576C62.1109 48.204 62.9029 48.018 63.8149 48.018C64.7269 48.018 65.5189 48.204 66.1909 48.576C66.8629 48.948 67.3849 49.476 67.7569 50.16C68.1289 50.844 68.3149 51.654 68.3149 52.59C68.3149 53.526 68.1289 54.342 67.7569 55.038C67.3849 55.722 66.8629 56.25 66.1909 56.622C65.5189 56.994 64.7269 57.18 63.8149 57.18ZM63.8149 55.47C64.4869 55.47 65.0269 55.23 65.4349 54.75C65.8429 54.258 66.0469 53.538 66.0469 52.59C66.0469 51.63 65.8429 50.916 65.4349 50.448C65.0269 49.968 64.4869 49.728 63.8149 49.728C63.1429 49.728 62.6029 49.968 62.1949 50.448C61.7869 50.916 61.5829 51.63 61.5829 52.59C61.5829 53.538 61.7869 54.258 62.1949 54.75C62.6029 55.23 63.1429 55.47 63.8149 55.47ZM74.1161 57.18C71.7881 57.18 70.6241 56.028 70.6241 53.724V49.89H68.9321V48.198H70.6241V45.57H72.8741V48.198H75.5381V49.89H72.8741V53.598C72.8741 54.174 73.0001 54.606 73.2521 54.894C73.5041 55.182 73.9121 55.326 74.4761 55.326C74.6441 55.326 74.8181 55.308 74.9981 55.272C75.1781 55.224 75.3641 55.176 75.5561 55.128L75.8981 56.784C75.6821 56.904 75.4061 57 75.0701 57.072C74.7461 57.144 74.4281 57.18 74.1161 57.18ZM76.8483 46.308V44.112H79.3683V46.308H76.8483ZM76.9923 57V48.198H79.2423V57H76.9923ZM85.5942 57.18C84.6822 57.18 83.8902 56.994 83.2182 56.622C82.5462 56.25 82.0242 55.722 81.6522 55.038C81.2802 54.342 81.0942 53.526 81.0942 52.59C81.0942 51.654 81.2802 50.844 81.6522 50.16C82.0242 49.476 82.5462 48.948 83.2182 48.576C83.8902 48.204 84.6822 48.018 85.5942 48.018C86.5062 48.018 87.2982 48.204 87.9702 48.576C88.6422 48.948 89.1642 49.476 89.5362 50.16C89.9082 50.844 90.0942 51.654 90.0942 52.59C90.0942 53.526 89.9082 54.342 89.5362 55.038C89.1642 55.722 88.6422 56.25 87.9702 56.622C87.2982 56.994 86.5062 57.18 85.5942 57.18ZM85.5942 55.47C86.2662 55.47 86.8062 55.23 87.2142 54.75C87.6222 54.258 87.8262 53.538 87.8262 52.59C87.8262 51.63 87.6222 50.916 87.2142 50.448C86.8062 49.968 86.2662 49.728 85.5942 49.728C84.9222 49.728 84.3822 49.968 83.9742 50.448C83.5662 50.916 83.3622 51.63 83.3622 52.59C83.3622 53.538 83.5662 54.258 83.9742 54.75C84.3822 55.23 84.9222 55.47 85.5942 55.47ZM91.9513 57V48.198H94.1473V49.566C94.4473 49.062 94.8493 48.678 95.3533 48.414C95.8693 48.15 96.4453 48.018 97.0813 48.018C99.1573 48.018 100.195 49.224 100.195 51.636V57H97.9453V51.744C97.9453 51.06 97.8133 50.562 97.5493 50.25C97.2973 49.938 96.9013 49.782 96.3613 49.782C95.7013 49.782 95.1733 49.992 94.7773 50.412C94.3933 50.82 94.2013 51.366 94.2013 52.05V57H91.9513Z" fill="white"/>
<mask id="mask0_25_464" style="mask-type:alpha" maskUnits="userSpaceOnUse" x="0" y="0" width="301" height="145">
<rect width="301" height="145" rx="20" fill="#7B0000"/>
</mask>
<g mask="url(#mask0_25_464)">
<path d="M324.522 137.11H164V137.19H324.522V137.11Z" fill="#EBEBEB"/>
<path d="M308.438 142.276H297.805V142.356H308.438V142.276Z" fill="#EBEBEB"/>
<path d="M270.337 143.149H267.547V143.229H270.337V143.149Z" fill="#EBEBEB"/>
<path d="M297.484 139.296H291.323V139.377H297.484V139.296Z" fill="#EBEBEB"/>
<path d="M194.708 139.836H180.842V139.916H194.708V139.836Z" fill="#EBEBEB"/>
<path d="M199.601 139.836H197.568V139.916H199.601V139.836Z" fill="#EBEBEB"/>
<path d="M236.283 141.191H206.208V141.271H236.283V141.191Z" fill="#EBEBEB"/>
<path d="M240.088 122.791H178.097C177.611 122.791 177.146 122.597 176.803 122.253C176.46 121.91 176.267 121.444 176.267 120.958V33.8171C176.271 33.3343 176.466 32.8726 176.809 32.5324C177.151 32.1921 177.614 32.0008 178.097 32H240.088C240.574 32 241.04 32.1931 241.384 32.5369C241.728 32.8807 241.921 33.347 241.921 33.8332V120.958C241.921 121.445 241.728 121.911 241.384 122.255C241.04 122.598 240.574 122.791 240.088 122.791ZM178.097 32.0642C177.633 32.0651 177.188 32.2501 176.86 32.5788C176.532 32.9074 176.347 33.3528 176.347 33.8171V120.958C176.347 121.423 176.532 121.868 176.86 122.197C177.188 122.525 177.633 122.71 178.097 122.711H240.088C240.552 122.71 240.998 122.525 241.326 122.197C241.655 121.868 241.84 121.423 241.841 120.958V33.8171C241.84 33.3525 241.655 32.9071 241.326 32.5786C240.998 32.25 240.552 32.0651 240.088 32.0642H178.097Z" fill="#EBEBEB"/>
<path d="M309.533 122.791H247.539C247.053 122.791 246.587 122.597 246.244 122.254C245.9 121.91 245.707 121.444 245.706 120.958V33.8171C245.711 33.334 245.906 32.8723 246.249 32.5322C246.593 32.192 247.056 32.0008 247.539 32H309.533C310.015 32.0017 310.477 32.1933 310.819 32.5335C311.161 32.8736 311.355 33.3348 311.36 33.8171V120.958C311.36 121.443 311.167 121.909 310.825 122.252C310.483 122.596 310.018 122.79 309.533 122.791ZM247.539 32.0642C247.074 32.0651 246.629 32.25 246.301 32.5786C245.972 32.9071 245.787 33.3525 245.786 33.8171V120.958C245.787 121.423 245.972 121.868 246.301 122.197C246.629 122.525 247.074 122.71 247.539 122.711H309.533C309.998 122.71 310.443 122.525 310.771 122.197C311.1 121.868 311.285 121.423 311.286 120.958V33.8171C311.285 33.3525 311.1 32.9071 310.771 32.5786C310.443 32.25 309.998 32.0651 309.533 32.0642H247.539Z" fill="#EBEBEB"/>
<path d="M236.264 50.9448L239.58 50.46L236.264 49.9753L237.083 48.6782L235.786 49.4969L235.301 46.1837L234.816 49.4969L233.519 48.6782L234.341 49.9753L231.025 50.46L234.341 50.9448L233.519 52.2418L234.816 51.42L235.301 54.7364L235.786 51.42L237.083 52.2418L236.264 50.9448Z" fill="#F5F5F5"/>
<path d="M269.601 59.7962L272.914 59.3114L269.601 58.8266L270.42 57.5296L269.123 58.3483L268.638 55.0319L268.153 58.3483L266.856 57.5296L267.678 58.8266L264.362 59.3114L267.678 59.7962L266.856 61.0932L268.153 60.2713L268.638 63.5877L269.123 60.2713L270.42 61.0932L269.601 59.7962Z" fill="#F5F5F5"/>
<path d="M222.976 74.179L226.292 73.6942L222.976 73.2062L223.798 71.9124L222.501 72.7311L222.016 69.4147L221.531 72.7311L220.234 71.9124L221.056 73.2062L217.74 73.6942L221.056 74.179L220.234 75.476L221.531 74.6541L222.016 77.9705L222.501 74.6541L223.798 75.476L222.976 74.179Z" fill="#F5F5F5"/>
<path d="M194.946 74.179L198.259 73.6942L194.946 73.2062L195.764 71.9124L194.467 72.7311L193.982 69.4147L193.498 72.7311L192.201 71.9124L193.022 73.2062L189.706 73.6942L193.022 74.179L192.201 75.476L193.498 74.6541L193.982 77.9705L194.467 74.6541L195.764 75.476L194.946 74.179Z" fill="#F5F5F5"/>
<path d="M210.824 93.9199L214.141 93.4352L210.824 92.9472L211.646 91.6534L210.349 92.472L209.864 89.1556L209.377 92.472L208.083 91.6534L208.901 92.9472L205.585 93.4352L208.901 93.9199L208.083 95.217L209.377 94.3951L209.864 97.7115L210.349 94.3951L211.646 95.217L210.824 93.9199Z" fill="#F5F5F5"/>
<path d="M275.968 83.2902L279.284 82.8054L275.968 82.3206L276.79 81.0236L275.492 81.8454L275.008 78.5291L274.523 81.8454L273.226 81.0236L274.045 82.3206L270.731 82.8054L274.045 83.2902L273.226 84.5872L274.523 83.7685L275.008 87.0849L275.492 83.7685L276.79 84.5872L275.968 83.2902Z" fill="#F5F5F5"/>
<path d="M299.359 112.675L302.672 112.187L299.359 111.703L300.178 110.409L298.881 111.227L298.396 107.911L297.911 111.227L296.614 110.409L297.436 111.703L294.12 112.187L297.436 112.675L296.614 113.969L297.911 113.15L298.396 116.467L298.881 113.15L300.178 113.969L299.359 112.675Z" fill="#F5F5F5"/>
<path d="M271.691 111.655L275.008 111.17L271.691 110.682L272.513 109.388L271.216 110.207L270.731 106.89L270.243 110.207L268.95 109.388L269.768 110.682L266.452 111.17L269.768 111.655L268.95 112.952L270.243 112.13L270.731 115.446L271.216 112.13L272.513 112.952L271.691 111.655Z" fill="#F5F5F5"/>
<path d="M210.824 118.563L214.141 118.075L210.824 117.591L211.646 116.294L210.349 117.115L209.864 113.799L209.377 117.115L208.083 116.294L208.901 117.591L205.585 118.075L208.901 118.563L208.083 119.857L209.377 119.039L209.864 122.355L210.349 119.039L211.646 119.857L210.824 118.563Z" fill="#F5F5F5"/>
<path d="M246.859 103.49L250.175 103.006L246.859 102.521L247.68 101.224L246.383 102.042L245.899 98.7292L245.414 102.042L244.117 101.224L244.935 102.521L241.619 103.006L244.935 103.49L244.117 104.787L245.414 103.965L245.899 107.282L246.383 103.965L247.68 104.787L246.859 103.49Z" fill="#F5F5F5"/>
<path d="M228.045 139.2L231.362 138.715L228.045 138.231L228.864 136.933L227.567 137.752L227.082 134.439L226.597 137.752L225.3 136.933L226.122 138.231L222.806 138.715L226.122 139.2L225.3 140.497L226.597 139.675L227.082 142.992L227.567 139.675L228.864 140.497L228.045 139.2Z" fill="#F5F5F5"/>
<path d="M264.937 137.036L268.253 136.552L264.937 136.067L265.755 134.77L264.461 135.592L263.973 132.275L263.489 135.592L262.192 134.77L263.013 136.067L259.697 136.552L263.013 137.036L262.192 138.333L263.489 137.512L263.973 140.828L264.461 137.512L265.755 138.333L264.937 137.036Z" fill="#F5F5F5"/>
<path d="M265.354 77.1743C263.383 74.256 262.538 69.6779 260.731 67.864C262.13 66.7898 263.615 65.832 265.171 65.0002C266.278 68.1882 266.937 73.1355 269.794 74.3105C268.395 75.3847 266.91 76.3425 265.354 77.1743Z" fill="#EBEBEB"/>
<path d="M268.693 74.8564C268.417 74.6734 268.487 74.3138 268.824 74.0891C266.847 72.4999 266.137 68.8015 265.242 66.0341C265.169 66.0672 265.089 66.0842 265.009 66.084C264.929 66.0837 264.85 66.0663 264.777 66.0328C264.704 65.9993 264.64 65.9505 264.587 65.8898C264.535 65.8291 264.497 65.7579 264.474 65.6809C263.535 66.201 262.625 66.7701 261.745 67.3857C261.814 67.5476 261.819 67.7292 261.759 67.8946C261.7 68.0599 261.58 68.1969 261.424 68.2782C262.763 70.1691 263.579 73.6589 265.042 76.2658C265.207 76.2046 265.387 76.1988 265.555 76.2492C265.723 76.2996 265.87 76.4035 265.973 76.5451C266.909 76.0301 267.816 75.4665 268.693 74.8564ZM263.877 71.617C263.585 70.8369 263.855 69.9893 264.452 69.7132C265.049 69.4371 265.736 69.8962 266.009 70.6956C266.282 71.495 266.07 72.3233 265.476 72.5866C264.882 72.8498 264.166 72.4036 263.887 71.617H263.877Z" fill="#E0E0E0"/>
<path d="M220.52 67.5975C217.698 69.1192 213.418 69.3086 211.633 70.824C210.738 69.3057 209.957 67.7229 209.296 66.0886C212.311 65.4465 216.918 65.4914 218.183 62.8621C219.081 64.3789 219.862 65.962 220.52 67.5975Z" fill="#EBEBEB"/>
<path d="M218.613 64.0113C218.427 64.2585 218.096 64.1398 217.913 63.777C216.308 65.4881 212.857 65.6711 210.24 66.1623C210.268 66.2326 210.281 66.3083 210.277 66.384C210.273 66.4596 210.252 66.5335 210.216 66.6003C210.18 66.6671 210.13 66.7251 210.07 66.7704C210.009 66.8157 209.939 66.847 209.864 66.8622C210.247 67.774 210.699 68.7339 211.251 69.7516C211.499 69.6264 211.861 69.8223 212.054 70.1882C213.887 69.1448 217.159 68.8302 219.666 67.7611C219.617 67.601 219.621 67.4291 219.679 67.2719C219.737 67.1146 219.846 66.9809 219.987 66.8911C219.608 65.9826 219.162 65.0258 218.616 64.0017L218.613 64.0113ZM215.3 68.278C214.962 68.3693 214.602 68.3358 214.287 68.1837C213.971 68.0316 213.721 67.7711 213.582 67.4497C213.367 66.8076 213.839 66.2266 214.593 66.066C215.348 65.9055 216.099 66.2298 216.301 66.8462C216.504 67.4626 216.041 68.0918 215.3 68.278Z" fill="#E0E0E0"/>
<path d="M248.528 63.3276C246.13 61.1927 244.486 57.2278 242.451 56.0816C243.57 54.7194 244.79 53.4434 246.101 52.2644C247.735 54.8777 249.273 59.2214 252.175 59.5072C251.057 60.8703 249.838 62.1473 248.528 63.3276Z" fill="#EBEBEB"/>
<path d="M251.241 60.3033C250.949 60.2134 250.945 59.8635 251.225 59.5681C249.077 58.6467 247.712 55.4651 246.354 53.1889C246.298 53.2402 246.231 53.2783 246.159 53.3005C246.086 53.3227 246.009 53.3285 245.934 53.3175C245.859 53.3064 245.787 53.2788 245.723 53.2366C245.66 53.1944 245.607 53.1386 245.568 53.0734C244.842 53.7476 244.094 54.4988 243.321 55.372C243.523 55.5615 243.462 55.9692 243.183 56.2742C244.788 57.6418 246.207 60.6083 248.072 62.5956C248.206 62.4948 248.369 62.4402 248.536 62.4402C248.703 62.4402 248.866 62.4948 249 62.5956C249.722 61.9278 250.467 61.1797 251.247 60.3161L251.241 60.3033ZM246.104 58.6467C245.902 58.3603 245.811 58.0106 245.846 57.662C245.881 57.3134 246.041 56.9893 246.297 56.7493C246.81 56.3352 247.529 56.5728 247.944 57.2277C248.358 57.8826 248.303 58.6981 247.793 59.0994C247.282 59.5007 246.531 59.2888 246.114 58.6467H246.104Z" fill="#E0E0E0"/>
<path d="M256.053 96.8093C254.958 93.7947 255.395 89.5345 254.159 87.5472C255.791 86.8858 257.471 86.347 259.183 85.9355C259.379 89.0112 258.66 93.5636 261.078 95.2009C259.446 95.8624 257.766 96.4001 256.053 96.8093Z" fill="#EBEBEB"/>
<path d="M259.877 95.445C259.662 95.2235 259.829 94.9185 260.198 94.8029C258.74 92.9665 259.065 89.5217 258.962 86.8635C258.888 86.8821 258.811 86.884 258.736 86.8692C258.661 86.8543 258.59 86.8231 258.529 86.7776C258.467 86.7322 258.417 86.6737 258.38 86.6064C258.344 86.5391 258.324 86.4646 258.32 86.3883C257.357 86.6355 256.345 86.9405 255.247 87.3354C255.334 87.5986 255.087 87.9293 254.695 88.0642C255.459 90.0322 255.292 93.3165 255.979 95.949C256.145 95.9258 256.313 95.9563 256.46 96.0361C256.607 96.1159 256.724 96.2406 256.795 96.3921C257.758 96.1481 258.763 95.8463 259.858 95.4546L259.877 95.445ZM256.159 91.5475C256.117 91.1999 256.201 90.8486 256.398 90.5588C256.595 90.269 256.89 90.0602 257.228 89.9712C257.87 89.8492 258.397 90.4014 258.448 91.1719C258.5 91.9424 258.066 92.6358 257.427 92.7482C256.788 92.8606 256.217 92.3084 256.159 91.5475Z" fill="#E0E0E0"/>
<path d="M298.698 84.5262C296.299 82.3913 294.656 78.4264 292.62 77.2802C293.74 75.9188 294.96 74.6428 296.271 73.463C297.908 76.0763 299.446 80.4201 302.348 80.7058C301.229 82.069 300.008 83.3461 298.698 84.5262Z" fill="#EBEBEB"/>
<path d="M301.407 81.5051C301.112 81.412 301.112 81.0621 301.391 80.7667C299.237 79.8357 297.876 76.6637 296.524 74.3779C296.468 74.4291 296.401 74.4673 296.328 74.4895C296.256 74.5117 296.179 74.5175 296.104 74.5064C296.028 74.4954 295.956 74.4677 295.893 74.4255C295.83 74.3833 295.777 74.3276 295.738 74.2623C295.012 74.9365 294.264 75.6878 293.49 76.561C293.693 76.7504 293.632 77.1582 293.352 77.4631C294.957 78.8308 296.376 81.7973 298.242 83.7845C298.376 83.6842 298.538 83.63 298.706 83.63C298.873 83.63 299.036 83.6842 299.17 83.7845C299.892 83.1167 300.637 82.3687 301.417 81.5051H301.407ZM296.271 79.8357C296.068 79.55 295.976 79.2007 296.012 78.8525C296.047 78.5042 296.208 78.1806 296.463 77.9415C296.974 77.5241 297.696 77.7617 298.107 78.4167C298.518 79.0716 298.47 79.887 297.959 80.2883C297.449 80.6896 296.701 80.4778 296.271 79.8357Z" fill="#E0E0E0"/>
<path d="M296.797 79.6334L296.659 79.7393L296.579 79.6141L296.714 79.5081C296.629 79.3691 296.581 79.2114 296.572 79.0491L296.739 79.0202C296.744 79.1551 296.78 79.2871 296.845 79.4054L297.086 79.2192C297.012 79.0202 296.938 78.7986 297.108 78.667C297.23 78.5707 297.413 78.606 297.584 78.8372L297.722 78.7312L297.802 78.8596L297.667 78.9624C297.733 79.0782 297.777 79.2057 297.795 79.338L297.632 79.3669C297.616 79.2618 297.583 79.16 297.535 79.0651L297.291 79.2545C297.368 79.4536 297.449 79.6751 297.291 79.8035C297.134 79.9319 296.97 79.8645 296.797 79.6334ZM297.234 79.1036L297.452 78.9399C297.368 78.8372 297.295 78.8243 297.24 78.8661C297.185 78.9078 297.198 78.9977 297.234 79.1036ZM297.137 79.6109C297.198 79.5659 297.182 79.476 297.137 79.3669L296.922 79.5338C297.015 79.6366 297.086 79.6526 297.137 79.6109Z" fill="#E0E0E0"/>
<path d="M241.828 78.1952C239.674 80.9723 237.706 83.9451 236.835 87.1203C235.384 86.5199 233.895 85.9163 232.44 85.2133C233.58 81.9097 235.548 79.0107 237.433 76.2882C238.884 76.8886 240.373 77.4921 241.828 78.1952Z" fill="#EBEBEB"/>
<path d="M238.107 76.8404C237.999 76.9857 237.846 77.0921 237.673 77.1436C237.499 77.1951 237.314 77.189 237.144 77.1261C235.59 79.3959 234.036 81.7909 232.989 84.4459C233.147 84.5307 233.27 84.6691 233.335 84.8362C233.401 85.0033 233.404 85.1882 233.346 85.3577C234.254 85.775 235.172 86.1635 236.081 86.5423C236.104 86.4633 236.143 86.3901 236.197 86.3276C236.25 86.2651 236.316 86.2148 236.391 86.1801C236.465 86.1454 236.547 86.1271 236.629 86.1265C236.711 86.1258 236.792 86.1428 236.868 86.1764C237.75 83.5919 239.301 81.152 241.022 78.8437C240.947 78.8105 240.881 78.7602 240.829 78.6969C240.777 78.6335 240.741 78.5589 240.723 78.4789C240.705 78.399 240.706 78.316 240.727 78.2366C240.747 78.1572 240.785 78.0836 240.839 78.0218C239.927 77.6045 239.012 77.216 238.104 76.8372L238.107 76.8404ZM237.84 82.083C237.669 82.3991 237.388 82.6411 237.05 82.7631C236.712 82.885 236.341 82.8784 236.007 82.7444C235.852 82.6699 235.714 82.5634 235.603 82.432C235.491 82.3005 235.409 82.147 235.361 81.9815C235.313 81.816 235.301 81.6423 235.325 81.4717C235.349 81.301 235.408 81.1374 235.5 80.9915C235.683 80.6757 235.975 80.4368 236.321 80.3188C236.666 80.2009 237.043 80.2117 237.381 80.3494C237.536 80.4218 237.673 80.5274 237.783 80.6586C237.893 80.7898 237.972 80.9436 238.016 81.1089C238.06 81.2742 238.067 81.4472 238.036 81.6155C238.006 81.7838 237.939 81.9434 237.84 82.083Z" fill="#E0E0E0"/>
<path d="M237.349 81.7106L237.523 81.7909L237.449 81.9193L237.275 81.839C237.191 81.9759 237.071 82.087 236.929 82.1601L236.81 82.0156C236.93 81.9559 237.033 81.8664 237.108 81.7556L236.787 81.6111C236.646 81.7652 236.482 81.9321 236.267 81.8294C236.11 81.7556 236.036 81.5726 236.155 81.3157L235.982 81.2355L236.055 81.1071L236.229 81.1873C236.3 81.0755 236.397 80.982 236.511 80.9144L236.63 81.0493C236.539 81.1055 236.459 81.1785 236.396 81.2644L236.717 81.4088C236.861 81.2547 237.038 81.0878 237.246 81.1905C237.404 81.2708 237.471 81.4409 237.349 81.7106ZM236.611 81.5308L236.335 81.4024C236.286 81.5212 236.315 81.595 236.383 81.6271C236.45 81.6593 236.53 81.6111 236.611 81.5308ZM237.14 81.4056C237.063 81.3703 236.986 81.4217 236.906 81.5052L237.182 81.6304C237.23 81.5084 237.198 81.4409 237.14 81.4056Z" fill="#E0E0E0"/>
<path d="M296.569 94.6584C294.412 97.4354 292.447 100.408 291.577 103.583C290.126 102.983 288.636 102.379 287.182 101.676C288.321 98.3728 290.289 95.4738 292.171 92.7513C293.625 93.3517 295.115 93.9617 296.569 94.6584Z" fill="#EBEBEB"/>
<path d="M292.848 93.3003C292.741 93.4466 292.589 93.5539 292.415 93.6061C292.241 93.6582 292.055 93.6523 291.885 93.5892C290.331 95.8558 288.777 98.254 287.731 100.909C287.89 100.992 288.013 101.13 288.079 101.297C288.145 101.463 288.149 101.648 288.09 101.818C288.999 102.238 289.917 102.623 290.826 103.005C290.848 102.926 290.887 102.853 290.94 102.79C290.994 102.727 291.06 102.676 291.135 102.642C291.209 102.607 291.291 102.589 291.373 102.588C291.456 102.588 291.537 102.605 291.612 102.639C292.495 100.071 294.046 97.6151 295.766 95.3068C295.692 95.2737 295.626 95.2234 295.574 95.16C295.522 95.0967 295.485 95.022 295.468 94.9421C295.45 94.8621 295.451 94.7791 295.471 94.6997C295.491 94.6203 295.53 94.5468 295.584 94.4849C294.675 94.0708 293.76 93.6823 292.851 93.3035L292.848 93.3003ZM292.566 98.5526C292.395 98.8686 292.113 99.1107 291.775 99.2326C291.437 99.3546 291.066 99.3479 290.733 99.2139C290.577 99.1398 290.439 99.0336 290.327 98.9021C290.215 98.7707 290.133 98.6171 290.085 98.4515C290.037 98.2859 290.025 98.1119 290.049 97.9412C290.073 97.7705 290.133 97.6068 290.225 97.461C290.413 97.1526 290.705 96.9216 291.048 96.8098C291.392 96.6979 291.764 96.7125 292.097 96.851C292.248 96.9232 292.382 97.027 292.489 97.1554C292.596 97.2837 292.675 97.4336 292.719 97.5949C292.764 97.7562 292.773 97.9252 292.747 98.0905C292.72 98.2557 292.658 98.4133 292.566 98.5526Z" fill="#E0E0E0"/>
<path d="M292.097 98.1737L292.27 98.2539C292.245 98.2957 292.219 98.3374 292.196 98.3823L292.023 98.3021C291.936 98.4377 291.816 98.5484 291.673 98.6231L291.558 98.4787C291.677 98.4179 291.78 98.3286 291.856 98.2186L291.535 98.0741C291.394 98.2282 291.23 98.3952 291.015 98.2925C290.858 98.2186 290.784 98.0356 290.903 97.7788L290.729 97.6985C290.752 97.6536 290.777 97.6118 290.803 97.5701L290.977 97.6504C291.048 97.5376 291.145 97.443 291.259 97.3743L291.375 97.5123C291.285 97.5695 291.207 97.6424 291.143 97.7274L291.465 97.8719C291.609 97.7178 291.786 97.5508 291.994 97.6536C292.145 97.7338 292.209 97.9136 292.097 98.1737ZM291.359 97.9939L291.082 97.8655C291.034 97.9843 291.063 98.0581 291.131 98.0902C291.198 98.1223 291.272 98.0741 291.352 97.9939H291.359ZM291.888 97.8687C291.811 97.8334 291.734 97.8847 291.654 97.965L291.927 98.0934C291.972 97.9714 291.949 97.8976 291.882 97.8687H291.888Z" fill="#E0E0E0"/>
<path d="M282.729 57.2533C282.559 53.7507 279.425 51.3397 279.255 47.8371L283.75 46.1837C283.923 49.6863 287.053 52.0974 287.227 55.5968L282.729 57.2533Z" fill="#EBEBEB"/>
<path d="M286.347 55.645C286.328 55.462 286.368 55.2779 286.461 55.1192C286.554 54.9605 286.695 54.8354 286.864 54.7621C286.321 52.0364 284.151 49.9143 283.615 47.1887C283.54 47.2215 283.459 47.2357 283.378 47.2302C283.296 47.2247 283.218 47.1995 283.148 47.1569C283.079 47.1143 283.021 47.0555 282.979 46.9856C282.937 46.9156 282.913 46.8366 282.909 46.7552L280.116 47.7858C280.134 47.9684 280.095 48.1523 280.003 48.3109C279.91 48.4696 279.77 48.5949 279.602 48.6687C280.138 51.3943 282.308 53.5197 282.851 56.2453C282.925 56.2125 283.006 56.1981 283.087 56.2034C283.168 56.2088 283.246 56.2337 283.315 56.276C283.384 56.3183 283.442 56.3767 283.484 56.4463C283.525 56.5159 283.549 56.5946 283.554 56.6755L286.344 55.645H286.347ZM282.029 52.1135C281.942 51.9697 281.888 51.8081 281.872 51.6407C281.856 51.4733 281.878 51.3045 281.937 51.1468C281.995 50.9891 282.088 50.8466 282.209 50.7299C282.33 50.6133 282.476 50.5254 282.636 50.473C282.985 50.3585 283.363 50.3674 283.707 50.4983C284.051 50.6292 284.339 50.8741 284.523 51.1921C284.611 51.3355 284.666 51.497 284.682 51.6644C284.699 51.8317 284.677 52.0007 284.619 52.1585C284.561 52.3163 284.468 52.459 284.347 52.5757C284.226 52.6925 284.08 52.7803 283.92 52.8326C283.569 52.9468 283.189 52.9363 282.844 52.803C282.5 52.6697 282.212 52.4216 282.029 52.1006V52.1135Z" fill="#E0E0E0"/>
<path d="M282.684 52.0108L282.498 52.0782L282.427 51.953L282.61 51.8824C282.537 51.7516 282.51 51.6001 282.533 51.4522H282.738C282.717 51.5741 282.734 51.6996 282.787 51.8117L283.108 51.6897C283.056 51.5003 283.015 51.2916 283.242 51.2082C283.345 51.179 283.455 51.186 283.553 51.2281C283.651 51.2702 283.732 51.3448 283.782 51.4393L283.968 51.3719L284.042 51.5003L283.856 51.5677C283.912 51.6766 283.939 51.7984 283.933 51.9209H283.75C283.755 51.823 283.737 51.7252 283.698 51.6352L283.377 51.7604C283.429 51.9498 283.477 52.1585 283.246 52.2419C283.14 52.2778 283.025 52.2741 282.921 52.2316C282.818 52.1891 282.734 52.1107 282.684 52.0108ZM283.326 51.6223L283.618 51.5132C283.538 51.4104 283.454 51.3848 283.381 51.4104C283.307 51.4361 283.297 51.5228 283.32 51.6223H283.326ZM283.104 52.0525C283.185 52.0236 283.185 51.9402 283.162 51.8374L282.87 51.9434C282.944 52.0525 283.027 52.0782 283.108 52.0525H283.104Z" fill="#E0E0E0"/>
<path d="M191.748 98.7388C191.575 95.2459 188.444 92.8252 188.271 89.3226L192.766 87.6692C192.939 91.1718 196.069 93.5796 196.243 97.0822L191.748 98.7388Z" fill="#EBEBEB"/>
<path d="M195.366 97.1305C195.347 96.9479 195.387 96.764 195.479 96.6053C195.571 96.4467 195.712 96.3214 195.88 96.2476C195.34 93.5219 193.17 91.3998 192.631 88.6709C192.557 88.7045 192.475 88.7194 192.394 88.7144C192.313 88.7094 192.234 88.6846 192.164 88.6422C192.095 88.5998 192.036 88.5411 191.995 88.4712C191.953 88.4012 191.929 88.3221 191.925 88.2407L189.131 89.2713C189.15 89.4539 189.111 89.6377 189.018 89.7964C188.926 89.9551 188.786 90.0803 188.618 90.1542C189.157 92.8798 191.327 95.0051 191.867 97.7308C191.941 97.6973 192.022 97.6824 192.104 97.6874C192.185 97.6924 192.264 97.7171 192.333 97.7595C192.403 97.8019 192.461 97.8606 192.503 97.9306C192.545 98.0005 192.569 98.0796 192.573 98.161L195.366 97.1305ZM191.045 93.599C190.958 93.4552 190.904 93.2936 190.888 93.1262C190.872 92.9588 190.894 92.79 190.952 92.6323C191.011 92.4746 191.104 92.3321 191.225 92.2154C191.346 92.0987 191.492 92.0109 191.652 91.9584C192.001 91.8448 192.378 91.8542 192.721 91.985C193.064 92.1159 193.352 92.3603 193.536 92.6776C193.624 92.821 193.678 92.9825 193.695 93.1498C193.711 93.3172 193.69 93.4861 193.632 93.644C193.574 93.8018 193.48 93.9445 193.359 94.0612C193.238 94.178 193.092 94.2658 192.933 94.3181C192.582 94.4315 192.203 94.4206 191.859 94.2873C191.515 94.154 191.228 93.9064 191.045 93.5861V93.599Z" fill="#E0E0E0"/>
<path d="M191.7 93.4961L191.514 93.5635L191.443 93.4351L191.626 93.3677C191.555 93.2361 191.53 93.0851 191.552 92.9375H191.758C191.735 93.0594 191.752 93.1854 191.806 93.2971L192.127 93.1751C192.072 92.9857 192.03 92.777 192.262 92.6935C192.364 92.6637 192.474 92.6704 192.573 92.7125C192.671 92.7547 192.752 92.8297 192.801 92.9247L192.987 92.8572L193.058 92.9857L192.875 93.0531C192.933 93.1613 192.958 93.2839 192.949 93.4062H192.746C192.751 93.3083 192.734 93.2106 192.695 93.1205L192.374 93.2457C192.429 93.4319 192.473 93.6438 192.246 93.7273C192.142 93.7582 192.031 93.752 191.931 93.7098C191.832 93.6676 191.75 93.5921 191.7 93.4961ZM192.342 93.1077L192.637 92.9985C192.614 92.9573 192.578 92.9249 192.534 92.9063C192.491 92.8877 192.442 92.884 192.396 92.8958C192.313 92.9247 192.313 92.9985 192.335 93.1077H192.342ZM192.12 93.5379C192.204 93.509 192.204 93.4255 192.178 93.3196L191.886 93.4287C191.963 93.5379 192.043 93.5635 192.114 93.5379H192.12Z" fill="#E0E0E0"/>
<path d="M203.216 57.1828C201.992 60.5602 197.758 60.4928 196.365 63.3565C195.061 62.2104 193.796 61.1092 192.534 60.1268C193.754 56.7494 197.992 56.8168 199.386 53.9531C200.686 55.1153 201.97 56.1908 203.216 57.1828Z" fill="#EBEBEB"/>
<path d="M200.008 54.8103C199.845 55.1121 199.44 55.1089 199.145 54.8456C197.623 56.8297 194.535 57.1571 193.135 59.4751C193.271 59.5962 193.365 59.758 193.403 59.9366C193.441 60.1153 193.42 60.3013 193.344 60.4671C194.129 61.1092 194.927 61.7877 195.739 62.5025C195.902 62.204 196.307 62.204 196.599 62.4672C198.121 60.4832 201.209 60.1557 202.612 57.8378C202.475 57.7175 202.381 57.5562 202.343 57.378C202.306 57.1998 202.327 57.0142 202.403 56.8489C201.614 56.2068 200.814 55.5284 200.005 54.8135L200.008 54.8103ZM198.869 59.626C198.252 59.947 197.263 59.7672 196.67 59.2182C196.076 58.6693 196.027 57.9341 196.67 57.613C197.312 57.292 198.275 57.4718 198.872 58.024C199.469 58.5762 199.482 59.3081 198.869 59.6324V59.626Z" fill="#E0E0E0"/>
<path d="M198.467 59.0963C198.525 59.1476 198.58 59.1958 198.631 59.2471L198.512 59.3114L198.349 59.1637C198.198 59.2297 198.034 59.2562 197.87 59.2407L197.787 59.0706C197.924 59.0864 198.063 59.0676 198.191 59.016L197.899 58.7495C197.794 58.7929 197.679 58.8074 197.566 58.7916C197.453 58.7758 197.346 58.7302 197.257 58.6596C197.218 58.6342 197.186 58.5986 197.165 58.5566C197.144 58.5147 197.135 58.4679 197.139 58.4212C197.143 58.3745 197.159 58.3296 197.186 58.2914C197.213 58.2531 197.25 58.2228 197.292 58.2037L197.125 58.0529L197.244 57.9886L197.408 58.1363C197.53 58.0827 197.663 58.0574 197.796 58.0625L197.883 58.2294C197.774 58.2275 197.665 58.2449 197.562 58.2808L197.861 58.5537C197.965 58.5075 198.081 58.4911 198.194 58.5064C198.307 58.5217 198.414 58.5681 198.503 58.6404C198.541 58.6664 198.572 58.7022 198.592 58.744C198.612 58.7859 198.621 58.8323 198.617 58.8786C198.614 58.9249 198.598 58.9694 198.572 59.0076C198.545 59.0458 198.509 59.0764 198.467 59.0963ZM197.71 58.589L197.446 58.3482C197.429 58.3589 197.415 58.3737 197.405 58.3914C197.395 58.4091 197.39 58.4291 197.39 58.4493C197.39 58.4696 197.395 58.4896 197.405 58.5073C197.415 58.525 197.429 58.5398 197.446 58.5505C197.485 58.5753 197.529 58.5916 197.574 58.5983C197.619 58.6049 197.666 58.6018 197.71 58.589ZM198.32 58.7527C198.279 58.725 198.232 58.7071 198.183 58.7004C198.134 58.6937 198.084 58.6984 198.037 58.7142L198.297 58.9518C198.4 58.8812 198.397 58.8105 198.333 58.7527H198.32Z" fill="#E0E0E0"/>
<path d="M206.506 104.948C205.286 108.325 201.049 108.258 199.655 111.122C198.371 109.975 197.087 108.874 195.825 107.892C197.048 104.514 201.283 104.582 202.676 101.718C203.98 102.864 205.261 103.956 206.506 104.948Z" fill="#EBEBEB"/>
<path d="M203.299 102.575C203.135 102.874 202.734 102.874 202.439 102.611C200.917 104.595 197.829 104.922 196.426 107.24C196.563 107.36 196.658 107.522 196.696 107.701C196.734 107.88 196.714 108.066 196.637 108.232C197.424 108.874 198.223 109.561 199.032 110.268C199.193 109.969 199.597 109.969 199.893 110.232C201.411 108.248 204.503 107.918 205.903 105.603C205.766 105.483 205.672 105.321 205.634 105.143C205.597 104.965 205.618 104.779 205.694 104.614C204.909 103.972 204.11 103.293 203.299 102.579V102.575ZM202.159 107.391C201.546 107.712 200.554 107.532 199.963 106.983C199.373 106.434 199.321 105.699 199.963 105.378C200.606 105.057 201.569 105.237 202.163 105.789C202.757 106.341 202.773 107.073 202.159 107.397V107.391Z" fill="#E0E0E0"/>
<path d="M201.761 106.861L201.925 107.012C201.883 107.031 201.845 107.054 201.806 107.076L201.643 106.925C201.492 106.993 201.326 107.021 201.161 107.006C201.135 106.948 201.106 106.893 201.081 106.836C201.218 106.851 201.357 106.832 201.485 106.781L201.19 106.515C201.084 106.557 200.969 106.571 200.856 106.555C200.743 106.539 200.637 106.493 200.548 106.421C200.509 106.396 200.478 106.36 200.458 106.319C200.438 106.277 200.429 106.231 200.433 106.185C200.436 106.139 200.452 106.094 200.478 106.056C200.505 106.018 200.541 105.988 200.583 105.969L200.419 105.818L200.538 105.754L200.702 105.901C200.823 105.848 200.955 105.822 201.087 105.824C201.116 105.882 201.148 105.937 201.177 105.991C201.068 105.99 200.959 106.009 200.856 106.046L201.151 106.315C201.257 106.272 201.372 106.258 201.485 106.273C201.597 106.289 201.704 106.335 201.793 106.405C201.832 106.431 201.863 106.467 201.883 106.508C201.904 106.55 201.913 106.596 201.91 106.643C201.906 106.689 201.891 106.733 201.865 106.772C201.839 106.81 201.803 106.841 201.761 106.861ZM201.013 106.351L200.753 106.113C200.663 106.184 200.673 106.254 200.753 106.315C200.792 106.339 200.835 106.355 200.879 106.361C200.924 106.367 200.97 106.364 201.013 106.351ZM201.623 106.518C201.583 106.489 201.536 106.47 201.487 106.463C201.438 106.456 201.387 106.462 201.341 106.479L201.601 106.717C201.691 106.646 201.687 106.576 201.623 106.518Z" fill="#E0E0E0"/>
<path d="M264.442 71.5527L264.282 71.6201C264.266 71.5687 264.246 71.5174 264.227 71.4628L264.384 71.3954C264.328 71.2292 264.312 71.0522 264.336 70.8785L264.51 70.901C264.488 71.0437 264.498 71.1894 264.538 71.328L264.818 71.206C264.782 70.978 264.754 70.7276 264.953 70.6441C265.097 70.5799 265.274 70.6698 265.396 70.9652L265.553 70.8945L265.611 71.0519L265.453 71.1193C265.498 71.257 265.515 71.402 265.505 71.5463L265.335 71.527C265.341 71.4124 265.329 71.2975 265.299 71.1867L265.017 71.3087C265.052 71.5366 265.087 71.7903 264.892 71.8737C264.747 71.9315 264.571 71.8416 264.442 71.5527ZM264.991 71.1353L265.242 71.0262C265.177 70.8978 265.107 70.8592 265.046 70.8881C264.985 70.917 264.975 71.0133 264.991 71.1353ZM264.789 71.6297C264.859 71.6009 264.863 71.5013 264.843 71.3761L264.596 71.4853C264.66 71.6169 264.731 71.6554 264.789 71.6297Z" fill="#E0E0E0"/>
<path d="M215.274 67.71C215.293 67.7614 215.309 67.8192 215.329 67.8737L215.181 67.9058C215.162 67.8513 215.146 67.7967 215.13 67.7421C214.969 67.7745 214.804 67.7657 214.648 67.7164C214.648 67.6619 214.671 67.6073 214.68 67.5495C214.808 67.5929 214.945 67.6051 215.078 67.5848C215.046 67.4885 215.014 67.389 214.985 67.2927C214.77 67.2927 214.539 67.2927 214.471 67.084C214.427 66.9331 214.52 66.7629 214.793 66.6955C214.776 66.6409 214.757 66.5864 214.741 66.5286L214.889 66.4965C214.889 66.551 214.924 66.6056 214.94 66.6602C215.071 66.6343 215.205 66.6343 215.335 66.6602C215.335 66.7148 215.335 66.7693 215.309 66.8239C215.203 66.806 215.095 66.806 214.988 66.8239C215.017 66.9235 215.049 67.0198 215.081 67.1193C215.293 67.1193 215.531 67.1193 215.592 67.3183C215.646 67.4628 215.55 67.6362 215.274 67.71ZM214.927 67.1161C214.902 67.0294 214.873 66.9395 214.847 66.856C214.722 66.8978 214.683 66.962 214.706 67.0262C214.728 67.0904 214.815 67.1129 214.927 67.1161ZM215.374 67.3793C215.351 67.3055 215.258 67.2927 215.142 67.2894C215.171 67.3761 215.197 67.4628 215.226 67.5495C215.367 67.5045 215.393 67.4403 215.367 67.3793H215.374Z" fill="#E0E0E0"/>
<path d="M246.627 58.4349L246.489 58.5409L246.409 58.4157L246.544 58.3097C246.46 58.1707 246.411 58.013 246.403 57.8506L246.57 57.8217C246.574 57.9567 246.61 58.0887 246.675 58.207L246.919 58.0208C246.842 57.8217 246.769 57.6002 246.939 57.4686C247.109 57.337 247.26 57.4076 247.414 57.6387L247.552 57.5328L247.632 57.6612L247.497 57.764C247.564 57.8798 247.607 58.0073 247.626 58.1396L247.462 58.1685C247.446 58.0634 247.414 57.9616 247.366 57.8667L247.122 58.0561C247.199 58.2552 247.279 58.4767 247.122 58.6051C246.964 58.7335 246.801 58.6661 246.627 58.4349ZM247.064 57.9052L247.282 57.7415C247.199 57.6387 247.125 57.6259 247.07 57.6644C247.016 57.703 247.029 57.7993 247.064 57.9052ZM246.971 58.4125C247.029 58.3675 247.013 58.2776 246.971 58.1685L246.756 58.3322C246.846 58.4382 246.916 58.4542 246.971 58.4125Z" fill="#E0E0E0"/>
<path d="M256.708 91.6051L256.538 91.634C256.538 91.5827 256.538 91.5313 256.538 91.4831L256.708 91.4542C256.701 91.2914 256.734 91.1293 256.804 90.9823L256.965 91.0401C256.904 91.1593 256.872 91.2913 256.872 91.4253L257.177 91.3772C257.203 91.1653 257.244 90.9374 257.456 90.902C257.61 90.8764 257.752 90.9919 257.793 91.2777L257.963 91.252V91.4029L257.796 91.4286C257.801 91.5621 257.779 91.6952 257.732 91.8202L257.572 91.7689C257.611 91.6662 257.631 91.5576 257.633 91.4478L257.328 91.4992C257.299 91.7111 257.267 91.9422 257.055 91.9775C256.898 92.0064 256.753 91.8909 256.708 91.6051ZM257.35 91.3483L257.62 91.3033C257.594 91.1749 257.536 91.13 257.469 91.1396C257.402 91.1492 257.366 91.2359 257.347 91.3483H257.35ZM257.029 91.7496C257.103 91.7496 257.132 91.6501 257.151 91.5345L256.882 91.5762C256.901 91.7143 256.955 91.7592 257.02 91.7496H257.029Z" fill="#E0E0E0"/>
<path d="M244.261 151.608C278.64 151.608 306.509 149.981 306.509 147.974C306.509 145.967 278.64 144.34 244.261 144.34C209.883 144.34 182.014 145.967 182.014 147.974C182.014 149.981 209.883 151.608 244.261 151.608Z" fill="#F5F5F5"/>
<path d="M219.194 54.2837C216.122 52.5629 213.309 48.8517 210.889 48.0523C211.654 46.4638 212.551 44.9421 213.569 43.5031C215.99 45.8499 218.802 49.9753 221.875 49.7313C221.108 51.3197 220.211 52.8423 219.194 54.2837Z" fill="#FFDAC5"/>
<path opacity="0.5" d="M219.194 54.2837C216.122 52.5629 213.309 48.8517 210.889 48.0523C211.654 46.4638 212.551 44.9421 213.569 43.5031C215.99 45.8499 218.802 49.9753 221.875 49.7313C221.108 51.3197 220.211 52.8423 219.194 54.2837Z" fill="white"/>
<path opacity="0.2" d="M221.146 50.7137C220.825 50.6752 220.719 50.3221 220.918 49.9689C218.44 49.436 216.141 46.4374 214.099 44.3795C214.049 44.4423 213.986 44.4936 213.914 44.5297C213.843 44.5658 213.764 44.5859 213.684 44.5886C213.603 44.5914 213.523 44.5767 213.449 44.5456C213.375 44.5145 213.309 44.4677 213.255 44.4084C212.65 45.2963 212.092 46.2146 211.582 47.1598C211.716 47.2735 211.802 47.4333 211.823 47.6076C211.845 47.7818 211.8 47.9577 211.698 48.1004C213.743 49.192 216.038 51.953 218.52 53.6128C218.639 53.4823 218.798 53.3948 218.972 53.364C219.147 53.3333 219.326 53.3609 219.483 53.4426C220.086 52.5609 220.643 51.649 221.152 50.7105L221.146 50.7137ZM215.386 49.9785C214.776 49.4103 214.635 48.5338 215.046 48.0202C215.457 47.5065 216.269 47.6092 216.879 48.1967C217.489 48.7843 217.663 49.6222 217.252 50.123C216.841 50.6238 216.009 50.5532 215.386 49.9785Z" fill="black"/>
<g opacity="0.2">
<path opacity="0.2" d="M215.852 49.6575L215.743 49.7891L215.621 49.6767C215.659 49.6318 215.695 49.5868 215.733 49.5451C215.608 49.4212 215.513 49.2694 215.457 49.1021L215.624 49.0443C215.667 49.183 215.74 49.3103 215.839 49.4167L216.035 49.1791C215.9 48.9929 215.762 48.781 215.9 48.6173C216.038 48.4535 216.199 48.4985 216.439 48.7007C216.478 48.659 216.513 48.6141 216.552 48.5691L216.671 48.6847L216.561 48.8163C216.663 48.9178 216.743 49.0377 216.799 49.1695L216.639 49.2337C216.594 49.1271 216.532 49.0284 216.456 48.9415L216.256 49.1791C216.391 49.3653 216.536 49.5772 216.398 49.7409C216.26 49.9047 216.099 49.8694 215.852 49.6575ZM216.173 49.0378L216.346 48.8292C216.234 48.7425 216.154 48.7425 216.112 48.7939C216.07 48.8452 216.09 48.948 216.157 49.0507L216.173 49.0378ZM216.218 49.5708C216.266 49.513 216.218 49.4263 216.151 49.3204L215.977 49.529C216.08 49.6318 216.157 49.635 216.202 49.5836L216.218 49.5708Z" fill="black"/>
</g>
<path d="M245.545 67.8703C242.72 69.3921 238.444 69.5847 236.659 71.0968C235.763 69.5763 234.984 67.9901 234.328 66.3518C237.343 65.7097 241.95 65.7514 243.215 63.1221C244.11 64.644 244.889 66.2312 245.545 67.8703Z" fill="#FFDAC5"/>
<path opacity="0.5" d="M245.545 67.8703C242.72 69.3921 238.444 69.5847 236.659 71.0968C235.763 69.5763 234.984 67.9901 234.328 66.3518C237.343 65.7097 241.95 65.7514 243.215 63.1221C244.11 64.644 244.889 66.2312 245.545 67.8703Z" fill="white"/>
<path opacity="0.2" d="M243.642 64.2875C243.455 64.5315 243.128 64.4127 242.945 64.0531C241.34 65.7611 237.885 65.9473 235.272 66.4353C235.3 66.506 235.313 66.5821 235.308 66.6581C235.304 66.7342 235.283 66.8084 235.247 66.8754C235.211 66.9425 235.161 67.0008 235.099 67.0463C235.038 67.0917 234.968 67.1231 234.893 67.1383C235.278 68.0501 235.728 69.0068 236.28 70.0277C236.53 69.9025 236.893 70.0984 237.083 70.4676C238.919 69.4242 242.191 69.1096 244.695 68.0405C244.647 67.8797 244.653 67.708 244.711 67.5508C244.769 67.3935 244.876 67.259 245.016 67.1672C244.634 66.2587 244.187 65.3052 243.642 64.2778V64.2875ZM240.328 68.5349C239.991 68.6281 239.631 68.5955 239.316 68.4431C239 68.2907 238.751 68.029 238.614 67.7066C238.399 67.0838 238.868 66.4866 239.625 66.3229C240.383 66.1592 241.128 66.4898 241.33 67.1062C241.532 67.7226 241.073 68.3647 240.328 68.5349Z" fill="black"/>
<g opacity="0.2">
<path opacity="0.2" d="M240.306 67.9827C240.325 68.0373 240.341 68.0918 240.357 68.1464L240.21 68.1817C240.21 68.1271 240.174 68.0726 240.158 68.018C239.998 68.0484 239.833 68.0396 239.677 67.9923C239.677 67.9345 239.699 67.8799 239.712 67.8254C239.839 67.8692 239.975 67.8802 240.107 67.8575C240.078 67.7612 240.046 67.6648 240.014 67.5653C239.802 67.5653 239.568 67.5653 239.503 67.3566C239.455 67.209 239.548 67.0516 239.824 66.9682C239.805 66.9136 239.789 66.859 239.77 66.8044L239.921 66.7723C239.921 66.8269 239.953 66.8815 239.972 66.9361C240.102 66.9088 240.237 66.9088 240.367 66.9361L240.338 67.0998C240.232 67.0818 240.123 67.0818 240.017 67.0998C240.049 67.1961 240.081 67.2956 240.11 67.3952C240.325 67.3952 240.56 67.3952 240.624 67.5942C240.678 67.7355 240.582 67.896 240.306 67.9827ZM239.959 67.3887C239.93 67.3021 239.905 67.2154 239.876 67.1287C239.754 67.1736 239.715 67.2379 239.735 67.3021C239.754 67.3663 239.847 67.3855 239.959 67.3887ZM240.402 67.652C240.38 67.5814 240.29 67.5653 240.174 67.5653C240.2 67.652 240.229 67.7387 240.255 67.8222C240.383 67.7772 240.409 67.7162 240.409 67.652H240.402Z" fill="black"/>
</g>
<path d="M268.638 47.6413C265.306 48.765 262.028 50.1551 259.546 52.3221C258.667 51.0187 257.761 49.6928 256.936 48.3027C259.713 46.1806 262.952 44.8418 266.028 43.6218C266.908 44.9253 267.813 46.2512 268.638 47.6413Z" fill="#FFDAC5"/>
<path opacity="0.5" d="M268.638 47.6413C265.306 48.765 262.028 50.1551 259.546 52.3221C258.667 51.0187 257.761 49.6928 256.936 48.3027C259.713 46.1806 262.952 44.8418 266.028 43.6218C266.908 44.9253 267.813 46.2512 268.638 47.6413Z" fill="white"/>
<path opacity="0.2" d="M266.285 44.4533C266.114 44.516 265.928 44.5214 265.754 44.4687C265.581 44.416 265.429 44.308 265.322 44.1611C262.773 45.1917 260.153 46.3314 257.816 47.9655C257.903 48.1237 257.93 48.3079 257.893 48.4846C257.856 48.6613 257.757 48.8189 257.613 48.9287C258.14 49.7794 258.689 50.6077 259.238 51.4264C259.3 51.3727 259.374 51.3333 259.453 51.3106C259.532 51.288 259.615 51.2828 259.697 51.2953C259.778 51.3078 259.856 51.3377 259.925 51.3831C259.993 51.4284 260.052 51.4881 260.095 51.558C262.259 49.8886 264.911 48.7136 267.608 47.7408C267.563 47.6715 267.536 47.5928 267.528 47.5111C267.52 47.4294 267.531 47.3469 267.561 47.2703C267.591 47.1937 267.638 47.1252 267.699 47.0703C267.76 47.0154 267.833 46.9756 267.913 46.9542C267.386 46.1067 266.834 45.2784 266.288 44.4597L266.285 44.4533ZM263.152 48.675C262.834 48.8441 262.466 48.8903 262.116 48.8051C261.767 48.7198 261.461 48.509 261.257 48.2127C261.169 48.065 261.112 47.9001 261.092 47.7291C261.072 47.558 261.088 47.3845 261.14 47.2201C261.191 47.0558 261.277 46.9042 261.391 46.7753C261.506 46.6465 261.646 46.5433 261.803 46.4727C262.132 46.3104 262.509 46.2734 262.864 46.3685C263.218 46.4636 263.526 46.6843 263.729 46.9895C263.816 47.1354 263.869 47.2981 263.886 47.4666C263.903 47.6351 263.884 47.8053 263.829 47.9655C263.774 48.1256 263.685 48.272 263.568 48.3945C263.451 48.517 263.309 48.6127 263.152 48.675Z" fill="black"/>
<g opacity="0.2">
<path opacity="0.2" d="M262.965 48.0971L263.065 48.2609L262.93 48.3251L262.83 48.1646C262.683 48.2332 262.52 48.2609 262.359 48.2448C262.359 48.1838 262.359 48.1196 262.342 48.0586C262.475 48.0757 262.61 48.058 262.734 48.0073C262.676 47.9077 262.615 47.8114 262.554 47.7151C262.349 47.7665 262.124 47.8114 262.002 47.6092C261.909 47.4615 261.951 47.2688 262.192 47.1212L262.089 46.9542L262.224 46.89L262.323 47.0505C262.445 46.9983 262.576 46.9742 262.708 46.9799C262.708 47.0377 262.725 47.0987 262.734 47.1597C262.625 47.1556 262.516 47.1719 262.413 47.2079L262.593 47.5032C262.798 47.4551 263.03 47.4101 263.155 47.6124C263.251 47.76 263.203 47.9463 262.965 48.0971ZM262.448 47.5385L262.288 47.2785C262.182 47.3523 262.166 47.4294 262.204 47.4936C262.243 47.5578 262.336 47.561 262.448 47.5385ZM262.959 47.7247C262.914 47.6541 262.821 47.6573 262.708 47.6798L262.866 47.9366C262.975 47.8628 262.997 47.7889 262.959 47.7312V47.7247Z" fill="black"/>
</g>
<path d="M209.967 81.868C207.54 79.3381 203.594 79.5757 201.167 77.0523C201.931 75.6568 202.697 74.2603 203.463 72.8627C205.89 75.3925 209.836 75.1581 212.263 77.6783C211.499 79.076 210.733 80.4725 209.967 81.868Z" fill="#FFDAC5"/>
<path opacity="0.5" d="M209.967 81.868C207.54 79.3381 203.594 79.5757 201.167 77.0523C201.931 75.6568 202.697 74.2603 203.463 72.8627C205.89 75.3925 209.836 75.1581 212.263 77.6783C211.499 79.076 210.733 80.4725 209.967 81.868Z" fill="white"/>
<path opacity="0.2" d="M211.643 78.2818C211.508 78.1567 211.417 77.9918 211.382 77.811C211.347 77.6302 211.371 77.4431 211.45 77.277C209.254 75.5754 206.224 75.3988 204.028 73.6941C203.993 73.7679 203.942 73.8321 203.877 73.8814C203.812 73.9306 203.736 73.9632 203.656 73.9765C203.575 73.9898 203.493 73.9833 203.416 73.9576C203.339 73.9319 203.269 73.8877 203.212 73.8289L201.784 76.4422C201.918 76.5675 202.008 76.7321 202.042 76.9121C202.076 77.0922 202.052 77.2784 201.973 77.4439C204.169 79.1486 207.2 79.3252 209.396 81.03C209.43 80.956 209.481 80.8914 209.546 80.8418C209.611 80.7923 209.687 80.7593 209.767 80.7457C209.847 80.7321 209.93 80.7383 210.007 80.7638C210.085 80.7893 210.155 80.8333 210.211 80.8919L211.64 78.2818H211.643ZM206.057 78.4423C205.897 78.3907 205.751 78.3036 205.629 78.1877C205.507 78.0718 205.413 77.93 205.353 77.7727C205.294 77.6154 205.27 77.4468 205.285 77.2793C205.3 77.1118 205.352 76.9497 205.437 76.805C205.627 76.4882 205.919 76.2463 206.266 76.12C206.613 75.9937 206.992 75.9907 207.341 76.1116C207.501 76.1621 207.648 76.2481 207.77 76.3633C207.892 76.4784 207.987 76.6197 208.047 76.7765C208.106 76.9333 208.13 77.1017 208.116 77.269C208.102 77.4362 208.05 77.5981 207.964 77.7425C207.775 78.0611 207.483 78.3049 207.135 78.4324C206.788 78.56 206.407 78.5635 206.057 78.4423Z" fill="black"/>
<g opacity="0.2">
<path opacity="0.2" d="M206.49 77.9448C206.461 78.0025 206.429 78.0603 206.397 78.1181L206.259 78.0668L206.352 77.8966C206.212 77.8438 206.093 77.7469 206.012 77.6205L206.172 77.4921C206.237 77.597 206.332 77.6799 206.445 77.7297C206.5 77.6269 206.558 77.5242 206.615 77.4086C206.452 77.2995 206.294 77.171 206.4 76.9559C206.458 76.866 206.546 76.7992 206.648 76.767C206.75 76.7347 206.86 76.7391 206.959 76.7794L207.055 76.6028L207.193 76.6542L207.097 76.8243C207.212 76.8686 207.312 76.9443 207.386 77.0426L207.232 77.171C207.171 77.0956 207.094 77.0342 207.007 76.9912L206.837 77.3123C207.001 77.4214 207.158 77.5499 207.055 77.765C206.996 77.8555 206.908 77.9228 206.805 77.9556C206.702 77.9883 206.591 77.9845 206.49 77.9448ZM206.715 77.2352L206.866 76.9591C206.737 76.9335 206.657 76.9591 206.622 77.0394C206.587 77.1197 206.635 77.171 206.715 77.2352ZM206.834 77.704C206.876 77.6269 206.834 77.5659 206.734 77.5017L206.583 77.7746C206.715 77.8035 206.795 77.7682 206.834 77.704Z" fill="black"/>
</g>
<path d="M289.378 68.9972C287.085 71.7646 283.137 70.2814 280.844 72.4934C280.006 70.9748 279.168 69.5141 278.331 68.1593C280.623 65.3919 284.572 66.8751 286.864 64.6631C287.702 66.1816 288.54 67.636 289.378 68.9972Z" fill="#FFDAC5"/>
<path opacity="0.5" d="M289.378 68.9972C287.085 71.7646 283.137 70.2814 280.844 72.4934C280.006 70.9748 279.168 69.5141 278.331 68.1593C280.623 65.3919 284.572 66.8751 286.864 64.6631C287.702 66.1816 288.54 67.636 289.378 68.9972Z" fill="white"/>
<path opacity="0.2" d="M287.159 65.6808C286.906 65.9088 286.517 65.7707 286.337 65.4208C284.235 66.7756 281.217 66.0404 279.117 67.7484C279.205 67.9086 279.238 68.0927 279.213 68.2735C279.189 68.4543 279.106 68.6225 278.979 68.7532C279.499 69.6297 280.022 70.5414 280.546 71.4789C280.799 71.251 281.188 71.389 281.368 71.7357C283.467 70.3809 286.485 71.1161 288.588 69.4114C288.5 69.2519 288.466 69.0681 288.49 68.8876C288.515 68.707 288.598 68.5394 288.726 68.4097C288.203 67.5365 287.679 66.6215 287.159 65.684V65.6808ZM284.459 69.8351C283.772 69.9282 282.915 69.4306 282.533 68.7083C282.151 67.9859 282.379 67.2828 283.063 67.1865C283.747 67.0902 284.61 67.5942 284.989 68.3166C285.368 69.0389 285.146 69.7388 284.459 69.8351Z" fill="black"/>
<g opacity="0.2">
<path opacity="0.2" d="M284.263 69.1963L284.366 69.3921L284.235 69.4114L284.129 69.2155C283.964 69.2292 283.799 69.1993 283.65 69.1289L283.631 68.9394C283.754 69.001 283.891 69.0308 284.029 69.0261L283.846 68.6762C283.734 68.6797 283.622 68.6537 283.523 68.6008C283.424 68.5478 283.341 68.4698 283.281 68.3744C283.253 68.3373 283.236 68.2934 283.231 68.2474C283.226 68.2014 283.234 68.1549 283.253 68.1127C283.272 68.0705 283.302 68.0341 283.339 68.0073C283.377 67.9805 283.421 67.9643 283.467 67.9603L283.361 67.7612L283.496 67.7419L283.599 67.9378C283.732 67.9283 283.866 67.9481 283.991 67.9956C283.991 68.0598 284.007 68.1208 284.016 68.1818C283.914 68.1433 283.805 68.1248 283.695 68.1272L283.885 68.4803C283.997 68.4764 284.108 68.502 284.207 68.5543C284.306 68.6067 284.39 68.6841 284.45 68.7789C284.477 68.8164 284.494 68.8604 284.499 68.9065C284.504 68.9526 284.497 68.9992 284.478 69.0416C284.459 69.084 284.429 69.1206 284.391 69.1477C284.354 69.1749 284.31 69.1916 284.263 69.1963ZM283.75 68.4643L283.583 68.1432C283.477 68.1818 283.461 68.2524 283.503 68.3295C283.53 68.3705 283.566 68.4043 283.609 68.4278C283.652 68.4514 283.701 68.4639 283.75 68.4643ZM284.27 68.8239C284.241 68.7838 284.203 68.7511 284.159 68.7283C284.115 68.7054 284.066 68.6931 284.016 68.6922L284.18 69.0133C284.273 68.9683 284.292 68.9009 284.254 68.8239H284.27Z" fill="black"/>
</g>
<path d="M275.403 90.5971C266.238 108.272 254.081 124.226 239.471 137.752L217.027 120.647C231.647 107.124 243.813 91.1694 252.984 73.4918L275.403 90.5971Z" fill="#FFDAC5"/>
<path opacity="0.2" d="M275.403 90.5971C274.649 92.0546 273.872 93.4993 273.072 94.9312C264.211 110.895 252.87 125.349 239.471 137.752L217.027 120.647C231.647 107.124 243.813 91.1694 252.984 73.4918L275.403 90.5971Z" fill="white"/>
<path opacity="0.2" d="M256.493 78.0603C256.279 78.4926 255.971 78.8712 255.591 79.1679C255.21 79.4647 254.768 79.672 254.297 79.7744C253.826 79.8768 253.337 79.8717 252.868 79.7595C252.399 79.6472 251.961 79.4308 251.587 79.1261C243.63 93.3645 233.692 106.402 222.071 117.847C222.466 118.125 222.793 118.489 223.027 118.911C223.261 119.333 223.397 119.803 223.423 120.285C223.449 120.767 223.366 121.249 223.179 121.695C222.992 122.14 222.706 122.537 222.343 122.856L236.331 133.518C237.118 132.801 238.126 132.375 239.187 132.311C240.249 132.247 241.301 132.548 242.168 133.164C253.79 121.719 263.728 108.682 271.685 94.4432C269.999 93.159 269.483 90.6099 270.481 88.7222L270.497 88.6933L256.506 78.0314L256.493 78.0603ZM253.925 111.94C251.282 115.398 246.194 115.953 242.749 113.327C239.304 110.701 238.791 105.879 241.436 102.412C244.081 98.9442 248.875 98.1737 252.326 100.806C255.777 103.439 256.586 108.482 253.938 111.94H253.925Z" fill="black"/>
<g opacity="0.2">
<path opacity="0.2" d="M251.523 109.051L252.451 109.757L251.931 110.438L251.003 109.728C250.332 110.505 249.456 111.083 248.756 111.224L248.21 110.219C248.946 110.02 249.609 109.613 250.12 109.047L248.464 107.786C247.539 108.537 246.47 109.288 245.321 108.409C244.476 107.766 244.223 106.601 245.09 105.214L244.155 104.501C244.329 104.277 244.502 104.049 244.672 103.821L245.59 104.521C246.066 103.945 246.676 103.494 247.366 103.208L247.947 104.19C247.395 104.422 246.898 104.767 246.486 105.201L248.155 106.486C249.08 105.731 250.12 104.935 251.27 105.811C252.111 106.444 252.38 107.632 251.523 109.051ZM247.472 107.025L245.998 105.901C245.639 106.559 245.741 107.034 246.107 107.311C246.473 107.587 246.955 107.397 247.472 107.025ZM250.554 106.932C250.149 106.611 249.684 106.845 249.164 107.253L250.628 108.37C251.003 107.677 250.904 107.205 250.547 106.932H250.554Z" fill="black"/>
</g>
<path opacity="0.2" d="M273.081 94.9247C264.219 110.892 252.874 125.348 239.471 137.752C239.471 137.752 229.962 123.244 226.016 120.547C226.016 120.547 256.65 109.179 273.081 94.9247Z" fill="black"/>
<path d="M296.836 114.21C281.905 127.384 264.806 137.874 246.297 145.213L231.529 121.161C250.038 113.822 267.136 103.332 282.064 90.1572C286.991 98.1769 291.915 106.194 296.836 114.21Z" fill="#FFDAC5"/>
<path opacity="0.3" d="M296.836 114.21C281.905 127.384 264.806 137.874 246.297 145.213L239.917 134.818C237.135 130.27 234.343 125.718 231.541 121.164C250.051 113.825 267.149 103.336 282.077 90.1605C286.996 98.1781 291.915 106.195 296.836 114.21Z" fill="white"/>
<path opacity="0.2" d="M283.714 95.6888C283.361 96.0183 282.938 96.2635 282.477 96.4057C282.015 96.548 281.528 96.5837 281.05 96.5101C280.573 96.4366 280.119 96.2557 279.722 95.981C279.325 95.7064 278.995 95.3452 278.757 94.9247C266.196 105.331 252.222 113.903 237.253 120.384C237.521 120.785 237.695 121.242 237.762 121.72C237.828 122.199 237.784 122.686 237.635 123.145C237.485 123.604 237.233 124.023 236.898 124.371C236.562 124.718 236.152 124.985 235.699 125.151L244.903 140.131C245.895 139.747 246.989 139.714 248.002 140.038C249.016 140.361 249.888 141.022 250.473 141.91C265.444 135.431 279.418 126.859 291.978 116.451C290.867 114.646 291.307 112.081 292.919 110.672L292.944 110.649L283.75 95.6663L283.714 95.6888ZM269.107 126.361C265.392 128.634 260.439 127.325 258.191 123.623C255.944 119.921 257.19 115.247 260.904 112.977C264.619 110.707 269.37 111.693 271.64 115.407C273.91 119.122 272.834 124.095 269.107 126.361Z" fill="black"/>
<g opacity="0.2">
<path opacity="0.2" d="M267.9 122.788L268.51 123.783L267.778 124.23C267.579 123.909 267.376 123.588 267.174 123.247C266.269 123.726 265.248 123.95 264.532 123.828C264.484 123.45 264.436 123.071 264.384 122.692C265.142 122.771 265.907 122.631 266.587 122.287C266.225 121.697 265.863 121.106 265.502 120.515C264.365 120.881 263.1 121.193 262.342 119.96C261.787 119.054 261.97 117.876 263.28 116.897L262.667 115.895L263.395 115.446L263.999 116.432C264.651 116.067 265.381 115.866 266.128 115.847C266.192 116.223 266.253 116.598 266.317 116.971C265.718 116.991 265.129 117.133 264.587 117.388L265.685 119.18C266.821 118.81 268.076 118.444 268.831 119.674C269.386 120.579 269.206 121.783 267.9 122.788ZM264.843 119.443C264.52 118.916 264.199 118.39 263.88 117.863C263.306 118.348 263.238 118.827 263.473 119.218C263.707 119.61 264.233 119.607 264.843 119.443ZM267.749 120.47C267.482 120.034 266.969 120.075 266.343 120.252L267.306 121.822C267.897 121.324 267.983 120.849 267.749 120.47Z" fill="black"/>
</g>
<path opacity="0.2" d="M296.836 114.21C281.905 127.384 264.806 137.874 246.297 145.213L239.917 134.818L238.803 118.711C238.803 118.711 274.215 121.267 296.836 114.21Z" fill="black"/>
<path d="M301.118 145.383C281.738 149.95 261.713 151.126 241.93 148.86C241.383 139.471 240.832 130.08 240.28 120.689C260.066 122.959 280.097 121.783 299.481 117.212C300.022 126.603 300.568 135.994 301.118 145.383Z" fill="#FFDAC5"/>
<path opacity="0.4" d="M301.118 145.383C281.738 149.95 261.713 151.126 241.93 148.86C241.383 139.471 240.832 130.08 240.28 120.689C260.066 122.959 280.097 121.783 299.481 117.212C300.022 126.603 300.568 135.994 301.118 145.383Z" fill="white"/>
<path opacity="0.2" d="M298.3 122.856C297.832 122.975 297.344 122.987 296.872 122.892C296.399 122.797 295.954 122.597 295.569 122.306C295.184 122.015 294.87 121.641 294.65 121.212C294.43 120.783 294.309 120.31 294.296 119.828C278.31 123.071 261.945 124.027 245.69 122.669C245.737 123.15 245.674 123.635 245.506 124.088C245.339 124.541 245.07 124.95 244.722 125.284C244.373 125.618 243.953 125.869 243.494 126.017C243.034 126.165 242.547 126.207 242.068 126.14C242.413 131.994 242.756 137.847 243.096 143.701C244.152 143.83 245.132 144.316 245.873 145.08C246.614 145.843 247.07 146.838 247.167 147.897C263.422 149.255 279.787 148.299 295.773 145.056C295.648 142.94 297.246 140.882 299.33 140.414H299.362L298.332 122.856H298.3ZM270.94 143.001C266.593 143.248 262.856 139.752 262.593 135.428C262.33 131.103 265.665 127.572 270.012 127.325C274.359 127.077 278.074 130.214 278.327 134.539C278.581 138.863 275.284 142.76 270.94 143.001Z" fill="black"/>
<g opacity="0.2">
<path opacity="0.2" d="M271.55 139.28L271.617 140.443L270.763 140.494L270.696 139.341C269.773 139.367 268.863 139.111 268.089 138.606C268.227 138.25 268.362 137.893 268.497 137.537C269.128 137.963 269.868 138.2 270.629 138.221C270.59 137.527 270.549 136.835 270.507 136.144C269.335 135.929 268.07 135.608 267.986 134.163C267.925 133.103 268.645 132.153 270.259 131.916L270.192 130.744L271.046 130.692L271.113 131.845C271.86 131.827 272.599 131.996 273.264 132.336L272.898 133.415C272.362 133.149 271.776 132.996 271.178 132.965L271.303 135.065C272.475 135.274 273.756 135.543 273.842 136.991C273.916 138.035 273.191 139.014 271.55 139.28ZM270.436 134.885C270.397 134.271 270.361 133.656 270.327 133.039C269.592 133.193 269.303 133.582 269.328 134.041C269.354 134.5 269.832 134.734 270.449 134.885H270.436ZM272.513 137.165C272.484 136.657 272.012 136.449 271.377 136.311L271.483 138.15C272.25 137.987 272.552 137.624 272.513 137.165Z" fill="black"/>
</g>
<path d="M254.997 145.412C255.08 146.373 255.18 147.35 255.296 148.343H187.78C189.892 130.497 187.78 122.759 187.78 122.759C210.343 121.061 255.296 122.759 255.296 122.759C255.296 122.759 253.938 131.357 254.853 143.669C254.895 144.24 254.943 144.822 254.997 145.412Z" fill="#FFDAC5"/>
<path opacity="0.2" d="M255.296 122.759C252.339 124.14 237.876 124.336 229.554 123.819C221.233 123.302 210.343 124.878 210.343 124.878C204.038 122.702 187.78 122.759 187.78 122.759C210.343 121.061 255.296 122.759 255.296 122.759Z" fill="white"/>
<path opacity="0.2" d="M187.78 148.343C189.892 130.496 187.78 122.759 187.78 122.759C187.78 122.759 201.164 122.467 210.343 124.878C210.343 124.878 210.664 127.601 210.343 129C210.343 129 221.384 127.209 231.211 127.447C231.211 127.447 216 129.196 210.343 130.496C210.343 130.496 201.244 129.077 195.488 129C195.488 129 207.457 130.557 210.343 131.489C210.343 131.489 213.765 130.866 215.557 130.866C215.557 130.866 211.271 131.646 210.343 132.342V137.274C210.343 137.274 200.789 137.463 195.995 136.779C198.272 137.136 207.553 138.564 210.343 138.564C210.343 138.564 220.886 138.176 227.008 138.564C227.008 138.564 213.059 139.367 210.343 140.015H198.368L210.343 141.02V142.019H215.48L210.343 142.905C210.343 142.905 195.488 141.961 191.215 142.905C191.215 142.905 208.747 143.701 210.324 144.321L210.343 145.797C210.343 145.797 230.004 143.2 247.391 145.435C247.391 145.435 222 144.427 210.343 147.252C210.343 147.252 246.817 146.459 255.289 148.343H187.78Z" fill="black"/>
<path d="M188.175 124.878L186.393 125.501C186.393 125.501 197.125 125.87 204.05 126.93C204.044 126.93 193.376 125.032 188.175 124.878Z" fill="#FFDAC5"/>
<path opacity="0.2" d="M211.906 126.93L214.622 127.447C214.622 127.447 227.268 126.073 242.216 125.906C242.216 125.906 220.626 124.859 211.906 126.93Z" fill="white"/>
<path opacity="0.2" d="M220.475 129.835C220.475 129.835 228.058 127.768 234.707 127.87C241.356 127.973 254.011 126.93 254.011 126.93L254.509 127.87C254.509 127.87 244.585 128.451 236.396 128.384C231.056 128.394 225.728 128.88 220.475 129.835Z" fill="white"/>
<path opacity="0.2" d="M212.95 132.927C212.95 132.927 221.99 131.001 230.854 131.177C239.718 131.354 250.881 132.047 250.881 132.047C250.881 132.047 226.655 132.047 220.475 133.331L212.95 132.927Z" fill="white"/>
<path d="M228.588 130.127C228.588 130.127 236.373 129.485 243.093 129.835C249.812 130.185 256.869 130.5 256.869 130.5L254.509 131.168C254.509 131.168 238.332 129.546 228.588 130.127Z" fill="#FFDAC5"/>
<path opacity="0.2" d="M228.588 130.127C228.588 130.127 236.373 129.485 243.093 129.835C249.812 130.185 256.869 130.5 256.869 130.5L254.509 131.168C254.509 131.168 238.332 129.546 228.588 130.127Z" fill="black"/>
<path opacity="0.2" d="M213.242 134.561C213.242 134.561 226.726 134.394 233.221 134.07C239.715 133.745 248.425 135.547 248.425 135.547C248.425 135.547 237.68 135.319 234.354 135.845L213.242 134.561Z" fill="black"/>
<path opacity="0.2" d="M211.906 136.603L220.475 135.845L238.73 136.603L220.241 137.36L211.906 136.603Z" fill="white"/>
<path opacity="0.2" d="M218.314 140.625C218.314 140.625 230.774 139.463 235.628 139.402C240.483 139.341 253.546 138.468 253.546 138.468L252.095 140.394C252.095 140.394 227.532 139.871 218.314 140.625Z" fill="white"/>
<path d="M249.908 134.07L254.509 134.503L255.761 134.07C253.814 133.888 251.855 133.888 249.908 134.07Z" fill="#FFDAC5"/>
<path d="M255.09 124.358L256.869 124.644L254.958 125.642L243.722 125.405C243.722 125.405 252.146 125.292 255.09 124.358Z" fill="#FFDAC5"/>
<path opacity="0.2" d="M249.908 134.07L254.509 134.503L255.761 134.07C253.814 133.888 251.855 133.888 249.908 134.07Z" fill="white"/>
<path opacity="0.2" d="M255.09 124.358L256.869 124.644L254.958 125.642L243.722 125.405C243.722 125.405 252.146 125.292 255.09 124.358Z" fill="black"/>
<path opacity="0.2" d="M254.997 145.412C251.979 145.216 230.832 142.558 230.832 142.558C232.241 142.394 250.701 143.486 254.852 143.669C254.895 144.24 254.943 144.822 254.997 145.412Z" fill="black"/>
<path d="M223.156 142.195C223.156 142.195 242.929 142.144 248.586 142.552C254.243 142.959 254.75 142.195 254.75 142.195L257.569 143.553C257.569 143.553 257.713 144.902 250.294 143.961C242.874 143.02 223.156 142.195 223.156 142.195Z" fill="#FFDAC5"/>
<path d="M207.001 132.253C207.001 132.253 195.421 130.416 188.669 130.885C189.684 131.116 190.629 131.584 191.427 132.253H207.001Z" fill="#FFDAC5"/>
<path d="M188.656 137.274C188.92 137.245 197.324 138.352 200.535 138.468L187.468 138.995L188.656 137.274Z" fill="#FFDAC5"/>
<path d="M188.181 144.536L200.875 144.985L186.393 146.058L188.181 144.536Z" fill="#FFDAC5"/>
<path d="M211.309 121.892C211.309 121.892 229.339 124.974 239.796 112.637L259.495 117.693C259.495 117.693 255.87 125.212 228.646 124.214C201.421 123.215 211.309 121.892 211.309 121.892Z" fill="#FFDAC5"/>
<path opacity="0.5" d="M211.309 121.892C211.309 121.892 229.339 124.974 239.796 112.637L259.495 117.693C259.495 117.693 255.87 125.212 228.646 124.214C201.421 123.215 211.309 121.892 211.309 121.892Z" fill="white"/>
<path opacity="0.2" d="M221.605 122.557C221.605 122.557 232.627 121.976 238.858 114.926C239.43 115.103 240.042 115.104 240.614 114.929C241.187 114.753 241.694 114.41 242.068 113.943L256.448 117.754C256.448 117.754 254.901 118.297 255.443 120.088C255.43 120.088 236.556 127.736 221.605 122.557Z" fill="black"/>
<path d="M238.055 86.7991L238.393 85.0109C238.393 85.0109 237.696 84.3495 237.776 83.7267C237.856 83.1039 240.958 82.1215 241.507 82.0669C242.056 82.0123 241.847 84.2596 241.68 84.6674C241.513 85.0751 239.651 85.5663 239.651 85.5663L239.417 87.4508L238.055 86.7991Z" fill="#EBB376"/>
<path d="M202.301 95.5894L201.071 94.2474C201.071 94.2474 201.312 93.3196 200.92 92.8445C200.529 92.3693 197.366 93.1495 196.878 93.4031C196.39 93.6567 197.745 95.4449 198.105 95.7018C198.464 95.9586 200.301 95.3807 200.301 95.3807L201.495 96.8607L202.301 95.5894Z" fill="#EBB376"/>
<path d="M226.755 92.7064C230.212 92.5138 233.346 93.2361 234.954 92.7064C236.563 92.1767 238.123 85.4861 238.123 85.4861L239.815 86.0575C239.815 86.0575 239.173 93.021 236.392 94.8863C233.612 96.7515 227.169 96.7355 227.169 96.7355L226.755 92.7064Z" fill="#FFDAC5"/>
<path opacity="0.7" d="M239.815 86.0575C239.815 86.0575 239.173 93.021 236.392 94.8863C234.787 95.9457 232.036 96.3984 229.946 96.5942C228.363 96.7387 227.169 96.7355 227.169 96.7355L226.976 94.8542L226.755 92.7064C230.212 92.5138 233.346 93.2361 234.954 92.7064C236.563 92.1767 238.123 85.4861 238.123 85.4861L239.815 86.0575Z" fill="white"/>
<path opacity="0.2" d="M229.946 96.5942C228.363 96.7387 227.169 96.7355 227.169 96.7355L226.976 94.8541C228.052 95.2724 229.055 95.8598 229.946 96.5942Z" fill="black"/>
<path d="M248.859 146.79L251.096 146.176L250.695 140.712L248.461 141.329L248.859 146.79Z" fill="#B97964"/>
<path opacity="0.2" d="M248.461 141.329L250.698 140.715L250.926 143.839L248.676 144.34L248.461 141.329Z" fill="black"/>
<path d="M245.931 146.709L243.815 147.676L243.279 145.403L242.557 142.346L244.663 141.38L245.388 144.433L245.931 146.709Z" fill="#B97964"/>
<path opacity="0.2" d="M245.388 144.433L243.279 145.403L242.557 142.346L244.663 141.38L245.388 144.433Z" fill="black"/>
<path d="M230.254 115.68L229.57 108.129L216.963 108.425C216.963 108.425 215.47 118.945 216.555 120.878C218.481 124.329 231.201 122.371 234.174 122.663C235.388 123.305 241.879 144.838 241.879 144.838L245.517 143.37C245.517 143.37 241.606 125.202 240.701 121.78C239.478 117.022 234.431 117.106 230.254 115.68Z" fill="#263238"/>
<path d="M251.148 142.998L247.937 143.293C247.937 143.293 244.004 123.263 243.699 123.177C243.154 123.019 241.558 122.84 240.701 122.615C234.749 121.067 220.09 118.22 220.09 118.22L225.496 113.012C225.496 113.012 250.005 115.953 250.538 121.706C250.811 124.461 251.148 142.998 251.148 142.998Z" fill="#263238"/>
<path opacity="0.2" d="M242.836 123.193C242.287 123.035 241.552 122.843 240.701 122.618C240.938 122.743 240.251 119.626 239.564 118.82C238.2 117.215 232.723 116.342 230.761 116.027C229.118 115.764 223.608 115.279 223.608 115.279C223.608 115.279 233.336 114.438 240.666 116.451C244.29 117.446 243.645 120.984 242.836 123.193Z" fill="black"/>
<path d="M215.28 94.5395C215.28 94.5395 219.932 92.0706 226.755 92.7063C226.755 92.7063 229.121 98.7227 229.57 108.116L216.886 108.996C216.886 108.996 217.114 100.944 215.28 94.5395Z" fill="#FFDAC5"/>
<path opacity="0.7" d="M216.886 109.009C216.918 106.817 216.837 104.624 216.642 102.44C216.529 101.156 216.369 99.8046 216.138 98.4273C215.925 97.1163 215.639 95.8183 215.28 94.5395C215.28 94.5395 219.932 92.0706 226.755 92.7063C226.755 92.7063 229.121 98.7227 229.57 108.116L216.886 109.009Z" fill="white"/>
<path opacity="0.2" d="M216.651 102.44C216.539 101.156 216.378 99.8045 216.147 98.4273C216.373 98.1983 216.644 98.0199 216.944 97.904L216.96 97.7627C216.95 97.9168 217.615 100.289 216.651 102.44Z" fill="black"/>
<path d="M218.796 93.6662C219.958 94.7224 222.803 94.3307 222.803 94.3307C222.803 94.3307 224.578 93.846 224.206 93.2906C223.159 93.1172 222.655 92.6292 222.443 92.0064C222.331 91.6178 222.295 91.2111 222.337 90.8089C222.337 90.5906 222.388 90.3658 222.427 90.1443L218.899 87.5406C219.371 89.2582 219.936 92.4205 218.796 93.6662Z" fill="#EBB376"/>
<path opacity="0.2" d="M219.721 89.194C219.862 91.3032 221.595 91.8875 222.443 92.0063C222.331 91.6178 222.295 91.2111 222.337 90.8088L219.721 89.194Z" fill="black"/>
<path d="M221.952 80.3043C223.258 80.6575 224.347 83.6721 223.368 85.6658C222.388 87.6595 219.438 82.0829 219.438 82.0829C219.438 82.0829 221.107 80.0796 221.952 80.3043Z" fill="#263238"/>
<path d="M224.678 87.2195C224.684 87.3415 224.684 87.4636 224.678 87.5855C224.655 88.4556 224.304 89.2849 223.695 89.9067C223.151 90.4735 222.415 90.817 221.631 90.8698C221.073 90.8975 220.518 90.7732 220.026 90.5103C218.465 89.7173 218.045 88.3432 217.136 86.0766C216.91 85.5492 216.824 84.9723 216.886 84.4018C216.948 83.8312 217.156 83.2864 217.491 82.8201C217.826 82.3538 218.275 81.9818 218.795 81.7402C219.316 81.4985 219.89 81.3954 220.462 81.4407C223.031 81.6302 224.478 84.9722 224.678 87.2195Z" fill="#EBB376"/>
<path d="M220.864 85.547C220.912 85.7364 221.072 85.868 221.185 85.8135C221.297 85.7589 221.358 85.5855 221.297 85.3993C221.236 85.2131 221.082 85.0783 220.976 85.1328C220.87 85.1874 220.803 85.3544 220.864 85.547Z" fill="#263238"/>
<path d="M222.992 84.8472C223.04 85.0366 223.204 85.1522 223.313 85.1137C223.422 85.0752 223.486 84.8858 223.425 84.6963C223.364 84.5069 223.214 84.3913 223.104 84.4299C222.995 84.4684 222.934 84.6674 222.992 84.8472Z" fill="#263238"/>
<path d="M222.347 85.1617C222.761 85.6636 223.241 86.1064 223.775 86.478C223.676 86.6133 223.549 86.725 223.402 86.8055C223.255 86.8859 223.092 86.9331 222.925 86.9435L222.347 85.1617Z" fill="#D58745"/>
<path d="M223.483 83.688C223.468 83.703 223.449 83.714 223.428 83.7201C223.407 83.7263 223.386 83.7274 223.364 83.7233C223.224 83.6849 223.076 83.68 222.934 83.709C222.791 83.738 222.657 83.8001 222.543 83.8903C222.52 83.9116 222.491 83.9232 222.46 83.9226C222.429 83.922 222.4 83.9092 222.379 83.8871C222.358 83.8649 222.346 83.8352 222.347 83.8045C222.347 83.7738 222.36 83.7446 222.382 83.7233C222.525 83.6062 222.693 83.5248 222.873 83.4857C223.054 83.4466 223.241 83.4511 223.419 83.4986C223.434 83.5017 223.448 83.5077 223.461 83.5163C223.474 83.5249 223.485 83.536 223.493 83.5488C223.501 83.5616 223.507 83.576 223.51 83.5911C223.512 83.6062 223.512 83.6217 223.509 83.6366C223.502 83.6547 223.494 83.6719 223.483 83.688Z" fill="#263238"/>
<path d="M220.16 84.8342C220.139 84.8423 220.115 84.8423 220.093 84.8342C220.067 84.8187 220.048 84.7936 220.04 84.7641C220.032 84.7346 220.036 84.7033 220.051 84.6769C220.145 84.517 220.275 84.3818 220.432 84.2824C220.588 84.183 220.766 84.1223 220.95 84.1054C220.965 84.105 220.98 84.1075 220.995 84.1129C221.009 84.1184 221.022 84.1265 221.033 84.137C221.044 84.1474 221.053 84.1599 221.059 84.1738C221.065 84.1876 221.069 84.2026 221.069 84.2178C221.069 84.2482 221.057 84.2775 221.036 84.2996C221.016 84.3217 220.987 84.3349 220.957 84.3365C220.811 84.3541 220.672 84.4053 220.55 84.4861C220.428 84.5669 220.326 84.6751 220.254 84.8021C220.241 84.8136 220.226 84.8224 220.21 84.8279C220.194 84.8335 220.177 84.8356 220.16 84.8342Z" fill="#263238"/>
<path d="M217.887 82.6094L218.391 83.5725C218.255 83.7202 218.179 83.914 218.179 84.1151C218.179 84.3162 218.255 84.5099 218.391 84.6576C219.034 85.3768 219.059 86.8664 218.61 87.6369C218.61 87.6369 218.452 87.2806 218.176 87.4828C217.9 87.6851 218.716 89.5568 219.663 90.2342C219.663 90.2342 218.44 89.7623 217.162 87.9612C215.98 86.2982 215.332 84.7796 215.438 83.9192L217.887 82.6094Z" fill="#263238"/>
<path d="M216.754 88.2824C217.181 88.7218 217.766 88.9736 218.379 88.9822C219.194 88.9822 219.387 88.2085 218.982 87.5504C218.619 86.9693 217.756 86.2469 217.027 86.5648C216.298 86.8826 216.234 87.7366 216.754 88.2824Z" fill="#EBB376"/>
<path d="M223.175 87.7494C223.027 88.0728 222.903 88.4065 222.803 88.7478L222.616 88.7253C221.775 88.613 221.419 88.2823 221.284 87.9484C221.221 87.7849 221.198 87.6089 221.217 87.4347C221.223 87.3347 221.245 87.2362 221.281 87.1426C221.769 87.4442 222.317 87.637 222.886 87.7076C223.072 87.7397 223.175 87.7494 223.175 87.7494Z" fill="#263238"/>
<path d="M222.889 87.7076L222.771 87.9998C221.978 87.8906 221.432 87.7076 221.217 87.4347C221.223 87.3347 221.245 87.2362 221.281 87.1426C221.77 87.4447 222.319 87.6374 222.889 87.7076Z" fill="white"/>
<path d="M222.616 88.7254C221.775 88.613 221.419 88.2824 221.284 87.9485C221.604 88.0018 221.913 88.1104 222.196 88.2695C222.38 88.3744 222.527 88.5336 222.616 88.7254Z" fill="#DE5753"/>
<path d="M220.035 82.7764C220.035 82.7764 219.81 81.2418 220.78 81.5403C221.75 81.8389 221.817 81.2546 221.528 80.0699C221.239 78.8853 218.459 78.4647 216.886 80.407C215.313 82.3494 214.764 83.9771 215.525 84.8375C216.285 85.6979 219.184 83.1584 219.184 83.1584C219.263 82.7246 219.448 82.3168 219.721 81.9705C219.738 82.2655 219.848 82.5474 220.035 82.7764Z" fill="#263238"/>
<path d="M221.534 94.2087L223.072 95.5668C223.072 95.5668 223.917 101.281 225.991 103.779H227.275L227.528 102.893C225.599 100.739 224.214 98.1542 223.49 95.3549V93.5345L221.534 94.2087Z" fill="#263238"/>
<path d="M219.188 92.4302L222.347 93.6149L222.616 92.0065L224.257 92.6004L224.677 94.6326L222.443 94.0804L221.335 95.5636L218.115 93.4801L219.188 92.4302Z" fill="#FFDAC5"/>
<path opacity="0.5" d="M219.188 92.4302L222.347 93.6149L222.616 92.0065L224.257 92.6004L224.677 94.6326L222.443 94.0804L221.335 95.5636L218.115 93.4801L219.188 92.4302Z" fill="white"/>
<path d="M216.706 108.797L229.718 107.561L229.747 109.141L216.712 110.206L216.706 108.797Z" fill="black"/>
<path d="M226.963 107.885C226.905 107.832 226.835 107.792 226.76 107.768C226.685 107.744 226.605 107.735 226.527 107.744L225.374 107.863C225.232 107.877 225.1 107.945 225.005 108.052C224.91 108.159 224.858 108.297 224.86 108.441V109.179C224.864 109.331 224.927 109.475 225.037 109.581C225.146 109.686 225.293 109.743 225.445 109.741H225.493L226.645 109.619C226.788 109.604 226.919 109.537 227.014 109.43C227.108 109.323 227.159 109.184 227.156 109.041V108.306C227.156 108.226 227.138 108.147 227.105 108.075C227.072 108.002 227.023 107.938 226.963 107.885ZM226.626 109.324L225.477 109.446C225.437 109.451 225.397 109.448 225.359 109.437C225.321 109.426 225.286 109.407 225.255 109.381C225.225 109.355 225.2 109.323 225.183 109.287C225.166 109.252 225.157 109.212 225.156 109.173V108.437C225.155 108.368 225.18 108.3 225.226 108.247C225.272 108.195 225.337 108.162 225.406 108.155L226.556 108.036H226.581C226.654 108.036 226.724 108.065 226.777 108.116C226.829 108.167 226.859 108.236 226.861 108.309V108.409H226.816L226.495 108.437C226.469 108.44 226.444 108.447 226.421 108.459C226.398 108.471 226.378 108.487 226.361 108.507C226.345 108.527 226.332 108.55 226.325 108.575C226.317 108.599 226.314 108.625 226.316 108.651C226.319 108.677 226.326 108.702 226.338 108.725C226.35 108.747 226.366 108.768 226.386 108.784C226.406 108.801 226.429 108.813 226.454 108.821C226.478 108.829 226.504 108.831 226.53 108.829L226.851 108.797H226.867V109.051C226.867 109.118 226.842 109.182 226.798 109.232C226.754 109.283 226.693 109.315 226.626 109.324Z" fill="white"/>
<path d="M215.281 94.5394C213.11 95.8236 209.977 100.052 208.876 99.9651C207.774 99.8784 201.835 94.6036 201.835 94.6036L200.48 96.0708C200.48 96.0708 205.967 102.623 208.523 103.118C211.078 103.612 216.706 98.8735 216.706 98.8735C217.024 98.057 217.024 97.1506 216.706 96.3341C216.417 95.6089 215.922 94.9847 215.281 94.5394Z" fill="#FFDAC5"/>
<path opacity="0.7" d="M215.281 94.5394C213.11 95.8236 209.977 100.052 208.876 99.9651C207.774 99.8784 201.835 94.6036 201.835 94.6036L200.48 96.0708C200.48 96.0708 205.967 102.623 208.523 103.118C211.078 103.612 216.706 98.8735 216.706 98.8735C217.024 98.057 217.024 97.1506 216.706 96.3341C216.417 95.6089 215.922 94.9847 215.281 94.5394Z" fill="white"/>
<path d="M235.147 124.384C235.147 124.384 192.059 124.682 189.385 118.631L208.574 117.237C212.382 118.835 216.28 120.21 220.247 121.356C224.677 122.65 229.93 123.877 235.147 124.384Z" fill="#FFDAC5"/>
<path opacity="0.2" d="M235.147 124.384C235.147 124.384 233.795 124.384 231.548 124.384C222.331 123.742 211.569 119.164 211.569 119.164C207.685 120.018 205.013 118.486 205.013 118.486L194.541 119.087C194.597 119.344 194.595 119.612 194.534 119.868C194.473 120.125 194.354 120.365 194.188 120.57C199.617 122.095 205.469 123.023 210.24 123.584C200.162 122.83 190.599 121.392 189.372 118.64L208.561 117.247C208.561 117.247 221.965 123.1 235.147 124.384Z" fill="white"/>
<path opacity="0.2" d="M235.147 124.384C235.147 124.384 192.059 124.682 189.385 118.631C189.385 118.631 203.944 124.92 220.247 121.356C224.677 122.65 229.93 123.877 235.147 124.384Z" fill="black"/>
</g>
</svg>
