<svg width="297" height="133" viewBox="0 0 297 133" fill="none" xmlns="http://www.w3.org/2000/svg">
<rect y="0.345215" width="297" height="132.655" rx="20" fill="#FFAA5B"/>
<path d="M15.662 37.1533V20.2333H26.726V22.6813H18.734V27.4573H26.222V29.9053H18.734V37.1533H15.662ZM32.7938 37.3933C29.9138 37.3933 28.4738 35.7773 28.4738 32.5453V25.4173H31.4738V32.5933C31.4738 33.4253 31.6418 34.0413 31.9778 34.4413C32.3138 34.8413 32.8498 35.0413 33.5858 35.0413C34.3858 35.0413 35.0418 34.7693 35.5538 34.2253C36.0658 33.6653 36.3218 32.9293 36.3218 32.0173V25.4173H39.3218V37.1533H36.3938V35.4013C35.6098 36.7293 34.4098 37.3933 32.7938 37.3933ZM42.4443 37.1533V25.4173H45.3723V27.2413C45.7723 26.5693 46.3083 26.0573 46.9803 25.7053C47.6683 25.3533 48.4363 25.1773 49.2843 25.1773C52.0523 25.1773 53.4363 26.7853 53.4363 30.0013V37.1533H50.4363V30.1453C50.4363 29.2333 50.2603 28.5693 49.9083 28.1533C49.5723 27.7373 49.0443 27.5293 48.3243 27.5293C47.4443 27.5293 46.7403 27.8093 46.2123 28.3693C45.7003 28.9133 45.4443 29.6413 45.4443 30.5533V37.1533H42.4443ZM61.9073 37.3933C60.6753 37.3933 59.6033 37.1453 58.6913 36.6493C57.7793 36.1373 57.0753 35.4173 56.5793 34.4893C56.0833 33.5613 55.8353 32.4733 55.8353 31.2253C55.8353 29.9773 56.0833 28.9053 56.5793 28.0093C57.0753 27.0973 57.7793 26.4013 58.6913 25.9213C59.6033 25.4253 60.6753 25.1773 61.9073 25.1773C62.6593 25.1773 63.4033 25.2973 64.1393 25.5373C64.8753 25.7773 65.4833 26.1133 65.9633 26.5453L65.0753 28.6333C64.6593 28.2653 64.1873 27.9853 63.6593 27.7933C63.1473 27.6013 62.6513 27.5053 62.1713 27.5053C61.1313 27.5053 60.3233 27.8333 59.7473 28.4893C59.1873 29.1293 58.9073 30.0493 58.9073 31.2493C58.9073 32.4333 59.1873 33.3693 59.7473 34.0573C60.3233 34.7293 61.1313 35.0653 62.1713 35.0653C62.6353 35.0653 63.1313 34.9693 63.6593 34.7773C64.1873 34.5853 64.6593 34.2973 65.0753 33.9133L65.9633 36.0253C65.4833 36.4413 64.8673 36.7773 64.1153 37.0333C63.3793 37.2733 62.6433 37.3933 61.9073 37.3933ZM73.2265 37.3933C70.1225 37.3933 68.5705 35.8573 68.5705 32.7853V27.6733H66.3145V25.4173H68.5705V21.9133H71.5705V25.4173H75.1225V27.6733H71.5705V32.6173C71.5705 33.3853 71.7385 33.9613 72.0745 34.3453C72.4105 34.7293 72.9545 34.9213 73.7065 34.9213C73.9305 34.9213 74.1625 34.8973 74.4025 34.8493C74.6425 34.7853 74.8905 34.7213 75.1465 34.6573L75.6025 36.8653C75.3145 37.0253 74.9465 37.1533 74.4985 37.2493C74.0665 37.3453 73.6425 37.3933 73.2265 37.3933ZM76.8695 22.8973V19.9693H80.2295V22.8973H76.8695ZM77.0615 37.1533V25.4173H80.0615V37.1533H77.0615ZM88.5307 37.3933C87.3147 37.3933 86.2587 37.1453 85.3627 36.6493C84.4667 36.1533 83.7707 35.4493 83.2747 34.5373C82.7787 33.6093 82.5307 32.5213 82.5307 31.2733C82.5307 30.0253 82.7787 28.9453 83.2747 28.0333C83.7707 27.1213 84.4667 26.4173 85.3627 25.9213C86.2587 25.4253 87.3147 25.1773 88.5307 25.1773C89.7467 25.1773 90.8027 25.4253 91.6987 25.9213C92.5947 26.4173 93.2907 27.1213 93.7867 28.0333C94.2827 28.9453 94.5307 30.0253 94.5307 31.2733C94.5307 32.5213 94.2827 33.6093 93.7867 34.5373C93.2907 35.4493 92.5947 36.1533 91.6987 36.6493C90.8027 37.1453 89.7467 37.3933 88.5307 37.3933ZM88.5307 35.1133C89.4267 35.1133 90.1467 34.7933 90.6907 34.1533C91.2347 33.4973 91.5067 32.5373 91.5067 31.2733C91.5067 29.9933 91.2347 29.0413 90.6907 28.4173C90.1467 27.7773 89.4267 27.4573 88.5307 27.4573C87.6347 27.4573 86.9147 27.7773 86.3707 28.4173C85.8267 29.0413 85.5547 29.9933 85.5547 31.2733C85.5547 32.5373 85.8267 33.4973 86.3707 34.1533C86.9147 34.7933 87.6347 35.1133 88.5307 35.1133ZM97.0068 37.1533V25.4173H99.9348V27.2413C100.335 26.5693 100.871 26.0573 101.543 25.7053C102.231 25.3533 102.999 25.1773 103.847 25.1773C106.615 25.1773 107.999 26.7853 107.999 30.0013V37.1533H104.999V30.1453C104.999 29.2333 104.823 28.5693 104.471 28.1533C104.135 27.7373 103.607 27.5293 102.887 27.5293C102.007 27.5293 101.303 27.8093 100.775 28.3693C100.263 28.9133 100.007 29.6413 100.007 30.5533V37.1533H97.0068ZM124.331 37.1533V33.9373H116.963V31.6813L124.859 20.2333H127.403V31.3933H129.779V33.9373H127.403V37.1533H124.331ZM124.331 31.3933V24.9373L119.915 31.3933H124.331Z" fill="white"/>
<path d="M15.078 98V88.13H21.532V89.558H16.87V92.344H21.238V93.772H16.87V98H15.078ZM22.6593 89.684V87.976H24.6193V89.684H22.6593ZM22.7713 98V91.154H24.5213V98H22.7713ZM28.7197 98.14C27.9077 98.14 27.3057 97.9207 26.9137 97.482C26.531 97.034 26.3397 96.3807 26.3397 95.522V88.13H28.0897V95.438C28.0897 96.278 28.4444 96.698 29.1537 96.698C29.2564 96.698 29.359 96.6933 29.4617 96.684C29.5644 96.6747 29.6624 96.656 29.7557 96.628L29.7277 98.014C29.3917 98.098 29.0557 98.14 28.7197 98.14ZM33.1904 98.14C32.3784 98.14 31.7764 97.9207 31.3844 97.482C31.0017 97.034 30.8104 96.3807 30.8104 95.522V88.13H32.5604V95.438C32.5604 96.278 32.9151 96.698 33.6244 96.698C33.7271 96.698 33.8297 96.6933 33.9324 96.684C34.0351 96.6747 34.1331 96.656 34.2264 96.628L34.1984 98.014C33.8624 98.098 33.5264 98.14 33.1904 98.14ZM38.9425 89.684V87.976H40.9025V89.684H38.9425ZM39.0545 98V91.154H40.8045V98H39.0545ZM42.6229 98V91.154H44.3309V92.218C44.5642 91.826 44.8769 91.5273 45.2689 91.322C45.6702 91.1167 46.1182 91.014 46.6129 91.014C48.2276 91.014 49.0349 91.952 49.0349 93.828V98H47.2849V93.912C47.2849 93.38 47.1822 92.9927 46.9769 92.75C46.7809 92.5073 46.4729 92.386 46.0529 92.386C45.5396 92.386 45.1289 92.5493 44.8209 92.876C44.5222 93.1933 44.3729 93.618 44.3729 94.15V98H42.6229ZM57.7218 98.14C55.9111 98.14 55.0058 97.244 55.0058 95.452V92.47H53.6898V91.154H55.0058V89.11H56.7558V91.154H58.8278V92.47H56.7558V95.354C56.7558 95.802 56.8538 96.138 57.0498 96.362C57.2458 96.586 57.5631 96.698 58.0018 96.698C58.1324 96.698 58.2678 96.684 58.4078 96.656C58.5478 96.6187 58.6924 96.5813 58.8418 96.544L59.1078 97.832C58.9398 97.9253 58.7251 98 58.4638 98.056C58.2118 98.112 57.9644 98.14 57.7218 98.14ZM59.9588 98V88.13H61.7088V92.148C61.9422 91.7747 62.2548 91.4947 62.6468 91.308C63.0388 91.112 63.4728 91.014 63.9488 91.014C65.5635 91.014 66.3708 91.952 66.3708 93.828V98H64.6208V93.912C64.6208 93.38 64.5182 92.9927 64.3128 92.75C64.1168 92.5073 63.8088 92.386 63.3888 92.386C62.8755 92.386 62.4648 92.5493 62.1568 92.876C61.8582 93.1933 61.7088 93.618 61.7088 94.15V98H59.9588ZM71.5223 98.14C70.7476 98.14 70.0803 97.9953 69.5203 97.706C68.9603 97.4167 68.5263 97.006 68.2183 96.474C67.9196 95.942 67.7703 95.312 67.7703 94.584C67.7703 93.8747 67.9149 93.254 68.2043 92.722C68.5029 92.19 68.9089 91.7747 69.4223 91.476C69.9449 91.168 70.5376 91.014 71.2003 91.014C72.1709 91.014 72.9363 91.322 73.4963 91.938C74.0656 92.554 74.3503 93.394 74.3503 94.458V94.976H69.4503C69.5809 96.1987 70.2809 96.81 71.5503 96.81C71.9329 96.81 72.3156 96.754 72.6983 96.642C73.0809 96.5207 73.4309 96.334 73.7483 96.082L74.2383 97.258C73.9116 97.5287 73.5009 97.7433 73.0063 97.902C72.5116 98.0607 72.0169 98.14 71.5223 98.14ZM71.2703 92.204C70.7569 92.204 70.3416 92.3627 70.0243 92.68C69.7069 92.9973 69.5156 93.4267 69.4503 93.968H72.8943C72.8569 93.3987 72.6983 92.9647 72.4183 92.666C72.1476 92.358 71.7649 92.204 71.2703 92.204ZM82.1416 98.14C81.5443 98.14 81.0169 97.9953 80.5596 97.706C80.1116 97.4167 79.7616 97.006 79.5096 96.474C79.2576 95.9327 79.1316 95.298 79.1316 94.57C79.1316 93.8327 79.2576 93.2027 79.5096 92.68C79.7616 92.148 80.1116 91.7373 80.5596 91.448C81.0169 91.1587 81.5443 91.014 82.1416 91.014C82.6269 91.014 83.0656 91.1213 83.4576 91.336C83.8496 91.5507 84.1436 91.8353 84.3396 92.19V88.13H86.0896V98H84.3816V96.866C84.1949 97.258 83.9009 97.5707 83.4996 97.804C83.0983 98.028 82.6456 98.14 82.1416 98.14ZM82.6316 96.81C83.1543 96.81 83.5743 96.6233 83.8916 96.25C84.2089 95.8673 84.3676 95.3073 84.3676 94.57C84.3676 93.8233 84.2089 93.268 83.8916 92.904C83.5743 92.5307 83.1543 92.344 82.6316 92.344C82.1089 92.344 81.6889 92.5307 81.3716 92.904C81.0543 93.268 80.8956 93.8233 80.8956 94.57C80.8956 95.3073 81.0543 95.8673 81.3716 96.25C81.6889 96.6233 82.1089 96.81 82.6316 96.81ZM91.2781 98.14C90.5035 98.14 89.8361 97.9953 89.2761 97.706C88.7161 97.4167 88.2821 97.006 87.9741 96.474C87.6755 95.942 87.5261 95.312 87.5261 94.584C87.5261 93.8747 87.6708 93.254 87.9601 92.722C88.2588 92.19 88.6648 91.7747 89.1781 91.476C89.7008 91.168 90.2935 91.014 90.9561 91.014C91.9268 91.014 92.6921 91.322 93.2521 91.938C93.8215 92.554 94.1061 93.394 94.1061 94.458V94.976H89.2061C89.3368 96.1987 90.0368 96.81 91.3061 96.81C91.6888 96.81 92.0715 96.754 92.4541 96.642C92.8368 96.5207 93.1868 96.334 93.5041 96.082L93.9941 97.258C93.6675 97.5287 93.2568 97.7433 92.7621 97.902C92.2675 98.0607 91.7728 98.14 91.2781 98.14ZM91.0261 92.204C90.5128 92.204 90.0975 92.3627 89.7801 92.68C89.4628 92.9973 89.2715 93.4267 89.2061 93.968H92.6501C92.6128 93.3987 92.4541 92.9647 92.1741 92.666C91.9035 92.358 91.5208 92.204 91.0261 92.204ZM97.998 98.14C97.4194 98.14 96.878 98.07 96.374 97.93C95.87 97.79 95.45 97.5893 95.114 97.328L95.562 96.18C95.9074 96.4133 96.2947 96.5953 96.724 96.726C97.1534 96.8473 97.5827 96.908 98.012 96.908C98.46 96.908 98.7914 96.8333 99.006 96.684C99.23 96.5253 99.342 96.32 99.342 96.068C99.342 95.676 99.0527 95.424 98.474 95.312L97.074 95.046C95.8887 94.822 95.296 94.206 95.296 93.198C95.296 92.75 95.4174 92.3627 95.66 92.036C95.912 91.7093 96.2574 91.4573 96.696 91.28C97.1347 91.1027 97.6387 91.014 98.208 91.014C98.6934 91.014 99.16 91.084 99.608 91.224C100.056 91.3547 100.439 91.5553 100.756 91.826L100.28 92.974C100.009 92.75 99.6827 92.5727 99.3 92.442C98.9267 92.3113 98.5674 92.246 98.222 92.246C97.7647 92.246 97.424 92.3253 97.2 92.484C96.9854 92.6427 96.878 92.8527 96.878 93.114C96.878 93.5247 97.144 93.7767 97.676 93.87L99.076 94.136C99.6827 94.248 100.14 94.4533 100.448 94.752C100.765 95.0507 100.924 95.452 100.924 95.956C100.924 96.6373 100.658 97.174 100.126 97.566C99.594 97.9487 98.8847 98.14 97.998 98.14ZM105.492 98.14C104.773 98.14 104.148 97.9953 103.616 97.706C103.084 97.4073 102.673 96.9873 102.384 96.446C102.095 95.9047 101.95 95.27 101.95 94.542C101.95 93.814 102.095 93.1887 102.384 92.666C102.673 92.134 103.084 91.728 103.616 91.448C104.148 91.1587 104.773 91.014 105.492 91.014C105.931 91.014 106.365 91.084 106.794 91.224C107.223 91.364 107.578 91.56 107.858 91.812L107.34 93.03C107.097 92.8153 106.822 92.652 106.514 92.54C106.215 92.428 105.926 92.372 105.646 92.372C105.039 92.372 104.568 92.5633 104.232 92.946C103.905 93.3193 103.742 93.856 103.742 94.556C103.742 95.2467 103.905 95.7927 104.232 96.194C104.568 96.586 105.039 96.782 105.646 96.782C105.917 96.782 106.206 96.726 106.514 96.614C106.822 96.502 107.097 96.334 107.34 96.11L107.858 97.342C107.578 97.5847 107.219 97.7807 106.78 97.93C106.351 98.07 105.921 98.14 105.492 98.14ZM108.931 98V91.154H110.639V92.358C110.975 91.546 111.694 91.098 112.795 91.014L113.327 90.972L113.439 92.456L112.431 92.554C111.283 92.666 110.709 93.254 110.709 94.318V98H108.931ZM114.302 89.684V87.976H116.262V89.684H114.302ZM114.414 98V91.154H116.164V98H114.414ZM117.982 100.52V91.154H119.69V92.246C119.886 91.8727 120.18 91.574 120.572 91.35C120.974 91.126 121.426 91.014 121.93 91.014C122.528 91.014 123.05 91.1587 123.498 91.448C123.956 91.7373 124.31 92.148 124.562 92.68C124.814 93.2027 124.94 93.8327 124.94 94.57C124.94 95.298 124.814 95.9327 124.562 96.474C124.31 97.006 123.96 97.4167 123.512 97.706C123.064 97.9953 122.537 98.14 121.93 98.14C121.445 98.14 121.006 98.0373 120.614 97.832C120.232 97.6173 119.938 97.3327 119.732 96.978V100.52H117.982ZM121.44 96.81C121.963 96.81 122.383 96.6233 122.7 96.25C123.018 95.8673 123.176 95.3073 123.176 94.57C123.176 93.8233 123.018 93.268 122.7 92.904C122.383 92.5307 121.963 92.344 121.44 92.344C120.918 92.344 120.498 92.5307 120.18 92.904C119.863 93.268 119.704 93.8233 119.704 94.57C119.704 95.3073 119.863 95.8673 120.18 96.25C120.498 96.6233 120.918 96.81 121.44 96.81ZM129.444 98.14C127.634 98.14 126.728 97.244 126.728 95.452V92.47H125.412V91.154H126.728V89.11H128.478V91.154H130.55V92.47H128.478V95.354C128.478 95.802 128.576 96.138 128.772 96.362C128.968 96.586 129.286 96.698 129.724 96.698C129.855 96.698 129.99 96.684 130.13 96.656C130.27 96.6187 130.415 96.5813 130.564 96.544L130.83 97.832C130.662 97.9253 130.448 98 130.186 98.056C129.934 98.112 129.687 98.14 129.444 98.14ZM131.569 89.684V87.976H133.529V89.684H131.569ZM131.681 98V91.154H133.431V98H131.681ZM138.372 98.14C137.663 98.14 137.047 97.9953 136.524 97.706C136.001 97.4167 135.595 97.006 135.306 96.474C135.017 95.9327 134.872 95.298 134.872 94.57C134.872 93.842 135.017 93.212 135.306 92.68C135.595 92.148 136.001 91.7373 136.524 91.448C137.047 91.1587 137.663 91.014 138.372 91.014C139.081 91.014 139.697 91.1587 140.22 91.448C140.743 91.7373 141.149 92.148 141.438 92.68C141.727 93.212 141.872 93.842 141.872 94.57C141.872 95.298 141.727 95.9327 141.438 96.474C141.149 97.006 140.743 97.4167 140.22 97.706C139.697 97.9953 139.081 98.14 138.372 98.14ZM138.372 96.81C138.895 96.81 139.315 96.6233 139.632 96.25C139.949 95.8673 140.108 95.3073 140.108 94.57C140.108 93.8233 139.949 93.268 139.632 92.904C139.315 92.5307 138.895 92.344 138.372 92.344C137.849 92.344 137.429 92.5307 137.112 92.904C136.795 93.268 136.636 93.8233 136.636 94.57C136.636 95.3073 136.795 95.8673 137.112 96.25C137.429 96.6233 137.849 96.81 138.372 96.81ZM143.316 98V91.154H145.024V92.218C145.258 91.826 145.57 91.5273 145.962 91.322C146.364 91.1167 146.812 91.014 147.306 91.014C148.921 91.014 149.728 91.952 149.728 93.828V98H147.978V93.912C147.978 93.38 147.876 92.9927 147.67 92.75C147.474 92.5073 147.166 92.386 146.746 92.386C146.233 92.386 145.822 92.5493 145.514 92.876C145.216 93.1933 145.066 93.618 145.066 94.15V98H143.316ZM158.401 98.14C157.692 98.14 157.076 97.9953 156.553 97.706C156.03 97.4167 155.624 97.006 155.335 96.474C155.046 95.9327 154.901 95.298 154.901 94.57C154.901 93.842 155.046 93.212 155.335 92.68C155.624 92.148 156.03 91.7373 156.553 91.448C157.076 91.1587 157.692 91.014 158.401 91.014C159.11 91.014 159.726 91.1587 160.249 91.448C160.772 91.7373 161.178 92.148 161.467 92.68C161.756 93.212 161.901 93.842 161.901 94.57C161.901 95.298 161.756 95.9327 161.467 96.474C161.178 97.006 160.772 97.4167 160.249 97.706C159.726 97.9953 159.11 98.14 158.401 98.14ZM158.401 96.81C158.924 96.81 159.344 96.6233 159.661 96.25C159.978 95.8673 160.137 95.3073 160.137 94.57C160.137 93.8233 159.978 93.268 159.661 92.904C159.344 92.5307 158.924 92.344 158.401 92.344C157.878 92.344 157.458 92.5307 157.141 92.904C156.824 93.268 156.665 93.8233 156.665 94.57C156.665 95.3073 156.824 95.8673 157.141 96.25C157.458 96.6233 157.878 96.81 158.401 96.81ZM163.739 98V92.47H162.423V91.154H163.739V91.14C163.739 90.1693 163.991 89.4367 164.495 88.942C165.009 88.4473 165.802 88.1673 166.875 88.102L167.561 88.06L167.673 89.348L167.029 89.39C166.469 89.4273 166.073 89.5673 165.839 89.81C165.606 90.0433 165.489 90.3933 165.489 90.86V91.154H167.351V92.47H165.489V98H163.739ZM172.612 98V92.47H171.296V91.154H172.612V91.14C172.612 90.1693 172.864 89.4367 173.368 88.942C173.882 88.4473 174.675 88.1673 175.748 88.102L176.434 88.06L176.546 89.348L175.902 89.39C175.342 89.4273 174.946 89.5673 174.712 89.81C174.479 90.0433 174.362 90.3933 174.362 90.86V91.154H176.224V92.47H174.362V98H172.612ZM180.194 98.14C179.485 98.14 178.869 97.9953 178.346 97.706C177.823 97.4167 177.417 97.006 177.128 96.474C176.839 95.9327 176.694 95.298 176.694 94.57C176.694 93.842 176.839 93.212 177.128 92.68C177.417 92.148 177.823 91.7373 178.346 91.448C178.869 91.1587 179.485 91.014 180.194 91.014C180.903 91.014 181.519 91.1587 182.042 91.448C182.565 91.7373 182.971 92.148 183.26 92.68C183.549 93.212 183.694 93.842 183.694 94.57C183.694 95.298 183.549 95.9327 183.26 96.474C182.971 97.006 182.565 97.4167 182.042 97.706C181.519 97.9953 180.903 98.14 180.194 98.14ZM180.194 96.81C180.717 96.81 181.137 96.6233 181.454 96.25C181.771 95.8673 181.93 95.3073 181.93 94.57C181.93 93.8233 181.771 93.268 181.454 92.904C181.137 92.5307 180.717 92.344 180.194 92.344C179.671 92.344 179.251 92.5307 178.934 92.904C178.617 93.268 178.458 93.8233 178.458 94.57C178.458 95.3073 178.617 95.8673 178.934 96.25C179.251 96.6233 179.671 96.81 180.194 96.81ZM187.617 98.14C185.937 98.14 185.097 97.1973 185.097 95.312V91.154H186.847V95.34C186.847 95.8253 186.945 96.1847 187.141 96.418C187.337 96.6513 187.649 96.768 188.079 96.768C188.545 96.768 188.928 96.6093 189.227 96.292C189.525 95.9653 189.675 95.536 189.675 95.004V91.154H191.425V98H189.717V96.978C189.259 97.7527 188.559 98.14 187.617 98.14ZM193.246 98V91.154H194.954V92.358C195.29 91.546 196.009 91.098 197.11 91.014L197.642 90.972L197.754 92.456L196.746 92.554C195.598 92.666 195.024 93.254 195.024 94.318V98H193.246ZM202.261 98.14C200.45 98.14 199.545 97.244 199.545 95.452V92.47H198.229V91.154H199.545V89.11H201.295V91.154H203.367V92.47H201.295V95.354C201.295 95.802 201.393 96.138 201.589 96.362C201.785 96.586 202.102 96.698 202.541 96.698C202.672 96.698 202.807 96.684 202.947 96.656C203.087 96.6187 203.232 96.5813 203.381 96.544L203.647 97.832C203.479 97.9253 203.264 98 203.003 98.056C202.751 98.112 202.504 98.14 202.261 98.14ZM204.498 98V88.13H206.248V92.148C206.481 91.7747 206.794 91.4947 207.186 91.308C207.578 91.112 208.012 91.014 208.488 91.014C210.103 91.014 210.91 91.952 210.91 93.828V98H209.16V93.912C209.16 93.38 209.057 92.9927 208.852 92.75C208.656 92.5073 208.348 92.386 207.928 92.386C207.415 92.386 207.004 92.5493 206.696 92.876C206.397 93.1933 206.248 93.618 206.248 94.15V98H204.498ZM216.923 98V92.47H215.607V91.154H216.923V91.14C216.923 90.1693 217.175 89.4367 217.679 88.942C218.192 88.4473 218.985 88.1673 220.059 88.102L220.745 88.06L220.857 89.348L220.213 89.39C219.653 89.4273 219.256 89.5673 219.023 89.81C218.789 90.0433 218.673 90.3933 218.673 90.86V91.154H220.535V92.47H218.673V98H216.923ZM224.038 98.14C222.358 98.14 221.518 97.1973 221.518 95.312V91.154H223.268V95.34C223.268 95.8253 223.366 96.1847 223.562 96.418C223.758 96.6513 224.071 96.768 224.5 96.768C224.967 96.768 225.35 96.6093 225.648 96.292C225.947 95.9653 226.096 95.536 226.096 95.004V91.154H227.846V98H226.138V96.978C225.681 97.7527 224.981 98.14 224.038 98.14ZM229.668 98V91.154H231.376V92.218C231.609 91.826 231.922 91.5273 232.314 91.322C232.715 91.1167 233.163 91.014 233.658 91.014C235.272 91.014 236.08 91.952 236.08 93.828V98H234.33V93.912C234.33 93.38 234.227 92.9927 234.022 92.75C233.826 92.5073 233.518 92.386 233.098 92.386C232.584 92.386 232.174 92.5493 231.866 92.876C231.567 93.1933 231.418 93.618 231.418 94.15V98H229.668ZM241.021 98.14C240.303 98.14 239.677 97.9953 239.145 97.706C238.613 97.4073 238.203 96.9873 237.913 96.446C237.624 95.9047 237.479 95.27 237.479 94.542C237.479 93.814 237.624 93.1887 237.913 92.666C238.203 92.134 238.613 91.728 239.145 91.448C239.677 91.1587 240.303 91.014 241.021 91.014C241.46 91.014 241.894 91.084 242.323 91.224C242.753 91.364 243.107 91.56 243.387 91.812L242.869 93.03C242.627 92.8153 242.351 92.652 242.043 92.54C241.745 92.428 241.455 92.372 241.175 92.372C240.569 92.372 240.097 92.5633 239.761 92.946C239.435 93.3193 239.271 93.856 239.271 94.556C239.271 95.2467 239.435 95.7927 239.761 96.194C240.097 96.586 240.569 96.782 241.175 96.782C241.446 96.782 241.735 96.726 242.043 96.614C242.351 96.502 242.627 96.334 242.869 96.11L243.387 97.342C243.107 97.5847 242.748 97.7807 242.309 97.93C241.88 98.07 241.451 98.14 241.021 98.14ZM247.624 98.14C245.813 98.14 244.908 97.244 244.908 95.452V92.47H243.592V91.154H244.908V89.11H246.658V91.154H248.73V92.47H246.658V95.354C246.658 95.802 246.756 96.138 246.952 96.362C247.148 96.586 247.465 96.698 247.904 96.698C248.035 96.698 248.17 96.684 248.31 96.656C248.45 96.6187 248.595 96.5813 248.744 96.544L249.01 97.832C248.842 97.9253 248.627 98 248.366 98.056C248.114 98.112 247.867 98.14 247.624 98.14ZM249.749 89.684V87.976H251.709V89.684H249.749ZM249.861 98V91.154H251.611V98H249.861ZM256.552 98.14C255.842 98.14 255.226 97.9953 254.704 97.706C254.181 97.4167 253.775 97.006 253.486 96.474C253.196 95.9327 253.052 95.298 253.052 94.57C253.052 93.842 253.196 93.212 253.486 92.68C253.775 92.148 254.181 91.7373 254.704 91.448C255.226 91.1587 255.842 91.014 256.552 91.014C257.261 91.014 257.877 91.1587 258.4 91.448C258.922 91.7373 259.328 92.148 259.618 92.68C259.907 93.212 260.052 93.842 260.052 94.57C260.052 95.298 259.907 95.9327 259.618 96.474C259.328 97.006 258.922 97.4167 258.4 97.706C257.877 97.9953 257.261 98.14 256.552 98.14ZM256.552 96.81C257.074 96.81 257.494 96.6233 257.812 96.25C258.129 95.8673 258.288 95.3073 258.288 94.57C258.288 93.8233 258.129 93.268 257.812 92.904C257.494 92.5307 257.074 92.344 256.552 92.344C256.029 92.344 255.609 92.5307 255.292 92.904C254.974 93.268 254.816 93.8233 254.816 94.57C254.816 95.3073 254.974 95.8673 255.292 96.25C255.609 96.6233 256.029 96.81 256.552 96.81ZM261.496 98V91.154H263.204V92.218C263.437 91.826 263.75 91.5273 264.142 91.322C264.543 91.1167 264.991 91.014 265.486 91.014C267.101 91.014 267.908 91.952 267.908 93.828V98H266.158V93.912C266.158 93.38 266.055 92.9927 265.85 92.75C265.654 92.5073 265.346 92.386 264.926 92.386C264.413 92.386 264.002 92.5493 263.694 92.876C263.395 93.1933 263.246 93.618 263.246 94.15V98H261.496ZM17.416 117.14C16.8373 117.14 16.296 117.07 15.792 116.93C15.288 116.79 14.868 116.589 14.532 116.328L14.98 115.18C15.3253 115.413 15.7127 115.595 16.142 115.726C16.5713 115.847 17.0007 115.908 17.43 115.908C17.878 115.908 18.2093 115.833 18.424 115.684C18.648 115.525 18.76 115.32 18.76 115.068C18.76 114.676 18.4707 114.424 17.892 114.312L16.492 114.046C15.3067 113.822 14.714 113.206 14.714 112.198C14.714 111.75 14.8353 111.363 15.078 111.036C15.33 110.709 15.6753 110.457 16.114 110.28C16.5527 110.103 17.0567 110.014 17.626 110.014C18.1113 110.014 18.578 110.084 19.026 110.224C19.474 110.355 19.8567 110.555 20.174 110.826L19.698 111.974C19.4273 111.75 19.1007 111.573 18.718 111.442C18.3447 111.311 17.9853 111.246 17.64 111.246C17.1827 111.246 16.842 111.325 16.618 111.484C16.4033 111.643 16.296 111.853 16.296 112.114C16.296 112.525 16.562 112.777 17.094 112.87L18.494 113.136C19.1007 113.248 19.558 113.453 19.866 113.752C20.1833 114.051 20.342 114.452 20.342 114.956C20.342 115.637 20.076 116.174 19.544 116.566C19.012 116.949 18.3027 117.14 17.416 117.14ZM24.8679 117.14C24.1586 117.14 23.5426 116.995 23.0199 116.706C22.4973 116.417 22.0913 116.006 21.8019 115.474C21.5126 114.933 21.3679 114.298 21.3679 113.57C21.3679 112.842 21.5126 112.212 21.8019 111.68C22.0913 111.148 22.4973 110.737 23.0199 110.448C23.5426 110.159 24.1586 110.014 24.8679 110.014C25.5773 110.014 26.1933 110.159 26.7159 110.448C27.2386 110.737 27.6446 111.148 27.9339 111.68C28.2233 112.212 28.3679 112.842 28.3679 113.57C28.3679 114.298 28.2233 114.933 27.9339 115.474C27.6446 116.006 27.2386 116.417 26.7159 116.706C26.1933 116.995 25.5773 117.14 24.8679 117.14ZM24.8679 115.81C25.3906 115.81 25.8106 115.623 26.1279 115.25C26.4453 114.867 26.6039 114.307 26.6039 113.57C26.6039 112.823 26.4453 112.268 26.1279 111.904C25.8106 111.531 25.3906 111.344 24.8679 111.344C24.3453 111.344 23.9253 111.531 23.6079 111.904C23.2906 112.268 23.1319 112.823 23.1319 113.57C23.1319 114.307 23.2906 114.867 23.6079 115.25C23.9253 115.623 24.3453 115.81 24.8679 115.81ZM33.4738 108.684V106.976H35.4338V108.684H33.4738ZM33.5858 117V110.154H35.3358V117H33.5858ZM40.2901 117.14C38.4795 117.14 37.5741 116.244 37.5741 114.452V111.47H36.2581V110.154H37.5741V108.11H39.3241V110.154H41.3961V111.47H39.3241V114.354C39.3241 114.802 39.4221 115.138 39.6181 115.362C39.8141 115.586 40.1315 115.698 40.5701 115.698C40.7008 115.698 40.8361 115.684 40.9761 115.656C41.1161 115.619 41.2608 115.581 41.4101 115.544L41.6761 116.832C41.5081 116.925 41.2935 117 41.0321 117.056C40.7801 117.112 40.5328 117.14 40.2901 117.14ZM51.1866 108.684V106.976H53.1326V108.684H51.1866ZM46.7626 117V111.47H45.4466V110.154H46.7626V110.14C46.7626 109.169 47.0146 108.437 47.5186 107.942C48.032 107.447 48.8253 107.167 49.8986 107.102L50.5146 107.074L50.5986 108.362L50.0526 108.39C49.4926 108.427 49.096 108.567 48.8626 108.81C48.6293 109.043 48.5126 109.393 48.5126 109.86V110.154H53.0346V117H51.2846V111.47H48.5126V117H46.7626ZM57.9952 117.14C56.1846 117.14 55.2792 116.244 55.2792 114.452V111.47H53.9632V110.154H55.2792V108.11H57.0292V110.154H59.1012V111.47H57.0292V114.354C57.0292 114.802 57.1272 115.138 57.3232 115.362C57.5192 115.586 57.8366 115.698 58.2752 115.698C58.4059 115.698 58.5412 115.684 58.6812 115.656C58.8212 115.619 58.9659 115.581 59.1152 115.544L59.3812 116.832C59.2132 116.925 58.9986 117 58.7372 117.056C58.4852 117.112 58.2379 117.14 57.9952 117.14ZM62.7383 117.14C62.1596 117.14 61.6183 117.07 61.1143 116.93C60.6103 116.79 60.1903 116.589 59.8543 116.328L60.3023 115.18C60.6476 115.413 61.0349 115.595 61.4643 115.726C61.8936 115.847 62.3229 115.908 62.7523 115.908C63.2003 115.908 63.5316 115.833 63.7463 115.684C63.9703 115.525 64.0823 115.32 64.0823 115.068C64.0823 114.676 63.7929 114.424 63.2143 114.312L61.8143 114.046C60.6289 113.822 60.0363 113.206 60.0363 112.198C60.0363 111.75 60.1576 111.363 60.4003 111.036C60.6523 110.709 60.9976 110.457 61.4363 110.28C61.8749 110.103 62.3789 110.014 62.9483 110.014C63.4336 110.014 63.9003 110.084 64.3483 110.224C64.7963 110.355 65.1789 110.555 65.4963 110.826L65.0203 111.974C64.7496 111.75 64.4229 111.573 64.0403 111.442C63.6669 111.311 63.3076 111.246 62.9623 111.246C62.5049 111.246 62.1643 111.325 61.9403 111.484C61.7256 111.643 61.6183 111.853 61.6183 112.114C61.6183 112.525 61.8843 112.777 62.4163 112.87L63.8163 113.136C64.4229 113.248 64.8803 113.453 65.1883 113.752C65.5056 114.051 65.6643 114.452 65.6643 114.956C65.6643 115.637 65.3983 116.174 64.8663 116.566C64.3343 116.949 63.6249 117.14 62.7383 117.14ZM72.7316 117L70.0296 110.154H71.8216L73.5716 114.97L75.3356 110.154H76.5676L78.3316 114.998L80.0816 110.154H81.7756L79.0876 117H77.5616L75.8956 112.59L74.2576 117H72.7316ZM86.0145 117.14C85.2398 117.14 84.5725 116.995 84.0125 116.706C83.4525 116.417 83.0185 116.006 82.7105 115.474C82.4118 114.942 82.2625 114.312 82.2625 113.584C82.2625 112.875 82.4071 112.254 82.6965 111.722C82.9951 111.19 83.4011 110.775 83.9145 110.476C84.4371 110.168 85.0298 110.014 85.6925 110.014C86.6631 110.014 87.4285 110.322 87.9885 110.938C88.5578 111.554 88.8425 112.394 88.8425 113.458V113.976H83.9425C84.0731 115.199 84.7731 115.81 86.0425 115.81C86.4251 115.81 86.8078 115.754 87.1905 115.642C87.5731 115.521 87.9231 115.334 88.2405 115.082L88.7305 116.258C88.4038 116.529 87.9931 116.743 87.4985 116.902C87.0038 117.061 86.5091 117.14 86.0145 117.14ZM85.7625 111.204C85.2491 111.204 84.8338 111.363 84.5165 111.68C84.1991 111.997 84.0078 112.427 83.9425 112.968H87.3865C87.3491 112.399 87.1905 111.965 86.9105 111.666C86.6398 111.358 86.2571 111.204 85.7625 111.204ZM92.6084 117.14C91.7964 117.14 91.1944 116.921 90.8024 116.482C90.4197 116.034 90.2284 115.381 90.2284 114.522V107.13H91.9784V114.438C91.9784 115.278 92.333 115.698 93.0424 115.698C93.145 115.698 93.2477 115.693 93.3504 115.684C93.453 115.675 93.551 115.656 93.6444 115.628L93.6164 117.014C93.2804 117.098 92.9444 117.14 92.6084 117.14ZM97.0791 117.14C96.2671 117.14 95.6651 116.921 95.2731 116.482C94.8904 116.034 94.6991 115.381 94.6991 114.522V107.13H96.4491V114.438C96.4491 115.278 96.8037 115.698 97.5131 115.698C97.6157 115.698 97.7184 115.693 97.8211 115.684C97.9237 115.675 98.0217 115.656 98.1151 115.628L98.0871 117.014C97.7511 117.098 97.4151 117.14 97.0791 117.14ZM99.1525 117V115.054H101.112V117H99.1525Z" fill="white"/>
</svg>
