<svg width="297" height="134" viewBox="0 0 297 134" fill="none" xmlns="http://www.w3.org/2000/svg">
<rect y="0.563477" width="297" height="132.655" rx="20" fill="#FFAA5B"/>
<path d="M15.662 37.3716V20.4516H23.006C24.862 20.4516 26.294 20.9156 27.302 21.8436C28.31 22.7716 28.814 24.0676 28.814 25.7316C28.814 27.3956 28.31 28.6996 27.302 29.6436C26.294 30.5716 24.862 31.0356 23.006 31.0356H18.734V37.3716H15.662ZM18.734 28.6116H22.526C24.734 28.6116 25.838 27.6516 25.838 25.7316C25.838 23.8276 24.734 22.8756 22.526 22.8756H18.734V28.6116ZM30.7958 37.3716V25.6356H33.7238V27.6996C34.2998 26.3076 35.5318 25.5396 37.4198 25.3956L38.3318 25.3236L38.5238 27.8676L36.7958 28.0356C34.8278 28.2276 33.8438 29.2356 33.8438 31.0596V37.3716H30.7958ZM45.7908 37.6116C44.4628 37.6116 43.3188 37.3636 42.3588 36.8676C41.3988 36.3716 40.6548 35.6676 40.1268 34.7556C39.6148 33.8436 39.3588 32.7636 39.3588 31.5156C39.3588 30.2996 39.6068 29.2356 40.1028 28.3236C40.6148 27.4116 41.3108 26.6996 42.1908 26.1876C43.0868 25.6596 44.1028 25.3956 45.2388 25.3956C46.9028 25.3956 48.2148 25.9236 49.1748 26.9796C50.1508 28.0356 50.6388 29.4756 50.6388 31.2996V32.1876H42.2388C42.4628 34.2836 43.6628 35.3316 45.8388 35.3316C46.4948 35.3316 47.1508 35.2356 47.8068 35.0436C48.4628 34.8356 49.0628 34.5156 49.6068 34.0836L50.4468 36.0996C49.8868 36.5636 49.1828 36.9316 48.3348 37.2036C47.4868 37.4756 46.6388 37.6116 45.7908 37.6116ZM45.3588 27.4356C44.4788 27.4356 43.7668 27.7076 43.2228 28.2516C42.6788 28.7956 42.3508 29.5316 42.2388 30.4596H48.1428C48.0788 29.4836 47.8068 28.7396 47.3268 28.2276C46.8628 27.6996 46.2068 27.4356 45.3588 27.4356ZM57.5266 37.6116C56.5026 37.6116 55.5986 37.3636 54.8146 36.8676C54.0466 36.3716 53.4466 35.6676 53.0146 34.7556C52.5826 33.8276 52.3666 32.7396 52.3666 31.4916C52.3666 30.2276 52.5826 29.1476 53.0146 28.2516C53.4466 27.3396 54.0466 26.6356 54.8146 26.1396C55.5986 25.6436 56.5026 25.3956 57.5266 25.3956C58.3586 25.3956 59.1106 25.5796 59.7826 25.9476C60.4546 26.3156 60.9586 26.8036 61.2946 27.4116V20.4516H64.2946V37.3716H61.3666V35.4276C61.0466 36.0996 60.5426 36.6356 59.8546 37.0356C59.1666 37.4196 58.3906 37.6116 57.5266 37.6116ZM58.3666 35.3316C59.2626 35.3316 59.9826 35.0116 60.5266 34.3716C61.0706 33.7156 61.3426 32.7556 61.3426 31.4916C61.3426 30.2116 61.0706 29.2596 60.5266 28.6356C59.9826 27.9956 59.2626 27.6756 58.3666 27.6756C57.4706 27.6756 56.7506 27.9956 56.2066 28.6356C55.6626 29.2596 55.3906 30.2116 55.3906 31.4916C55.3906 32.7556 55.6626 33.7156 56.2066 34.3716C56.7506 35.0116 57.4706 35.3316 58.3666 35.3316ZM67.2132 23.1156V20.1876H70.5732V23.1156H67.2132ZM67.4052 37.3716V25.6356H70.4052V37.3716H67.4052ZM78.9464 37.6116C77.7144 37.6116 76.6424 37.3636 75.7304 36.8676C74.8184 36.3556 74.1144 35.6356 73.6184 34.7076C73.1224 33.7796 72.8744 32.6916 72.8744 31.4436C72.8744 30.1956 73.1224 29.1236 73.6184 28.2276C74.1144 27.3156 74.8184 26.6196 75.7304 26.1396C76.6424 25.6436 77.7144 25.3956 78.9464 25.3956C79.6984 25.3956 80.4424 25.5156 81.1784 25.7556C81.9144 25.9956 82.5224 26.3316 83.0024 26.7636L82.1144 28.8516C81.6984 28.4836 81.2264 28.2036 80.6984 28.0116C80.1864 27.8196 79.6904 27.7236 79.2104 27.7236C78.1704 27.7236 77.3624 28.0516 76.7864 28.7076C76.2264 29.3476 75.9464 30.2676 75.9464 31.4676C75.9464 32.6516 76.2264 33.5876 76.7864 34.2756C77.3624 34.9476 78.1704 35.2836 79.2104 35.2836C79.6744 35.2836 80.1704 35.1876 80.6984 34.9956C81.2264 34.8036 81.6984 34.5156 82.1144 34.1316L83.0024 36.2436C82.5224 36.6596 81.9064 36.9956 81.1544 37.2516C80.4184 37.4916 79.6824 37.6116 78.9464 37.6116ZM90.2656 37.6116C87.1616 37.6116 85.6096 36.0756 85.6096 33.0036V27.8916H83.3536V25.6356H85.6096V22.1316H88.6096V25.6356H92.1616V27.8916H88.6096V32.8356C88.6096 33.6036 88.7776 34.1796 89.1136 34.5636C89.4496 34.9476 89.9936 35.1396 90.7456 35.1396C90.9696 35.1396 91.2016 35.1156 91.4416 35.0676C91.6816 35.0036 91.9296 34.9396 92.1856 34.8756L92.6416 37.0836C92.3536 37.2436 91.9856 37.3716 91.5376 37.4676C91.1056 37.5636 90.6816 37.6116 90.2656 37.6116ZM93.9085 23.1156V20.1876H97.2685V23.1156H93.9085ZM94.1005 37.3716V25.6356H97.1005V37.3716H94.1005ZM105.57 37.6116C104.354 37.6116 103.298 37.3636 102.402 36.8676C101.506 36.3716 100.81 35.6676 100.314 34.7556C99.8177 33.8276 99.5697 32.7396 99.5697 31.4916C99.5697 30.2436 99.8177 29.1636 100.314 28.2516C100.81 27.3396 101.506 26.6356 102.402 26.1396C103.298 25.6436 104.354 25.3956 105.57 25.3956C106.786 25.3956 107.842 25.6436 108.738 26.1396C109.634 26.6356 110.33 27.3396 110.826 28.2516C111.322 29.1636 111.57 30.2436 111.57 31.4916C111.57 32.7396 111.322 33.8276 110.826 34.7556C110.33 35.6676 109.634 36.3716 108.738 36.8676C107.842 37.3636 106.786 37.6116 105.57 37.6116ZM105.57 35.3316C106.466 35.3316 107.186 35.0116 107.73 34.3716C108.274 33.7156 108.546 32.7556 108.546 31.4916C108.546 30.2116 108.274 29.2596 107.73 28.6356C107.186 27.9956 106.466 27.6756 105.57 27.6756C104.674 27.6756 103.954 27.9956 103.41 28.6356C102.866 29.2596 102.594 30.2116 102.594 31.4916C102.594 32.7556 102.866 33.7156 103.41 34.3716C103.954 35.0116 104.674 35.3316 105.57 35.3316ZM114.046 37.3716V25.6356H116.974V27.4596C117.374 26.7876 117.91 26.2756 118.582 25.9236C119.27 25.5716 120.038 25.3956 120.886 25.3956C123.654 25.3956 125.038 27.0036 125.038 30.2196V37.3716H122.038V30.3636C122.038 29.4516 121.862 28.7876 121.51 28.3716C121.174 27.9556 120.646 27.7476 119.926 27.7476C119.046 27.7476 118.342 28.0276 117.814 28.5876C117.302 29.1316 117.046 29.8596 117.046 30.7716V37.3716H114.046Z" fill="white"/>
<path d="M15.078 98V88.13H21.532V89.558H16.87V92.344H21.238V93.772H16.87V98H15.078ZM22.6593 89.684V87.976H24.6193V89.684H22.6593ZM22.7713 98V91.154H24.5213V98H22.7713ZM28.7197 98.14C27.9077 98.14 27.3057 97.9207 26.9137 97.482C26.531 97.034 26.3397 96.3807 26.3397 95.522V88.13H28.0897V95.438C28.0897 96.278 28.4444 96.698 29.1537 96.698C29.2564 96.698 29.359 96.6933 29.4617 96.684C29.5644 96.6747 29.6624 96.656 29.7557 96.628L29.7277 98.014C29.3917 98.098 29.0557 98.14 28.7197 98.14ZM33.1904 98.14C32.3784 98.14 31.7764 97.9207 31.3844 97.482C31.0017 97.034 30.8104 96.3807 30.8104 95.522V88.13H32.5604V95.438C32.5604 96.278 32.9151 96.698 33.6244 96.698C33.7271 96.698 33.8297 96.6933 33.9324 96.684C34.0351 96.6747 34.1331 96.656 34.2264 96.628L34.1984 98.014C33.8624 98.098 33.5264 98.14 33.1904 98.14ZM38.9425 89.684V87.976H40.9025V89.684H38.9425ZM39.0545 98V91.154H40.8045V98H39.0545ZM42.6229 98V91.154H44.3309V92.218C44.5642 91.826 44.8769 91.5273 45.2689 91.322C45.6702 91.1167 46.1182 91.014 46.6129 91.014C48.2276 91.014 49.0349 91.952 49.0349 93.828V98H47.2849V93.912C47.2849 93.38 47.1822 92.9927 46.9769 92.75C46.7809 92.5073 46.4729 92.386 46.0529 92.386C45.5396 92.386 45.1289 92.5493 44.8209 92.876C44.5222 93.1933 44.3729 93.618 44.3729 94.15V98H42.6229ZM57.7218 98.14C55.9111 98.14 55.0058 97.244 55.0058 95.452V92.47H53.6898V91.154H55.0058V89.11H56.7558V91.154H58.8278V92.47H56.7558V95.354C56.7558 95.802 56.8538 96.138 57.0498 96.362C57.2458 96.586 57.5631 96.698 58.0018 96.698C58.1324 96.698 58.2678 96.684 58.4078 96.656C58.5478 96.6187 58.6924 96.5813 58.8418 96.544L59.1078 97.832C58.9398 97.9253 58.7251 98 58.4638 98.056C58.2118 98.112 57.9644 98.14 57.7218 98.14ZM59.9588 98V88.13H61.7088V92.148C61.9422 91.7747 62.2548 91.4947 62.6468 91.308C63.0388 91.112 63.4728 91.014 63.9488 91.014C65.5635 91.014 66.3708 91.952 66.3708 93.828V98H64.6208V93.912C64.6208 93.38 64.5182 92.9927 64.3128 92.75C64.1168 92.5073 63.8088 92.386 63.3888 92.386C62.8755 92.386 62.4648 92.5493 62.1568 92.876C61.8582 93.1933 61.7088 93.618 61.7088 94.15V98H59.9588ZM71.5223 98.14C70.7476 98.14 70.0803 97.9953 69.5203 97.706C68.9603 97.4167 68.5263 97.006 68.2183 96.474C67.9196 95.942 67.7703 95.312 67.7703 94.584C67.7703 93.8747 67.9149 93.254 68.2043 92.722C68.5029 92.19 68.9089 91.7747 69.4223 91.476C69.9449 91.168 70.5376 91.014 71.2003 91.014C72.1709 91.014 72.9363 91.322 73.4963 91.938C74.0656 92.554 74.3503 93.394 74.3503 94.458V94.976H69.4503C69.5809 96.1987 70.2809 96.81 71.5503 96.81C71.9329 96.81 72.3156 96.754 72.6983 96.642C73.0809 96.5207 73.4309 96.334 73.7483 96.082L74.2383 97.258C73.9116 97.5287 73.5009 97.7433 73.0063 97.902C72.5116 98.0607 72.0169 98.14 71.5223 98.14ZM71.2703 92.204C70.7569 92.204 70.3416 92.3627 70.0243 92.68C69.7069 92.9973 69.5156 93.4267 69.4503 93.968H72.8943C72.8569 93.3987 72.6983 92.9647 72.4183 92.666C72.1476 92.358 71.7649 92.204 71.2703 92.204ZM82.1416 98.14C81.5443 98.14 81.0169 97.9953 80.5596 97.706C80.1116 97.4167 79.7616 97.006 79.5096 96.474C79.2576 95.9327 79.1316 95.298 79.1316 94.57C79.1316 93.8327 79.2576 93.2027 79.5096 92.68C79.7616 92.148 80.1116 91.7373 80.5596 91.448C81.0169 91.1587 81.5443 91.014 82.1416 91.014C82.6269 91.014 83.0656 91.1213 83.4576 91.336C83.8496 91.5507 84.1436 91.8353 84.3396 92.19V88.13H86.0896V98H84.3816V96.866C84.1949 97.258 83.9009 97.5707 83.4996 97.804C83.0983 98.028 82.6456 98.14 82.1416 98.14ZM82.6316 96.81C83.1543 96.81 83.5743 96.6233 83.8916 96.25C84.2089 95.8673 84.3676 95.3073 84.3676 94.57C84.3676 93.8233 84.2089 93.268 83.8916 92.904C83.5743 92.5307 83.1543 92.344 82.6316 92.344C82.1089 92.344 81.6889 92.5307 81.3716 92.904C81.0543 93.268 80.8956 93.8233 80.8956 94.57C80.8956 95.3073 81.0543 95.8673 81.3716 96.25C81.6889 96.6233 82.1089 96.81 82.6316 96.81ZM91.2781 98.14C90.5035 98.14 89.8361 97.9953 89.2761 97.706C88.7161 97.4167 88.2821 97.006 87.9741 96.474C87.6755 95.942 87.5261 95.312 87.5261 94.584C87.5261 93.8747 87.6708 93.254 87.9601 92.722C88.2588 92.19 88.6648 91.7747 89.1781 91.476C89.7008 91.168 90.2935 91.014 90.9561 91.014C91.9268 91.014 92.6921 91.322 93.2521 91.938C93.8215 92.554 94.1061 93.394 94.1061 94.458V94.976H89.2061C89.3368 96.1987 90.0368 96.81 91.3061 96.81C91.6888 96.81 92.0715 96.754 92.4541 96.642C92.8368 96.5207 93.1868 96.334 93.5041 96.082L93.9941 97.258C93.6675 97.5287 93.2568 97.7433 92.7621 97.902C92.2675 98.0607 91.7728 98.14 91.2781 98.14ZM91.0261 92.204C90.5128 92.204 90.0975 92.3627 89.7801 92.68C89.4628 92.9973 89.2715 93.4267 89.2061 93.968H92.6501C92.6128 93.3987 92.4541 92.9647 92.1741 92.666C91.9035 92.358 91.5208 92.204 91.0261 92.204ZM97.998 98.14C97.4194 98.14 96.878 98.07 96.374 97.93C95.87 97.79 95.45 97.5893 95.114 97.328L95.562 96.18C95.9074 96.4133 96.2947 96.5953 96.724 96.726C97.1534 96.8473 97.5827 96.908 98.012 96.908C98.46 96.908 98.7914 96.8333 99.006 96.684C99.23 96.5253 99.342 96.32 99.342 96.068C99.342 95.676 99.0527 95.424 98.474 95.312L97.074 95.046C95.8887 94.822 95.296 94.206 95.296 93.198C95.296 92.75 95.4174 92.3627 95.66 92.036C95.912 91.7093 96.2574 91.4573 96.696 91.28C97.1347 91.1027 97.6387 91.014 98.208 91.014C98.6934 91.014 99.16 91.084 99.608 91.224C100.056 91.3547 100.439 91.5553 100.756 91.826L100.28 92.974C100.009 92.75 99.6827 92.5727 99.3 92.442C98.9267 92.3113 98.5674 92.246 98.222 92.246C97.7647 92.246 97.424 92.3253 97.2 92.484C96.9854 92.6427 96.878 92.8527 96.878 93.114C96.878 93.5247 97.144 93.7767 97.676 93.87L99.076 94.136C99.6827 94.248 100.14 94.4533 100.448 94.752C100.765 95.0507 100.924 95.452 100.924 95.956C100.924 96.6373 100.658 97.174 100.126 97.566C99.594 97.9487 98.8847 98.14 97.998 98.14ZM105.492 98.14C104.773 98.14 104.148 97.9953 103.616 97.706C103.084 97.4073 102.673 96.9873 102.384 96.446C102.095 95.9047 101.95 95.27 101.95 94.542C101.95 93.814 102.095 93.1887 102.384 92.666C102.673 92.134 103.084 91.728 103.616 91.448C104.148 91.1587 104.773 91.014 105.492 91.014C105.931 91.014 106.365 91.084 106.794 91.224C107.223 91.364 107.578 91.56 107.858 91.812L107.34 93.03C107.097 92.8153 106.822 92.652 106.514 92.54C106.215 92.428 105.926 92.372 105.646 92.372C105.039 92.372 104.568 92.5633 104.232 92.946C103.905 93.3193 103.742 93.856 103.742 94.556C103.742 95.2467 103.905 95.7927 104.232 96.194C104.568 96.586 105.039 96.782 105.646 96.782C105.917 96.782 106.206 96.726 106.514 96.614C106.822 96.502 107.097 96.334 107.34 96.11L107.858 97.342C107.578 97.5847 107.219 97.7807 106.78 97.93C106.351 98.07 105.921 98.14 105.492 98.14ZM108.931 98V91.154H110.639V92.358C110.975 91.546 111.694 91.098 112.795 91.014L113.327 90.972L113.439 92.456L112.431 92.554C111.283 92.666 110.709 93.254 110.709 94.318V98H108.931ZM114.302 89.684V87.976H116.262V89.684H114.302ZM114.414 98V91.154H116.164V98H114.414ZM117.982 100.52V91.154H119.69V92.246C119.886 91.8727 120.18 91.574 120.572 91.35C120.974 91.126 121.426 91.014 121.93 91.014C122.528 91.014 123.05 91.1587 123.498 91.448C123.956 91.7373 124.31 92.148 124.562 92.68C124.814 93.2027 124.94 93.8327 124.94 94.57C124.94 95.298 124.814 95.9327 124.562 96.474C124.31 97.006 123.96 97.4167 123.512 97.706C123.064 97.9953 122.537 98.14 121.93 98.14C121.445 98.14 121.006 98.0373 120.614 97.832C120.232 97.6173 119.938 97.3327 119.732 96.978V100.52H117.982ZM121.44 96.81C121.963 96.81 122.383 96.6233 122.7 96.25C123.018 95.8673 123.176 95.3073 123.176 94.57C123.176 93.8233 123.018 93.268 122.7 92.904C122.383 92.5307 121.963 92.344 121.44 92.344C120.918 92.344 120.498 92.5307 120.18 92.904C119.863 93.268 119.704 93.8233 119.704 94.57C119.704 95.3073 119.863 95.8673 120.18 96.25C120.498 96.6233 120.918 96.81 121.44 96.81ZM129.444 98.14C127.634 98.14 126.728 97.244 126.728 95.452V92.47H125.412V91.154H126.728V89.11H128.478V91.154H130.55V92.47H128.478V95.354C128.478 95.802 128.576 96.138 128.772 96.362C128.968 96.586 129.286 96.698 129.724 96.698C129.855 96.698 129.99 96.684 130.13 96.656C130.27 96.6187 130.415 96.5813 130.564 96.544L130.83 97.832C130.662 97.9253 130.448 98 130.186 98.056C129.934 98.112 129.687 98.14 129.444 98.14ZM131.569 89.684V87.976H133.529V89.684H131.569ZM131.681 98V91.154H133.431V98H131.681ZM138.372 98.14C137.663 98.14 137.047 97.9953 136.524 97.706C136.001 97.4167 135.595 97.006 135.306 96.474C135.017 95.9327 134.872 95.298 134.872 94.57C134.872 93.842 135.017 93.212 135.306 92.68C135.595 92.148 136.001 91.7373 136.524 91.448C137.047 91.1587 137.663 91.014 138.372 91.014C139.081 91.014 139.697 91.1587 140.22 91.448C140.743 91.7373 141.149 92.148 141.438 92.68C141.727 93.212 141.872 93.842 141.872 94.57C141.872 95.298 141.727 95.9327 141.438 96.474C141.149 97.006 140.743 97.4167 140.22 97.706C139.697 97.9953 139.081 98.14 138.372 98.14ZM138.372 96.81C138.895 96.81 139.315 96.6233 139.632 96.25C139.949 95.8673 140.108 95.3073 140.108 94.57C140.108 93.8233 139.949 93.268 139.632 92.904C139.315 92.5307 138.895 92.344 138.372 92.344C137.849 92.344 137.429 92.5307 137.112 92.904C136.795 93.268 136.636 93.8233 136.636 94.57C136.636 95.3073 136.795 95.8673 137.112 96.25C137.429 96.6233 137.849 96.81 138.372 96.81ZM143.316 98V91.154H145.024V92.218C145.258 91.826 145.57 91.5273 145.962 91.322C146.364 91.1167 146.812 91.014 147.306 91.014C148.921 91.014 149.728 91.952 149.728 93.828V98H147.978V93.912C147.978 93.38 147.876 92.9927 147.67 92.75C147.474 92.5073 147.166 92.386 146.746 92.386C146.233 92.386 145.822 92.5493 145.514 92.876C145.216 93.1933 145.066 93.618 145.066 94.15V98H143.316ZM158.401 98.14C157.692 98.14 157.076 97.9953 156.553 97.706C156.03 97.4167 155.624 97.006 155.335 96.474C155.046 95.9327 154.901 95.298 154.901 94.57C154.901 93.842 155.046 93.212 155.335 92.68C155.624 92.148 156.03 91.7373 156.553 91.448C157.076 91.1587 157.692 91.014 158.401 91.014C159.11 91.014 159.726 91.1587 160.249 91.448C160.772 91.7373 161.178 92.148 161.467 92.68C161.756 93.212 161.901 93.842 161.901 94.57C161.901 95.298 161.756 95.9327 161.467 96.474C161.178 97.006 160.772 97.4167 160.249 97.706C159.726 97.9953 159.11 98.14 158.401 98.14ZM158.401 96.81C158.924 96.81 159.344 96.6233 159.661 96.25C159.978 95.8673 160.137 95.3073 160.137 94.57C160.137 93.8233 159.978 93.268 159.661 92.904C159.344 92.5307 158.924 92.344 158.401 92.344C157.878 92.344 157.458 92.5307 157.141 92.904C156.824 93.268 156.665 93.8233 156.665 94.57C156.665 95.3073 156.824 95.8673 157.141 96.25C157.458 96.6233 157.878 96.81 158.401 96.81ZM163.739 98V92.47H162.423V91.154H163.739V91.14C163.739 90.1693 163.991 89.4367 164.495 88.942C165.009 88.4473 165.802 88.1673 166.875 88.102L167.561 88.06L167.673 89.348L167.029 89.39C166.469 89.4273 166.073 89.5673 165.839 89.81C165.606 90.0433 165.489 90.3933 165.489 90.86V91.154H167.351V92.47H165.489V98H163.739ZM172.15 100.52V91.154H173.858V92.246C174.054 91.8727 174.348 91.574 174.74 91.35C175.142 91.126 175.594 91.014 176.098 91.014C176.696 91.014 177.218 91.1587 177.666 91.448C178.124 91.7373 178.478 92.148 178.73 92.68C178.982 93.2027 179.108 93.8327 179.108 94.57C179.108 95.298 178.982 95.9327 178.73 96.474C178.478 97.006 178.128 97.4167 177.68 97.706C177.232 97.9953 176.705 98.14 176.098 98.14C175.613 98.14 175.174 98.0373 174.782 97.832C174.4 97.6173 174.106 97.3327 173.9 96.978V100.52H172.15ZM175.608 96.81C176.131 96.81 176.551 96.6233 176.868 96.25C177.186 95.8673 177.344 95.3073 177.344 94.57C177.344 93.8233 177.186 93.268 176.868 92.904C176.551 92.5307 176.131 92.344 175.608 92.344C175.086 92.344 174.666 92.5307 174.348 92.904C174.031 93.268 173.872 93.8233 173.872 94.57C173.872 95.3073 174.031 95.8673 174.348 96.25C174.666 96.6233 175.086 96.81 175.608 96.81ZM180.545 98V91.154H182.253V92.358C182.589 91.546 183.307 91.098 184.409 91.014L184.941 90.972L185.053 92.456L184.045 92.554C182.897 92.666 182.323 93.254 182.323 94.318V98H180.545ZM189.292 98.14C188.517 98.14 187.85 97.9953 187.29 97.706C186.73 97.4167 186.296 97.006 185.988 96.474C185.689 95.942 185.54 95.312 185.54 94.584C185.54 93.8747 185.684 93.254 185.974 92.722C186.272 92.19 186.678 91.7747 187.192 91.476C187.714 91.168 188.307 91.014 188.97 91.014C189.94 91.014 190.706 91.322 191.266 91.938C191.835 92.554 192.12 93.394 192.12 94.458V94.976H187.22C187.35 96.1987 188.05 96.81 189.32 96.81C189.702 96.81 190.085 96.754 190.468 96.642C190.85 96.5207 191.2 96.334 191.518 96.082L192.008 97.258C191.681 97.5287 191.27 97.7433 190.776 97.902C190.281 98.0607 189.786 98.14 189.292 98.14ZM189.04 92.204C188.526 92.204 188.111 92.3627 187.794 92.68C187.476 92.9973 187.285 93.4267 187.22 93.968H190.664C190.626 93.3987 190.468 92.9647 190.188 92.666C189.917 92.358 189.534 92.204 189.04 92.204ZM196.138 98.14C195.54 98.14 195.013 97.9953 194.556 97.706C194.108 97.4167 193.758 97.006 193.506 96.474C193.254 95.9327 193.128 95.298 193.128 94.57C193.128 93.8327 193.254 93.2027 193.506 92.68C193.758 92.148 194.108 91.7373 194.556 91.448C195.013 91.1587 195.54 91.014 196.138 91.014C196.623 91.014 197.062 91.1213 197.454 91.336C197.846 91.5507 198.14 91.8353 198.336 92.19V88.13H200.086V98H198.378V96.866C198.191 97.258 197.897 97.5707 197.496 97.804C197.094 98.028 196.642 98.14 196.138 98.14ZM196.628 96.81C197.15 96.81 197.57 96.6233 197.888 96.25C198.205 95.8673 198.364 95.3073 198.364 94.57C198.364 93.8233 198.205 93.268 197.888 92.904C197.57 92.5307 197.15 92.344 196.628 92.344C196.105 92.344 195.685 92.5307 195.368 92.904C195.05 93.268 194.892 93.8233 194.892 94.57C194.892 95.3073 195.05 95.8673 195.368 96.25C195.685 96.6233 196.105 96.81 196.628 96.81ZM201.788 89.684V87.976H203.748V89.684H201.788ZM201.9 98V91.154H203.65V98H201.9ZM208.633 98.14C207.914 98.14 207.289 97.9953 206.757 97.706C206.225 97.4073 205.814 96.9873 205.525 96.446C205.235 95.9047 205.091 95.27 205.091 94.542C205.091 93.814 205.235 93.1887 205.525 92.666C205.814 92.134 206.225 91.728 206.757 91.448C207.289 91.1587 207.914 91.014 208.633 91.014C209.071 91.014 209.505 91.084 209.935 91.224C210.364 91.364 210.719 91.56 210.999 91.812L210.481 93.03C210.238 92.8153 209.963 92.652 209.655 92.54C209.356 92.428 209.067 92.372 208.787 92.372C208.18 92.372 207.709 92.5633 207.373 92.946C207.046 93.3193 206.883 93.856 206.883 94.556C206.883 95.2467 207.046 95.7927 207.373 96.194C207.709 96.586 208.18 96.782 208.787 96.782C209.057 96.782 209.347 96.726 209.655 96.614C209.963 96.502 210.238 96.334 210.481 96.11L210.999 97.342C210.719 97.5847 210.359 97.7807 209.921 97.93C209.491 98.07 209.062 98.14 208.633 98.14ZM215.235 98.14C213.425 98.14 212.519 97.244 212.519 95.452V92.47H211.203V91.154H212.519V89.11H214.269V91.154H216.341V92.47H214.269V95.354C214.269 95.802 214.367 96.138 214.563 96.362C214.759 96.586 215.077 96.698 215.515 96.698C215.646 96.698 215.781 96.684 215.921 96.656C216.061 96.6187 216.206 96.5813 216.355 96.544L216.621 97.832C216.453 97.9253 216.239 98 215.977 98.056C215.725 98.112 215.478 98.14 215.235 98.14ZM217.361 89.684V87.976H219.321V89.684H217.361ZM217.473 98V91.154H219.223V98H217.473ZM224.163 98.14C223.454 98.14 222.838 97.9953 222.315 97.706C221.792 97.4167 221.386 97.006 221.097 96.474C220.808 95.9327 220.663 95.298 220.663 94.57C220.663 93.842 220.808 93.212 221.097 92.68C221.386 92.148 221.792 91.7373 222.315 91.448C222.838 91.1587 223.454 91.014 224.163 91.014C224.872 91.014 225.488 91.1587 226.011 91.448C226.534 91.7373 226.94 92.148 227.229 92.68C227.518 93.212 227.663 93.842 227.663 94.57C227.663 95.298 227.518 95.9327 227.229 96.474C226.94 97.006 226.534 97.4167 226.011 97.706C225.488 97.9953 224.872 98.14 224.163 98.14ZM224.163 96.81C224.686 96.81 225.106 96.6233 225.423 96.25C225.74 95.8673 225.899 95.3073 225.899 94.57C225.899 93.8233 225.74 93.268 225.423 92.904C225.106 92.5307 224.686 92.344 224.163 92.344C223.64 92.344 223.22 92.5307 222.903 92.904C222.586 93.268 222.427 93.8233 222.427 94.57C222.427 95.3073 222.586 95.8673 222.903 96.25C223.22 96.6233 223.64 96.81 224.163 96.81ZM229.107 98V91.154H230.815V92.218C231.049 91.826 231.361 91.5273 231.753 91.322C232.155 91.1167 232.603 91.014 233.097 91.014C234.712 91.014 235.519 91.952 235.519 93.828V98H233.769V93.912C233.769 93.38 233.667 92.9927 233.461 92.75C233.265 92.5073 232.957 92.386 232.537 92.386C232.024 92.386 231.613 92.5493 231.305 92.876C231.007 93.1933 230.857 93.618 230.857 94.15V98H229.107ZM15.372 117V111.47H14.056V110.154H15.372V110.14C15.372 109.169 15.624 108.437 16.128 107.942C16.6413 107.447 17.4347 107.167 18.508 107.102L19.194 107.06L19.306 108.348L18.662 108.39C18.102 108.427 17.7053 108.567 17.472 108.81C17.2387 109.043 17.122 109.393 17.122 109.86V110.154H18.984V111.47H17.122V117H15.372ZM22.4876 117.14C20.8076 117.14 19.9676 116.197 19.9676 114.312V110.154H21.7176V114.34C21.7176 114.825 21.8156 115.185 22.0116 115.418C22.2076 115.651 22.5203 115.768 22.9496 115.768C23.4163 115.768 23.7989 115.609 24.0976 115.292C24.3963 114.965 24.5456 114.536 24.5456 114.004V110.154H26.2956V117H24.5876V115.978C24.1303 116.753 23.4303 117.14 22.4876 117.14ZM28.117 117V110.154H29.825V111.218C30.0584 110.826 30.371 110.527 30.763 110.322C31.1644 110.117 31.6124 110.014 32.107 110.014C33.7217 110.014 34.529 110.952 34.529 112.828V117H32.779V112.912C32.779 112.38 32.6764 111.993 32.471 111.75C32.275 111.507 31.967 111.386 31.547 111.386C31.0337 111.386 30.623 111.549 30.315 111.876C30.0164 112.193 29.867 112.618 29.867 113.15V117H28.117ZM39.4705 117.14C38.7518 117.14 38.1265 116.995 37.5945 116.706C37.0625 116.407 36.6518 115.987 36.3625 115.446C36.0732 114.905 35.9285 114.27 35.9285 113.542C35.9285 112.814 36.0732 112.189 36.3625 111.666C36.6518 111.134 37.0625 110.728 37.5945 110.448C38.1265 110.159 38.7518 110.014 39.4705 110.014C39.9092 110.014 40.3432 110.084 40.7725 110.224C41.2018 110.364 41.5565 110.56 41.8365 110.812L41.3185 112.03C41.0758 111.815 40.8005 111.652 40.4925 111.54C40.1938 111.428 39.9045 111.372 39.6245 111.372C39.0178 111.372 38.5465 111.563 38.2105 111.946C37.8838 112.319 37.7205 112.856 37.7205 113.556C37.7205 114.247 37.8838 114.793 38.2105 115.194C38.5465 115.586 39.0178 115.782 39.6245 115.782C39.8952 115.782 40.1845 115.726 40.4925 115.614C40.8005 115.502 41.0758 115.334 41.3185 115.11L41.8365 116.342C41.5565 116.585 41.1972 116.781 40.7585 116.93C40.3292 117.07 39.8998 117.14 39.4705 117.14ZM46.0733 117.14C44.2627 117.14 43.3573 116.244 43.3573 114.452V111.47H42.0413V110.154H43.3573V108.11H45.1073V110.154H47.1793V111.47H45.1073V114.354C45.1073 114.802 45.2053 115.138 45.4013 115.362C45.5973 115.586 45.9147 115.698 46.3533 115.698C46.484 115.698 46.6193 115.684 46.7593 115.656C46.8993 115.619 47.044 115.581 47.1933 115.544L47.4593 116.832C47.2913 116.925 47.0767 117 46.8153 117.056C46.5633 117.112 46.316 117.14 46.0733 117.14ZM48.1984 108.684V106.976H50.1584V108.684H48.1984ZM48.3104 117V110.154H50.0604V117H48.3104ZM55.0008 117.14C54.2914 117.14 53.6754 116.995 53.1528 116.706C52.6301 116.417 52.2241 116.006 51.9348 115.474C51.6454 114.933 51.5008 114.298 51.5008 113.57C51.5008 112.842 51.6454 112.212 51.9348 111.68C52.2241 111.148 52.6301 110.737 53.1528 110.448C53.6754 110.159 54.2914 110.014 55.0008 110.014C55.7101 110.014 56.3261 110.159 56.8488 110.448C57.3714 110.737 57.7774 111.148 58.0668 111.68C58.3561 112.212 58.5008 112.842 58.5008 113.57C58.5008 114.298 58.3561 114.933 58.0668 115.474C57.7774 116.006 57.3714 116.417 56.8488 116.706C56.3261 116.995 55.7101 117.14 55.0008 117.14ZM55.0008 115.81C55.5234 115.81 55.9434 115.623 56.2608 115.25C56.5781 114.867 56.7368 114.307 56.7368 113.57C56.7368 112.823 56.5781 112.268 56.2608 111.904C55.9434 111.531 55.5234 111.344 55.0008 111.344C54.4781 111.344 54.0581 111.531 53.7408 111.904C53.4234 112.268 53.2648 112.823 53.2648 113.57C53.2648 114.307 53.4234 114.867 53.7408 115.25C54.0581 115.623 54.4781 115.81 55.0008 115.81ZM59.9452 117V110.154H61.6532V111.218C61.8865 110.826 62.1992 110.527 62.5912 110.322C62.9925 110.117 63.4405 110.014 63.9352 110.014C65.5498 110.014 66.3572 110.952 66.3572 112.828V117H64.6072V112.912C64.6072 112.38 64.5045 111.993 64.2992 111.75C64.1032 111.507 63.7952 111.386 63.3752 111.386C62.8618 111.386 62.4512 111.549 62.1432 111.876C61.8445 112.193 61.6952 112.618 61.6952 113.15V117H59.9452ZM74.414 117.14C73.8354 117.14 73.294 117.07 72.79 116.93C72.286 116.79 71.866 116.589 71.53 116.328L71.978 115.18C72.3234 115.413 72.7107 115.595 73.14 115.726C73.5694 115.847 73.9987 115.908 74.428 115.908C74.876 115.908 75.2074 115.833 75.422 115.684C75.646 115.525 75.758 115.32 75.758 115.068C75.758 114.676 75.4687 114.424 74.89 114.312L73.49 114.046C72.3047 113.822 71.712 113.206 71.712 112.198C71.712 111.75 71.8334 111.363 72.076 111.036C72.328 110.709 72.6734 110.457 73.112 110.28C73.5507 110.103 74.0547 110.014 74.624 110.014C75.1094 110.014 75.576 110.084 76.024 110.224C76.472 110.355 76.8547 110.555 77.172 110.826L76.696 111.974C76.4254 111.75 76.0987 111.573 75.716 111.442C75.3427 111.311 74.9834 111.246 74.638 111.246C74.1807 111.246 73.84 111.325 73.616 111.484C73.4014 111.643 73.294 111.853 73.294 112.114C73.294 112.525 73.56 112.777 74.092 112.87L75.492 113.136C76.0987 113.248 76.556 113.453 76.864 113.752C77.1814 114.051 77.34 114.452 77.34 114.956C77.34 115.637 77.074 116.174 76.542 116.566C76.01 116.949 75.3007 117.14 74.414 117.14ZM81.866 117.14C81.1567 117.14 80.5407 116.995 80.018 116.706C79.4953 116.417 79.0893 116.006 78.8 115.474C78.5107 114.933 78.366 114.298 78.366 113.57C78.366 112.842 78.5107 112.212 78.8 111.68C79.0893 111.148 79.4953 110.737 80.018 110.448C80.5407 110.159 81.1567 110.014 81.866 110.014C82.5753 110.014 83.1913 110.159 83.714 110.448C84.2367 110.737 84.6427 111.148 84.932 111.68C85.2213 112.212 85.366 112.842 85.366 113.57C85.366 114.298 85.2213 114.933 84.932 115.474C84.6427 116.006 84.2367 116.417 83.714 116.706C83.1913 116.995 82.5753 117.14 81.866 117.14ZM81.866 115.81C82.3887 115.81 82.8087 115.623 83.126 115.25C83.4433 114.867 83.602 114.307 83.602 113.57C83.602 112.823 83.4433 112.268 83.126 111.904C82.8087 111.531 82.3887 111.344 81.866 111.344C81.3433 111.344 80.9233 111.531 80.606 111.904C80.2887 112.268 80.13 112.823 80.13 113.57C80.13 114.307 80.2887 114.867 80.606 115.25C80.9233 115.623 81.3433 115.81 81.866 115.81ZM90.4718 108.684V106.976H92.4318V108.684H90.4718ZM90.5838 117V110.154H92.3338V117H90.5838ZM97.2882 117.14C95.4775 117.14 94.5722 116.244 94.5722 114.452V111.47H93.2562V110.154H94.5722V108.11H96.3222V110.154H98.3942V111.47H96.3222V114.354C96.3222 114.802 96.4202 115.138 96.6162 115.362C96.8122 115.586 97.1295 115.698 97.5682 115.698C97.6989 115.698 97.8342 115.684 97.9742 115.656C98.1142 115.619 98.2589 115.581 98.4082 115.544L98.6742 116.832C98.5062 116.925 98.2915 117 98.0302 117.056C97.7782 117.112 97.5309 117.14 97.2882 117.14ZM108.185 108.684V106.976H110.131V108.684H108.185ZM103.761 117V111.47H102.445V110.154H103.761V110.14C103.761 109.169 104.013 108.437 104.517 107.942C105.03 107.447 105.823 107.167 106.897 107.102L107.513 107.074L107.597 108.362L107.051 108.39C106.491 108.427 106.094 108.567 105.861 108.81C105.627 109.043 105.511 109.393 105.511 109.86V110.154H110.033V117H108.283V111.47H105.511V117H103.761ZM114.993 117.14C113.183 117.14 112.277 116.244 112.277 114.452V111.47H110.961V110.154H112.277V108.11H114.027V110.154H116.099V111.47H114.027V114.354C114.027 114.802 114.125 115.138 114.321 115.362C114.517 115.586 114.835 115.698 115.273 115.698C115.404 115.698 115.539 115.684 115.679 115.656C115.819 115.619 115.964 115.581 116.113 115.544L116.379 116.832C116.211 116.925 115.997 117 115.735 117.056C115.483 117.112 115.236 117.14 114.993 117.14ZM119.736 117.14C119.158 117.14 118.616 117.07 118.112 116.93C117.608 116.79 117.188 116.589 116.852 116.328L117.3 115.18C117.646 115.413 118.033 115.595 118.462 115.726C118.892 115.847 119.321 115.908 119.75 115.908C120.198 115.908 120.53 115.833 120.744 115.684C120.968 115.525 121.08 115.32 121.08 115.068C121.08 114.676 120.791 114.424 120.212 114.312L118.812 114.046C117.627 113.822 117.034 113.206 117.034 112.198C117.034 111.75 117.156 111.363 117.398 111.036C117.65 110.709 117.996 110.457 118.434 110.28C118.873 110.103 119.377 110.014 119.946 110.014C120.432 110.014 120.898 110.084 121.346 110.224C121.794 110.355 122.177 110.555 122.494 110.826L122.018 111.974C121.748 111.75 121.421 111.573 121.038 111.442C120.665 111.311 120.306 111.246 119.96 111.246C119.503 111.246 119.162 111.325 118.938 111.484C118.724 111.643 118.616 111.853 118.616 112.114C118.616 112.525 118.882 112.777 119.414 112.87L120.814 113.136C121.421 113.248 121.878 113.453 122.186 113.752C122.504 114.051 122.662 114.452 122.662 114.956C122.662 115.637 122.396 116.174 121.864 116.566C121.332 116.949 120.623 117.14 119.736 117.14ZM129.73 117L127.028 110.154H128.82L130.57 114.97L132.334 110.154H133.566L135.33 114.998L137.08 110.154H138.774L136.086 117H134.56L132.894 112.59L131.256 117H129.73ZM143.013 117.14C142.238 117.14 141.571 116.995 141.011 116.706C140.451 116.417 140.017 116.006 139.709 115.474C139.41 114.942 139.261 114.312 139.261 113.584C139.261 112.875 139.405 112.254 139.695 111.722C139.993 111.19 140.399 110.775 140.913 110.476C141.435 110.168 142.028 110.014 142.691 110.014C143.661 110.014 144.427 110.322 144.987 110.938C145.556 111.554 145.841 112.394 145.841 113.458V113.976H140.941C141.071 115.199 141.771 115.81 143.041 115.81C143.423 115.81 143.806 115.754 144.189 115.642C144.571 115.521 144.921 115.334 145.239 115.082L145.729 116.258C145.402 116.529 144.991 116.743 144.497 116.902C144.002 117.061 143.507 117.14 143.013 117.14ZM142.761 111.204C142.247 111.204 141.832 111.363 141.515 111.68C141.197 111.997 141.006 112.427 140.941 112.968H144.385C144.347 112.399 144.189 111.965 143.909 111.666C143.638 111.358 143.255 111.204 142.761 111.204ZM149.606 117.14C148.794 117.14 148.192 116.921 147.8 116.482C147.418 116.034 147.226 115.381 147.226 114.522V107.13H148.976V114.438C148.976 115.278 149.331 115.698 150.04 115.698C150.143 115.698 150.246 115.693 150.348 115.684C150.451 115.675 150.549 115.656 150.642 115.628L150.614 117.014C150.278 117.098 149.942 117.14 149.606 117.14ZM154.077 117.14C153.265 117.14 152.663 116.921 152.271 116.482C151.888 116.034 151.697 115.381 151.697 114.522V107.13H153.447V114.438C153.447 115.278 153.802 115.698 154.511 115.698C154.614 115.698 154.716 115.693 154.819 115.684C154.922 115.675 155.02 115.656 155.113 115.628L155.085 117.014C154.749 117.098 154.413 117.14 154.077 117.14ZM156.151 117V115.054H158.111V117H156.151Z" fill="white"/>
</svg>
