<svg width="301" height="145" viewBox="0 0 301 145" fill="none" xmlns="http://www.w3.org/2000/svg">
<rect width="301" height="145" rx="20" fill="#FFAA5B"/>
<path d="M15.386 32V19.31H20.894C22.286 19.31 23.36 19.646 24.116 20.318C24.872 20.978 25.25 21.908 25.25 23.108C25.25 24.056 25.004 24.842 24.512 25.466C24.02 26.078 23.312 26.492 22.388 26.708C23 26.9 23.504 27.362 23.9 28.094L26.024 32H23.486L21.29 27.95C21.074 27.554 20.816 27.284 20.516 27.14C20.228 26.996 19.856 26.924 19.4 26.924H17.69V32H15.386ZM17.69 25.214H20.498C22.178 25.214 23.018 24.53 23.018 23.162C23.018 21.806 22.178 21.128 20.498 21.128H17.69V25.214ZM31.6193 32.18C30.6233 32.18 29.7653 31.994 29.0453 31.622C28.3253 31.25 27.7673 30.722 27.3713 30.038C26.9873 29.354 26.7953 28.544 26.7953 27.608C26.7953 26.696 26.9813 25.898 27.3533 25.214C27.7373 24.53 28.2593 23.996 28.9193 23.612C29.5913 23.216 30.3533 23.018 31.2053 23.018C32.4533 23.018 33.4373 23.414 34.1573 24.206C34.8893 24.998 35.2553 26.078 35.2553 27.446V28.112H28.9553C29.1233 29.684 30.0233 30.47 31.6553 30.47C32.1473 30.47 32.6393 30.398 33.1313 30.254C33.6233 30.098 34.0733 29.858 34.4813 29.534L35.1113 31.046C34.6913 31.394 34.1633 31.67 33.5273 31.874C32.8913 32.078 32.2553 32.18 31.6193 32.18ZM31.2953 24.548C30.6353 24.548 30.1013 24.752 29.6933 25.16C29.2853 25.568 29.0393 26.12 28.9553 26.816H33.3833C33.3353 26.084 33.1313 25.526 32.7713 25.142C32.4233 24.746 31.9313 24.548 31.2953 24.548ZM37.0732 32V23.198H39.2692V24.548C39.5332 24.068 39.8992 23.696 40.3672 23.432C40.8352 23.156 41.3752 23.018 41.9872 23.018C43.3072 23.018 44.1712 23.594 44.5792 24.746C44.8552 24.206 45.2512 23.786 45.7672 23.486C46.2832 23.174 46.8712 23.018 47.5312 23.018C49.5112 23.018 50.5012 24.224 50.5012 26.636V32H48.2512V26.726C48.2512 26.054 48.1372 25.562 47.9092 25.25C47.6932 24.938 47.3212 24.782 46.7932 24.782C46.2052 24.782 45.7432 24.992 45.4072 25.412C45.0712 25.82 44.9032 26.39 44.9032 27.122V32H42.6532V26.726C42.6532 26.054 42.5392 25.562 42.3112 25.25C42.0952 24.938 41.7292 24.782 41.2132 24.782C40.6252 24.782 40.1632 24.992 39.8272 25.412C39.4912 25.82 39.3232 26.39 39.3232 27.122V32H37.0732ZM52.6783 21.308V19.112H55.1983V21.308H52.6783ZM52.8223 32V23.198H55.0723V32H52.8223ZM57.4102 32V23.198H59.6062V24.566C59.9062 24.062 60.3082 23.678 60.8122 23.414C61.3282 23.15 61.9042 23.018 62.5402 23.018C64.6162 23.018 65.6542 24.224 65.6542 26.636V32H63.4042V26.744C63.4042 26.06 63.2722 25.562 63.0082 25.25C62.7562 24.938 62.3602 24.782 61.8202 24.782C61.1602 24.782 60.6322 24.992 60.2362 25.412C59.8522 25.82 59.6602 26.366 59.6602 27.05V32H57.4102ZM71.3235 32.18C70.5555 32.18 69.8775 31.994 69.2895 31.622C68.7135 31.25 68.2635 30.722 67.9395 30.038C67.6155 29.342 67.4535 28.526 67.4535 27.59C67.4535 26.642 67.6155 25.832 67.9395 25.16C68.2635 24.476 68.7135 23.948 69.2895 23.576C69.8775 23.204 70.5555 23.018 71.3235 23.018C71.9475 23.018 72.5115 23.156 73.0155 23.432C73.5195 23.708 73.8975 24.074 74.1495 24.53V19.31H76.3995V32H74.2035V30.542C73.9635 31.046 73.5855 31.448 73.0695 31.748C72.5535 32.036 71.9715 32.18 71.3235 32.18ZM71.9535 30.47C72.6255 30.47 73.1655 30.23 73.5735 29.75C73.9815 29.258 74.1855 28.538 74.1855 27.59C74.1855 26.63 73.9815 25.916 73.5735 25.448C73.1655 24.968 72.6255 24.728 71.9535 24.728C71.2815 24.728 70.7415 24.968 70.3335 25.448C69.9255 25.916 69.7215 26.63 69.7215 27.59C69.7215 28.538 69.9255 29.258 70.3335 29.75C70.7415 30.23 71.2815 30.47 71.9535 30.47ZM83.0705 32.18C82.0745 32.18 81.2165 31.994 80.4965 31.622C79.7765 31.25 79.2185 30.722 78.8225 30.038C78.4385 29.354 78.2465 28.544 78.2465 27.608C78.2465 26.696 78.4325 25.898 78.8045 25.214C79.1885 24.53 79.7105 23.996 80.3705 23.612C81.0425 23.216 81.8045 23.018 82.6565 23.018C83.9045 23.018 84.8885 23.414 85.6085 24.206C86.3405 24.998 86.7065 26.078 86.7065 27.446V28.112H80.4065C80.5745 29.684 81.4745 30.47 83.1065 30.47C83.5985 30.47 84.0905 30.398 84.5825 30.254C85.0745 30.098 85.5245 29.858 85.9325 29.534L86.5625 31.046C86.1425 31.394 85.6145 31.67 84.9785 31.874C84.3425 32.078 83.7065 32.18 83.0705 32.18ZM82.7465 24.548C82.0865 24.548 81.5525 24.752 81.1445 25.16C80.7365 25.568 80.4905 26.12 80.4065 26.816H84.8345C84.7865 26.084 84.5825 25.526 84.2225 25.142C83.8745 24.746 83.3825 24.548 82.7465 24.548ZM88.4884 32V23.198H90.6844V24.746C91.1164 23.702 92.0404 23.126 93.4564 23.018L94.1404 22.964L94.2844 24.872L92.9884 24.998C91.5124 25.142 90.7744 25.898 90.7744 27.266V32H88.4884ZM100.605 32V19.31H106.149C107.481 19.31 108.513 19.604 109.245 20.192C109.977 20.768 110.343 21.572 110.343 22.604C110.343 23.288 110.169 23.876 109.821 24.368C109.473 24.86 108.993 25.22 108.381 25.448C109.101 25.652 109.659 26.012 110.055 26.528C110.463 27.032 110.667 27.674 110.667 28.454C110.667 29.582 110.283 30.458 109.515 31.082C108.759 31.694 107.703 32 106.347 32H100.605ZM102.819 24.692H105.753C107.325 24.692 108.111 24.086 108.111 22.874C108.111 21.662 107.325 21.056 105.753 21.056H102.819V24.692ZM102.819 30.254H106.059C107.643 30.254 108.435 29.618 108.435 28.346C108.435 27.074 107.643 26.438 106.059 26.438H102.819V30.254ZM112.637 21.308V19.112H115.157V21.308H112.637ZM112.781 32V23.198H115.031V32H112.781ZM120.429 32.18C119.385 32.18 118.611 31.898 118.107 31.334C117.615 30.758 117.369 29.918 117.369 28.814V19.31H119.619V28.706C119.619 29.786 120.075 30.326 120.987 30.326C121.119 30.326 121.251 30.32 121.383 30.308C121.515 30.296 121.641 30.272 121.761 30.236L121.725 32.018C121.293 32.126 120.861 32.18 120.429 32.18ZM126.177 32.18C125.133 32.18 124.359 31.898 123.855 31.334C123.363 30.758 123.117 29.918 123.117 28.814V19.31H125.367V28.706C125.367 29.786 125.823 30.326 126.735 30.326C126.867 30.326 126.999 30.32 127.131 30.308C127.263 30.296 127.389 30.272 127.509 30.236L127.473 32.018C127.041 32.126 126.609 32.18 126.177 32.18Z" fill="white"/>
<mask id="mask0_25_463" style="mask-type:alpha" maskUnits="userSpaceOnUse" x="0" y="0" width="301" height="145">
<rect width="301" height="145" rx="20" fill="#FFAA5B"/>
</mask>
<g mask="url(#mask0_25_463)">
<path d="M247.362 176.147C285.163 176.147 315.807 158.454 315.807 136.629C315.807 114.804 285.163 97.1112 247.362 97.1112C209.561 97.1112 178.917 114.804 178.917 136.629C178.917 158.454 209.561 176.147 247.362 176.147Z" fill="#F5F5F5"/>
<path d="M190.322 151.013L194.882 153.628C195.12 153.75 195.384 153.813 195.651 153.813C195.919 153.813 196.182 153.75 196.42 153.628L232.375 132.86C232.797 132.617 232.797 132.223 232.375 131.983L227.76 129.389C227.522 129.269 227.258 129.206 226.991 129.206C226.724 129.206 226.46 129.269 226.222 129.389L190.322 150.133C189.901 150.376 189.901 150.77 190.322 151.013Z" fill="#E0E0E0"/>
<path d="M304.002 151.013L299.442 153.628C299.204 153.749 298.94 153.812 298.673 153.812C298.406 153.812 298.142 153.749 297.904 153.628L261.949 132.86C261.527 132.617 261.531 132.223 261.949 131.983L266.564 129.389C266.803 129.269 267.066 129.206 267.333 129.206C267.6 129.206 267.864 129.269 268.102 129.389L304.002 150.127C304.423 150.376 304.423 150.77 304.002 151.013Z" fill="#E0E0E0"/>
<path d="M300.396 138.078C300.396 138.078 300.617 133.417 302.685 129.672C304.753 125.928 307.765 123.482 310.7 123.054C313.635 122.627 316.198 125.183 313.161 127.257C310.125 129.331 304.642 131.598 302.522 138.743L300.396 138.078Z" fill="#FFDAC5"/>
<g opacity="0.2">
<path opacity="0.2" d="M300.396 138.078C300.396 138.078 300.617 133.417 302.685 129.672C304.753 125.928 307.765 123.482 310.7 123.054C313.635 122.627 316.198 125.183 313.161 127.257C310.125 129.331 304.642 131.598 302.522 138.743L300.396 138.078Z" fill="black"/>
</g>
<path d="M317.343 136.666C317.103 137.324 316.42 137.706 315.804 138.01C315.189 138.315 314.484 138.641 314.171 139.269C313.555 140.539 314.82 142.182 314.14 143.422C313.978 143.672 313.766 143.887 313.519 144.053C313.271 144.219 312.993 144.333 312.7 144.388C312.217 144.489 311.729 144.565 311.238 144.616C311.005 144.63 310.771 144.63 310.537 144.616C309.857 144.561 309.122 144.579 308.528 144.964C307.605 145.579 307.374 146.81 306.845 147.807C306.517 148.389 306.067 148.894 305.525 149.286C304.983 149.677 304.363 149.946 303.707 150.074C303.273 150.16 302.476 150.293 302.005 150.074C301.972 150.06 301.94 150.043 301.91 150.022C301.845 149.957 301.762 149.874 301.725 149.828C301.688 149.782 301.725 149.81 301.707 149.8C301.491 149.185 301.731 148.499 301.707 147.844C301.707 147.801 301.707 147.764 301.707 147.724C301.627 146.964 301.556 146.21 301.488 145.45C301.361 144.055 301.258 142.657 301.181 141.256C301.131 140.349 300.956 139.361 301.282 138.487C301.648 137.518 302.704 137.429 303.045 136.478C303.18 136.1 303.239 135.7 303.368 135.318C303.573 134.757 303.928 134.262 304.394 133.889C304.861 133.515 305.421 133.278 306.014 133.201C307.86 132.986 309.611 134.371 311.448 134.124C311.925 134.054 312.371 133.878 312.844 133.761C314.324 133.383 316.081 133.694 317.007 134.906C317.2 135.151 317.332 135.439 317.39 135.745C317.448 136.051 317.432 136.367 317.343 136.666Z" fill="#FFDAC5"/>
<path d="M193.491 137.038C193.327 135.032 192.865 133.062 192.119 131.192C190.888 128.183 188.556 125.15 185.858 124.577C183.16 124.005 182.012 125.823 182.581 127.608C183.074 129.146 185.08 130.42 186.603 131.762C188.126 133.103 190.972 136.343 191.762 139.475L193.285 139.641L193.491 137.038Z" fill="#FFDAC5"/>
<g opacity="0.15">
<path opacity="0.15" d="M193.491 137.038C193.327 135.032 192.865 133.062 192.119 131.192C190.888 128.183 188.556 125.15 185.858 124.577C183.16 124.005 182.012 125.823 182.581 127.608C183.074 129.146 185.08 130.42 186.603 131.762C188.126 133.103 190.972 136.343 191.762 139.475L193.285 139.641L193.491 137.038Z" fill="black"/>
</g>
<path d="M192.451 138.45C192.408 138.449 192.366 138.432 192.335 138.402C192.303 138.372 192.285 138.331 192.282 138.287C191.999 130.414 184.301 126.014 184.221 125.98C184.18 125.958 184.15 125.921 184.137 125.876C184.123 125.832 184.128 125.784 184.15 125.743C184.172 125.702 184.21 125.672 184.254 125.659C184.299 125.646 184.347 125.65 184.387 125.672C184.467 125.719 192.331 130.214 192.624 138.287C192.625 138.332 192.608 138.376 192.577 138.409C192.545 138.442 192.503 138.461 192.458 138.463L192.451 138.45Z" fill="white"/>
<path d="M192.541 149.21C192.541 149.21 190.965 150.204 188.507 149.782C187.712 149.678 186.971 149.325 186.39 148.773C185.756 148.117 185.655 147.459 185.467 146.582C185.419 146.216 185.293 145.865 185.098 145.551C184.569 144.825 183.517 144.838 182.637 144.65C181.406 144.382 180.249 143.487 179.889 142.269C179.529 141.05 180.114 139.561 181.292 139.081L179.846 138.158C179.398 137.895 178.985 137.578 178.615 137.213C178.245 136.841 178.025 136.345 178 135.82C178.023 135.435 178.155 135.065 178.38 134.752C178.605 134.439 178.914 134.196 179.271 134.051C179.992 133.774 180.773 133.694 181.535 133.82C182.306 133.912 183.063 134.09 183.794 134.352C183.993 134.443 184.209 134.491 184.427 134.494C184.717 134.445 184.988 134.318 185.212 134.128C186.867 133.035 189.562 133.118 190.442 135.177C190.575 135.484 190.652 135.792 190.79 136.1C191.307 137.207 192.753 136.875 193.685 137.392C193.98 137.577 194.231 137.825 194.419 138.118C194.608 138.411 194.729 138.742 194.774 139.087C194.959 140.186 194.654 141.435 194.467 142.521C194.279 143.607 194.008 144.613 193.713 145.641C193.473 146.49 193.208 147.33 192.925 148.164C192.845 148.351 192.713 149.099 192.541 149.21Z" fill="#FFDAC5"/>
<path d="M193.519 146.671C192.693 144.402 191.337 142.362 189.565 140.721C189.547 140.682 189.515 140.652 189.476 140.635C188.966 140.155 188.431 139.702 187.873 139.278C187.664 137.819 187.852 136.331 188.418 134.97C188.427 134.95 188.433 134.928 188.434 134.906C188.435 134.884 188.431 134.861 188.424 134.84C188.416 134.819 188.405 134.8 188.39 134.784C188.375 134.767 188.357 134.754 188.336 134.744C188.316 134.735 188.294 134.729 188.272 134.728C188.25 134.727 188.227 134.731 188.206 134.738C188.185 134.746 188.166 134.757 188.15 134.772C188.133 134.787 188.12 134.806 188.11 134.826C187.555 136.141 187.343 137.575 187.495 138.995C185.228 137.361 182.715 136.102 180.049 135.266C180.028 135.26 180.005 135.258 179.983 135.261C179.961 135.264 179.94 135.271 179.921 135.282C179.901 135.293 179.885 135.308 179.871 135.326C179.858 135.344 179.848 135.364 179.843 135.386C179.837 135.407 179.835 135.429 179.838 135.451C179.84 135.473 179.847 135.494 179.858 135.513C179.869 135.533 179.884 135.549 179.901 135.563C179.919 135.576 179.939 135.586 179.96 135.592C180.031 135.613 184.833 136.973 188.796 140.469C186.366 140.041 183.461 141.216 183.329 141.272C183.292 141.286 183.262 141.313 183.243 141.348C183.225 141.383 183.219 141.423 183.226 141.461C183.234 141.5 183.255 141.535 183.285 141.56C183.316 141.585 183.354 141.598 183.394 141.598C183.415 141.602 183.437 141.602 183.458 141.598C183.492 141.582 186.901 140.204 189.304 140.952C191.05 142.562 192.385 144.566 193.199 146.797C193.211 146.83 193.233 146.859 193.261 146.879C193.29 146.9 193.324 146.911 193.359 146.911H193.414C193.438 146.904 193.46 146.892 193.479 146.875C193.497 146.859 193.512 146.838 193.522 146.815C193.532 146.793 193.537 146.768 193.536 146.743C193.536 146.718 193.53 146.694 193.519 146.671Z" fill="white"/>
<path d="M188.067 87.8995C187.644 88.3797 187.097 88.7342 186.486 88.924L186.421 88.9394H186.372L186.264 88.9579H186.141H186.061C186.049 88.961 186.036 88.961 186.024 88.9579C185.779 88.9589 185.539 88.8864 185.335 88.7499C185.131 88.6134 184.972 88.419 184.88 88.1918C184.791 87.9895 184.735 87.7746 184.713 87.5549C184.809 87.5118 184.904 87.4595 185.003 87.4041C185.712 86.9412 186.303 86.3175 186.726 85.5835C187.15 84.8494 187.394 84.0259 187.439 83.1798C187.439 83.0628 187.439 82.9521 187.439 82.8505C187.708 82.7225 188.003 82.6593 188.301 82.6659H188.353H188.396C188.412 82.6629 188.427 82.6629 188.442 82.6659C188.654 82.6978 188.853 82.784 189.021 82.9162C189.188 83.0483 189.319 83.2219 189.399 83.4197C189.901 84.5981 189.31 86.5888 188.067 87.8995Z" fill="#FFDAC5"/>
<path d="M192.575 84.2013C192.55 84.1897 192.524 84.1835 192.498 84.1828L191.458 84.1244C191.435 84.1252 191.412 84.1214 191.391 84.1133C191.37 84.1052 191.35 84.0928 191.334 84.077C191.318 84.0612 191.305 84.0423 191.296 84.0214C191.287 84.0004 191.282 83.9779 191.282 83.9552C191.298 83.789 191.304 83.6259 191.307 83.469C191.308 83.2964 191.3 83.1239 191.282 82.9521C191.286 82.8393 191.327 82.731 191.399 82.6445L192.559 81.2353C192.594 81.197 192.619 81.1504 192.632 81.0998C192.644 81.0493 192.644 80.9964 192.63 80.9461L192.079 79.7154C192.072 79.6998 192.06 79.6868 192.045 79.6785C192.014 79.6678 191.979 79.6675 191.947 79.6774C191.915 79.6874 191.887 79.7071 191.867 79.7339L190.636 80.8661C190.603 80.9036 190.558 80.9287 190.509 80.9371C190.46 80.9455 190.409 80.9367 190.365 80.9123C190.206 80.7831 190.027 80.6793 189.836 80.6046C189.794 80.5888 189.758 80.5587 189.735 80.5194C189.712 80.4802 189.703 80.4342 189.71 80.3892L190.092 78.6508C190.097 78.6274 190.096 78.6027 190.086 78.5805C190.077 78.5583 190.06 78.5398 190.039 78.5278C190.004 78.5112 189.964 78.5049 189.925 78.5093L188.695 78.6293C188.639 78.6362 188.586 78.6566 188.539 78.6887C188.493 78.7209 188.456 78.7639 188.43 78.8139L187.772 80.58C187.715 80.6923 187.621 80.7822 187.507 80.8353C187.243 80.9592 186.99 81.1054 186.75 81.2722C186.646 81.3399 186.532 81.3461 186.489 81.2722L185.873 80.3215C185.83 80.2538 185.729 80.2692 185.649 80.3523L184.317 81.7614C184.278 81.7991 184.249 81.845 184.231 81.8956C184.213 81.9462 184.206 82.0003 184.212 82.0537L184.584 83.309C184.6 83.4164 184.576 83.5258 184.517 83.6167C184.291 83.9583 184.085 84.3127 183.901 84.6782C183.836 84.7851 183.733 84.8633 183.612 84.8966L182.47 85.1705C182.414 85.1836 182.36 85.2099 182.316 85.2473C182.271 85.2847 182.235 85.3322 182.212 85.3858L181.637 87.318C181.631 87.3391 181.63 87.3614 181.634 87.3829C181.639 87.4043 181.648 87.4244 181.662 87.4414C181.676 87.4583 181.694 87.4716 181.714 87.4802C181.734 87.4887 181.756 87.4922 181.778 87.4903L182.821 87.5519C182.844 87.5506 182.867 87.5541 182.888 87.562C182.91 87.57 182.929 87.5823 182.946 87.5982C182.962 87.6141 182.975 87.6332 182.984 87.6543C182.993 87.6755 182.997 87.6982 182.997 87.7211C182.967 88.0548 182.967 88.3904 182.997 88.7241C182.996 88.8363 182.957 88.9448 182.886 89.0318L181.723 90.4409C181.688 90.4792 181.663 90.5258 181.65 90.5764C181.638 90.627 181.638 90.6799 181.652 90.7302L182.203 91.9608C182.211 91.9767 182.222 91.9904 182.237 92.0008C182.251 92.0053 182.266 92.0053 182.28 92.0008C182.331 91.9971 182.38 91.974 182.415 91.9362L183.646 90.8009C183.679 90.7639 183.724 90.7395 183.774 90.7316C183.823 90.7238 183.873 90.733 183.917 90.7578C184.076 90.8876 184.254 90.9914 184.446 91.0655C184.489 91.0814 184.525 91.112 184.548 91.1519C184.571 91.1918 184.58 91.2385 184.572 91.284L184.187 93.0223C184.183 93.0448 184.185 93.0682 184.195 93.0891C184.204 93.1101 184.22 93.1276 184.24 93.1392C184.274 93.1584 184.314 93.166 184.353 93.1608L185.584 93.0408C185.64 93.0339 185.693 93.0135 185.739 92.9814C185.786 92.9492 185.823 92.9062 185.849 92.8562L186.507 91.0901C186.565 90.9775 186.658 90.8867 186.772 90.8317C186.905 90.7713 187.034 90.7035 187.159 90.6286C187.279 90.5579 187.402 90.4809 187.526 90.3979C187.649 90.3148 187.741 90.324 187.784 90.3979L188.399 91.3455C188.407 91.3571 188.418 91.3666 188.43 91.3732C188.479 91.407 188.559 91.3732 188.624 91.3147L189.956 89.9087C189.997 89.8696 190.028 89.8212 190.045 89.7675C190.063 89.7138 190.067 89.6567 190.058 89.601L189.689 88.3426C189.67 88.2351 189.694 88.1247 189.756 88.0349C189.984 87.6934 190.189 87.3379 190.372 86.9704C190.406 86.9157 190.451 86.8685 190.504 86.8316C190.556 86.7946 190.616 86.7685 190.679 86.755L191.818 86.4812C191.875 86.4681 191.928 86.4418 191.973 86.4043C192.017 86.3669 192.053 86.3195 192.076 86.2658L192.651 84.3336C192.654 84.3063 192.648 84.2789 192.634 84.2552C192.62 84.2315 192.599 84.2127 192.575 84.2013ZM186.489 88.9241L186.421 88.9395H186.372L186.264 88.9579H186.138H186.024C185.778 88.9587 185.538 88.8858 185.334 88.7487C185.13 88.6116 184.972 88.4166 184.88 88.1888C184.791 87.9866 184.735 87.7716 184.713 87.5519C184.701 87.4343 184.695 87.3162 184.695 87.198C184.769 85.9049 185.303 84.6808 186.199 83.7459C186.47 83.4553 186.781 83.2046 187.123 83.0014C187.222 82.943 187.325 82.8906 187.43 82.8445C187.7 82.7188 187.994 82.6567 188.292 82.6629H188.344H188.387H188.436C188.647 82.6952 188.846 82.7817 189.013 82.9138C189.18 83.046 189.31 83.2193 189.39 83.4167C189.904 84.5551 189.313 86.5427 188.07 87.8565C187.653 88.3532 187.105 88.7231 186.489 88.9241Z" fill="#F5F5F5"/>
<path d="M187.759 80.5893C187.699 80.6955 187.608 80.7812 187.498 80.8354C187.236 80.9591 186.986 81.1052 186.75 81.2723C186.646 81.34 186.532 81.3461 186.489 81.2723L185.873 80.3247C185.866 80.3124 185.855 80.3028 185.843 80.297L184.677 79.6232C184.802 79.5483 184.931 79.4805 185.064 79.4201L185.107 79.3955C185.153 79.3668 185.196 79.3327 185.233 79.2939L185.28 79.2447C185.29 79.2339 185.298 79.2214 185.304 79.2078L185.323 79.174L187.759 80.5893Z" fill="#EBEBEB"/>
<path d="M184.596 83.3551C184.599 83.4487 184.573 83.5408 184.523 83.6197C184.298 83.9616 184.092 84.316 183.907 84.6812C183.892 84.7117 183.872 84.7397 183.849 84.7643L181.387 83.3459C181.4 83.3342 181.412 83.3207 181.421 83.3059C181.434 83.2931 181.444 83.2786 181.452 83.2628C181.634 82.8953 181.84 82.5398 182.067 82.1983C182.08 82.1809 182.09 82.1624 182.098 82.1429C182.098 82.1429 182.098 82.1183 182.098 82.106C182.1 82.0989 182.1 82.0916 182.098 82.0844C182.099 82.067 182.099 82.0496 182.098 82.0321C182.103 82.0057 182.103 81.9786 182.098 81.9521L184.596 83.3551Z" fill="#EBEBEB"/>
<path d="M184.658 79.62L183.384 78.8816C183.368 78.8715 183.348 78.8662 183.329 78.8662C183.302 78.8682 183.276 78.8758 183.252 78.8885C183.228 78.9012 183.207 78.9188 183.19 78.9401L182.394 79.7831L181.858 80.3461C181.814 80.3937 181.782 80.4505 181.763 80.5123L183.637 81.5891L184.218 81.9214C184.238 81.8643 184.269 81.8119 184.31 81.7676L184.329 81.7491L185.643 80.3584C185.664 80.3312 185.693 80.3106 185.725 80.2991C185.758 80.2877 185.793 80.2858 185.827 80.2938L184.658 79.62Z" fill="#F5F5F5"/>
<path d="M190.005 78.5247C189.973 78.5081 189.936 78.5027 189.901 78.5093L188.67 78.6293C188.595 78.638 188.525 78.6704 188.47 78.7216L186.009 77.3063C186.063 77.253 186.133 77.2194 186.209 77.2109L187.439 77.0909C187.481 77.0843 187.523 77.0919 187.559 77.1125L187.886 77.3032L188.049 77.3955L189.089 78.0109L189.344 78.1586L189.532 78.2663L190.005 78.5247Z" fill="#F5F5F5"/>
<path d="M183.833 84.7765C183.77 84.8398 183.692 84.8863 183.606 84.9119L182.464 85.1857C182.381 85.2056 182.306 85.252 182.252 85.318L179.791 83.9058C179.847 83.8366 179.923 83.787 180.009 83.7643L181.151 83.4905C181.236 83.4691 181.313 83.4231 181.372 83.3582L183.833 84.7765Z" fill="#E6E6E6"/>
<path d="M182.966 88.8655C182.945 88.9264 182.915 88.9835 182.877 89.0347L181.714 90.4439C181.68 90.4858 181.655 90.5339 181.64 90.5854L179.178 89.167C179.191 89.1136 179.216 89.064 179.252 89.0224L180.415 87.6133C180.454 87.5643 180.484 87.5092 180.504 87.4502L182.966 88.8655Z" fill="#E6E6E6"/>
<path d="M179.818 86.3889L179.852 86.4104L179.809 86.3827L179.723 86.3335L179.818 86.3889Z" fill="#E0E0E0"/>
<path d="M188.067 87.8995C187.644 88.3797 187.097 88.7342 186.486 88.924L186.421 88.9394H186.372L186.264 88.9579H186.141H186.061C186.049 88.961 186.036 88.961 186.024 88.9579C185.779 88.9589 185.539 88.8864 185.335 88.7499C185.131 88.6134 184.972 88.419 184.88 88.1918C184.791 87.9895 184.735 87.7746 184.713 87.5549C184.809 87.5118 184.904 87.4595 185.003 87.4041C185.712 86.9412 186.303 86.3175 186.726 85.5835C187.15 84.8494 187.394 84.0259 187.439 83.1798C187.439 83.0628 187.439 82.9521 187.439 82.8505C187.708 82.7225 188.003 82.6593 188.301 82.6659H188.353H188.396C188.412 82.6629 188.427 82.6629 188.442 82.6659C188.654 82.6978 188.853 82.784 189.021 82.9162C189.188 83.0483 189.319 83.2219 189.399 83.4197C189.901 84.5981 189.31 86.5888 188.067 87.8995Z" fill="#E0E0E0"/>
<path d="M184.596 83.3552L182.135 81.9399C182.138 81.9247 182.138 81.909 182.135 81.8938L181.763 80.6385C181.751 80.5973 181.751 80.5535 181.763 80.5123L183.637 81.5892L184.218 81.9215C184.205 81.9667 184.205 82.0147 184.218 82.0599L184.59 83.3152C184.594 83.3283 184.596 83.3417 184.596 83.3552Z" fill="#E0E0E0"/>
<path d="M188.486 78.7215C188.458 78.7473 188.436 78.7787 188.421 78.8138L187.762 80.5798L185.301 79.1615L185.969 77.3923C185.982 77.3572 186.004 77.3263 186.033 77.3031L188.486 78.7215Z" fill="#E0E0E0"/>
<path d="M192.024 79.6753C191.993 79.6686 191.961 79.6705 191.931 79.6808C191.901 79.6911 191.875 79.7094 191.855 79.7337L190.624 80.869C190.59 80.9063 190.545 80.9311 190.495 80.9395C190.445 80.9479 190.394 80.9393 190.35 80.9152C190.19 80.786 190.012 80.6822 189.821 80.6075C189.778 80.5917 189.742 80.5616 189.719 80.5224C189.696 80.4831 189.688 80.4371 189.695 80.3921L190.076 78.6538C190.083 78.6304 190.081 78.6055 190.071 78.5831C190.062 78.5608 190.045 78.5423 190.024 78.5307L189.559 78.26C189.573 78.2568 189.588 78.2568 189.602 78.26L189.63 78.2784L192.024 79.6753Z" fill="#E0E0E0"/>
<path d="M192.568 84.1981C192.544 84.1866 192.518 84.1803 192.491 84.1797L191.451 84.1212C191.429 84.122 191.406 84.1183 191.385 84.1101C191.364 84.102 191.344 84.0897 191.328 84.0739C191.311 84.0581 191.298 84.0391 191.29 84.0182C191.281 83.9972 191.276 83.9747 191.276 83.952C191.291 83.7858 191.301 83.6228 191.301 83.4628L192.568 84.1981Z" fill="#E0E0E0"/>
<path d="M181.412 83.3059C181.403 83.3208 181.391 83.3344 181.378 83.3462C181.391 83.3342 181.403 83.3207 181.412 83.3059Z" fill="#E0E0E0"/>
<path d="M179.794 83.8936C179.777 83.9161 179.763 83.941 179.754 83.9674L179.683 84.2074L179.308 85.4688L179.181 85.8996C179.174 85.9226 179.174 85.9474 179.181 85.9704C179.185 85.9843 179.19 85.9978 179.197 86.0104C179.206 86.0214 179.217 86.0317 179.228 86.0411H179.246L179.44 86.155L179.492 86.1827L179.646 86.2688L179.726 86.318L179.821 86.3734L179.855 86.3949L179.957 86.4503L180.511 86.758L181.68 87.4349C181.656 87.4199 181.638 87.3976 181.629 87.3715C181.62 87.3453 181.619 87.3168 181.627 87.2903L182.135 85.6258L182.206 85.3858C182.216 85.3566 182.232 85.3296 182.252 85.3058L179.794 83.8936Z" fill="#E0E0E0"/>
<path d="M188.433 91.3762L187.156 90.6224C187.276 90.5516 187.399 90.4747 187.522 90.3917C187.646 90.3086 187.738 90.3178 187.781 90.3917L188.396 91.3424C188.405 91.3571 188.418 91.3688 188.433 91.3762Z" fill="#E0E0E0"/>
<path d="M184.596 91.2839L184.212 93.0254C184.207 93.0479 184.21 93.0712 184.219 93.0921C184.229 93.1131 184.244 93.1306 184.264 93.1423L182.295 92.0039C182.346 91.9985 182.394 91.9757 182.43 91.9393L183.661 90.807C183.694 90.7695 183.739 90.7442 183.788 90.7353C183.837 90.7263 183.888 90.7343 183.932 90.7578C184.09 90.8885 184.269 90.9925 184.461 91.0655C184.506 91.0791 184.545 91.1088 184.57 91.149C184.595 91.1893 184.604 91.2373 184.596 91.2839Z" fill="#E0E0E0"/>
<path d="M182.987 88.7272C182.991 88.7744 182.984 88.8217 182.966 88.8656L180.504 87.4503C180.521 87.405 180.528 87.3569 180.526 87.3088C180.526 87.1396 180.504 86.9673 180.504 86.7888L181.674 87.4657C181.699 87.4793 181.728 87.4867 181.757 87.4872L182.8 87.5457C182.823 87.5449 182.846 87.5487 182.867 87.557C182.888 87.5654 182.908 87.578 182.924 87.5941C182.941 87.6102 182.954 87.6295 182.962 87.6508C182.971 87.6721 182.975 87.695 182.975 87.718C182.95 88.0541 182.954 88.3918 182.987 88.7272Z" fill="#E0E0E0"/>
<path d="M182.224 91.9885L181.726 91.6993L181.631 91.647L180.827 91.1794L180.609 91.0563L179.784 90.5763C179.777 90.5729 179.771 90.5676 179.766 90.5609C179.759 90.5542 179.753 90.5457 179.751 90.5363L179.197 89.3056C179.186 89.2727 179.186 89.237 179.197 89.2041C179.197 89.2041 179.197 89.1764 179.197 89.161L181.658 90.5794C181.641 90.6261 181.641 90.6773 181.658 90.724L182.209 91.9547C182.212 91.9669 182.217 91.9784 182.224 91.9885Z" fill="#E0E0E0"/>
<path d="M196.085 59.3749C196.004 59.5234 195.878 59.6421 195.725 59.7134C195.366 59.885 195.022 60.0846 194.694 60.3103C194.553 60.4057 194.387 60.4149 194.334 60.3103L193.485 59.0088C193.475 58.9908 193.458 58.9767 193.439 58.9688L192.596 58.4765C192.774 58.375 192.95 58.2796 193.125 58.1996L193.187 58.1658C193.25 58.1273 193.308 58.0808 193.359 58.0273C193.383 58.006 193.405 57.9823 193.424 57.9566C193.437 57.9427 193.448 57.9272 193.457 57.9104L193.482 57.8643L196.085 59.3749Z" fill="#EBEBEB"/>
<path d="M191.719 63.1747C191.722 63.3021 191.687 63.4275 191.618 63.5347C191.308 64.005 191.027 64.493 190.775 64.9961C190.753 65.0371 190.725 65.0745 190.692 65.1069L188.073 63.5962C188.092 63.58 188.109 63.5614 188.122 63.5408C188.137 63.5223 188.151 63.5028 188.162 63.4824C188.41 62.9732 188.69 62.4809 189.002 62.0086C189.019 61.9861 189.033 61.9612 189.042 61.9348C189.053 61.918 189.061 61.8991 189.064 61.8794C189.066 61.8702 189.066 61.8608 189.064 61.8517C189.064 61.8271 189.064 61.8025 189.064 61.7809C189.071 61.7444 189.071 61.7067 189.064 61.6702L191.719 63.1747Z" fill="#EBEBEB"/>
<path d="M192.596 58.4765L190.845 57.4643C190.823 57.4507 190.798 57.4433 190.772 57.4427C190.734 57.4454 190.696 57.4558 190.663 57.4732C190.629 57.4907 190.599 57.5149 190.575 57.5443L189.479 58.7011L188.744 59.4765C188.684 59.5427 188.64 59.6216 188.615 59.7072L190.433 60.7472L191.233 61.2056C191.259 61.1263 191.302 61.0537 191.359 60.9933L191.384 60.9687L193.19 59.058C193.219 59.0204 193.258 58.992 193.303 58.9761C193.348 58.9603 193.396 58.9578 193.442 58.9688L192.596 58.4765Z" fill="#F5F5F5"/>
<path d="M199.174 56.5382C199.129 56.5177 199.079 56.5103 199.029 56.5167L197.359 56.6828C197.257 56.6963 197.161 56.7403 197.085 56.809L194.467 55.2983C194.543 55.2274 194.64 55.1823 194.744 55.1691L196.414 55.0029C196.471 54.9942 196.528 55.0051 196.577 55.0337L197.027 55.2952L197.248 55.4244L197.922 55.8152L198.276 56.0213C198.365 56.0675 198.451 56.1198 198.531 56.1659L199.174 56.5382Z" fill="#F5F5F5"/>
<path d="M190.691 65.11C190.608 65.1984 190.501 65.2622 190.384 65.2947L188.815 65.6731C188.702 65.7018 188.601 65.7667 188.529 65.8577L185.904 64.3501C185.982 64.2532 186.091 64.1851 186.212 64.1563L187.778 63.7809C187.895 63.7492 188.001 63.6865 188.085 63.5994L190.691 65.11Z" fill="#E6E6E6"/>
<path d="M189.501 70.7466C189.474 70.8308 189.431 70.9091 189.375 70.9774L187.781 72.9127C187.734 72.9696 187.7 73.0356 187.679 73.1065L185.064 71.5958C185.082 71.5236 185.115 71.4563 185.163 71.3989L186.763 69.4636C186.816 69.3958 186.857 69.3186 186.883 69.236L189.501 70.7466Z" fill="#E6E6E6"/>
<path d="M185.929 67.7776L185.978 67.8083L185.916 67.7714L185.799 67.7037L185.929 67.7776Z" fill="#E0E0E0"/>
<path d="M196.507 69.4206C195.931 70.0775 195.186 70.5638 194.353 70.8267L194.26 70.8482C194.239 70.8511 194.217 70.8511 194.196 70.8482L194.048 70.8728C193.991 70.882 193.934 70.8882 193.876 70.8913H193.716C193.378 70.8945 193.048 70.7954 192.768 70.607C192.488 70.4186 192.271 70.1498 192.147 69.836C192.025 69.5575 191.947 69.2616 191.916 68.9591C192.045 68.9007 192.178 68.8299 192.313 68.756C194.159 67.6853 195.663 65.0886 195.663 62.9502C195.663 62.7902 195.663 62.6426 195.645 62.4949C196.014 62.3218 196.419 62.2366 196.826 62.2457H196.9H196.959C196.98 62.2427 197.002 62.2427 197.023 62.2457C197.314 62.288 197.588 62.4057 197.818 62.5871C198.049 62.7686 198.228 63.0073 198.337 63.2794C199.029 64.8824 198.217 67.6176 196.507 69.4206Z" fill="#E0E0E0"/>
<path d="M191.719 63.1748L189.101 61.6672C189.104 61.6468 189.104 61.626 189.101 61.6056L188.596 59.8796C188.58 59.8233 188.58 59.7635 188.596 59.7073L190.415 60.7472L191.215 61.2057C191.191 61.2663 191.185 61.3323 191.196 61.3964L191.707 63.1194C191.714 63.137 191.718 63.1557 191.719 63.1748Z" fill="#E0E0E0"/>
<path d="M197.085 56.809C197.046 56.8448 197.015 56.889 196.996 56.9382L196.091 59.3627L193.473 57.852C193.473 57.852 193.473 57.852 193.473 57.8336L194.377 55.4091C194.396 55.3616 194.425 55.3193 194.464 55.286L197.085 56.809Z" fill="#E0E0E0"/>
<path d="M201.946 58.1197C201.903 58.1103 201.858 58.1131 201.816 58.1277C201.774 58.1424 201.737 58.1684 201.709 58.2027L200.008 59.7596C199.961 59.8104 199.899 59.8441 199.831 59.8553C199.763 59.8664 199.693 59.8544 199.632 59.8211C199.414 59.6422 199.167 59.4999 198.903 59.3996C198.843 59.3763 198.793 59.3329 198.762 59.2767C198.73 59.2206 198.719 59.1552 198.731 59.0919L199.257 56.7074C199.266 56.675 199.263 56.6406 199.25 56.6099C199.236 56.5791 199.213 56.5538 199.183 56.5382L198.531 56.1628C198.552 56.1584 198.574 56.1584 198.596 56.1628L198.633 56.1844L201.946 58.1197Z" fill="#E0E0E0"/>
<path d="M202.694 64.3347C202.662 64.3179 202.626 64.3095 202.589 64.3101L201.159 64.2301C201.127 64.231 201.096 64.2254 201.067 64.2138C201.037 64.2023 201.011 64.1849 200.988 64.1628C200.966 64.1407 200.948 64.1142 200.936 64.0851C200.924 64.056 200.918 64.0247 200.919 63.9932C200.937 63.7686 200.949 63.544 200.949 63.3256L202.694 64.3347Z" fill="#E0E0E0"/>
<path d="M188.123 63.5471C188.109 63.5679 188.092 63.5866 188.073 63.6029L188.123 63.5471Z" fill="#E0E0E0"/>
<path d="M185.898 64.3501C185.866 64.3845 185.842 64.4254 185.827 64.4701L185.744 64.7778L185.23 66.51L185.055 67.1038C185.044 67.1347 185.044 67.1683 185.055 67.1992C185.057 67.2182 185.065 67.2362 185.076 67.2515C185.087 67.268 185.101 67.2825 185.116 67.2945C185.125 67.3023 185.134 67.3085 185.144 67.313L185.406 67.4668L185.479 67.5068L185.689 67.6268L185.803 67.6945L185.932 67.7684L185.981 67.7991L186.119 67.876L186.882 68.316L187.735 68.8083C187.702 68.7876 187.678 68.7567 187.665 68.7205C187.652 68.6842 187.652 68.6448 187.664 68.6083L188.356 66.2792L188.455 65.9531C188.466 65.9113 188.489 65.8731 188.519 65.8423L185.898 64.3501Z" fill="#E0E0E0"/>
<path d="M197.011 74.1926L195.257 73.1742C195.421 73.0788 195.593 72.9711 195.759 72.8665C195.925 72.7619 196.067 72.765 196.116 72.8665L196.968 74.171C196.981 74.1804 196.996 74.1877 197.011 74.1926Z" fill="#E0E0E0"/>
<path d="M191.719 74.0696L191.193 76.4694C191.185 76.5006 191.188 76.5336 191.2 76.5631C191.213 76.5927 191.236 76.6171 191.264 76.6325C191.156 76.574 189.507 75.6172 188.556 75.0664C188.626 75.0595 188.691 75.0291 188.741 74.9803L190.442 73.4111C190.488 73.3605 190.55 73.3267 190.617 73.315C190.685 73.3033 190.754 73.3144 190.815 73.3465C191.033 73.5272 191.279 73.6715 191.544 73.7742C191.603 73.795 191.653 73.836 191.685 73.89C191.717 73.944 191.729 74.0076 191.719 74.0696Z" fill="#E0E0E0"/>
<path d="M189.519 70.5559C189.523 70.621 189.512 70.686 189.488 70.7467L186.87 69.236C186.895 69.1744 186.906 69.1084 186.904 69.0421C186.881 68.8059 186.871 68.5687 186.873 68.3314L187.725 68.8237C187.76 68.8432 187.799 68.8547 187.839 68.8575L189.273 68.9375C189.304 68.9367 189.335 68.9422 189.364 68.9535C189.394 68.9649 189.42 68.982 189.442 69.0038C189.465 69.0256 189.483 69.0517 189.495 69.0804C189.507 69.1092 189.513 69.1401 189.513 69.1714C189.473 69.6321 189.475 70.0955 189.519 70.5559Z" fill="#E0E0E0"/>
<path d="M188.482 75.0387L187.796 74.6418L187.667 74.5649L186.563 73.928C186.458 73.8664 186.359 73.808 186.255 73.7557L185.876 73.5311C185.866 73.5255 185.857 73.5182 185.849 73.5095C185.839 73.4998 185.832 73.4883 185.827 73.4757L185.067 71.7958C185.053 71.7508 185.053 71.7024 185.067 71.6573C185.066 71.6379 185.066 71.6183 185.067 71.5989L187.682 73.1096C187.659 73.1753 187.659 73.2469 187.682 73.3126L188.439 74.9895C188.45 75.0089 188.464 75.0258 188.482 75.0387Z" fill="#E0E0E0"/>
<path d="M296.824 65.8117C297.244 66.2934 297.791 66.6482 298.402 66.8362H298.47H298.516L298.624 66.8547H298.75H298.827C298.839 66.8578 298.852 66.8578 298.864 66.8547C299.109 66.8556 299.349 66.7832 299.553 66.6467C299.757 66.5102 299.916 66.3158 300.008 66.0886C300.097 65.8864 300.153 65.6714 300.174 65.4517C300.082 65.4086 299.984 65.3563 299.888 65.3009C299.178 64.8387 298.586 64.2152 298.162 63.4811C297.738 62.747 297.494 61.9231 297.448 61.0765C297.448 60.9596 297.448 60.8519 297.448 60.7473C297.18 60.6193 296.885 60.5561 296.587 60.5627H296.535H296.492H296.445C296.234 60.5945 296.035 60.6808 295.867 60.8129C295.699 60.9451 295.569 61.1187 295.489 61.3165C294.987 62.5103 295.578 64.501 296.824 65.8117Z" fill="#FFDAC5"/>
<path d="M292.252 62.2671L292.827 64.1993C292.85 64.253 292.886 64.3005 292.931 64.3379C292.976 64.3753 293.029 64.4016 293.086 64.4147L294.227 64.6885C294.348 64.7197 294.452 64.797 294.516 64.9039C294.7 65.2708 294.905 65.6263 295.132 65.9685C295.193 66.0586 295.217 66.1687 295.199 66.2761L294.83 67.5315C294.82 67.5871 294.825 67.6443 294.842 67.698C294.86 67.7516 294.891 67.8001 294.932 67.8391L296.267 69.2452C296.332 69.316 296.408 69.3375 296.458 69.3067C296.47 69.3001 296.481 69.2906 296.488 69.279L297.104 68.3283C297.147 68.2606 297.264 68.2668 297.365 68.3283C297.467 68.3899 297.608 68.4914 297.731 68.5622C297.855 68.6329 297.99 68.7037 298.116 68.7652C298.23 68.8183 298.324 68.9083 298.381 69.0206L299.039 70.7866C299.065 70.8371 299.103 70.8803 299.15 70.9125C299.196 70.9447 299.25 70.9649 299.307 70.9713L300.519 71.0912C300.558 71.0965 300.598 71.0889 300.633 71.0697C300.653 71.0583 300.668 71.0407 300.677 71.0196C300.686 70.9984 300.688 70.975 300.682 70.9528L300.297 69.2144C300.29 69.1691 300.299 69.1226 300.322 69.0828C300.345 69.043 300.381 69.0124 300.424 68.996C300.616 68.922 300.796 68.8181 300.956 68.6883C301 68.6644 301.05 68.656 301.099 68.6644C301.148 68.6727 301.193 68.6974 301.227 68.7345L302.457 69.8667C302.493 69.904 302.541 69.927 302.593 69.9313C302.607 69.9345 302.622 69.9345 302.636 69.9313C302.652 69.9226 302.664 69.9083 302.67 69.8913L303.22 68.6606C303.234 68.6104 303.235 68.5575 303.222 68.5069C303.21 68.4563 303.185 68.4097 303.15 68.3714L301.99 66.9623C301.917 66.8763 301.876 66.7673 301.876 66.6546C301.907 66.3209 301.907 65.9852 301.876 65.6516C301.876 65.6288 301.88 65.6063 301.889 65.5854C301.898 65.5644 301.911 65.5455 301.928 65.5297C301.944 65.5139 301.963 65.5015 301.985 65.4934C302.006 65.4853 302.028 65.4815 302.051 65.4823L303.094 65.4239C303.116 65.4252 303.138 65.4212 303.158 65.4123C303.179 65.4034 303.196 65.3898 303.21 65.3726C303.224 65.3555 303.234 65.3353 303.238 65.3137C303.242 65.2921 303.242 65.2697 303.236 65.2485L302.66 63.3163C302.637 63.2626 302.602 63.2152 302.557 63.1778C302.512 63.1404 302.459 63.114 302.402 63.1009L301.264 62.8271C301.143 62.7956 301.039 62.7184 300.974 62.6117C300.791 62.2449 300.585 61.8894 300.359 61.5472C300.299 61.4566 300.275 61.3469 300.291 61.2395L300.664 59.9811C300.67 59.9276 300.664 59.8734 300.646 59.8227C300.628 59.7719 300.598 59.7261 300.559 59.6888L299.227 58.2797C299.147 58.1966 299.048 58.1843 299.002 58.252L298.387 59.1996C298.344 59.2673 298.23 59.2612 298.128 59.1996C297.889 59.0342 297.637 58.8881 297.375 58.7627C297.26 58.7096 297.167 58.6197 297.11 58.5074L296.452 56.7413C296.426 56.6909 296.389 56.6477 296.343 56.6154C296.296 56.5832 296.243 56.563 296.187 56.5567L294.975 56.4367C294.935 56.4324 294.894 56.4388 294.858 56.4552C294.837 56.4672 294.82 56.4857 294.811 56.5079C294.802 56.5301 294.8 56.5548 294.805 56.5782L295.202 58.3166C295.21 58.3616 295.202 58.4078 295.179 58.4475C295.157 58.4872 295.122 58.5181 295.079 58.5351C294.887 58.6084 294.707 58.7122 294.547 58.8427C294.503 58.8666 294.453 58.8751 294.404 58.8667C294.355 58.8583 294.31 58.8336 294.276 58.7966L293.046 57.6643C292.981 57.6059 292.913 57.5843 292.867 57.609C292.854 57.6182 292.843 57.631 292.836 57.6459L292.283 58.8766C292.269 58.9268 292.268 58.9797 292.281 59.0303C292.293 59.0809 292.318 59.1275 292.353 59.1658L293.513 60.5534C293.584 60.6409 293.624 60.7489 293.627 60.8611C293.609 61.0328 293.601 61.2053 293.602 61.378C293.602 61.5349 293.602 61.6856 293.627 61.8641C293.627 61.8868 293.623 61.9094 293.614 61.9303C293.605 61.9512 293.592 61.9702 293.575 61.986C293.559 62.0018 293.54 62.0141 293.518 62.0222C293.497 62.0304 293.474 62.0341 293.452 62.0333L292.412 62.0918C292.385 62.0928 292.359 62.0991 292.335 62.1102C292.304 62.1214 292.278 62.1437 292.263 62.1727C292.248 62.2017 292.244 62.2353 292.252 62.2671ZM296.821 65.8116C295.59 64.5009 294.975 62.5102 295.504 61.3718C295.582 61.1733 295.712 60.9991 295.879 60.8667C296.047 60.7343 296.246 60.6486 296.458 60.618H296.504H296.547H296.59C296.886 60.612 297.18 60.6741 297.448 60.7995C297.55 60.8457 297.655 60.898 297.756 60.9564C298.098 61.1599 298.409 61.4117 298.679 61.7041C299.576 62.6374 300.11 63.8608 300.184 65.1531C300.187 65.2714 300.181 65.3897 300.165 65.507C300.144 65.7267 300.088 65.9417 299.999 66.1438C299.907 66.3717 299.749 66.5667 299.545 66.7038C299.341 66.8409 299.1 66.9138 298.854 66.913H298.744H298.618L298.51 66.8946H298.464L298.396 66.8761C297.782 66.6745 297.237 66.3059 296.821 65.8116Z" fill="#F5F5F5"/>
<path d="M297.132 58.5013C297.188 58.61 297.279 58.6967 297.39 58.7474C297.652 58.8727 297.905 59.0188 298.144 59.1843C298.245 59.252 298.359 59.2581 298.402 59.1843L299.018 58.2367C299.025 58.2236 299.035 58.2128 299.048 58.2059L300.214 57.5321C300.085 57.4582 299.956 57.3875 299.83 57.329C299.814 57.3227 299.798 57.3144 299.784 57.3044C299.738 57.2757 299.695 57.2416 299.658 57.2029L299.611 57.1537C299.602 57.1421 299.594 57.1297 299.587 57.1167L299.568 57.0829L297.132 58.5013Z" fill="#EBEBEB"/>
<path d="M300.31 61.2672C300.305 61.3596 300.33 61.451 300.381 61.5287C300.607 61.8709 300.812 62.2264 300.996 62.5932C301.011 62.6239 301.032 62.6512 301.057 62.6732L303.519 61.2549C303.505 61.2438 303.494 61.2302 303.485 61.2149C303.473 61.2031 303.462 61.1896 303.454 61.1749C303.272 60.8063 303.066 60.4498 302.839 60.1072C302.828 60.0908 302.819 60.0733 302.811 60.0549C302.803 60.0428 302.798 60.0291 302.796 60.0149C302.796 60.0149 302.796 60.0149 302.796 59.9934C302.796 59.9718 302.796 59.9934 302.796 59.9934C302.795 59.976 302.795 59.9585 302.796 59.9411C302.788 59.9149 302.788 59.8872 302.796 59.8611L300.31 61.2672Z" fill="#EBEBEB"/>
<path d="M300.23 57.532L301.504 56.7935C301.522 56.7887 301.541 56.7887 301.559 56.7935C301.586 56.7955 301.613 56.803 301.637 56.8157C301.662 56.8284 301.683 56.846 301.7 56.8674L302.497 57.7012L303.033 58.2642C303.077 58.3124 303.11 58.3704 303.128 58.4334L301.254 59.5072L300.673 59.8395C300.655 59.7816 300.623 59.7289 300.58 59.6857L300.565 59.6672L299.248 58.2765C299.227 58.249 299.198 58.2282 299.166 58.2167C299.133 58.2052 299.097 58.2035 299.064 58.2119L300.23 57.532Z" fill="#F5F5F5"/>
<path d="M294.882 56.4368C294.917 56.4285 294.953 56.4285 294.987 56.4368L296.202 56.5568C296.277 56.5649 296.348 56.5973 296.402 56.6491L298.864 55.2338C298.809 55.1799 298.737 55.1462 298.661 55.1384L297.445 55.0184C297.404 55.0118 297.362 55.0194 297.325 55.04L296.999 55.2307L296.839 55.323L295.799 55.9384L295.541 56.0891L295.359 56.163L294.882 56.4368Z" fill="#F5F5F5"/>
<path d="M296.824 65.8117C297.244 66.2934 297.791 66.6482 298.402 66.8362H298.47H298.516L298.624 66.8547H298.75H298.827C298.839 66.8578 298.852 66.8578 298.864 66.8547C299.109 66.8556 299.349 66.7832 299.553 66.6467C299.757 66.5102 299.916 66.3158 300.008 66.0886C300.097 65.8864 300.153 65.6714 300.174 65.4517C300.082 65.4086 299.984 65.3563 299.888 65.3009C299.178 64.8387 298.586 64.2152 298.162 63.4811C297.738 62.747 297.494 61.9231 297.448 61.0765C297.448 60.9596 297.448 60.8519 297.448 60.7473C297.18 60.6193 296.885 60.5561 296.587 60.5627H296.535H296.492H296.445C296.234 60.5945 296.035 60.6808 295.867 60.8129C295.699 60.9451 295.569 61.1187 295.489 61.3165C294.987 62.5103 295.578 64.501 296.824 65.8117Z" fill="#E0E0E0"/>
<path d="M300.31 61.2672L302.771 59.8519C302.768 59.8377 302.768 59.823 302.771 59.8088L303.143 58.5504C303.155 58.5103 303.155 58.4675 303.143 58.4274L301.27 59.5012L300.688 59.8334C300.701 59.8787 300.701 59.9267 300.688 59.9719L300.319 61.2272C300.313 61.2396 300.309 61.2533 300.31 61.2672Z" fill="#E0E0E0"/>
<path d="M296.402 56.6336C296.431 56.6591 296.453 56.6906 296.467 56.7259L297.125 58.4919L299.587 57.0735L298.928 55.3075C298.916 55.2731 298.894 55.2424 298.867 55.2183L296.402 56.6336Z" fill="#E0E0E0"/>
<path d="M292.864 57.5874C292.895 57.5818 292.928 57.5841 292.958 57.5944C292.988 57.6046 293.015 57.6223 293.036 57.6459L294.267 58.7812C294.3 58.8187 294.345 58.8437 294.394 58.8521C294.444 58.8605 294.494 58.8518 294.538 58.8273C294.698 58.6969 294.877 58.593 295.07 58.5197C295.113 58.5032 295.148 58.4724 295.171 58.4326C295.193 58.3927 295.201 58.3463 295.193 58.3012L294.812 56.5629C294.806 56.5395 294.808 56.5148 294.817 56.4925C294.827 56.4703 294.843 56.4518 294.864 56.4398L295.359 56.1629C295.344 56.1597 295.328 56.1597 295.313 56.1629C295.304 56.1613 295.295 56.1613 295.285 56.1629L292.864 57.5874Z" fill="#E0E0E0"/>
<path d="M292.319 62.1102C292.343 62.0986 292.37 62.0924 292.396 62.0917L293.439 62.0333C293.462 62.0341 293.484 62.0303 293.506 62.0222C293.527 62.014 293.546 62.0016 293.562 61.9858C293.578 61.9699 293.591 61.951 293.599 61.93C293.608 61.9091 293.612 61.8867 293.612 61.8641C293.612 61.6979 293.59 61.5348 293.59 61.3779L292.319 62.1102Z" fill="#E0E0E0"/>
<path d="M296.455 69.2882L297.731 68.5467C297.614 68.476 297.488 68.399 297.368 68.316C297.248 68.2329 297.153 68.2421 297.11 68.316L296.495 69.2667C296.483 69.2773 296.47 69.2848 296.455 69.2882Z" fill="#E0E0E0"/>
<path d="M300.31 69.1961L300.691 70.9375C300.697 70.96 300.695 70.9838 300.685 71.0049C300.676 71.0261 300.659 71.0435 300.639 71.0544C300.716 71.0114 301.919 70.3191 302.611 69.916C302.56 69.9117 302.512 69.8887 302.476 69.8514L301.245 68.7192C301.212 68.6812 301.167 68.6558 301.118 68.6473C301.069 68.6389 301.018 68.648 300.974 68.673C300.814 68.8029 300.635 68.9067 300.442 68.9807C300.398 68.9948 300.36 69.0243 300.336 69.0639C300.312 69.1034 300.302 69.1503 300.31 69.1961Z" fill="#E0E0E0"/>
<path d="M264.82 59.7412V131.297C264.842 131.697 264.957 132.086 265.157 132.434C265.357 132.781 265.635 133.077 265.97 133.297L297.701 151.613C298.335 151.982 298.851 151.68 298.851 150.945V79.3923C298.829 78.9923 298.714 78.6029 298.514 78.2556C298.314 77.9083 298.036 77.6127 297.701 77.3925L265.97 59.0766C265.336 58.7074 264.82 59.0058 264.82 59.7412ZM266.478 68.2822C266.478 67.6669 266.921 67.3961 267.469 67.713L296.316 84.3644C296.604 84.5529 296.844 84.8065 297.016 85.1047C297.188 85.4029 297.288 85.7374 297.307 86.0812V142.13C297.307 142.764 296.861 143.016 296.316 142.703L267.469 126.048C266.921 125.74 266.478 125.331 266.478 124.704V68.2822Z" fill="#FFDAC5"/>
<path opacity="0.5" d="M264.82 59.7412V131.297C264.842 131.697 264.957 132.086 265.157 132.434C265.357 132.781 265.635 133.077 265.97 133.297L297.701 151.613C298.335 151.982 298.851 151.68 298.851 150.945V79.3923C298.829 78.9923 298.714 78.6029 298.514 78.2556C298.314 77.9083 298.036 77.6127 297.701 77.3925L265.97 59.0766C265.336 58.7074 264.82 59.0058 264.82 59.7412ZM266.478 68.2822C266.478 67.6669 266.921 67.3961 267.469 67.713L296.316 84.3644C296.604 84.5529 296.844 84.8065 297.016 85.1047C297.188 85.4029 297.288 85.7374 297.307 86.0812V142.13C297.307 142.764 296.861 143.016 296.316 142.703L267.469 126.048C266.921 125.74 266.478 125.331 266.478 124.704V68.2822Z" fill="black"/>
<path d="M297.842 151.684C298.185 151.828 298.555 151.897 298.927 151.885C299.299 151.872 299.663 151.78 299.996 151.613L301.316 150.85C301.653 150.632 301.934 150.337 302.135 149.989C302.336 149.641 302.452 149.251 302.473 148.85V77.3003C302.466 77.0024 302.398 76.709 302.273 76.4388C302.233 76.3441 302.187 76.2517 302.137 76.1619L298.507 78.2571C298.583 78.3938 298.65 78.5357 298.707 78.6817C298.793 78.9101 298.84 79.1515 298.845 79.3955V150.948C298.851 151.625 298.411 151.933 297.842 151.684Z" fill="#FFDAC5"/>
<path opacity="0.7" d="M297.842 151.684C298.185 151.828 298.555 151.897 298.927 151.885C299.299 151.872 299.663 151.78 299.996 151.613L301.316 150.85C301.653 150.632 301.934 150.337 302.135 149.989C302.336 149.641 302.452 149.251 302.473 148.85V77.3003C302.466 77.0024 302.398 76.709 302.273 76.4388C302.233 76.3441 302.187 76.2517 302.137 76.1619L298.507 78.2571C298.583 78.3938 298.65 78.5357 298.707 78.6817C298.793 78.9101 298.84 79.1515 298.845 79.3955V150.948C298.851 151.625 298.411 151.933 297.842 151.684Z" fill="black"/>
<path d="M281.56 136.158C280.554 135.58 279.739 136.051 279.739 137.21C279.773 137.843 279.955 138.458 280.272 139.007C280.588 139.555 281.03 140.021 281.56 140.367C282.566 140.946 283.382 140.475 283.382 139.315C283.348 138.683 283.165 138.067 282.848 137.519C282.532 136.97 282.091 136.504 281.56 136.158Z" stroke="#E6E6E6" stroke-width="1.45697" stroke-miterlimit="10"/>
<path d="M281.822 69.7775C281.397 69.5313 281.049 69.7313 281.049 70.2236C281.065 70.4919 281.142 70.753 281.276 70.9859C281.41 71.2188 281.597 71.4172 281.822 71.565C282.249 71.8112 282.597 71.6112 282.597 71.1158C282.582 70.8475 282.504 70.5864 282.37 70.3538C282.235 70.1213 282.047 69.9238 281.822 69.7775Z" fill="black"/>
<path d="M284.821 74.4818L278.849 71.0328C278.493 70.8297 278.203 70.9743 278.203 71.3589C278.219 71.5761 278.286 71.7865 278.398 71.9731C278.51 72.1596 278.665 72.3171 278.849 72.4327L284.821 75.8786C285.178 76.0848 285.468 75.9402 285.468 75.5525C285.451 75.3358 285.384 75.126 285.272 74.94C285.16 74.754 285.006 74.597 284.821 74.4818Z" fill="black"/>
<path d="M266.478 124.704C266.478 125.319 266.921 125.734 267.469 126.048L296.316 142.702C296.861 143.01 297.307 142.764 297.307 142.13V86.0812C297.288 85.7374 297.188 85.4029 297.016 85.1047C296.844 84.8064 296.604 84.5529 296.316 84.3644L267.469 67.713C266.921 67.4053 266.478 67.6515 266.478 68.2822V124.704Z" fill="#FFDAC5"/>
<path opacity="0.5" d="M266.478 124.704C266.478 125.319 266.921 125.734 267.469 126.048L296.316 142.702C296.861 143.01 297.307 142.764 297.307 142.13V86.0812C297.288 85.7374 297.188 85.4029 297.016 85.1047C296.844 84.8064 296.604 84.5529 296.316 84.3644L267.469 67.713C266.921 67.4053 266.478 67.6515 266.478 68.2822V124.704Z" fill="white"/>
<path d="M268.407 72.522V71.9958C268.407 71.882 268.453 71.8143 268.509 71.8451L268.536 71.8635C268.571 71.897 268.599 71.9377 268.616 71.9829C268.634 72.0281 268.641 72.0767 268.638 72.1251V72.6512C268.638 72.765 268.592 72.8327 268.536 72.7989H268.509C268.472 72.7635 268.443 72.7202 268.426 72.6722C268.408 72.6242 268.402 72.5728 268.407 72.522Z" fill="#455A64"/>
<path d="M268.865 72.7773V71.8543C268.865 71.7405 268.909 71.6728 268.964 71.7066H268.992C269.027 71.7408 269.054 71.7821 269.071 71.8278C269.089 71.8734 269.096 71.9224 269.093 71.9712V72.8789C269.093 72.9927 269.047 73.0573 268.992 73.0265L268.964 73.0111C268.902 72.9487 268.867 72.865 268.865 72.7773Z" fill="#455A64"/>
<path d="M269.321 73.0482V71.7559C269.321 71.6421 269.367 71.5775 269.422 71.6082L269.45 71.6236C269.485 71.6579 269.512 71.6992 269.529 71.7449C269.547 71.7905 269.555 71.8394 269.552 71.8882V73.1805C269.552 73.2943 269.505 73.3589 269.45 73.3281H269.422C269.385 73.2922 269.357 73.2483 269.339 73.1998C269.322 73.1513 269.315 73.0995 269.321 73.0482Z" fill="#455A64"/>
<path d="M269.779 73.3095V71.082C269.779 70.9681 269.822 70.9004 269.878 70.9343H269.905C269.94 70.9685 269.967 71.0099 269.985 71.0555C270.002 71.1012 270.01 71.1501 270.007 71.1989V73.4264C270.007 73.5403 269.961 73.608 269.905 73.5741H269.878C269.843 73.5398 269.816 73.4984 269.799 73.4527C269.782 73.407 269.775 73.3581 269.779 73.3095Z" fill="#455A64"/>
<path d="M271.016 74.1772C271.005 74.1509 271 74.1226 271.001 74.0942V73.768L270.49 73.4603C270.477 73.4534 270.466 73.4438 270.457 73.4321C270.448 73.4204 270.441 73.407 270.438 73.3927V73.2757C270.435 73.2563 270.435 73.2367 270.438 73.2173C270.442 73.2026 270.447 73.1882 270.453 73.1742L270.998 72.3158C270.998 72.3158 271.016 72.2912 271.025 72.2881C271.035 72.285 271.044 72.2881 271.059 72.2881L271.13 72.3312C271.152 72.342 271.17 72.3606 271.179 72.3835C271.185 72.412 271.185 72.4412 271.179 72.4696V73.6142L271.293 73.6788C271.313 73.6903 271.329 73.7074 271.339 73.728C271.344 73.7575 271.344 73.7878 271.339 73.8173V73.8942C271.346 73.9163 271.346 73.9398 271.339 73.9619C271.339 73.9619 271.315 73.9619 271.293 73.9619L271.179 73.8972V74.2234C271.186 74.2455 271.186 74.269 271.179 74.2911C271.179 74.2911 271.155 74.2911 271.13 74.2911L271.044 74.2418C271.028 74.2239 271.018 74.2012 271.016 74.1772ZM271.035 73.5096V72.6942L270.662 73.3096L271.035 73.5096Z" fill="#455A64"/>
<path d="M271.622 74.331C271.516 74.0628 271.465 73.7762 271.471 73.488C271.449 73.255 271.501 73.0209 271.622 72.8203C271.725 72.7034 271.866 72.6973 272.047 72.8019C272.198 72.8878 272.324 73.0133 272.41 73.1649C272.414 73.18 272.414 73.196 272.41 73.2111C272.411 73.2213 272.411 73.2316 272.41 73.2419L272.364 73.3588C272.364 73.3588 272.364 73.3772 272.345 73.3742C272.336 73.3667 272.329 73.3572 272.324 73.3465C272.258 73.2406 272.169 73.152 272.062 73.088C271.939 73.0173 271.841 73.0203 271.773 73.1034C271.687 73.2555 271.65 73.4309 271.668 73.6049C271.662 73.8147 271.696 74.0237 271.77 74.2203C271.821 74.3628 271.919 74.484 272.047 74.5649C272.086 74.5891 272.128 74.6078 272.173 74.6202C272.206 74.629 272.241 74.629 272.274 74.6202V74.1003L272.062 73.9772C272.041 73.9654 272.025 73.947 272.016 73.9249C272.01 73.8965 272.01 73.8672 272.016 73.8387V73.7649C272.016 73.728 272.016 73.7064 272.016 73.6972C272.016 73.688 272.041 73.6972 272.062 73.6972L272.401 73.8941C272.425 73.9076 272.444 73.9294 272.453 73.9557C272.464 73.9884 272.469 74.0227 272.468 74.0572V74.8141C272.471 74.8345 272.471 74.8552 272.468 74.8756C272.466 74.8868 272.459 74.8967 272.45 74.9033C272.382 74.9271 272.309 74.9334 272.238 74.9215C272.167 74.9097 272.1 74.8802 272.044 74.8356C271.852 74.7176 271.704 74.5405 271.622 74.331Z" fill="#455A64"/>
<path d="M294.972 85.6997C294.94 85.5776 294.868 85.4695 294.769 85.392L293.23 84.5059C293.098 84.429 292.996 84.5797 292.996 84.8505V86.0073C292.998 86.167 293.027 86.3252 293.083 86.475C293.105 86.535 293.132 86.5927 293.166 86.6473C293.196 86.6985 293.237 86.7426 293.286 86.7765L294.824 87.6626C294.956 87.7365 295.061 87.5857 295.061 87.315V86.1673C295.058 86.0075 295.028 85.8493 294.972 85.6997ZM293.144 86.3919C293.121 86.3268 293.109 86.258 293.11 86.1889V85.0412C293.11 84.8412 293.193 84.7182 293.289 84.7766L294.827 85.6627C294.854 85.6785 294.876 85.7007 294.892 85.7273C294.902 85.745 294.91 85.7635 294.916 85.7827C294.94 85.8489 294.951 85.9187 294.95 85.9889V87.1334C294.95 87.3334 294.867 87.4565 294.772 87.398L293.233 86.5119C293.188 86.4821 293.156 86.4357 293.144 86.3827V86.3919Z" fill="#455A64"/>
<path d="M294.11 85.4474V86.8043L293.286 86.3151L293.258 86.2935C293.26 86.2782 293.26 86.2627 293.258 86.2474V85.2167C293.258 85.072 293.322 84.9797 293.393 85.0197L294.11 85.4474Z" fill="#455A64"/>
<path d="M295.135 86.2104C295.193 86.2412 295.239 86.4597 295.239 86.6935V86.9058C295.239 87.1427 295.193 87.3119 295.135 87.2842L295.03 87.235V86.152L295.135 86.2104Z" fill="#455A64"/>
<path d="M291.329 85.2105C291.329 85.4628 291.196 85.592 291.021 85.4966C290.925 85.4223 290.847 85.3267 290.793 85.2173C290.74 85.1079 290.713 84.9876 290.713 84.8659C290.713 84.6136 290.846 84.4874 291.021 84.5797C291.118 84.6538 291.196 84.7493 291.249 84.8588C291.303 84.9683 291.33 85.0887 291.329 85.2105Z" fill="#455A64"/>
<path d="M291.03 83.8321C290.972 83.7904 290.905 83.7633 290.834 83.753C290.763 83.7428 290.691 83.7497 290.623 83.7732C290.556 83.7968 290.495 83.8362 290.446 83.8882C290.397 83.9402 290.361 84.0033 290.341 84.0721C290.329 84.1126 290.326 84.155 290.331 84.1969C290.337 84.2387 290.35 84.2789 290.372 84.3152C290.427 84.4136 290.51 84.4383 290.544 84.3583C290.557 84.3087 290.581 84.263 290.616 84.2253C290.65 84.1876 290.693 84.1591 290.742 84.1423C290.79 84.1255 290.841 84.121 290.892 84.1292C290.942 84.1373 290.99 84.1579 291.03 84.189C291.277 84.365 291.45 84.6257 291.516 84.9213C291.55 85.0382 291.633 85.1121 291.692 85.0751C291.716 85.0468 291.732 85.0121 291.738 84.975C291.743 84.938 291.738 84.9001 291.723 84.8659C291.623 84.4494 291.378 84.0825 291.03 83.8321Z" fill="#455A64"/>
<path d="M291.03 83.0998C290.945 83.0375 290.847 82.9951 290.743 82.9758C290.64 82.9565 290.533 82.9607 290.431 82.9882C290.329 83.0156 290.235 83.0656 290.155 83.1345C290.075 83.2033 290.011 83.2893 289.969 83.3859C289.954 83.4278 289.949 83.4722 289.953 83.5163C289.957 83.5604 289.971 83.603 289.993 83.6413C290.046 83.7398 290.126 83.7644 290.163 83.6936C290.197 83.6146 290.248 83.5443 290.313 83.488C290.379 83.4316 290.455 83.3907 290.539 83.3682C290.622 83.3458 290.709 83.3423 290.793 83.3582C290.878 83.374 290.958 83.4088 291.027 83.4598C291.45 83.7578 291.756 84.1925 291.895 84.6905C291.932 84.8012 292.012 84.872 292.064 84.8351C292.113 84.8043 292.123 84.7059 292.089 84.6074C291.918 83.9988 291.545 83.4668 291.03 83.0998Z" fill="#455A64"/>
<path d="M264.829 59.5474C264.912 58.932 265.392 58.729 265.97 59.0643L297.701 77.3925C298.042 77.605 298.323 77.9017 298.516 78.254L302.147 76.1587C301.951 75.8077 301.67 75.5123 301.328 75.3003L269.604 56.9814C269.246 56.7993 268.85 56.7043 268.449 56.7043C268.047 56.7043 267.651 56.7993 267.293 56.9814L265.97 57.7413C265.662 57.9436 265.401 58.2094 265.204 58.5209C265.007 58.8324 264.879 59.1824 264.829 59.5474Z" fill="#FFDAC5"/>
<path opacity="0.2" d="M264.829 59.5474C264.912 58.932 265.392 58.729 265.97 59.0643L297.701 77.3925C298.042 77.605 298.323 77.9017 298.516 78.254L302.147 76.1587C301.951 75.8077 301.67 75.5123 301.328 75.3003L269.604 56.9814C269.246 56.7993 268.85 56.7043 268.449 56.7043C268.047 56.7043 267.651 56.7993 267.293 56.9814L265.97 57.7413C265.662 57.9436 265.401 58.2094 265.204 58.5209C265.007 58.8324 264.879 59.1824 264.829 59.5474Z" fill="black"/>
<path d="M228.754 59.0766L197.023 77.3925C196.689 77.6127 196.41 77.9083 196.21 78.2556C196.011 78.6029 195.895 78.9923 195.873 79.3923V150.945C195.873 151.68 196.39 151.982 197.023 151.613L228.754 133.297C229.089 133.077 229.367 132.781 229.567 132.434C229.767 132.086 229.883 131.697 229.905 131.297V59.7412C229.905 59.0058 229.388 58.7074 228.754 59.0766ZM228.246 124.704C228.246 125.319 227.803 125.734 227.256 126.048L198.408 142.703C197.863 143.01 197.417 142.764 197.417 142.13V86.0812C197.436 85.7374 197.536 85.4029 197.708 85.1047C197.88 84.8065 198.12 84.5529 198.408 84.3644L227.256 67.713C227.803 67.4054 228.246 67.6515 228.246 68.2822V124.704Z" fill="#FFDAC5"/>
<path opacity="0.5" d="M228.754 59.0766L197.023 77.3925C196.689 77.6127 196.41 77.9083 196.21 78.2556C196.011 78.6029 195.895 78.9923 195.873 79.3923V150.945C195.873 151.68 196.39 151.982 197.023 151.613L228.754 133.297C229.089 133.077 229.367 132.781 229.567 132.434C229.767 132.086 229.883 131.697 229.905 131.297V59.7412C229.905 59.0058 229.388 58.7074 228.754 59.0766ZM228.246 124.704C228.246 125.319 227.803 125.734 227.256 126.048L198.408 142.703C197.863 143.01 197.417 142.764 197.417 142.13V86.0812C197.436 85.7374 197.536 85.4029 197.708 85.1047C197.88 84.8065 198.12 84.5529 198.408 84.3644L227.256 67.713C227.803 67.4054 228.246 67.6515 228.246 68.2822V124.704Z" fill="black"/>
<path d="M196.882 151.684C196.539 151.828 196.169 151.897 195.797 151.885C195.426 151.872 195.061 151.78 194.728 151.613L193.408 150.85C193.071 150.632 192.791 150.337 192.589 149.989C192.388 149.641 192.273 149.251 192.251 148.85V77.3003C192.258 77.0024 192.326 76.709 192.451 76.4388C192.492 76.3441 192.537 76.2517 192.587 76.1619L196.217 78.2571C196.141 78.3938 196.074 78.5357 196.017 78.6817C195.931 78.9101 195.884 79.1515 195.879 79.3955V150.948C195.873 151.625 196.313 151.933 196.882 151.684Z" fill="#FFDAC5"/>
<path opacity="0.7" d="M196.882 151.684C196.539 151.828 196.169 151.897 195.797 151.885C195.426 151.872 195.061 151.78 194.728 151.613L193.408 150.85C193.071 150.632 192.791 150.337 192.589 149.989C192.388 149.641 192.273 149.251 192.251 148.85V77.3003C192.258 77.0024 192.326 76.709 192.451 76.4388C192.492 76.3441 192.537 76.2517 192.587 76.1619L196.217 78.2571C196.141 78.3938 196.074 78.5357 196.017 78.6817C195.931 78.9101 195.884 79.1515 195.879 79.3955V150.948C195.873 151.625 196.313 151.933 196.882 151.684Z" fill="black"/>
<path d="M213.164 136.158C214.17 135.58 214.986 136.051 214.986 137.21C214.951 137.843 214.769 138.458 214.452 139.007C214.136 139.555 213.694 140.021 213.164 140.367C212.158 140.946 211.343 140.475 211.343 139.315C211.377 138.683 211.559 138.067 211.876 137.519C212.192 136.97 212.634 136.504 213.164 136.158V136.158Z" stroke="#E6E6E6" stroke-width="1.45697" stroke-miterlimit="10"/>
<path d="M212.903 69.7775C213.327 69.5313 213.675 69.7313 213.675 70.2236C213.66 70.4919 213.582 70.753 213.448 70.9859C213.314 71.2188 213.127 71.4172 212.903 71.565C212.475 71.8112 212.127 71.6112 212.127 71.1158C212.142 70.8475 212.22 70.5864 212.355 70.3538C212.489 70.1213 212.677 69.9238 212.903 69.7775Z" fill="black"/>
<path d="M209.903 74.4818L215.875 71.0328C216.232 70.8297 216.521 70.9743 216.521 71.3589C216.505 71.5761 216.438 71.7865 216.326 71.9731C216.214 72.1596 216.059 72.3171 215.875 72.4327L209.903 75.8786C209.546 76.0848 209.257 75.9402 209.257 75.5525C209.273 75.3358 209.34 75.126 209.452 74.94C209.564 74.754 209.719 74.597 209.903 74.4818Z" fill="black"/>
<path d="M228.246 124.704C228.246 125.319 227.803 125.734 227.256 126.048L198.408 142.702C197.863 143.01 197.417 142.764 197.417 142.13V86.0812C197.436 85.7374 197.536 85.4029 197.708 85.1047C197.88 84.8064 198.12 84.5529 198.408 84.3644L227.256 67.713C227.803 67.4053 228.246 67.6515 228.246 68.2822V124.704Z" fill="#FFDAC5"/>
<path opacity="0.9" d="M228.246 124.704C228.246 125.319 227.803 125.734 227.256 126.048L198.408 142.702C197.863 143.01 197.417 142.764 197.417 142.13V86.0812C197.436 85.7374 197.536 85.4029 197.708 85.1047C197.88 84.8064 198.12 84.5529 198.408 84.3644L227.256 67.713C227.803 67.4053 228.246 67.6515 228.246 68.2822V124.704Z" fill="white"/>
<path d="M220.739 75.1065C220.739 75.3619 220.871 75.488 221.047 75.3926C221.142 75.3205 221.219 75.2275 221.272 75.1208C221.326 75.0141 221.354 74.8966 221.354 74.7773C221.354 74.525 221.222 74.3958 221.047 74.4911C220.952 74.5633 220.875 74.6563 220.821 74.763C220.768 74.8697 220.74 74.9872 220.739 75.1065Z" fill="#455A64"/>
<path d="M220.345 74.768C220.33 74.8022 220.325 74.84 220.33 74.8771C220.336 74.9141 220.351 74.9488 220.376 74.9772C220.434 75.011 220.518 74.9372 220.551 74.8203C220.619 74.5254 220.792 74.2651 221.037 74.088C221.078 74.0569 221.126 74.0364 221.177 74.0284C221.227 74.0204 221.279 74.0252 221.327 74.0423C221.376 74.0595 221.419 74.0884 221.453 74.1264C221.487 74.1645 221.512 74.2105 221.524 74.2603C221.557 74.3372 221.641 74.3157 221.696 74.2142C221.718 74.1775 221.732 74.1367 221.737 74.0943C221.742 74.0519 221.739 74.0089 221.727 73.968C221.707 73.8995 221.671 73.8367 221.621 73.785C221.572 73.7334 221.511 73.6943 221.443 73.6711C221.376 73.6479 221.304 73.6412 221.233 73.6516C221.163 73.6621 221.095 73.6893 221.037 73.7311C220.69 73.9823 220.444 74.3504 220.345 74.768Z" fill="#455A64"/>
<path d="M219.979 74.5096C219.945 74.608 219.954 74.7065 220.004 74.7372C220.056 74.7711 220.136 74.7034 220.173 74.5926C220.313 74.0954 220.619 73.6612 221.041 73.3619C221.11 73.311 221.19 73.2764 221.275 73.2608C221.36 73.2451 221.447 73.2488 221.53 73.2716C221.613 73.2944 221.69 73.3357 221.755 73.3923C221.82 73.449 221.871 73.5196 221.905 73.5988C221.942 73.6665 222.022 73.645 222.074 73.5465C222.096 73.508 222.109 73.4653 222.113 73.4212C222.117 73.3771 222.111 73.3328 222.096 73.2912C222.054 73.1948 221.99 73.1092 221.91 73.0407C221.831 72.9722 221.736 72.9225 221.635 72.8953C221.533 72.8681 221.427 72.8641 221.323 72.8837C221.22 72.9032 221.122 72.9457 221.037 73.0081C220.524 73.3736 220.151 73.9032 219.979 74.5096Z" fill="#455A64"/>
<path d="M199.242 87.7919V87.3366C199.241 87.2896 199.25 87.2429 199.27 87.2003C199.29 87.1576 199.319 87.12 199.356 87.0904L199.39 87.072C199.451 87.035 199.503 87.072 199.503 87.1827V87.6381C199.504 87.6851 199.495 87.7317 199.475 87.7744C199.455 87.817 199.426 87.8546 199.39 87.8842L199.356 87.9027C199.291 87.9396 199.242 87.8904 199.242 87.7919Z" fill="#455A64"/>
<path d="M199.768 87.4872V86.6996C199.767 86.6526 199.777 86.606 199.796 86.5633C199.816 86.5206 199.845 86.4831 199.882 86.4534L199.916 86.435C199.98 86.3981 200.033 86.435 200.033 86.5458V87.3334C200.033 87.3806 200.023 87.4274 200.003 87.4701C199.983 87.5128 199.953 87.5502 199.916 87.5795L199.882 87.598C199.82 87.6349 199.768 87.5857 199.768 87.4872Z" fill="#455A64"/>
<path d="M200.288 87.1827V86.0627C200.288 86.016 200.298 85.9698 200.318 85.9277C200.339 85.8856 200.368 85.8486 200.405 85.8197L200.436 85.8012C200.5 85.7643 200.553 85.8012 200.553 85.912V87.0288C200.553 87.0761 200.543 87.1229 200.523 87.1655C200.503 87.2082 200.473 87.2457 200.436 87.275L200.405 87.2934C200.346 87.3303 200.288 87.2811 200.288 87.1827Z" fill="#455A64"/>
<path d="M200.823 86.8781V84.9459C200.823 84.8994 200.833 84.8534 200.852 84.8113C200.872 84.7692 200.901 84.7321 200.937 84.7028L200.971 84.6844C201.036 84.6475 201.088 84.6844 201.088 84.7951V86.7243C201.089 86.7713 201.079 86.8179 201.06 86.8605C201.04 86.9032 201.011 86.9408 200.974 86.9704L200.94 86.9889C200.876 87.0258 200.823 86.9766 200.823 86.8781Z" fill="#455A64"/>
<path d="M202.251 86.1858C202.251 86.1858 202.251 86.1581 202.251 86.1304V85.8473L201.657 86.1889C201.626 86.2073 201.611 86.1889 201.611 86.155V86.0535C201.609 86.0351 201.609 86.0165 201.611 85.9981L201.632 85.9396L202.248 84.5613C202.257 84.542 202.267 84.5235 202.279 84.5059C202.291 84.4932 202.304 84.4819 202.319 84.472L202.402 84.4259C202.426 84.4095 202.445 84.4095 202.457 84.4259C202.465 84.4457 202.465 84.4676 202.457 84.4874V85.4751L202.589 85.4012C202.614 85.3858 202.629 85.3827 202.642 85.4012C202.654 85.4197 202.642 85.4289 202.642 85.4597V85.5274C202.647 85.5517 202.647 85.5769 202.642 85.6012C202.629 85.622 202.611 85.639 202.589 85.6504L202.457 85.7273V86.0073C202.46 86.0331 202.454 86.059 202.442 86.0816C202.429 86.1041 202.41 86.1222 202.386 86.1335L202.288 86.1889C202.279 86.1889 202.26 86.1919 202.251 86.1858ZM202.272 85.5704V84.8628L201.845 85.8166L202.272 85.5704Z" fill="#455A64"/>
<path d="M202.952 85.6074C202.835 85.5212 202.78 85.3366 202.78 85.0536C202.776 84.7921 202.835 84.5336 202.952 84.2998C203.063 84.0864 203.233 83.9092 203.442 83.789C203.516 83.7451 203.595 83.7109 203.678 83.6875C203.739 83.6686 203.803 83.6686 203.863 83.6875C203.865 83.6908 203.866 83.6945 203.866 83.6983C203.866 83.7021 203.865 83.7058 203.863 83.709C203.865 83.7202 203.865 83.7317 203.863 83.7429L203.808 83.8967C203.808 83.9183 203.808 83.9306 203.786 83.9336H203.762C203.653 83.9232 203.545 83.9503 203.454 84.0106C203.311 84.0948 203.195 84.2174 203.119 84.3644C203.034 84.5376 202.993 84.7287 202.999 84.9213C202.999 85.1397 203.039 85.2813 203.115 85.3397C203.192 85.3982 203.303 85.392 203.438 85.3151C203.489 85.2851 203.538 85.2512 203.583 85.2136C203.626 85.1804 203.666 85.1422 203.7 85.0997V84.6413L203.454 84.7828C203.429 84.7982 203.411 84.8013 203.402 84.7828C203.394 84.764 203.394 84.7432 203.402 84.7244V84.6598C203.396 84.6345 203.396 84.6081 203.402 84.5828C203.414 84.562 203.432 84.545 203.454 84.5336L203.848 84.309C203.875 84.2906 203.894 84.2906 203.906 84.309C203.918 84.3275 203.925 84.3429 203.925 84.3798V85.0351C203.927 85.0556 203.927 85.0762 203.925 85.0967C203.919 85.1135 203.911 85.1292 203.9 85.1428C203.777 85.314 203.617 85.4558 203.432 85.5582C203.232 85.6751 203.057 85.6997 202.952 85.6074Z" fill="#455A64"/>
<path d="M225.49 70.8605C225.46 70.8293 225.42 70.8097 225.377 70.8052C225.334 70.8007 225.291 70.8116 225.256 70.8359L223.484 71.8543C223.397 71.9232 223.327 72.0113 223.28 72.1117C223.233 72.212 223.21 72.3219 223.213 72.4327V73.4234C223.208 73.4789 223.215 73.5348 223.232 73.5876C223.249 73.6405 223.277 73.6893 223.314 73.7311C223.34 73.7577 223.373 73.7759 223.41 73.7834C223.458 73.7919 223.507 73.782 223.548 73.7557L225.32 72.7342C225.407 72.6653 225.477 72.5772 225.524 72.4768C225.571 72.3765 225.594 72.2666 225.591 72.1558V71.1651C225.595 71.1101 225.589 71.0548 225.571 71.0025C225.554 70.9502 225.526 70.9019 225.49 70.8605ZM223.379 73.5926C223.35 73.5515 223.337 73.5012 223.342 73.4511V72.4696C223.341 72.3855 223.359 72.3023 223.395 72.2261C223.431 72.1499 223.483 72.0828 223.548 72.0296L225.32 71.0082C225.342 70.9942 225.368 70.9877 225.394 70.9897H225.425C225.454 71.0308 225.467 71.0811 225.462 71.1312V72.1219C225.463 72.2061 225.445 72.2893 225.409 72.3655C225.373 72.4416 225.321 72.5088 225.256 72.5619L223.484 73.5834C223.44 73.6142 223.404 73.6172 223.379 73.5926Z" fill="#455A64"/>
<path d="M224.496 71.6512V72.8266L223.542 73.3773H223.511C223.513 73.364 223.513 73.3506 223.511 73.3373V72.4697C223.511 72.4073 223.525 72.3458 223.552 72.2894C223.578 72.2331 223.617 72.1833 223.665 72.1435L224.496 71.6512Z" fill="#455A64"/>
<path d="M225.68 71.1158C225.745 71.0789 225.797 71.2143 225.797 71.4235V71.6081C225.813 71.7664 225.77 71.925 225.677 72.0542L225.56 72.1311V71.2081L225.68 71.1158Z" fill="#455A64"/>
<path d="M229.895 59.5474C229.812 58.932 229.332 58.7289 228.754 59.0643L197.023 77.3925C196.682 77.605 196.402 77.9017 196.208 78.254L192.578 76.1618C192.773 75.8108 193.055 75.5154 193.396 75.3034L225.12 56.9813C225.478 56.7993 225.873 56.7043 226.274 56.7043C226.675 56.7043 227.071 56.7993 227.428 56.9813L228.754 57.7413C229.062 57.9436 229.323 58.2094 229.52 58.5209C229.717 58.8323 229.845 59.1823 229.895 59.5474Z" fill="#FFDAC5"/>
<path opacity="0.2" d="M229.895 59.5474C229.812 58.932 229.332 58.7289 228.754 59.0643L197.023 77.3925C196.682 77.605 196.402 77.9017 196.208 78.254L192.578 76.1618C192.773 75.8108 193.055 75.5154 193.396 75.3034L225.12 56.9813C225.478 56.7993 225.873 56.7043 226.274 56.7043C226.675 56.7043 227.071 56.7993 227.428 56.9813L228.754 57.7413C229.062 57.9436 229.323 58.2094 229.52 58.5209C229.717 58.8323 229.845 59.1823 229.895 59.5474Z" fill="black"/>
<path d="M288.317 128.337C288.317 128.337 285.028 131.629 280.656 130.371C280.656 130.371 281.972 131.669 285.071 130.798C287.16 130.211 288.317 128.337 288.317 128.337Z" fill="#FFDAC5"/>
<path d="M294.846 108.16C294.846 108.16 296.525 112.498 293.615 115.987C293.615 115.987 295.335 115.31 295.79 112.123C296.089 109.963 294.846 108.16 294.846 108.16Z" fill="#FFDAC5"/>
<path d="M287.975 129.719C291.052 126.553 292.39 122.857 292.421 119.082C292.421 119.082 293.316 121.328 291.92 124.873C290.523 128.417 287.975 129.719 287.975 129.719Z" fill="#FFDAC5"/>
<path d="M203.097 125.141C203.097 125.141 203.057 129.793 207.02 132.029C207.02 132.029 205.174 131.999 203.635 129.18C202.574 127.279 203.097 125.141 203.097 125.141Z" fill="#FFDAC5"/>
<path d="M202.094 127.005C201.41 123.069 202.309 119.023 204.595 115.747C204.595 115.747 202.571 117.067 201.672 120.771C200.774 124.476 202.094 127.005 202.094 127.005Z" fill="#FFDAC5"/>
<path d="M271.01 101.083L272.311 97.1913C268.884 97.8066 267.952 98.2743 266.94 101.108L266.269 103.366L262.164 115.999C261.192 116.255 249.088 119.59 248.667 119.642C248.667 119.642 248.648 119.673 248.636 119.688C244.682 119.941 243.405 120.116 243.405 120.116C244.516 123.021 246.599 124.657 249.476 125.248V125.18V125.202C254.568 124.334 262.921 122.365 265.638 121.464C266.783 121.098 267.272 119.808 267.743 118.732C269.665 114.335 271.675 108.409 272.358 104.843C272.801 102.696 272.152 101.622 271.01 101.083Z" fill="#B16668"/>
<path d="M272.312 97.176C272.312 97.176 268.906 96.6529 267.429 99.7789C266.438 101.89 263.407 110.929 263.407 110.929C263.407 110.929 265.561 113.698 270.278 113.867C270.278 113.867 274.733 103.637 274.484 103.311C274.235 102.985 272.312 97.176 272.312 97.176Z" fill="#37474F"/>
<path d="M271.687 97.1112C270.859 97.1912 268.761 99.9972 268.718 104.772C268.659 111.169 271.795 118.999 272.582 120.688C273.37 122.377 274.902 125.685 277.505 128.14C278.345 128.928 284.08 131.158 287.775 127.005C291.535 122.781 290.941 117.23 290.19 115.492C288.932 112.581 286.708 109.194 286.788 105.363C286.317 102.612 285.415 99.0526 283.36 97.5604C282.514 97.3451 279.85 97.0035 279.33 97.0743L271.687 97.1112Z" fill="#FAFAFA"/>
<path d="M282.517 102.188L281.468 103.505C281.776 105.594 283.36 108.612 285.203 111.021C286.64 112.901 289.563 114.839 290.741 118.159C290.708 117.247 290.529 116.347 290.209 115.492C288.951 112.581 286.726 109.194 286.806 105.363C286.729 104.908 286.637 104.44 286.532 103.945L285.548 103.052L282.517 102.188Z" fill="#EBEBEB"/>
<path d="M283.36 97.5604C285.16 98.0035 286.129 98.9542 287.704 100.754C289.514 102.785 293.206 107.055 293.206 107.055C295.787 111.529 293.467 116.079 291.532 115.332C291.532 115.332 287.169 111.07 284.492 107.84C282.699 105.686 281.785 104.455 281.683 102.083C281.597 100.219 281.929 98.3142 283.36 97.5604Z" fill="#B16668"/>
<path d="M282.419 97.3912C282.419 97.3912 283.972 97.0466 285.994 98.6742C288.015 100.302 292.956 105.68 292.956 105.68C292.956 105.68 293.104 111.375 289.477 113.944C289.477 113.944 284.123 108.572 282.803 106.714C281.885 105.347 281.363 103.752 281.295 102.107C281.227 100.461 281.616 98.8293 282.419 97.3912Z" fill="#37474F"/>
<path d="M281.468 86.6227C281.468 86.6227 280.686 91.3947 280.32 92.1885C280.074 92.6807 279.648 93.0589 279.13 93.2438L279.053 89.9302L281.468 86.6227Z" fill="#263238"/>
<path d="M278.93 79.6969C278.93 79.6969 280.219 79.0477 281.102 79.8692C281.985 80.6907 282.043 83.5151 281.379 87.1734L279.157 87.0565L278.93 79.6969Z" fill="#263238"/>
<path d="M272.113 90.3035C275.478 89.6377 277.667 86.3697 277.001 83.0041C276.335 79.6386 273.067 77.45 269.702 78.1158C266.336 78.7816 264.148 82.0496 264.814 85.4151C265.479 88.7807 268.747 90.9693 272.113 90.3035Z" fill="#263238"/>
<path d="M279.114 80.1799L281.037 78.4139C280.927 78.2821 280.792 78.1739 280.639 78.096C280.486 78.018 280.319 77.9719 280.148 77.9604C279.977 77.9489 279.805 77.9722 279.643 78.029C279.482 78.0858 279.333 78.1749 279.206 78.2908C278.951 78.5333 278.799 78.865 278.782 79.2169C278.765 79.5687 278.884 79.9136 279.114 80.1799Z" fill="#263238"/>
<path d="M267.61 80.5768C267.22 81.2506 265.266 84.0812 265.98 89.3978C266.65 94.4037 268.259 95.579 269.115 95.8436C269.97 96.1082 271.687 95.9574 273.188 95.5359L273.459 97.662C273.459 97.662 272.582 99.0711 273.767 99.8495C274.951 100.628 277.557 100.056 278.16 99.5757C279.579 98.4404 279.363 97.4835 279.363 97.4835L279.056 90.5793C279.056 90.5793 280.123 91.4592 281.499 90.4224C282.797 89.4471 282.856 86.8687 281.76 85.9826C280.665 85.0965 278.908 85.6257 278.668 87.0503C278.668 87.0503 278.622 81.7583 275.616 80.3522C271.767 78.5492 267.61 80.5768 267.61 80.5768Z" fill="#B16668"/>
<path d="M278.323 87.7394C278.493 87.6502 278.782 86.2349 279.616 85.7549C280.382 85.3118 278.936 78.9861 278.93 78.9553C278.843 78.4907 278.367 77.9461 278.056 77.6077C277.586 77.1093 276.997 76.7388 276.345 76.5308C275.448 76.257 274.499 76.2001 273.576 76.3647C272.142 76.5862 270.767 77.1831 269.318 77.1892C267.943 77.1892 266.629 76.657 265.281 76.3893C265.023 76.3083 264.744 76.327 264.5 76.4416C264.374 76.5283 264.276 76.6488 264.217 76.7893C264.047 77.1965 264.032 77.6515 264.173 78.0692C264.321 78.4827 264.528 78.8725 264.789 79.226C264.309 79.0014 263.632 78.983 263.355 79.4322C263.137 79.786 263.272 80.2475 263.472 80.6106C264.315 82.1243 265.813 82.7889 267.389 83.1489C268.051 83.2611 268.72 83.3228 269.392 83.3335C271.09 83.4289 272.721 82.7489 274.287 82.0843C274.717 81.8997 275.557 81.5859 276.028 81.9674C276.613 82.4412 276.585 83.9735 276.76 85.2318C277.028 87.204 277.683 88.084 278.323 87.7394Z" fill="#263238"/>
<path d="M272.899 91.5453L271.185 92.3114C271.231 92.4271 271.299 92.5325 271.386 92.6212C271.474 92.7098 271.578 92.78 271.693 92.8274C271.808 92.8748 271.931 92.8985 272.055 92.8971C272.18 92.8956 272.302 92.8691 272.416 92.8191C272.645 92.7094 272.822 92.5159 272.912 92.2788C273.002 92.0417 272.998 91.779 272.899 91.5453Z" fill="#9A4A4D"/>
<path d="M266.746 87.4565C266.758 87.5809 266.807 87.6989 266.886 87.7958C266.964 87.8928 267.07 87.9643 267.189 88.0016C267.309 88.0389 267.436 88.0403 267.556 88.0055C267.677 87.9708 267.784 87.9015 267.865 87.8063C267.946 87.711 267.997 87.5941 268.012 87.47C268.027 87.3459 268.005 87.2202 267.949 87.1084C267.893 86.9967 267.805 86.9039 267.697 86.8416C267.589 86.7793 267.464 86.7502 267.34 86.7581C267.168 86.7722 267.01 86.8537 266.898 86.9846C266.787 87.1155 266.732 87.2852 266.746 87.4565Z" fill="#263238"/>
<path d="M271.687 87.1518C271.699 87.2762 271.748 87.3942 271.827 87.4911C271.906 87.5881 272.011 87.6596 272.131 87.6969C272.25 87.7342 272.378 87.7356 272.498 87.7008C272.618 87.6661 272.725 87.5968 272.806 87.5016C272.887 87.4064 272.938 87.2894 272.953 87.1653C272.968 87.0412 272.946 86.9155 272.89 86.8037C272.834 86.692 272.746 86.5992 272.638 86.5369C272.53 86.4746 272.405 86.4456 272.281 86.4534C272.196 86.46 272.113 86.4833 272.037 86.5221C271.961 86.5608 271.894 86.6141 271.838 86.6791C271.783 86.744 271.742 86.8192 271.715 86.9003C271.689 86.9814 271.68 87.0669 271.687 87.1518Z" fill="#263238"/>
<path d="M270.013 87.2872L269.899 91.1055L267.89 90.4778L270.013 87.2872Z" fill="#9A4A4D"/>
<path d="M273.188 95.5452C274.45 95.256 276.917 94.1945 277.385 93.2715C277.385 93.2715 277.431 93.8591 276.684 94.7514C275.936 95.6437 273.315 96.5359 273.315 96.5359L273.188 95.5452Z" fill="#9A4A4D"/>
<path d="M266.244 86.1304L267.669 85.515C267.581 85.3244 267.422 85.1752 267.227 85.0984C267.031 85.0216 266.814 85.0231 266.62 85.1027C266.526 85.1441 266.442 85.2039 266.372 85.2784C266.303 85.353 266.249 85.4409 266.214 85.5368C266.179 85.6327 266.163 85.7347 266.168 85.8367C266.174 85.9387 266.199 86.0386 266.244 86.1304Z" fill="#263238"/>
<path d="M272.072 85.2104L273.431 85.9488C273.528 85.7626 273.549 85.5459 273.489 85.3447C273.428 85.1436 273.292 84.974 273.108 84.8719C273.019 84.8232 272.92 84.7933 272.818 84.784C272.717 84.7747 272.614 84.7863 272.517 84.8179C272.42 84.8496 272.331 84.9008 272.254 84.9682C272.177 85.0357 272.115 85.1181 272.072 85.2104Z" fill="#263238"/>
<path d="M231.12 96.5359H220.518C217.986 96.535 215.558 95.5307 213.765 93.7429C211.973 91.955 210.962 89.5296 210.955 86.9979V85.3334C210.95 82.8908 211.916 80.5463 213.639 78.8154C215.362 77.0845 217.703 76.1089 220.145 76.1032H221.874C223.084 76.0995 224.282 76.3344 225.401 76.7943C226.52 77.2541 227.537 77.93 228.394 78.7833C229.251 79.6366 229.932 80.6505 230.397 81.767C230.862 82.8835 231.103 84.0808 231.105 85.2903L231.12 96.5359Z" fill="#263238"/>
<path d="M222.345 97.1328C226.148 96.8467 228.545 98.6097 228.625 102.145C228.668 103.926 227.123 111.018 227.123 111.018L222.345 97.1328Z" fill="#FFA8A7"/>
<path d="M222.345 97.1328C224.28 97.3266 226.416 100.631 228.274 104.88C229.003 106.554 230.335 108.806 228.656 111.938C227.616 113.873 225.474 114.655 225.474 114.655C224.699 117.083 223.58 119.387 222.151 121.498C221.259 124.339 219.636 126.896 217.444 128.913C216.582 129.676 211.318 134.337 207.075 130.74C204.552 128.602 203.672 125.202 203.931 121.993C204.082 120.107 204.5 118.242 205.826 116.892C206.591 116.114 207.297 115.281 207.94 114.4C208.614 111.19 207.841 109.012 207.761 105.169C208.232 102.419 209.398 100.086 211.453 98.5973C212.976 97.995 214.577 97.6147 216.207 97.4682L222.345 97.1328Z" fill="#FFDAC5"/>
<path opacity="0.1" d="M222.281 121.307L222.022 119.236C222.022 119.236 213.099 105.249 212.721 104.855C212.5 104.618 210.358 103.191 208.684 102.086C208.246 103.068 207.936 104.102 207.761 105.163C207.841 108.994 208.614 111.172 207.94 114.393C207.94 114.393 207.481 115.042 206.74 115.895C208.063 116.239 210.22 114.575 210.22 114.575C210.22 114.575 214.527 120.664 216.422 122.827C218.192 124.854 219.25 125.156 220.558 125.067C221.23 123.943 221.766 122.743 222.151 121.491C222.197 121.433 222.237 121.368 222.281 121.307Z" fill="black"/>
<path opacity="0.05" d="M228.656 111.938C228.745 111.769 228.828 111.603 228.902 111.437C227.169 112.766 225.963 111.83 224.511 111.55C223.01 111.261 221.896 113.396 219.087 113.132C215.395 112.775 214.056 110.452 214.056 110.452C214.056 110.452 213.958 114.473 218.533 115.356C221.591 115.947 222.714 114.295 223.56 114.295C223.93 114.295 224.259 114.581 225.474 114.655C225.474 114.655 227.616 113.873 228.656 111.938Z" fill="black"/>
<path d="M227.619 81.0844C228 81.7428 229.895 84.4903 229.203 89.65C228.551 94.5082 226.988 95.2989 226.157 95.5574C225.326 95.8158 223.662 95.665 222.204 95.2497L221.874 98.1726C221.874 98.1726 223.29 100.185 223.01 101.508C222.73 102.831 219.902 102.662 218.13 101.139C217.063 100.202 216.38 98.905 216.21 97.4957L216.518 90.7884C216.518 90.7884 215.481 91.6437 214.146 90.6376C212.887 89.69 212.829 87.1886 213.893 86.3302C214.958 85.4718 216.662 85.9825 216.893 87.364C216.893 87.364 220.191 88.127 223.111 86.7486C226.837 85.001 227.382 82.4689 227.619 81.0844Z" fill="#FFA8A7"/>
<path d="M216.955 89.2072L216.865 86.155C217.28 86.1539 217.679 86.3135 217.979 86.6004C218.278 86.8873 218.455 87.279 218.471 87.6934C218.475 87.8934 218.438 88.092 218.363 88.2773C218.288 88.4627 218.176 88.6311 218.034 88.7723C217.893 88.9136 217.724 89.0249 217.539 89.0996C217.353 89.1743 217.155 89.2109 216.955 89.2072Z" fill="#263238"/>
<path d="M223.625 91.9701L225.287 92.7147C225.242 92.8263 225.176 92.9278 225.091 93.0133C225.007 93.0988 224.906 93.1665 224.795 93.2124C224.684 93.2583 224.565 93.2814 224.445 93.2805C224.325 93.2796 224.206 93.2546 224.096 93.2069C223.873 93.1017 223.699 92.9141 223.611 92.6834C223.523 92.4528 223.528 92.1971 223.625 91.9701Z" fill="#F28F8F"/>
<path d="M228.455 87.8072C228.456 87.8912 228.439 87.9743 228.405 88.0515C228.372 88.1287 228.324 88.1982 228.262 88.2559C228.201 88.3135 228.129 88.358 228.05 88.3867C227.971 88.4154 227.887 88.4275 227.803 88.4225C227.637 88.4084 227.483 88.3289 227.375 88.2014C227.267 88.074 227.214 87.909 227.228 87.7425C227.238 87.5793 227.313 87.427 227.436 87.3191C227.497 87.2657 227.568 87.2248 227.645 87.1987C227.721 87.1727 227.802 87.1619 227.883 87.1672C227.964 87.1724 228.043 87.1936 228.116 87.2293C228.188 87.2651 228.253 87.3148 228.307 87.3757C228.36 87.4366 228.401 87.5073 228.427 87.584C228.453 87.6607 228.464 87.7417 228.459 87.8225L228.455 87.8072Z" fill="#263238"/>
<path d="M223.997 88.1609C223.984 88.2807 223.937 88.394 223.86 88.4869C223.783 88.5798 223.681 88.6482 223.566 88.6835C223.451 88.7188 223.328 88.7196 223.212 88.6857C223.097 88.6517 222.994 88.5846 222.916 88.4927C222.838 88.4007 222.789 88.288 222.775 88.1684C222.76 88.0488 222.781 87.9276 222.835 87.8199C222.889 87.7121 222.973 87.6226 223.078 87.5624C223.182 87.5021 223.302 87.4738 223.422 87.4809C223.505 87.4859 223.586 87.5076 223.661 87.5449C223.735 87.5822 223.801 87.6342 223.855 87.6977C223.909 87.7613 223.949 87.8351 223.974 87.9147C223.998 87.9944 224.006 88.0781 223.997 88.1609Z" fill="#263238"/>
<path d="M225.782 87.7671L225.893 91.4746L227.843 90.8654L225.782 87.7671Z" fill="#F28F8F"/>
<path d="M222.204 95.2375C220.973 94.9575 218.585 93.9268 218.13 93.0315C218.13 93.0315 218.087 93.6038 218.813 94.4683C219.539 95.3329 222.096 96.1852 222.096 96.1852L222.204 95.2375Z" fill="#F28F8F"/>
<path d="M228.652 86.1549L227.271 85.558C227.357 85.3734 227.511 85.229 227.7 85.1546C227.89 85.0801 228.101 85.0814 228.289 85.158C228.38 85.1981 228.462 85.256 228.529 85.3284C228.597 85.4007 228.649 85.486 228.683 85.5791C228.717 85.6722 228.732 85.7712 228.727 85.8702C228.721 85.9691 228.696 86.066 228.652 86.1549Z" fill="#263238"/>
<path d="M220.379 123.983L223.382 118.239C224.379 118.384 225.376 118.522 226.373 118.661C228.357 118.934 235.855 119.854 236.28 119.861C237.107 119.847 237.924 119.67 238.683 119.338C239.87 118.891 240.75 118.178 241.71 117.981C242.155 117.893 242.61 117.872 243.061 117.919C243.63 117.959 243.482 118.264 244.045 118.362C244.207 118.377 244.361 118.438 244.488 118.538C244.704 118.741 244.547 118.864 244.433 119.03C244.312 119.24 244.235 119.472 244.205 119.713C244.162 119.919 243.993 120.621 244.285 120.734C245.704 121.285 245.864 122.097 247.704 123.676C248.584 124.43 249.057 124.974 249.651 125.359C250.024 125.922 250.051 126.282 248.728 127.057C247.848 127.58 246.267 128.595 243.679 127.783C240.861 126.9 239.418 125.322 238.692 125.288C233.541 124.999 223.182 124.571 220.379 123.983Z" fill="#FFA8A7"/>
<path d="M223.382 118.239L215.795 105.8C215.795 105.8 214.549 98.8496 211.457 98.6096C211.457 98.6096 208.626 99.3388 207.98 101.037C207.201 103.092 207.238 105.105 209.561 109.652C211.315 113.098 216.069 119.593 217.97 121.793C218.739 122.682 219.579 123.725 220.379 123.971" fill="#FFA8A7"/>
<path d="M238.784 125.297C239.075 125.371 239.346 125.507 239.578 125.697C240.052 125.612 240.495 125.399 240.858 125.082C242.279 124.045 247.165 126.128 245.962 127.467C245.088 128.439 244.236 128.697 242.842 128.263C240.787 127.636 238.596 126.697 238.784 125.297Z" fill="#B16668"/>
<path d="M243.522 118.092C241.904 118.372 240.224 119.553 239.347 119.91C238.47 120.267 237.566 120.479 238.372 121.251C239.178 122.024 241.141 121.251 242.498 120.771C243.421 120.439 244.587 120.771 245.107 120.987C245.488 121.144 245.285 120.113 245.285 120.113C244.978 119.664 248.796 120.113 248.67 119.67C246.651 119.756 244.827 117.793 243.522 118.092Z" fill="#B16668"/>
</g>
</svg>
