<svg width="137" height="145" viewBox="0 0 137 145" fill="none" xmlns="http://www.w3.org/2000/svg">
<rect width="137" height="145" rx="20" fill="#3B1D2C"/>
<path d="M19.76 29.18C18.764 29.18 17.84 29.054 16.988 28.802C16.136 28.538 15.416 28.184 14.828 27.74L15.53 25.922C16.118 26.342 16.76 26.666 17.456 26.894C18.164 27.122 18.932 27.236 19.76 27.236C20.708 27.236 21.398 27.08 21.83 26.768C22.262 26.444 22.478 26.03 22.478 25.526C22.478 25.106 22.322 24.776 22.01 24.536C21.71 24.296 21.188 24.098 20.444 23.942L18.464 23.528C16.208 23.048 15.08 21.89 15.08 20.054C15.08 19.262 15.29 18.572 15.71 17.984C16.13 17.396 16.712 16.94 17.456 16.616C18.2 16.292 19.058 16.13 20.03 16.13C20.894 16.13 21.704 16.262 22.46 16.526C23.216 16.778 23.846 17.138 24.35 17.606L23.648 19.334C22.652 18.494 21.44 18.074 20.012 18.074C19.184 18.074 18.536 18.248 18.068 18.596C17.6 18.944 17.366 19.4 17.366 19.964C17.366 20.396 17.51 20.744 17.798 21.008C18.086 21.26 18.578 21.458 19.274 21.602L21.236 22.016C22.424 22.268 23.306 22.664 23.882 23.204C24.47 23.744 24.764 24.464 24.764 25.364C24.764 26.12 24.56 26.786 24.152 27.362C23.744 27.938 23.162 28.388 22.406 28.712C21.662 29.024 20.78 29.18 19.76 29.18ZM29.4235 29.18C28.7875 29.18 28.2175 29.06 27.7135 28.82C27.2215 28.568 26.8315 28.232 26.5435 27.812C26.2675 27.392 26.1295 26.918 26.1295 26.39C26.1295 25.742 26.2975 25.232 26.6335 24.86C26.9695 24.476 27.5155 24.2 28.2715 24.032C29.0275 23.864 30.0415 23.78 31.3135 23.78H31.9435V23.402C31.9435 22.802 31.8115 22.37 31.5475 22.106C31.2835 21.842 30.8395 21.71 30.2155 21.71C29.7235 21.71 29.2195 21.788 28.7035 21.944C28.1875 22.088 27.6655 22.316 27.1375 22.628L26.4895 21.098C26.8015 20.882 27.1675 20.696 27.5875 20.54C28.0195 20.372 28.4695 20.246 28.9375 20.162C29.4175 20.066 29.8675 20.018 30.2875 20.018C31.5715 20.018 32.5255 20.318 33.1495 20.918C33.7735 21.506 34.0855 22.424 34.0855 23.672V29H31.9795V27.596C31.7755 28.088 31.4515 28.478 31.0075 28.766C30.5635 29.042 30.0355 29.18 29.4235 29.18ZM29.8915 27.632C30.4795 27.632 30.9655 27.428 31.3495 27.02C31.7455 26.612 31.9435 26.096 31.9435 25.472V25.076H31.3315C30.2035 25.076 29.4175 25.166 28.9735 25.346C28.5415 25.514 28.3255 25.826 28.3255 26.282C28.3255 26.678 28.4635 27.002 28.7395 27.254C29.0155 27.506 29.3995 27.632 29.8915 27.632ZM38.8733 29L35.0573 20.198H37.4513L39.8993 26.354L42.4373 20.198H44.6873L40.8173 29H38.8733ZM45.6295 18.308V16.112H48.1495V18.308H45.6295ZM45.7735 29V20.198H48.0235V29H45.7735ZM50.3614 29V20.198H52.5574V21.566C52.8574 21.062 53.2594 20.678 53.7634 20.414C54.2794 20.15 54.8554 20.018 55.4914 20.018C57.5674 20.018 58.6054 21.224 58.6054 23.636V29H56.3554V23.744C56.3554 23.06 56.2234 22.562 55.9594 22.25C55.7074 21.938 55.3114 21.782 54.7714 21.782C54.1114 21.782 53.5834 21.992 53.1874 22.412C52.8034 22.82 52.6114 23.366 52.6114 24.05V29H50.3614ZM64.9947 32.42C64.1787 32.42 63.4107 32.324 62.6907 32.132C61.9827 31.952 61.3587 31.67 60.8187 31.286L61.4667 29.72C61.9707 30.056 62.5107 30.302 63.0867 30.458C63.6627 30.626 64.2387 30.71 64.8147 30.71C66.4227 30.71 67.2267 29.936 67.2267 28.388V27.182C66.9747 27.674 66.5847 28.064 66.0567 28.352C65.5407 28.64 64.9647 28.784 64.3287 28.784C63.5367 28.784 62.8467 28.604 62.2587 28.244C61.6707 27.872 61.2147 27.356 60.8907 26.696C60.5667 26.036 60.4047 25.268 60.4047 24.392C60.4047 23.516 60.5667 22.754 60.8907 22.106C61.2147 21.446 61.6707 20.936 62.2587 20.576C62.8467 20.204 63.5367 20.018 64.3287 20.018C64.9887 20.018 65.5767 20.168 66.0927 20.468C66.6087 20.756 66.9867 21.146 67.2267 21.638V20.198H69.4227V28.118C69.4227 29.546 69.0447 30.62 68.2887 31.34C67.5327 32.06 66.4347 32.42 64.9947 32.42ZM64.9407 27.074C65.6367 27.074 66.1887 26.834 66.5967 26.354C67.0047 25.874 67.2087 25.22 67.2087 24.392C67.2087 23.564 67.0047 22.916 66.5967 22.448C66.1887 21.968 65.6367 21.728 64.9407 21.728C64.2447 21.728 63.6927 21.968 63.2847 22.448C62.8767 22.916 62.6727 23.564 62.6727 24.392C62.6727 25.22 62.8767 25.874 63.2847 26.354C63.6927 26.834 64.2447 27.074 64.9407 27.074ZM74.976 29.18C74.232 29.18 73.536 29.09 72.888 28.91C72.24 28.73 71.7 28.472 71.268 28.136L71.844 26.66C72.288 26.96 72.786 27.194 73.338 27.362C73.89 27.518 74.442 27.596 74.994 27.596C75.57 27.596 75.996 27.5 76.272 27.308C76.56 27.104 76.704 26.84 76.704 26.516C76.704 26.012 76.332 25.688 75.588 25.544L73.788 25.202C72.264 24.914 71.502 24.122 71.502 22.826C71.502 22.25 71.658 21.752 71.97 21.332C72.294 20.912 72.738 20.588 73.302 20.36C73.866 20.132 74.514 20.018 75.246 20.018C75.87 20.018 76.47 20.108 77.046 20.288C77.622 20.456 78.114 20.714 78.522 21.062L77.91 22.538C77.562 22.25 77.142 22.022 76.65 21.854C76.17 21.686 75.708 21.602 75.264 21.602C74.676 21.602 74.238 21.704 73.95 21.908C73.674 22.112 73.536 22.382 73.536 22.718C73.536 23.246 73.878 23.57 74.562 23.69L76.362 24.032C77.142 24.176 77.73 24.44 78.126 24.824C78.534 25.208 78.738 25.724 78.738 26.372C78.738 27.248 78.396 27.938 77.712 28.442C77.028 28.934 76.116 29.18 74.976 29.18Z" fill="white"/>
<mask id="mask0_25_65" style="mask-type:alpha" maskUnits="userSpaceOnUse" x="0" y="0" width="137" height="145">
<rect width="137" height="145" rx="20" fill="#3B1D2C"/>
</mask>
<g mask="url(#mask0_25_65)">
<path d="M153.023 141.424H47V141.477H153.023V141.424Z" fill="#EBEBEB"/>
<path d="M70.6771 143.203H63.6541V143.256H70.6771V143.203Z" fill="#EBEBEB"/>
<path d="M81.6696 144.732H75.2722V144.785H81.6696V144.732Z" fill="#EBEBEB"/>
<path d="M106.443 143.176H100.012V143.229H106.443V143.176Z" fill="#EBEBEB"/>
<path d="M122.652 143.176H107.363V143.229H122.652V143.176Z" fill="#EBEBEB"/>
<path d="M97.255 131.967H56.311C55.9902 131.966 55.6828 131.838 55.4562 131.611C55.2296 131.384 55.1023 131.077 55.1023 130.756V73.2002C55.1051 72.8813 55.2336 72.5763 55.4599 72.3516C55.6862 72.1269 55.992 72.0005 56.311 72H97.255C97.5761 72 97.8841 72.1276 98.1112 72.3546C98.3382 72.5817 98.4658 72.8897 98.4658 73.2108V130.756C98.4658 131.077 98.3382 131.385 98.1112 131.612C97.8841 131.839 97.5761 131.967 97.255 131.967ZM56.311 72.0424C56.0043 72.043 55.7103 72.1652 55.4937 72.3823C55.277 72.5993 55.1553 72.8935 55.1553 73.2002V130.756C55.1553 131.063 55.277 131.357 55.4937 131.574C55.7103 131.791 56.0043 131.913 56.311 131.914H97.255C97.5619 131.913 97.856 131.791 98.0731 131.574C98.2901 131.357 98.4122 131.063 98.4128 130.756V73.2002C98.4122 72.8933 98.2901 72.5991 98.0731 72.3821C97.856 72.1651 97.5619 72.043 97.255 72.0424H56.311Z" fill="#EBEBEB"/>
<path d="M143.123 131.967H102.177C101.856 131.966 101.548 131.838 101.321 131.611C101.094 131.385 100.966 131.077 100.966 130.756V73.2002C100.969 72.8811 101.098 72.5761 101.325 72.3515C101.551 72.1268 101.857 72.0005 102.177 72H143.123C143.441 72.0011 143.747 72.1277 143.972 72.3524C144.198 72.577 144.327 72.8816 144.329 73.2002V130.756C144.329 131.076 144.202 131.384 143.976 131.611C143.75 131.838 143.443 131.966 143.123 131.967ZM102.177 72.0424C101.87 72.043 101.576 72.1651 101.359 72.3821C101.142 72.5991 101.019 72.8933 101.019 73.2002V130.756C101.019 131.063 101.142 131.357 101.359 131.574C101.576 131.791 101.87 131.913 102.177 131.914H143.123C143.43 131.913 143.724 131.791 143.941 131.574C144.158 131.357 144.28 131.063 144.281 130.756V73.2002C144.28 72.8933 144.158 72.5991 143.941 72.3821C143.724 72.1651 143.43 72.043 143.123 72.0424H102.177Z" fill="#EBEBEB"/>
<path d="M135.491 114.757H127.592V141.424H135.491V114.757Z" fill="#E6E6E6"/>
<path d="M134.179 141.424H135.491V139.024H132.798L134.179 141.424Z" fill="#F0F0F0"/>
<path d="M103.339 114.757H95.4399V141.424H103.339V114.757Z" fill="#E6E6E6"/>
<path d="M135.493 114.757H102.194V140.502H135.493V114.757Z" fill="#F0F0F0"/>
<path d="M134.473 115.898H103.214V122.959H134.473V115.898Z" fill="#E6E6E6"/>
<path d="M120.319 118.093H117.365C116.093 118.093 114.857 117.221 113.973 115.684H123.708C122.828 117.221 121.602 118.093 120.319 118.093Z" fill="#F0F0F0"/>
<path d="M103.508 141.424H102.194V139.024H104.887L103.508 141.424Z" fill="#F0F0F0"/>
<path d="M134.473 124.1H103.214V131.161H134.473V124.1Z" fill="#E6E6E6"/>
<path d="M120.319 126.284H117.365C116.093 126.284 114.857 125.414 113.973 123.875H123.708C122.828 125.423 121.602 126.284 120.319 126.284Z" fill="#F0F0F0"/>
<path d="M134.473 132.302H103.214V139.363H134.473V132.302Z" fill="#E6E6E6"/>
<path d="M120.319 134.494H117.365C116.093 134.494 114.857 133.623 113.973 132.085H123.708C122.828 133.623 121.602 134.494 120.319 134.494Z" fill="#F0F0F0"/>
<path d="M139.09 80.1744H104.98V96.731H139.09V80.1744Z" fill="#F0F0F0"/>
<path d="M140.32 80.1744H105.555V96.731H140.32V80.1744Z" fill="#F5F5F5"/>
<path d="M138.6 95.3548V81.5527H107.276V95.3548H138.6Z" fill="white"/>
<path d="M128.757 108.909C129.372 102.547 129.798 92.2038 129.467 88.7474C129.461 88.6882 129.442 88.6309 129.412 88.5794C129.382 88.5279 129.341 88.4832 129.293 88.4484C129.229 88.4015 129.153 88.3735 129.074 88.3677C128.994 88.3619 128.915 88.3785 128.845 88.4157C128.774 88.4528 128.716 88.509 128.676 88.5778C128.636 88.6466 128.616 88.7252 128.619 88.8047C128.676 90.518 128.744 94.7992 128.379 102.185C128.197 105.86 127.936 108.377 128.116 108.909H128.757Z" fill="#F0F0F0"/>
<path d="M130.519 95.2106C131.922 93.404 134.828 91.9748 137.805 91.7564C138.973 91.6694 134.278 93.9998 132.344 96.3281C130.845 98.1347 129.164 101.112 128.604 102.736C128.933 99.3837 129.113 97.0215 130.519 95.2106Z" fill="#F0F0F0"/>
<path d="M127.578 94.8204C126.125 92.7975 122.771 91.239 119.14 91.063C117.715 90.9951 123.137 93.5354 125.16 96.1394C126.732 98.1602 128.341 101.511 128.786 103.349C128.894 99.5364 129.032 96.8455 127.578 94.8204Z" fill="#F0F0F0"/>
<path d="M130.421 89.2564C131.53 87.7488 133.979 86.5104 136.571 86.2581C137.588 86.1584 133.632 88.1665 132.096 90.1216C130.903 91.6313 129.634 94.1017 129.253 95.4397C129.316 92.6979 129.314 90.7641 130.421 89.2564Z" fill="#F0F0F0"/>
<path d="M128.188 89.566C126.956 87.8505 124.117 86.5337 121.042 86.3853C119.836 86.328 124.435 88.4782 126.132 90.6835C127.463 92.3947 128.829 95.2319 129.204 96.7883C129.302 93.5567 129.418 91.2793 128.188 89.566Z" fill="#F0F0F0"/>
<path d="M129.677 102.013C130.478 100.876 132.279 99.9202 134.202 99.6911C134.957 99.6021 132.048 101.161 130.936 102.63C130.073 103.771 129.168 105.624 128.905 106.623C128.907 104.585 128.877 103.15 129.677 102.013Z" fill="#F0F0F0"/>
<path d="M128.214 101.373C127.518 100.245 125.796 99.2925 123.877 99.0635C123.123 98.9744 125.905 100.524 126.882 101.981C127.639 103.114 128.366 104.95 128.536 105.942C128.744 103.924 128.918 102.501 128.214 101.373Z" fill="#F0F0F0"/>
<path d="M128.496 114.757C130.029 114.757 131.295 114.437 131.382 112.908L131.638 108.483H125.355L125.612 112.908C125.699 114.437 126.965 114.757 128.496 114.757Z" fill="#E6E6E6"/>
<path d="M125.391 109.49H131.607C131.728 109.489 131.845 109.444 131.936 109.363C132.026 109.282 132.083 109.17 132.096 109.049L132.192 108.201C132.199 108.131 132.192 108.062 132.171 107.995C132.149 107.929 132.114 107.868 132.068 107.816C132.022 107.765 131.965 107.723 131.901 107.695C131.838 107.666 131.769 107.652 131.7 107.651H125.298C125.229 107.652 125.16 107.666 125.096 107.695C125.033 107.723 124.976 107.765 124.93 107.816C124.884 107.868 124.849 107.929 124.827 107.995C124.806 108.062 124.799 108.131 124.806 108.201L124.899 109.049C124.913 109.17 124.971 109.282 125.061 109.363C125.152 109.444 125.27 109.49 125.391 109.49Z" fill="#F0F0F0"/>
<path d="M105.366 114.757H101.199L102.433 105.624H105.366V114.757Z" fill="#E6E6E6"/>
<path d="M111.481 114.757H103.585L102.113 104.068H110.012L111.481 114.757Z" fill="#F0F0F0"/>
<path d="M112.535 114.757H104.318L102.849 104.068H111.066L112.535 114.757Z" fill="#F5F5F5"/>
<path d="M105.043 113.915L103.805 104.91H110.338L111.577 113.915H105.043Z" fill="white"/>
<path d="M108.727 111.837H107.17C107.035 111.837 106.904 111.789 106.802 111.7C106.7 111.611 106.633 111.488 106.615 111.354L106.102 107.624C106.09 107.544 106.096 107.464 106.119 107.387C106.141 107.31 106.18 107.239 106.233 107.179C106.286 107.119 106.352 107.071 106.425 107.038C106.498 107.005 106.577 106.988 106.657 106.988H108.214C108.349 106.988 108.48 107.037 108.582 107.126C108.684 107.215 108.75 107.337 108.769 107.471L109.282 111.201C109.293 111.28 109.287 111.361 109.264 111.438C109.241 111.514 109.202 111.585 109.149 111.646C109.097 111.706 109.032 111.754 108.959 111.787C108.886 111.82 108.807 111.837 108.727 111.837ZM106.818 111.324C106.83 111.407 106.871 111.484 106.935 111.539C106.998 111.594 107.08 111.625 107.164 111.625H108.72C108.77 111.625 108.819 111.615 108.865 111.594C108.91 111.574 108.951 111.544 108.983 111.506C109.016 111.469 109.04 111.424 109.054 111.376C109.069 111.328 109.073 111.278 109.066 111.229L108.553 107.501C108.541 107.417 108.5 107.341 108.436 107.286C108.373 107.23 108.291 107.2 108.207 107.2H106.651C106.601 107.199 106.552 107.21 106.506 107.23C106.461 107.251 106.42 107.281 106.388 107.318C106.355 107.355 106.33 107.399 106.316 107.447C106.301 107.495 106.298 107.545 106.305 107.594L106.818 111.324Z" fill="#F5F5F5"/>
<path d="M91.8478 79.6866H60.3844V112.889H91.8478V79.6866Z" fill="#E6E6E6"/>
<path d="M95.2215 78.6116H58.3487C58.3076 78.6116 58.2669 78.6197 58.229 78.6355C58.191 78.6513 58.1565 78.6744 58.1276 78.7036C58.0986 78.7328 58.0757 78.7674 58.0601 78.8055C58.0446 78.8435 58.0367 78.8843 58.037 78.9254C58.037 79.0081 58.0699 79.0874 58.1283 79.1458C58.1868 79.2043 58.2661 79.2371 58.3487 79.2371H95.2215C95.3042 79.2371 95.3834 79.2043 95.4419 79.1458C95.5004 79.0874 95.5332 79.0081 95.5332 78.9254C95.5335 78.8843 95.5256 78.8435 95.5101 78.8055C95.4945 78.7674 95.4716 78.7328 95.4427 78.7036C95.4137 78.6744 95.3792 78.6513 95.3413 78.6355C95.3033 78.6197 95.2626 78.6116 95.2215 78.6116Z" fill="#E6E6E6"/>
<path d="M93.1858 79.6866H61.0099V112.889H93.1858V79.6866Z" fill="#F0F0F0"/>
<path d="M91.3156 111.021V81.5569H62.878V111.021H91.3156Z" fill="#FAFAFA"/>
<path d="M69.3327 111.021L80.304 81.5548H85.4822L74.513 111.021H69.3327Z" fill="white"/>
<path d="M75.6241 111.021L86.5954 81.5548H88.6141L77.6428 111.021H75.6241Z" fill="white"/>
<path d="M91.3156 111.019V81.5548H91.0781V111.019H91.3156Z" fill="#E6E6E6"/>
<g opacity="0.6">
<path opacity="0.6" d="M62.1062 125.663H58.1558L58.7813 78.054H62.7338L62.1062 125.663Z" fill="#F0F0F0"/>
<path opacity="0.6" d="M63.6456 125.663H60.5667L61.1944 78.054H64.2712L63.6456 125.663Z" fill="#E6E6E6"/>
<path opacity="0.6" d="M66.0566 125.663H62.1062L62.7338 78.054H66.6843L66.0566 125.663Z" fill="#F0F0F0"/>
<path opacity="0.6" d="M67.5961 125.663H64.5172L65.1448 78.054H68.2237L67.5961 125.663Z" fill="#E6E6E6"/>
<path opacity="0.6" d="M70.007 125.663H66.0566L66.6843 78.054H70.6347L70.007 125.663Z" fill="#F0F0F0"/>
</g>
<g opacity="0.6">
<path opacity="0.6" d="M92.5327 125.663H94.7656L95.0645 78.054H92.8317L92.5327 125.663Z" fill="#F0F0F0"/>
<path opacity="0.6" d="M91.6633 125.663H93.4021L93.7032 78.054H91.9623L91.6633 125.663Z" fill="#E6E6E6"/>
<path opacity="0.6" d="M90.2999 125.663H92.5327L92.8317 78.054H90.5989L90.2999 125.663Z" fill="#F0F0F0"/>
<path opacity="0.6" d="M89.4305 125.663H91.1693L91.4704 78.054H89.7295L89.4305 125.663Z" fill="#E6E6E6"/>
<path opacity="0.6" d="M88.067 125.663H90.2999L90.5989 78.054H88.366L88.067 125.663Z" fill="#F0F0F0"/>
</g>
<path d="M107.353 85.5263C106.08 83.8045 106.375 82.3011 107.353 81.2197C108.572 79.8626 110.563 79.8732 111.89 80.5666C113.969 81.6501 114.416 86.3979 110.945 87.0679C109.713 86.6379 108.513 86.1228 107.353 85.5263Z" fill="#263238"/>
<path d="M111.485 80.8656C112.758 80.1171 112.404 78.6646 113.553 77.897C115.152 76.8368 118.597 77.2969 117.52 79.9475C116.443 82.5981 120.277 82.7507 119.164 85.3844C118.05 88.018 114.817 89.6253 113.985 85.8085C113.364 82.9479 116.004 79.2626 113.873 79.6591C112.544 79.9051 112.1 81.2728 112.1 81.2728L111.485 80.8656Z" fill="#263238"/>
<path d="M108.324 92.0914C108.15 92.5727 107.961 93.0095 107.76 93.4612C107.558 93.9129 107.336 94.3476 107.102 94.7822C106.633 95.6945 106.043 96.5396 105.349 97.295C105.15 97.5065 104.932 97.6989 104.698 97.8696C104.466 98.0342 104.219 98.1762 103.96 98.2937C103.483 98.5072 102.986 98.672 102.476 98.7857C101.509 99.0089 100.52 99.1163 99.5282 99.1059C99.4169 99.104 99.31 99.062 99.2274 98.9874C99.1448 98.9128 99.092 98.8109 99.0788 98.7004C99.0656 98.5899 99.0929 98.4783 99.1556 98.3864C99.2184 98.2945 99.3123 98.2284 99.42 98.2004H99.4412C100.328 97.993 101.202 97.7303 102.056 97.4137C102.457 97.2641 102.846 97.0819 103.218 96.8688C103.383 96.7738 103.541 96.6653 103.689 96.5444C103.831 96.4248 103.963 96.2928 104.083 96.1499C104.356 95.8272 104.602 95.4825 104.819 95.1194C105.048 94.7441 105.268 94.356 105.472 93.951C105.875 93.1495 106.256 92.2928 106.585 91.4701V91.4574C106.672 91.2287 106.847 91.0441 107.07 90.9441C107.293 90.8441 107.547 90.8369 107.776 90.9241C108.004 91.0112 108.189 91.1856 108.289 91.4089C108.389 91.6322 108.396 91.8861 108.309 92.1147L108.324 92.0914Z" fill="#B55B52"/>
<path d="M108.048 90.5222C106.297 90.7216 105.332 93.3488 105.332 93.3488L107.126 95.8764C107.126 95.8764 109.246 93.4739 109.431 92.401C109.615 91.2962 109.342 90.3717 108.048 90.5222Z" fill="#263238"/>
<path opacity="0.2" d="M107.09 92.1296C107.677 91.7607 108.317 91.9642 108.862 92.6491C108.975 92.8457 109.051 93.0613 109.085 93.2853C108.555 94.2459 107.124 95.8744 107.124 95.8744L106.303 94.7187C106.242 94.0359 106.71 92.3565 107.09 92.1296Z" fill="black"/>
<path d="M99.8483 98.2938L98.5273 97.5813L98.4912 99.3031C98.4912 99.3031 99.3734 99.494 99.9565 99.0232L99.8483 98.2938Z" fill="#B55B52"/>
<path d="M97.202 97.6407L97.4332 99.0465L98.4997 99.3031L98.5358 97.5813L97.202 97.6407Z" fill="#B55B52"/>
<path d="M103.86 94.5426L102.702 93.5927L94.8144 105.444L95.9827 106.394C97.3144 107.484 100.158 105.715 102.344 102.441C104.53 99.1674 105.192 95.6325 103.86 94.5426Z" fill="#FFDAC5"/>
<path opacity="0.1" d="M103.86 94.5426L102.702 93.5927L94.8144 105.444L95.9827 106.394C97.3144 107.484 100.158 105.715 102.344 102.441C104.53 99.1674 105.192 95.6325 103.86 94.5426Z" fill="black"/>
<path d="M101.376 101.174C103.48 97.8479 104.015 94.4103 102.57 93.4962C101.125 92.582 98.2477 94.5375 96.1433 97.8637C94.0388 101.19 93.5042 104.628 94.9491 105.542C96.3941 106.456 99.2713 104.5 101.376 101.174Z" fill="#FFDAC5"/>
<path d="M97.2953 101.462L98.3555 99.8628C98.2478 99.535 98.2427 99.1822 98.3407 98.8513C98.4621 98.4343 98.6504 98.0397 98.8984 97.683C99.122 97.3226 99.4146 97.0098 99.7593 96.7627C100.054 96.5676 100.306 96.521 100.512 96.6227L100.771 96.2368L100.996 96.4213L100.741 96.8093C100.81 96.9173 100.856 97.0384 100.877 97.1649C100.897 97.2915 100.891 97.4209 100.86 97.5451C100.777 97.9193 100.634 98.2775 100.436 98.6054L99.9586 98.4103C100.107 98.1841 100.181 97.9172 100.171 97.6469L99.1762 99.1312C99.3131 99.4676 99.3412 99.8383 99.2567 100.191C98.9865 101.039 98.4698 101.787 97.7724 102.34C97.4501 102.563 97.1638 102.627 96.9136 102.532L96.6571 102.918L96.4323 102.734L96.6761 102.367C96.6002 102.241 96.5514 102.1 96.5328 101.954C96.5141 101.808 96.5261 101.66 96.568 101.519C96.6827 101.046 96.8716 100.594 97.1278 100.181L97.6155 100.414C97.5075 100.605 97.4207 100.807 97.3568 101.016C97.3107 101.16 97.2899 101.311 97.2953 101.462ZM99.9629 97.4455C99.8446 97.4571 99.7332 97.5061 99.6448 97.5854C99.3988 97.7889 99.2169 98.0591 99.121 98.3636C99.0773 98.4932 99.0649 98.6313 99.085 98.7665L99.9629 97.4455ZM97.4862 101.686C97.5513 101.696 97.6179 101.692 97.681 101.672C97.7441 101.653 97.8021 101.62 97.8509 101.576C98.1541 101.34 98.3764 101.015 98.487 100.647C98.5294 100.5 98.5257 100.343 98.4764 100.198L97.4862 101.686Z" fill="white"/>
<path opacity="0.1" d="M102.355 97.5261C102.512 96.487 102.355 95.6537 101.863 95.2444C100.779 94.356 98.47 95.7979 96.6867 98.4633C95.9371 99.5611 95.3839 100.781 95.0518 102.068C95.2342 100.851 95.8385 99.3518 96.7949 97.912C98.5697 95.2466 100.887 93.8068 101.971 94.6931C102.556 95.1702 102.662 96.2326 102.355 97.5261Z" fill="black"/>
<path d="M117.728 137.058L115.947 137.228L115.039 133.078L116.821 132.908L117.728 137.058Z" fill="#B55B52"/>
<path d="M127.65 134.492L125.994 135.141L124.397 131.206L126.053 130.557L127.65 134.492Z" fill="#B55B52"/>
<path d="M125.512 134.327L127.327 133.423C127.359 133.408 127.394 133.404 127.428 133.413C127.462 133.421 127.492 133.442 127.512 133.47L128.432 134.804C128.456 134.838 128.471 134.878 128.478 134.919C128.485 134.96 128.483 135.002 128.472 135.042C128.461 135.082 128.442 135.12 128.415 135.152C128.388 135.184 128.355 135.21 128.318 135.228C127.682 135.533 127.402 135.684 126.602 136.076C126.11 136.32 125.014 136.895 124.335 137.232C123.657 137.569 123.288 136.916 123.54 136.714C124.671 135.813 125.044 135.133 125.292 134.562C125.335 134.46 125.414 134.377 125.512 134.327Z" fill="#263238"/>
<path d="M115.599 136.303H117.741C117.779 136.303 117.816 136.316 117.847 136.339C117.877 136.363 117.899 136.395 117.908 136.432L118.375 138.129C118.387 138.169 118.389 138.211 118.381 138.252C118.373 138.293 118.356 138.332 118.331 138.365C118.305 138.398 118.272 138.424 118.235 138.442C118.197 138.46 118.156 138.469 118.114 138.468C117.365 138.455 117.007 138.468 116.066 138.468H113.19C112.408 138.468 112.236 137.675 112.554 137.605C114.007 137.283 114.844 136.84 115.292 136.418C115.375 136.341 115.486 136.3 115.599 136.303Z" fill="#263238"/>
<path opacity="0.2" d="M115.041 133.08L115.508 135.217H117.327L116.823 132.908L115.041 133.08Z" fill="black"/>
<path opacity="0.2" d="M126.053 130.559L124.397 131.208L125.222 133.235L126.876 132.586L126.053 130.559Z" fill="black"/>
<path d="M113.485 88.7305C114.902 88.5672 115.818 89.2415 115.881 90.6559C116.068 95.6411 116.619 96.7883 117.452 99.3668L110.389 101.332C107.879 95.8956 106.996 93.3319 106.717 92.1254C106.658 91.845 106.694 91.5532 106.817 91.2947C106.94 91.0362 107.145 90.8252 107.399 90.6941C109.279 89.6468 111.347 88.9796 113.485 88.7305Z" fill="#263238"/>
<path d="M111.337 85.3885C111.422 86.4763 111.704 88.3572 112.609 88.8555C112.609 88.8555 112.476 89.5277 110.135 91.769C108.691 90.5519 109.429 89.7355 109.429 89.7355C110.504 89.1397 110.251 88.3636 109.827 87.615L111.337 85.3885Z" fill="#B55B52"/>
<path opacity="0.2" d="M111.174 85.6324C111.328 86.2507 111.35 86.8946 111.237 87.5218C111.157 87.9459 110.695 88.2682 110.177 88.4527C110.107 88.1581 109.991 87.8762 109.834 87.6172L111.174 85.6324Z" fill="black"/>
<path d="M111.753 83.3339C112.098 85.0918 112.283 85.8276 111.642 86.9387C110.678 88.6181 108.443 88.6605 107.577 87.0405C106.799 85.5837 106.362 82.9543 107.876 81.822C108.209 81.5711 108.601 81.4095 109.014 81.3526C109.427 81.2957 109.848 81.3453 110.236 81.4968C110.625 81.6483 110.968 81.8967 111.233 82.2182C111.499 82.5397 111.677 82.9238 111.753 83.3339Z" fill="#B55B52"/>
<path d="M112.671 84.4047C112.697 84.5742 112.689 84.7471 112.647 84.9135C112.606 85.0798 112.531 85.2363 112.429 85.3738C112.153 85.7406 111.738 85.5625 111.581 85.1617C111.441 84.797 111.413 84.1651 111.804 83.9446C111.889 83.8977 111.985 83.8729 112.082 83.8722C112.179 83.8715 112.275 83.8951 112.361 83.9407C112.447 83.9863 112.521 84.0526 112.575 84.1336C112.629 84.2146 112.662 84.3078 112.671 84.4047Z" fill="#B55B52"/>
<path d="M110.211 82.403C110.145 83.0752 110.684 84.2245 111.695 84.4917C112.743 83.2872 112.052 81.6354 111.089 81.6015C110.126 81.5675 110.211 82.403 110.211 82.403Z" fill="#263238"/>
<path d="M108.799 80.5709C107.253 80.6409 105.595 81.33 106.169 83.7516C107.518 83.4696 111.271 83.0497 111.56 82.087C111.18 80.8508 109.812 80.5243 108.799 80.5709Z" fill="#263238"/>
<path d="M110.389 101.332C110.389 101.332 109.978 115.599 111.125 120.983C112.315 126.585 115.001 134.592 115.001 134.592L117.525 134.429C117.525 134.429 115.894 123.96 115.404 119.641C114.713 113.686 115.572 99.8884 115.572 99.8884L110.389 101.332Z" fill="#FFDAC5"/>
<path opacity="0.2" d="M113.943 105.794C114.058 104.5 115.033 104.748 115.251 106.5C115.156 109.256 115.088 112.456 115.143 115.257C114.092 113.203 113.682 108.737 113.943 105.794Z" fill="black"/>
<path d="M117.845 134.592L114.806 134.797L114.384 133.373L117.673 133.025L117.845 134.592Z" fill="#263238"/>
<path d="M112.881 100.639C112.881 100.639 115.031 112.598 117.951 119.034C120.309 124.231 124.581 132.605 124.581 132.605L126.899 131.738C126.899 131.738 123.275 122.232 121.965 118.576C118.701 109.458 120.48 103.924 117.452 99.3667L112.881 100.639Z" fill="#FFDAC5"/>
<path d="M127.173 131.958L124.499 132.889L123.737 131.519L126.92 130.73L127.173 131.958Z" fill="#263238"/>
<path d="M117.442 98.9299L117.938 99.4749C117.976 99.5173 117.938 99.583 117.849 99.6042L110.442 101.667C110.379 101.684 110.317 101.667 110.302 101.629L110.063 101.014C110.046 100.972 110.09 100.919 110.16 100.9L117.312 98.9087C117.334 98.9004 117.357 98.898 117.38 98.9017C117.403 98.9055 117.424 98.9152 117.442 98.9299Z" fill="#263238"/>
<path d="M116.704 99.9901L116.897 99.935C116.935 99.9244 116.958 99.8968 116.948 99.8735L116.63 99.0783C116.63 99.055 116.583 99.0444 116.545 99.055L116.352 99.108C116.314 99.108 116.29 99.1462 116.299 99.1695L116.619 99.9668C116.628 99.9901 116.666 100.001 116.704 99.9901Z" fill="#FFDAC5"/>
<path d="M111 101.576L111.193 101.523C111.229 101.523 111.254 101.485 111.244 101.462L110.926 100.666C110.926 100.643 110.877 100.633 110.839 100.643L110.648 100.696C110.61 100.696 110.586 100.734 110.595 100.758L110.913 101.555C110.924 101.578 110.962 101.587 111 101.576Z" fill="#FFDAC5"/>
<path d="M113.852 100.783L114.045 100.73C114.083 100.72 114.106 100.692 114.096 100.669L113.778 99.8714C113.778 99.8481 113.729 99.8375 113.691 99.8481L113.5 99.9011C113.462 99.9011 113.438 99.9414 113.447 99.9647L113.767 100.76C113.776 100.783 113.814 100.794 113.852 100.783Z" fill="#FFDAC5"/>
<path d="M109.255 84.5107C109.291 84.6528 109.255 84.7864 109.155 84.8097C109.055 84.833 108.958 84.7397 108.922 84.5977C108.886 84.4556 108.922 84.3241 109.021 84.2987C109.121 84.2732 109.219 84.3644 109.255 84.5107Z" fill="#263238"/>
<path d="M107.662 84.922C107.7 85.062 107.662 85.1956 107.563 85.221C107.463 85.2465 107.365 85.1489 107.329 85.009C107.293 84.869 107.329 84.7333 107.429 84.71C107.529 84.6867 107.626 84.78 107.662 84.922Z" fill="#263238"/>
<path d="M107.471 84.708L107.109 84.6974C107.109 84.6974 107.351 84.9179 107.471 84.708Z" fill="#263238"/>
<path d="M108.148 85.0536C108.106 85.4077 108.016 85.7544 107.881 86.0841C107.966 86.1167 108.057 86.1302 108.148 86.1236C108.239 86.117 108.327 86.0905 108.407 86.046L108.148 85.0536Z" fill="#A02724"/>
<path d="M109.03 86.4722C109.022 86.4708 109.014 86.467 109.008 86.4614C109.002 86.4557 108.998 86.4484 108.996 86.4404C108.994 86.4351 108.994 86.4295 108.995 86.4241C108.995 86.4186 108.997 86.4133 109 86.4085C109.003 86.4037 109.006 86.3996 109.011 86.3963C109.015 86.393 109.02 86.3907 109.026 86.3895C109.202 86.3477 109.366 86.2649 109.504 86.1477C109.642 86.0305 109.751 85.8823 109.821 85.7152C109.823 85.7097 109.825 85.7045 109.829 85.7001C109.833 85.6957 109.837 85.6921 109.843 85.6895C109.848 85.687 109.853 85.6855 109.859 85.6851C109.865 85.6848 109.871 85.6857 109.876 85.6876C109.886 85.6915 109.895 85.699 109.9 85.7088C109.905 85.7186 109.906 85.73 109.904 85.7406C109.831 85.9212 109.715 86.0818 109.568 86.209C109.42 86.3362 109.245 86.4264 109.055 86.4722C109.047 86.4747 109.038 86.4747 109.03 86.4722Z" fill="#263238"/>
<path d="M109.566 83.8746C109.551 83.8726 109.537 83.8659 109.526 83.8555C109.444 83.7865 109.346 83.7383 109.241 83.7147C109.137 83.6911 109.028 83.6928 108.924 83.7198C108.902 83.7265 108.879 83.7245 108.859 83.7142C108.838 83.7039 108.823 83.6861 108.816 83.6646C108.812 83.6541 108.81 83.6428 108.811 83.6315C108.811 83.6203 108.814 83.6092 108.819 83.5991C108.824 83.589 108.831 83.58 108.839 83.5726C108.848 83.5653 108.858 83.5598 108.869 83.5565C109 83.5209 109.138 83.5173 109.271 83.5461C109.404 83.5749 109.527 83.6352 109.632 83.7219C109.646 83.7339 109.656 83.7502 109.661 83.7683C109.665 83.7864 109.663 83.8054 109.656 83.8225C109.648 83.8396 109.636 83.8539 109.62 83.8632C109.604 83.8726 109.585 83.8766 109.566 83.8746Z" fill="#263238"/>
<path d="M106.714 84.3793H106.697C106.687 84.3757 106.677 84.3701 106.669 84.3627C106.66 84.3553 106.653 84.3463 106.648 84.3363C106.644 84.3262 106.641 84.3153 106.64 84.3041C106.639 84.2929 106.641 84.2817 106.644 84.2712C106.686 84.1416 106.758 84.0239 106.854 83.928C106.95 83.832 107.068 83.7607 107.198 83.7198C107.209 83.717 107.22 83.7163 107.231 83.7179C107.242 83.7194 107.253 83.7231 107.263 83.7289C107.272 83.7346 107.281 83.7422 107.288 83.7512C107.294 83.7602 107.299 83.7704 107.302 83.7813C107.307 83.8035 107.303 83.8269 107.291 83.8463C107.279 83.8657 107.26 83.8797 107.238 83.8852C107.137 83.9196 107.046 83.9776 106.973 84.0543C106.899 84.1311 106.845 84.2243 106.814 84.3263C106.807 84.3458 106.793 84.362 106.774 84.3718C106.756 84.3816 106.735 84.3842 106.714 84.3793Z" fill="#263238"/>
<path d="M115.014 92.0681C114.463 93.2047 113.89 94.3201 113.286 95.4291C112.985 95.9846 112.684 96.5402 112.363 97.0873C112.043 97.6343 111.727 98.1835 111.348 98.7327C111.261 98.8685 111.153 99.0126 111.051 99.1568L111.013 99.2077L110.994 99.2353L110.962 99.2756C110.917 99.3307 110.873 99.3774 110.828 99.424C110.747 99.5062 110.66 99.582 110.567 99.6509C110.262 99.8742 109.93 100.059 109.579 100.2C108.96 100.45 108.322 100.65 107.671 100.798C106.424 101.086 105.159 101.284 103.884 101.39L103.739 100.486C104.331 100.329 104.933 100.164 105.525 99.9923C106.116 99.8205 106.704 99.6382 107.276 99.4389C107.834 99.2511 108.379 99.0273 108.907 98.7688C109.13 98.6589 109.34 98.5245 109.533 98.368C109.564 98.3418 109.593 98.3127 109.619 98.2811C109.627 98.2716 109.634 98.2617 109.641 98.2514L109.687 98.1793C109.762 98.0627 109.838 97.9524 109.914 97.8209C110.215 97.3142 110.512 96.7713 110.801 96.2285L111.659 94.5809L113.356 91.256L115.014 92.0681Z" fill="#B55B52"/>
<path d="M104.32 100.495L103.071 100.016L103.177 101.778C103.177 101.778 104.159 101.778 104.613 101.173L104.32 100.495Z" fill="#B55B52"/>
<path d="M102.09 100.066L101.823 101.362L103.177 101.778L103.071 100.016L102.09 100.066Z" fill="#B55B52"/>
<path d="M113.477 89.6422C112.779 89.9624 111.969 92.8611 111.969 92.8611L114.991 93.2046C114.991 93.2046 115.576 91.7966 115.457 91.0735C115.279 89.9179 114.272 89.2775 113.477 89.6422Z" fill="#263238"/>
<path d="M124.609 134.844C124.597 134.824 124.588 134.803 124.581 134.781C124.572 134.757 124.568 134.731 124.572 134.706C124.576 134.68 124.586 134.656 124.603 134.636C124.749 134.458 125.398 134.53 125.47 134.539C125.478 134.539 125.486 134.543 125.493 134.548C125.499 134.553 125.504 134.56 125.506 134.569C125.509 134.576 125.509 134.585 125.507 134.593C125.504 134.601 125.5 134.608 125.493 134.613C125.309 134.768 124.965 135.016 124.745 134.952C124.716 134.945 124.689 134.931 124.665 134.913C124.642 134.894 124.623 134.871 124.609 134.844ZM125.358 134.613C125.097 134.592 124.747 134.596 124.668 134.689C124.662 134.699 124.659 134.711 124.659 134.722C124.659 134.734 124.662 134.745 124.668 134.755C124.675 134.782 124.688 134.807 124.706 134.827C124.725 134.848 124.748 134.863 124.774 134.872C124.891 134.906 125.107 134.81 125.362 134.613H125.358Z" fill="#FFDAC5"/>
<path d="M124.768 134.259C124.76 134.243 124.753 134.227 124.749 134.21C124.74 134.177 124.743 134.143 124.756 134.111C124.77 134.08 124.793 134.054 124.823 134.038C124.851 134.02 124.882 134.009 124.915 134.004C124.947 133.999 124.98 134.001 125.012 134.011C125.264 134.079 125.497 134.543 125.508 134.562C125.512 134.569 125.514 134.576 125.514 134.583C125.514 134.591 125.512 134.598 125.508 134.605C125.504 134.611 125.498 134.616 125.491 134.619C125.485 134.622 125.477 134.624 125.47 134.624C125.2 134.589 124.951 134.46 124.768 134.259ZM125.385 134.516C125.298 134.363 125.137 134.132 124.989 134.091C124.969 134.085 124.949 134.083 124.928 134.086C124.908 134.089 124.889 134.097 124.872 134.108C124.825 134.138 124.825 134.166 124.832 134.185C124.863 134.308 125.177 134.479 125.391 134.524L125.385 134.516Z" fill="#FFDAC5"/>
<path d="M114.643 136.655C114.495 136.667 114.346 136.632 114.219 136.555C114.185 136.531 114.158 136.499 114.139 136.462C114.12 136.426 114.11 136.385 114.111 136.343C114.108 136.321 114.111 136.298 114.12 136.277C114.13 136.257 114.145 136.239 114.164 136.227C114.357 136.095 115.086 136.426 115.224 136.494C115.232 136.498 115.239 136.504 115.244 136.512C115.248 136.52 115.25 136.529 115.249 136.538C115.248 136.547 115.244 136.555 115.238 136.562C115.232 136.568 115.224 136.573 115.215 136.575C115.028 136.621 114.836 136.648 114.643 136.655ZM114.301 136.286C114.272 136.284 114.243 136.291 114.217 136.305C114.217 136.305 114.2 136.32 114.202 136.345C114.202 136.373 114.209 136.401 114.222 136.425C114.235 136.45 114.253 136.471 114.276 136.488C114.401 136.583 114.7 136.596 115.082 136.524C114.837 136.405 114.576 136.325 114.308 136.286H114.301Z" fill="#FFDAC5"/>
<path d="M115.226 136.583H115.209C114.967 136.485 114.48 136.093 114.507 135.892C114.507 135.847 114.543 135.792 114.653 135.779C115.078 135.728 115.26 136.502 115.268 136.534C115.27 136.542 115.269 136.55 115.266 136.557C115.264 136.565 115.259 136.571 115.254 136.577C115.245 136.582 115.236 136.584 115.226 136.583ZM114.694 135.858H114.664C114.62 135.858 114.596 135.877 114.592 135.898C114.577 136.015 114.914 136.322 115.16 136.458C115.103 136.273 114.95 135.858 114.694 135.858Z" fill="#FFDAC5"/>
<path d="M109.064 84.2987H108.699C108.699 84.2987 108.943 84.5108 109.064 84.2987Z" fill="#263238"/>
<path d="M109.897 138.47H121.5C121.58 138.47 121.657 138.502 121.713 138.558C121.77 138.615 121.802 138.691 121.802 138.771V139.751H109.598V138.771C109.598 138.692 109.63 138.616 109.686 138.559C109.742 138.503 109.818 138.471 109.897 138.47Z" fill="#263238"/>
<path d="M121.905 142.993H109.702V144.272H121.905V142.993Z" fill="#263238"/>
<path opacity="0.5" d="M121.905 142.993H113.837V144.272H121.905V142.993Z" fill="black"/>
<path d="M115.012 139.749L113.64 148.337C113.628 148.407 113.592 148.472 113.538 148.518C113.484 148.565 113.415 148.591 113.343 148.591H112.671C112.627 148.591 112.584 148.582 112.545 148.563C112.506 148.545 112.471 148.519 112.442 148.486C112.414 148.453 112.393 148.414 112.382 148.372C112.37 148.33 112.367 148.286 112.374 148.243L113.733 139.74L115.012 139.749Z" fill="#263238"/>
<path opacity="0.5" d="M115.012 139.749L114.908 140.402H113.627L113.733 139.749H115.012Z" fill="black"/>
<path d="M110.877 139.749L109.505 148.337C109.493 148.407 109.457 148.472 109.403 148.518C109.349 148.565 109.28 148.591 109.208 148.591H108.536C108.492 148.591 108.45 148.582 108.41 148.563C108.371 148.545 108.336 148.519 108.307 148.486C108.279 148.453 108.259 148.414 108.247 148.372C108.235 148.33 108.232 148.286 108.239 148.243L109.598 139.74L110.877 139.749Z" fill="#263238"/>
<path d="M123.159 148.252L121.802 139.749H120.529L121.895 148.337C121.906 148.407 121.942 148.472 121.996 148.519C122.051 148.565 122.12 148.591 122.192 148.591H122.862C122.904 148.591 122.946 148.582 122.985 148.564C123.024 148.546 123.058 148.52 123.087 148.488C123.115 148.456 123.136 148.419 123.148 148.378C123.16 148.337 123.164 148.294 123.159 148.252Z" fill="#263238"/>
<path opacity="0.5" d="M121.905 140.402L121.802 139.749H120.521L120.625 140.402H121.905Z" fill="black"/>
<path d="M119.024 148.252L117.667 139.749H116.394L117.76 148.337C117.771 148.407 117.807 148.472 117.861 148.519C117.916 148.565 117.985 148.591 118.057 148.591H118.727C118.769 148.591 118.812 148.582 118.85 148.564C118.889 148.546 118.924 148.52 118.952 148.488C118.98 148.456 119.001 148.419 119.013 148.378C119.025 148.337 119.029 148.294 119.024 148.252Z" fill="#263238"/>
<path opacity="0.5" d="M119.024 148.252L117.667 139.749H116.394L117.76 148.337C117.771 148.407 117.807 148.472 117.861 148.519C117.916 148.565 117.985 148.591 118.057 148.591H118.727C118.769 148.591 118.812 148.582 118.85 148.564C118.889 148.546 118.924 148.52 118.952 148.488C118.98 148.456 119.001 148.419 119.013 148.378C119.025 148.337 119.029 148.294 119.024 148.252Z" fill="black"/>
<path opacity="0.5" d="M113.733 138.47H121.5C121.58 138.47 121.657 138.502 121.713 138.558C121.77 138.615 121.802 138.691 121.802 138.771V139.751H113.744V138.479L113.733 138.47Z" fill="black"/>
<path d="M77.9121 147.431L79.6106 144.314L73.5355 138.99L73.0605 147.431H77.9121Z" fill="#FFDAC5"/>
<path opacity="0.1" d="M77.9121 147.431L79.6106 144.314L73.5355 138.99L73.0605 147.431H77.9121Z" fill="black"/>
<path d="M98.8496 111.911C102.257 109.579 105.111 109.818 106.059 110.499C107.007 111.18 103.996 116.349 103.996 116.349C102.87 116.022 101.827 115.457 100.939 114.691C100.051 113.925 99.3387 112.977 98.8496 111.911Z" fill="#FFDAC5"/>
<path opacity="0.2" d="M100.472 114.254C102.391 112.369 104.348 111.765 104.878 112.081C105.408 112.397 103.705 116.031 103.705 116.031C103.705 116.031 101.405 116.362 100.472 114.254Z" fill="black"/>
<path d="M69.2415 119.223L69.0486 119.125C69.5813 118.077 70.208 117.079 70.9209 116.144L71.0927 116.275C70.3887 117.2 69.7692 118.187 69.2415 119.223Z" fill="#FFDAC5"/>
<path d="M68.2322 121.619L68.0201 121.549C68.1813 121.076 68.3637 120.603 68.563 120.145L68.7623 120.232C68.5715 120.681 68.3912 121.148 68.2322 121.619Z" fill="#FFDAC5"/>
<path d="M107.881 127.503C107.881 138.031 99.9543 146.564 88.5123 146.564C77.0703 146.564 67.7954 138.031 67.7954 127.503C67.7954 116.975 77.0703 108.442 88.5123 108.442C99.9543 108.442 107.881 116.975 107.881 127.503Z" fill="#FFDAC5"/>
<path opacity="0.1" d="M85.7515 144.545L84.9224 146.28C85.5217 146.377 86.1303 146.448 86.7481 146.492L85.7515 144.545Z" fill="black"/>
<path d="M84.4961 148.6L86.8795 144.314L79.2565 141.528L78.2811 148.6H84.4961Z" fill="#FFDAC5"/>
<path d="M95.5989 148.6L93.5336 144.314L100.792 141.528L101.273 148.6H95.5989Z" fill="#FFDAC5"/>
<path opacity="0.2" d="M100.813 130.258C100.813 133.108 98.294 135.417 95.196 135.417C92.098 135.417 89.5895 133.108 89.5895 130.258C89.5895 127.408 92.1001 125.099 95.196 125.099C98.2919 125.099 100.813 127.408 100.813 130.258Z" fill="black"/>
<path opacity="0.2" d="M93.3342 131.946C93.8601 131.946 94.2863 131.152 94.2863 130.173C94.2863 129.194 93.8601 128.4 93.3342 128.4C92.8084 128.4 92.3821 129.194 92.3821 130.173C92.3821 131.152 92.8084 131.946 93.3342 131.946Z" fill="black"/>
<path opacity="0.4" d="M86.5254 120.635C86.799 121.468 86.5466 122.378 85.9635 122.664C85.3804 122.95 84.6912 122.505 84.4113 121.672C84.1314 120.838 84.388 119.929 84.9711 119.643C85.5543 119.356 86.2519 119.799 86.5254 120.635Z" fill="black"/>
<path opacity="0.4" d="M101.284 120.673C101.072 121.506 101.333 122.406 101.859 122.679C102.384 122.953 102.978 122.499 103.186 121.663C103.394 120.828 103.137 119.931 102.611 119.657C102.085 119.384 101.496 119.838 101.284 120.673Z" fill="black"/>
<path opacity="0.2" d="M98.4 131.946C98.9258 131.946 99.3521 131.152 99.3521 130.173C99.3521 129.194 98.9258 128.4 98.4 128.4C97.8742 128.4 97.4479 129.194 97.4479 130.173C97.4479 131.152 97.8742 131.946 98.4 131.946Z" fill="black"/>
<path d="M82.4563 111.737C78.7645 108.68 75.4587 108.442 74.3179 108.998C73.1771 109.553 76.1436 115.548 76.1436 115.548C76.1436 115.548 80.1937 115.31 82.4563 111.737Z" fill="#FFDAC5"/>
<path opacity="0.2" d="M80.3782 113.939C78.3532 111.606 76.1648 110.635 75.5266 110.877C74.8883 111.118 76.5062 115.257 76.5062 115.257C76.5062 115.257 79.1144 116.008 80.3782 113.939Z" fill="black"/>
<path opacity="0.4" d="M89.9118 110.1H93.031C93.031 110.1 92.3525 109.354 90.0496 109.127C88.7455 109.021 87.433 109.093 86.148 109.339C86.148 109.339 88.718 109.282 89.9118 110.1Z" fill="black"/>
</g>
</svg>
